<svg width="98" height="60" viewBox="0 0 98 60" fill="none" xmlns="http://www.w3.org/2000/svg">
<g clip-path="url(#clip0_181_5932)">
<path d="M89.4907 9.48145H55.2355C50.8425 9.48145 47.2812 13.0427 47.2812 17.4356V51.691C47.2812 56.0839 50.8425 59.6451 55.2355 59.6451H89.4907C93.8837 59.6451 97.445 56.0839 97.445 51.691V17.4356C97.445 13.0427 93.8837 9.48145 89.4907 9.48145Z" fill="white"/>
<path d="M89.4886 60H55.2336C53.0315 59.9976 50.9202 59.1217 49.3631 57.5646C47.8059 56.0074 46.9301 53.8962 46.9277 51.6941V17.4387C46.9302 15.2366 47.8061 13.1255 49.3632 11.5683C50.9203 10.0112 53.0315 9.13533 55.2336 9.13281H89.4886C91.6907 9.13533 93.8018 10.0112 95.359 11.5683C96.9161 13.1255 97.792 15.2366 97.7945 17.4387V51.6941C97.792 53.8962 96.9162 56.0074 95.3591 57.5646C93.8019 59.1217 91.6907 59.9976 89.4886 60ZM55.2336 9.83629C53.218 9.83861 51.2856 10.6403 49.8604 12.0656C48.4352 13.4908 47.6335 15.4232 47.6311 17.4387V51.6941C47.6335 53.7096 48.4352 55.642 49.8604 57.0672C51.2856 58.4925 53.218 59.2942 55.2336 59.2965H89.4886C91.5042 59.2943 93.4366 58.4926 94.8618 57.0673C96.2871 55.6421 97.0888 53.7097 97.091 51.6941V17.4387C97.0888 15.4231 96.2871 13.4907 94.8618 12.0655C93.4366 10.6402 91.5042 9.83852 89.4886 9.83629H55.2336Z" fill="#61646B"/>
<path d="M73.303 47.0019C73.2097 47.0019 73.1202 46.9649 73.0543 46.8989C72.9883 46.8329 72.9512 46.7435 72.9512 46.6502V22.1584C72.9512 22.0651 72.9883 21.9756 73.0543 21.9097C73.1202 21.8437 73.2097 21.8066 73.303 21.8066C73.3963 21.8066 73.4857 21.8437 73.5517 21.9097C73.6177 21.9756 73.6547 22.0651 73.6547 22.1584V46.6502C73.6547 46.7435 73.6177 46.8329 73.5517 46.8989C73.4857 46.9649 73.3963 47.0019 73.303 47.0019Z" fill="#61646B"/>
<path d="M85.5505 34.7562H61.0587C60.9654 34.7562 60.8759 34.7192 60.81 34.6532C60.744 34.5872 60.707 34.4978 60.707 34.4045C60.707 34.3112 60.744 34.2217 60.81 34.1558C60.8759 34.0898 60.9654 34.0527 61.0587 34.0527H85.5505C85.6438 34.0527 85.7333 34.0898 85.7992 34.1558C85.8652 34.2217 85.9022 34.3112 85.9022 34.4045C85.9022 34.4978 85.8652 34.5872 85.7992 34.6532C85.7333 34.7192 85.6438 34.7562 85.5505 34.7562Z" fill="#61646B"/>
<path d="M58.7275 0.269531H2.20965C1.2471 0.269531 0.466797 1.04984 0.466797 2.01239V48.3404C0.466797 49.3029 1.2471 50.0832 2.20965 50.0832H58.7275C59.69 50.0832 60.4703 49.3029 60.4703 48.3404V2.01239C60.4703 1.04984 59.69 0.269531 58.7275 0.269531Z" fill="#2196F3"/>
<path opacity="0.3" d="M58.7275 0.269531H2.20965C1.2471 0.269531 0.466797 1.04984 0.466797 2.01239V48.3404C0.466797 49.3029 1.2471 50.0832 2.20965 50.0832H58.7275C59.69 50.0832 60.4703 49.3029 60.4703 48.3404V2.01239C60.4703 1.04984 59.69 0.269531 58.7275 0.269531Z" fill="white"/>
<path opacity="0.8" d="M21.3965 20.0401C23.7945 20.0401 25.7384 18.0962 25.7384 15.6983C25.7384 13.3004 23.7945 11.3564 21.3965 11.3564C18.9986 11.3564 17.0547 13.3004 17.0547 15.6983C17.0547 18.0962 18.9986 20.0401 21.3965 20.0401Z" fill="white"/>
<path opacity="0.5" d="M27.375 35.987L39.9616 21.9457C40.7474 21.0688 41.8472 20.5372 43.0225 20.4662C44.1978 20.3951 45.3537 20.7904 46.2394 21.5661L60.4738 34.0289V50.0702H43.2668" fill="white"/>
<path opacity="0.8" d="M43.2644 50.0735L15.9721 25.887C15.1656 25.1723 14.1282 24.7728 13.0507 24.7619C11.9731 24.7511 10.9279 25.1296 10.1072 25.8279L0.466797 34.0322V50.0735" fill="white"/>
<path d="M58.7294 50.3424H2.21194C1.68052 50.3414 1.17116 50.1298 0.795386 49.754C0.419616 49.3783 0.208053 48.8689 0.207031 48.3375V2.00666C0.207681 1.47497 0.419065 0.965211 0.794866 0.58908C1.17067 0.21295 1.68025 0.00111661 2.21194 0H58.7294C59.2615 0.000651365 59.7715 0.212266 60.1478 0.588436C60.524 0.964607 60.7357 1.47463 60.7364 2.00666V48.3347C60.7361 48.8669 60.5245 49.3773 60.1482 49.7537C59.772 50.1301 59.2617 50.3418 58.7294 50.3424ZM2.21194 0.527606C1.82012 0.528536 1.44463 0.684722 1.16774 0.961948C0.890837 1.23917 0.735101 1.61484 0.734636 2.00666V48.3347C0.735473 48.7262 0.891388 49.1015 1.16826 49.3783C1.44512 49.6552 1.82039 49.8111 2.21194 49.812H58.7294C59.1213 49.8116 59.4971 49.6559 59.7744 49.379C60.0517 49.1021 60.2079 48.7265 60.2088 48.3347V2.00666C60.2083 1.6145 60.0522 1.23857 59.7749 0.961304C59.4976 0.684038 59.1216 0.528071 58.7294 0.527606H2.21194Z" fill="#61646B"/>
</g>
<defs>
<clipPath id="clip0_181_5932">
<rect width="98" height="60" fill="white"/>
</clipPath>
</defs>
</svg>
