<svg xmlns="http://www.w3.org/2000/svg" width="31.085" height="31.085" viewBox="0 0 31.085 31.085">
    <g id="Group_2275" transform="translate(-647.02 -475.458)">
        <path id="Path_12002" d="M689.277,508.853a8.859,8.859,0,1,1-8.859-8.859A8.859,8.859,0,0,1,689.277,508.853Z" transform="translate(-17.855 -17.853)" fill="#ceaf32"/>
        <g id="Group_2274" transform="translate(647.02 475.458)">
            <path id="Path_12003" d="M701.894,476.768c0,.723-.587,3.462-1.31,3.462s-1.31-2.739-1.31-3.462a1.31,1.31,0,0,1,2.62,0Z" transform="translate(-685.041 -475.458)" fill="#ceaf32"/>
            <path id="Path_12004" d="M675.59,483.113c.361.626,1.223,3.291.6,3.653s-2.5-1.717-2.865-2.344a1.309,1.309,0,0,1,2.268-1.31Z" transform="translate(-666.03 -480.551)" fill="#ceaf32"/>
            <path id="Path_12005" d="M655.985,501.76c.626.362,2.705,2.239,2.344,2.865s-3.026-.235-3.653-.6a1.309,1.309,0,1,1,1.309-2.268Z" transform="translate(-652.114 -494.468)" fill="#ceaf32"/>
            <path id="Path_12006" d="M648.329,527.713c.723,0,3.462.586,3.462,1.309s-2.739,1.309-3.462,1.309a1.309,1.309,0,1,1,0-2.618Z" transform="translate(-647.02 -513.48)" fill="#ceaf32"/>
            <path id="Path_12007" d="M654.674,552.3c.626-.361,3.292-1.223,3.653-.6s-1.718,2.5-2.344,2.865a1.309,1.309,0,1,1-1.31-2.268Z" transform="translate(-652.113 -530.771)" fill="#ceaf32"/>
            <path id="Path_12008" d="M673.322,569c.362-.626,2.239-2.705,2.865-2.344s-.236,3.027-.6,3.653A1.309,1.309,0,1,1,673.322,569Z" transform="translate(-666.03 -541.783)" fill="#ceaf32"/>
            <path id="Path_12009" d="M699.274,575.525c0-.724.586-3.462,1.31-3.462s1.309,2.739,1.309,3.462a1.31,1.31,0,1,1-2.619,0Z" transform="translate(-685.041 -545.75)" fill="#ceaf32"/>
            <path id="Path_12010" d="M723.858,570.307c-.362-.626-1.223-3.291-.6-3.653s2.5,1.718,2.865,2.344a1.309,1.309,0,1,1-2.267,1.31Z" transform="translate(-702.333 -541.784)" fill="#ceaf32"/>
            <path id="Path_12011" d="M740.559,554.565c-.627-.361-2.7-2.239-2.344-2.865s3.027.236,3.652.6a1.309,1.309,0,1,1-1.309,2.268Z" transform="translate(-713.346 -530.772)" fill="#ceaf32"/>
            <path id="Path_12012" d="M747.087,530.332c-.723,0-3.462-.586-3.462-1.309s2.74-1.31,3.462-1.31a1.309,1.309,0,1,1,0,2.619Z" transform="translate(-717.312 -513.48)" fill="#ceaf32"/>
            <path id="Path_12013" d="M741.869,504.029c-.626.362-3.292,1.223-3.653.6s1.718-2.5,2.344-2.865a1.309,1.309,0,1,1,1.31,2.268Z" transform="translate(-713.346 -494.469)" fill="#ceaf32"/>
            <path id="Path_12014" d="M726.128,484.423c-.362.626-2.239,2.706-2.865,2.344s.236-3.027.6-3.653a1.309,1.309,0,1,1,2.268,1.309Z" transform="translate(-702.335 -480.552)" fill="#ceaf32"/>
        </g>
    </g>
</svg>
