<svg width="45" height="45" viewBox="0 0 45 45" fill="none" xmlns="http://www.w3.org/2000/svg">
<path d="M40.7832 25.7724C42.3843 15.7446 35.5532 6.3174 25.5254 4.71623C15.4975 3.11506 6.07036 9.94622 4.46919 19.974C2.86801 30.0019 9.69917 39.429 19.727 41.0302C29.7548 42.6314 39.182 35.8002 40.7832 25.7724Z" fill="#3C3C3C"/>
<g style="mix-blend-mode:multiply" opacity="0.45">
<path d="M24.006 7.32802C27.3321 7.32738 30.5961 8.22923 33.4501 9.93745C36.3041 11.6457 38.6411 14.0963 40.212 17.028C39.3921 14.6228 38.0825 12.4137 36.366 10.5401C34.6494 8.66639 32.5631 7.16887 30.2388 6.142C27.9144 5.11512 25.4024 4.58117 22.8613 4.57387C20.3202 4.56656 17.8052 5.08606 15.475 6.09955C13.1448 7.11304 11.0499 8.59852 9.32258 10.4623C7.59528 12.326 6.27302 14.5276 5.43928 16.928C4.60555 19.3285 4.27844 21.8756 4.47856 24.4088C4.67868 26.942 5.4017 29.4063 6.602 31.646C5.65891 28.8789 5.38929 25.9268 5.8155 23.0346C6.24172 20.1424 7.35148 17.3936 9.05272 15.0162C10.754 12.6387 12.9976 10.7013 15.5975 9.36455C18.1974 8.02781 21.0786 7.33034 24.002 7.33002L24.006 7.32802Z" fill="#A77E58"/>
</g>
<g style="mix-blend-mode:multiply" opacity="0.5">
<path d="M38.4899 26.5437C40.5167 17.7828 35.0576 9.03761 26.2967 7.01081C17.5358 4.98401 8.79065 10.4431 6.76385 19.204C4.73704 27.9649 10.1961 36.7101 18.957 38.7369C27.7179 40.7637 36.4631 35.3046 38.4899 26.5437Z" stroke="#3C3C3C" stroke-width="0.866" stroke-miterlimit="10"/>
</g>
<g style="mix-blend-mode:multiply" opacity="0.5">
<path d="M22.626 37.34C30.6154 37.34 37.092 30.8634 37.092 22.874C37.092 14.8847 30.6154 8.40802 22.626 8.40802C14.6367 8.40802 8.16003 14.8847 8.16003 22.874C8.16003 30.8634 14.6367 37.34 22.626 37.34Z" fill="#3C3C3C"/>
</g>
<path d="M23.391 25.598H21.861C21.1385 25.598 20.4456 25.311 19.9348 24.8002C19.4239 24.2893 19.137 23.5965 19.137 22.874C19.137 22.1516 19.4239 21.4587 19.9348 20.9479C20.4456 20.437 21.1385 20.15 21.861 20.15H23.391C24.1134 20.15 24.8063 20.437 25.3171 20.9479C25.828 21.4587 26.115 22.1516 26.115 22.874C26.115 23.5965 25.828 24.2893 25.3171 24.8002C24.8063 25.311 24.1134 25.598 23.391 25.598Z" fill="#A77E58"/>
<path d="M15.291 27.073L22.626 25.56V7.83002L15.291 27.073Z" fill="#D8A3A3"/>
<path d="M22.627 7.83002V25.559L29.962 27.072L22.627 7.83002Z" fill="#CC5959"/>
<path d="M22.257 37.893V35.934" stroke="white" stroke-width="0.694" stroke-miterlimit="10" stroke-linecap="round"/>
<path d="M11.629 33.49L13.014 32.105" stroke="white" stroke-width="0.694" stroke-miterlimit="10" stroke-linecap="round"/>
<path d="M7.22601 22.861H9.18501" stroke="white" stroke-width="0.694" stroke-miterlimit="10" stroke-linecap="round"/>
<path d="M11.629 12.233L13.014 13.618" stroke="white" stroke-width="0.694" stroke-miterlimit="10" stroke-linecap="round"/>
<path d="M22.257 7.83002V9.78902" stroke="white" stroke-width="0.694" stroke-miterlimit="10" stroke-linecap="round"/>
<path d="M32.886 12.233L31.501 13.618" stroke="white" stroke-width="0.694" stroke-miterlimit="10" stroke-linecap="round"/>
<path d="M37.289 22.861H35.33" stroke="white" stroke-width="0.694" stroke-miterlimit="10" stroke-linecap="round"/>
<path d="M32.886 33.49L31.501 32.105" stroke="white" stroke-width="0.694" stroke-miterlimit="10" stroke-linecap="round"/>
<path d="M22.626 0.74707C18.2499 0.74707 13.9721 2.04473 10.3335 4.47597C6.69488 6.9072 3.85891 10.3628 2.18425 14.4058C0.509585 18.4488 0.0714189 22.8976 0.925155 27.1896C1.77889 31.4817 3.8862 35.4241 6.98058 38.5185C10.075 41.6129 14.0174 43.7202 18.3094 44.5739C22.6015 45.4277 27.0503 44.9895 31.0933 43.3148C35.1363 41.6402 38.5919 38.8042 41.0231 35.1656C43.4544 31.527 44.752 27.2492 44.752 22.8731C44.752 17.0049 42.4209 11.3771 38.2715 7.22762C34.122 3.07819 28.4942 0.74707 22.626 0.74707ZM25.02 41.0061L22.39 38.8061L20.155 40.9931C16.1668 40.4465 12.47 38.6001 9.63731 35.74C6.80462 32.8798 4.99404 29.1654 4.48601 25.1721L6.61201 22.6281L4.50002 20.4691C5.03245 16.4669 6.87344 12.7532 9.73625 9.90633C12.5991 7.05944 16.323 5.23918 20.328 4.72906L22.395 6.75106L24.831 4.71606C28.8594 5.20602 32.6107 7.02108 35.4949 9.87579C38.3791 12.7305 40.2327 16.4629 40.764 20.4861L38.664 22.6271L40.773 25.1511C40.2682 29.1633 38.4487 32.8952 35.5987 35.764C32.7487 38.6328 29.0288 40.4769 25.02 41.0081V41.0061Z" fill="#F8CB6E"/>
<g style="mix-blend-mode:multiply">
<path d="M12.361 39.2561C10.2906 38.1838 8.54746 36.5733 7.315 34.5941C8.105 35.4391 8.891 36.2661 9.733 37.0381C10.575 37.8101 11.451 38.5391 12.361 39.2561Z" fill="#F8CB6E"/>
<path d="M22.617 42.2341C21.1338 42.3435 19.6426 42.2234 18.196 41.8781C16.7462 41.546 15.3571 40.9897 14.079 40.2291C15.4386 40.7847 16.8386 41.2357 18.267 41.5781C19.6984 41.9057 21.1526 42.125 22.617 42.2341Z" fill="#F8CB6E"/>
<path d="M35.931 36.8441C35.3218 37.5149 34.6523 38.1285 33.931 38.677C33.2071 39.2257 32.4418 39.7175 31.642 40.1481C30.8403 40.5741 30.004 40.9317 29.142 41.2171C28.2831 41.5052 27.3993 41.7131 26.502 41.8381C27.371 41.5931 28.228 41.321 29.062 40.994C29.8957 40.6682 30.71 40.2949 31.501 39.8761C32.2948 39.462 33.0613 38.9977 33.796 38.4861C34.533 37.9801 35.24 37.4251 35.931 36.8441Z" fill="#F8CB6E"/>
<path d="M41.487 26.3461C41.1734 29.3819 39.9369 32.2486 37.944 34.5601C38.7544 33.2993 39.4639 31.9766 40.066 30.6041C40.6525 29.2249 41.1277 27.801 41.487 26.3461Z" fill="#F8CB6E"/>
<path d="M36.773 10.1921C37.6132 11.0278 38.3603 11.9522 39.001 12.9491C40.2973 14.9501 41.1671 17.1968 41.556 19.5491C41.7523 20.7179 41.8217 21.9044 41.763 23.0881C41.7036 21.912 41.5562 20.7421 41.322 19.5881C40.8474 17.2909 39.9952 15.0884 38.8 13.0701C38.1977 12.0611 37.5201 11.099 36.773 10.1921Z" fill="#F8CB6E"/>
<path d="M24.574 4.0351C25.513 4.07158 26.4464 4.19646 27.362 4.4081C28.2795 4.62206 29.1784 4.90932 30.05 5.26711C30.9194 5.62998 31.7558 6.06727 32.55 6.5741C33.3442 7.07653 34.0894 7.65239 34.776 8.2941C34.0198 7.74839 33.2357 7.24237 32.427 6.77809C31.619 6.31953 30.7842 5.91012 29.927 5.55209C29.0727 5.18891 28.1951 4.88323 27.3 4.6371C26.4025 4.38887 25.4925 4.18792 24.574 4.0351Z" fill="#F8CB6E"/>
<path d="M10.539 8.22005C11.3502 7.48487 12.2348 6.83512 13.179 6.28106C15.0738 5.16044 17.1677 4.41742 19.345 4.09305C20.4274 3.9284 21.5238 3.87512 22.617 3.93406C21.5322 3.99336 20.4525 4.12464 19.385 4.32705C17.2585 4.7393 15.2057 5.46773 13.295 6.48806C12.3386 7.00298 11.4178 7.58161 10.539 8.22005Z" fill="#F8CB6E"/>
<path d="M3.57898 20.9931C3.63992 19.8936 3.81486 18.8034 4.10098 17.7401C4.66865 15.5998 5.64678 13.5902 6.98099 11.8231C7.64098 10.9415 8.39028 10.1306 9.21698 9.40308C8.47887 10.2088 7.79601 11.0634 7.173 11.9611C5.93647 13.7551 4.97737 15.7252 4.328 17.8051C4.00619 18.8495 3.75592 19.9146 3.57898 20.9931Z" fill="#F8CB6E"/>
<path d="M6.192 32.9371C5.69587 32.2258 5.2651 31.471 4.90498 30.6821C4.54395 29.8905 4.24311 29.0729 4.00498 28.2361C3.77289 27.3979 3.61001 26.542 3.51798 25.6771C3.42158 24.8138 3.40283 23.9437 3.46198 23.0771C3.52698 23.9391 3.61397 24.7951 3.75297 25.6411C3.89115 26.4863 4.07442 27.3235 4.30198 28.1491C4.52447 28.9762 4.79698 29.789 5.11799 30.5831C5.43799 31.3871 5.803 32.1691 6.192 32.9371Z" fill="#F8CB6E"/>
<path d="M3.26302 29.1291C2.84668 27.9904 2.55204 26.8108 2.38402 25.61C2.03717 23.1969 2.16968 20.739 2.77401 18.3771C3.07392 17.2029 3.49588 16.0634 4.03301 14.9771C3.60748 16.1028 3.26393 17.2578 3.00503 18.4331C2.50142 20.781 2.37113 23.1936 2.61901 25.582C2.74638 26.7786 2.96164 27.9641 3.26302 29.1291Z" fill="#F8CB6E"/>
<path d="M11.153 39.8031C10.274 39.2705 9.44736 38.6561 8.68399 37.9681C7.91983 37.2777 7.21316 36.5262 6.57098 35.7211C5.93251 34.9124 5.36602 34.0495 4.87799 33.1421C4.3892 32.2389 3.98737 31.2913 3.67798 30.3121C4.09651 31.2424 4.56761 32.1482 5.08899 33.0251C5.61185 33.8961 6.18934 34.7331 6.81799 35.5311C7.44256 36.3324 8.12184 37.0896 8.85098 37.7971C9.58003 38.5084 10.3486 39.1782 11.153 39.8031Z" fill="#F8CB6E"/>
<path d="M20.562 43.2501C17.7742 43.1773 15.0627 42.3236 12.736 40.7861C15.2265 41.9441 17.8573 42.7724 20.562 43.2501Z" fill="#F8CB6E"/>
<path d="M36.488 37.8611C35.5969 38.7785 34.6084 39.596 33.54 40.2991C31.3947 41.7203 28.9766 42.6784 26.44 43.1121C25.1789 43.3309 23.8977 43.4117 22.619 43.3531C23.8881 43.2935 25.1506 43.135 26.395 42.8791C28.8767 42.3598 31.2512 41.4199 33.416 40.1001C34.4969 39.4352 35.5241 38.6865 36.488 37.8611Z" fill="#F8CB6E"/>
<path d="M42.859 24.0911C42.8634 25.1964 42.7586 26.2994 42.546 27.3841C42.126 29.5662 41.3047 31.6515 40.124 33.5341C39.5398 34.4724 38.8642 35.3507 38.107 36.1561C38.7687 35.2806 39.3742 34.3641 39.92 33.4121C41.0021 31.5101 41.8085 29.464 42.315 27.3351C42.5648 26.2663 42.7464 25.1828 42.859 24.0911Z" fill="#F8CB6E"/>
<path d="M40.991 14.5161C42.3309 16.9002 42.9824 19.6095 42.873 22.3421C42.7144 21.006 42.4807 19.6799 42.173 18.3701C41.8531 17.0638 41.4585 15.7771 40.991 14.5161Z" fill="#F8CB6E"/>
<path d="M36.013 7.8761C37.4649 8.88087 38.6465 10.2283 39.453 11.7991C38.866 11.1431 38.318 10.4771 37.743 9.82909C37.168 9.18109 36.586 8.5431 36.013 7.8761Z" fill="#F8CB6E"/>
<path d="M24.418 2.89508C25.3017 2.91393 26.182 3.00997 27.049 3.18208C27.918 3.3561 28.7733 3.59306 29.608 3.89108C30.4408 4.19319 31.2484 4.561 32.023 4.99107C32.7979 5.41695 33.534 5.90984 34.223 6.46408C33.466 6.01208 32.701 5.58308 31.914 5.20108C31.1284 4.81902 30.3236 4.47756 29.503 4.17807C28.6853 3.8737 27.8505 3.61728 27.003 3.41008C26.153 3.19908 25.288 3.03608 24.418 2.89508Z" fill="#F8CB6E"/>
<path d="M16.302 3.81809C18.288 2.95292 20.4619 2.60873 22.618 2.81809C21.549 2.94009 20.494 3.0501 19.445 3.2181C18.396 3.3861 17.356 3.60109 16.302 3.81809Z" fill="#F8CB6E"/>
<path d="M5.26202 12.6051C5.77621 11.6419 6.38379 10.7315 7.07602 9.8871C8.46044 8.18503 10.1432 6.74928 12.042 5.6501C12.9853 5.10031 13.9804 4.64478 15.013 4.2901C14.0323 4.75117 13.0815 5.27319 12.166 5.8531C10.3442 7.0162 8.69192 8.42554 7.25604 10.0411C6.53853 10.8533 5.87255 11.7097 5.26202 12.6051Z" fill="#F8CB6E"/>
<path d="M3.67098 32.7061C2.11593 30.1032 1.32702 27.1143 1.39498 24.0831C1.57325 25.5645 1.84986 27.0324 2.22298 28.4771C2.6098 29.9178 3.09357 31.3306 3.67098 32.7061Z" fill="#F8CB6E"/>
<path d="M7.86099 38.3691C6.39331 37.2387 5.22008 35.7708 4.44098 34.0901C5.01998 34.8091 5.56197 35.5351 6.13397 36.2431C6.70597 36.9511 7.28699 37.6461 7.86099 38.3691Z" fill="#F8CB6E"/>
<path d="M16.235 43.3531C13.5275 42.7162 11.0423 41.3597 9.04199 39.4271C10.1618 40.2153 11.3235 40.9424 12.522 41.6051C13.7264 42.2558 14.966 42.8394 16.235 43.3531Z" fill="#F8CB6E"/>
<path d="M22.612 44.327C21.7651 44.4355 20.9078 44.4355 20.061 44.327C19.2123 44.2346 18.379 44.0329 17.582 43.7271C18.433 43.8081 19.262 43.9271 20.098 44.0271C20.934 44.1271 21.767 44.205 22.612 44.327Z" fill="#F8CB6E"/>
<path d="M36.489 39.1711C35.7293 39.9043 34.9035 40.5658 34.022 41.1471C33.1376 41.7284 32.208 42.2377 31.242 42.6701C30.2734 43.0979 29.2697 43.4411 28.242 43.6961C27.2183 43.9545 26.1728 44.1172 25.119 44.1821C26.1518 44.0008 27.1737 43.7621 28.18 43.4671C29.1793 43.169 30.159 42.8082 31.113 42.3871C32.0707 41.9708 32.9989 41.4897 33.891 40.9471C34.7892 40.4036 35.6565 39.8106 36.489 39.1711Z" fill="#F8CB6E"/>
<path d="M41.764 32.2921C40.9544 34.445 39.6172 36.3602 37.875 37.8621C38.575 36.9621 39.275 36.0731 39.917 35.1451C40.559 34.2171 41.162 33.2631 41.764 32.2921Z" fill="#F8CB6E"/>
<path d="M43.855 23.0871C43.9649 24.3223 43.9094 25.5666 43.69 26.7871C43.4842 28.009 43.1142 29.1974 42.59 30.3201C42.89 29.1201 43.179 27.9381 43.384 26.7341C43.589 25.5301 43.736 24.3161 43.855 23.0871Z" fill="#F8CB6E"/>
<path d="M39.454 10.1341C40.0882 10.8624 40.657 11.6451 41.154 12.4731C41.6511 13.3039 42.0856 14.1707 42.454 15.0661C42.8177 15.9638 43.108 16.8895 43.322 17.8341C43.5396 18.7754 43.6734 19.7342 43.722 20.6991C43.551 19.7511 43.351 18.8141 43.092 17.8921C42.8345 16.9724 42.5264 16.0677 42.169 15.1821C41.816 14.2942 41.4085 13.4289 40.949 12.5911C40.5 11.7481 39.99 10.9341 39.454 10.1341Z" fill="#F8CB6E"/>
<path d="M27.554 2.41907C28.5307 2.59133 29.4899 2.85103 30.42 3.19506C31.3504 3.54188 32.253 3.9591 33.12 4.44307C33.986 4.93168 34.8105 5.49054 35.585 6.11406C36.3604 6.73239 37.0789 7.4188 37.732 8.16507C36.993 7.50807 36.232 6.88007 35.441 6.30307C34.6479 5.72615 33.8226 5.19495 32.969 4.71207C32.1178 4.22318 31.2364 3.78897 30.33 3.41206C29.422 3.0346 28.4955 2.70319 27.554 2.41907Z" fill="#F8CB6E"/>
<path d="M5.45502 10.5601C6.39538 9.17636 7.50984 7.91937 8.771 6.82008C11.3039 4.59846 14.3536 3.0478 17.641 2.31008C19.2728 1.94164 20.9451 1.78435 22.617 1.84208C20.9567 1.9028 19.3074 2.13742 17.696 2.54208C14.478 3.36066 11.4818 4.88365 8.92401 7.00108C7.64602 8.06242 6.48328 9.25533 5.45502 10.5601Z" fill="#F8CB6E"/>
<path d="M1.46802 20.9981C1.5453 18.0754 2.43146 15.2314 4.02802 12.7821C2.81133 15.3941 1.95033 18.1573 1.46802 20.9981Z" fill="#F8CB6E"/>
</g>
<g style="mix-blend-mode:multiply" opacity="0.6">
<path d="M36.866 5.59003C38.862 7.73899 40.4039 10.2686 41.3993 13.0275C42.3947 15.7864 42.8232 18.7177 42.659 21.6461C42.4949 24.5744 41.7415 27.4395 40.4441 30.0699C39.1466 32.7002 37.3317 35.0417 35.1081 36.9542C32.8844 38.8666 30.2977 40.3107 27.5028 41.2C24.7079 42.0892 21.7623 42.4053 18.8424 42.1294C15.9224 41.8535 13.0882 40.9912 10.5094 39.5942C7.93052 38.1972 5.66007 36.2941 3.83398 33.999C5.48102 36.7811 7.71778 39.1685 10.3868 40.9931C13.0559 42.8176 16.0924 44.0351 19.2827 44.5597C22.4729 45.0843 25.7394 44.9034 28.8521 44.0296C31.9649 43.1559 34.8484 41.6106 37.2997 39.5024C39.7509 37.3942 41.7103 34.7745 43.04 31.8275C44.3697 28.8805 45.0374 25.6779 44.996 22.445C44.9547 19.2122 44.2053 16.0277 42.8007 13.1157C41.3961 10.2036 39.3703 7.63483 36.866 5.59003Z" fill="#A77E58"/>
</g>
<path d="M23.0483 1.22822V3.41003H22.7927L21.6037 1.69697H21.5824V3.41003H21.3182V1.22822H21.5739L22.7671 2.94555H22.7884V1.22822H23.0483Z" fill="white"/>
<path d="M21.8178 39.7956C21.8136 39.7596 21.7963 39.7317 21.766 39.7118C21.7357 39.6919 21.6985 39.682 21.6545 39.682C21.6223 39.682 21.5941 39.6872 21.57 39.6976C21.546 39.708 21.5273 39.7223 21.5138 39.7406C21.5006 39.7588 21.494 39.7795 21.494 39.8027C21.494 39.8221 21.4986 39.8388 21.5078 39.8528C21.5173 39.8665 21.5294 39.878 21.544 39.8872C21.5587 39.8962 21.5741 39.9037 21.5902 39.9096C21.6063 39.9153 21.6211 39.9199 21.6346 39.9235L21.7085 39.9433C21.7274 39.9483 21.7485 39.9552 21.7717 39.9639C21.7951 39.9727 21.8175 39.9846 21.8388 39.9998C21.8603 40.0147 21.8781 40.0339 21.892 40.0573C21.906 40.0808 21.913 40.1095 21.913 40.1436C21.913 40.1829 21.9027 40.2184 21.8821 40.2502C21.8617 40.2819 21.8319 40.3071 21.7926 40.3258C21.7536 40.3445 21.7061 40.3538 21.6502 40.3538C21.5981 40.3538 21.553 40.3454 21.5149 40.3286C21.477 40.3118 21.4472 40.2884 21.4254 40.2583C21.4039 40.2283 21.3917 40.1933 21.3888 40.1536H21.4798C21.4821 40.181 21.4914 40.2038 21.5075 40.2217C21.5238 40.2395 21.5444 40.2528 21.5692 40.2615C21.5943 40.27 21.6213 40.2743 21.6502 40.2743C21.6838 40.2743 21.714 40.2689 21.7408 40.258C21.7675 40.2468 21.7887 40.2315 21.8043 40.2118C21.82 40.1919 21.8278 40.1687 21.8278 40.1422C21.8278 40.1181 21.821 40.0984 21.8075 40.0833C21.794 40.0681 21.7763 40.0558 21.7543 40.0463C21.7322 40.0369 21.7085 40.0286 21.6829 40.0215L21.5934 39.9959C21.5366 39.9796 21.4916 39.9562 21.4585 39.9259C21.4253 39.8956 21.4087 39.856 21.4087 39.807C21.4087 39.7663 21.4197 39.7307 21.4418 39.7004C21.464 39.6699 21.4938 39.6462 21.5312 39.6294C21.5689 39.6124 21.6109 39.6038 21.6573 39.6038C21.7042 39.6038 21.7459 39.6123 21.7823 39.6291C21.8188 39.6456 21.8477 39.6684 21.869 39.6972C21.8905 39.7261 21.9019 39.7589 21.9031 39.7956H21.8178Z" fill="white"/>
<path d="M1.73351 22.8751L1.13692 20.6932H1.40538L1.86135 22.4702H1.88266L2.34715 20.6932H2.64544L3.10993 22.4702H3.13124L3.5872 20.6932H3.85567L3.25908 22.8751H2.98635L2.50482 21.1364H2.48777L2.00624 22.8751H1.73351Z" fill="white"/>
<path d="M41.6711 20.8751V20.1478H42.11V20.2259H41.7591V20.4717H42.0873V20.5498H41.7591V20.7969H42.1157V20.8751H41.6711Z" fill="white"/>
</svg>
