<svg xmlns="http://www.w3.org/2000/svg" xmlns:xlink="http://www.w3.org/1999/xlink" width="133" height="42.205" viewBox="0 0 133 42.205">
    <defs>
        <linearGradient id="linear-gradient" x1="1.358" y1="-0.311" x2="1.358" y2="1.29" gradientUnits="objectBoundingBox">
            <stop offset="0" stop-color="#4f80c1"/>
            <stop offset="1" stop-color="#4f80c1" stop-opacity="0.561"/>
        </linearGradient>
    </defs>
    <path id="Path_12054" d="M323.837,165.861H307.371s.885-3.291,3.224-4.1,4.235.261,4.773,1.511c0,0,1.359-4.146,5.12-4.146a5.212,5.212,0,0,1,5.246,4.168s3.849-1,4.137,2.643Z" transform="translate(-205.871 -159.127)" fill="url(#linear-gradient)"/>
    <path id="Path_12055" d="M321.472,164.894h-14.1s.758-2.818,2.76-3.511a3.2,3.2,0,0,1,4.087,1.294s1.164-3.55,4.384-3.55A4.463,4.463,0,0,1,323.1,162.7s3.3-.856,3.543,2.263Z" transform="translate(-210.318 -122.754)" fill="url(#linear-gradient)"/>
    <path id="Path_12057" d="M318.531,163.691h-11.16s.6-2.23,2.185-2.779a2.531,2.531,0,0,1,3.235,1.024s.921-2.81,3.47-2.81a3.533,3.533,0,0,1,3.556,2.825s2.609-.678,2.8,1.791Z" transform="translate(-270.371 -122.754)" fill="url(#linear-gradient)"/>
    <path id="Path_12058" d="M318.531,163.691h-11.16s.6-2.23,2.185-2.779a2.531,2.531,0,0,1,3.235,1.024s.921-2.81,3.47-2.81a3.533,3.533,0,0,1,3.556,2.825s2.609-.678,2.8,1.791Z" transform="translate(-307.371 -144.754)" fill="url(#linear-gradient)"/>
    <path id="Path_12056" d="M317.668,163.338h-10.3s.553-2.058,2.016-2.564a2.336,2.336,0,0,1,2.985.945s.85-2.592,3.2-2.592a3.259,3.259,0,0,1,3.281,2.606s2.407-.625,2.587,1.653Z" transform="translate(-252.121 -152.851)" fill="url(#linear-gradient)"/>
</svg>
