<svg xmlns="http://www.w3.org/2000/svg" xmlns:xlink="http://www.w3.org/1999/xlink" width="288.469" height="248.18" viewBox="0 0 288.469 248.18">
    <defs>
        <linearGradient id="linear-gradient" x1="1.358" y1="-0.311" x2="1.358" y2="1.29" gradientUnits="objectBoundingBox">
            <stop offset="0" stop-color="#4f80c1"/>
            <stop offset="1" stop-color="#4f80c1" stop-opacity="0.561"/>
        </linearGradient>
        <clipPath id="clip-path">
            <path id="Path_53" d="M307.51,215.378q-1.3-1.436-2.584-2.759c-16.346-16.84-27.784-19.762-25.85-49.989,2.915-45.57-14.371-67.26-38.246-74.455-25.816-7.78-52.543,17.616-73.4,9.989-22.378-8.184-38.944-20.823-63.824-8.184-23.693,12.036-23.908,50.062-35.2,63.5s-39.162,26.772-39.162,50.765c0,15.721,1.444,33.487,27.8,47.495,21.028,11.175,7.038,37.15,7.038,37.15.207,3.97,11.808,7.833,13.224,10.852h160.17c9.462-12.045,15.356-9.5,38.211-11.2C320.715,285.173,324.835,234.582,307.51,215.378Z" transform="translate(-29.246 -84.626)" fill="none"/>
        </clipPath>
    </defs>
    <g id="Group_2702" transform="translate(-106.031 -221)">
        <path id="Path_12046" d="M344.619,174.361H307.371s2-7.444,7.292-9.275,9.58.59,10.8,3.419c0,0,3.074-9.378,11.582-9.378,7.365,0,10.8,5.138,11.867,9.427,0,0,8.708-2.262,9.359,5.978Z" transform="translate(-163.181 62.467)" fill="url(#linear-gradient)"/>
        <path id="Path_12047" d="M353.555,178.015H307.371s2.482-9.229,9.041-11.5,11.879.731,13.387,4.239c0,0,3.811-11.628,14.36-11.628,9.132,0,13.385,6.37,14.714,11.689,0,0,10.8-2.8,11.6,7.412Z" transform="translate(-200.839 145.873)" fill="url(#linear-gradient)"/>
        <path id="Path_12048" d="M353.555,178.015H307.371s2.482-9.229,9.041-11.5,11.879.731,13.387,4.239c0,0,3.811-11.628,14.36-11.628,9.132,0,13.385,6.37,14.714,11.689,0,0,10.8-2.8,11.6,7.412Z" transform="translate(-11.877 123.873)" fill="url(#linear-gradient)"/>
    </g>
</svg>
