<svg xmlns="http://www.w3.org/2000/svg" width="31.564" height="31.085" viewBox="0 0 31.564 31.085">
    <g id="Group_2703" transform="translate(-30.469 -357.68)">
        <circle id="Ellipse_15" cx="7.648" cy="7.648" r="7.648" transform="translate(38.603 365.783)" fill="#eec936"/>
        <g id="Group_2263" transform="translate(40.827 357.68)">
            <path id="Path_11984" d="M98.4,328.117H96.658l-.687-7.461h3.113Z" transform="translate(-92.103 -320.656)" fill="#eec936"/>
            <path id="Path_11985" d="M82.559,337.431l-.9.326-2.141-4.78,1.6-.584Z" transform="translate(-79.522 -329.633)" fill="#eec936"/>
        </g>
        <g id="Group_2264" transform="translate(34.121 360.364)">
            <path id="Path_11986" d="M61.117,338.229l-1.332,1.118-5.322-5.274,2.385-2Z" transform="translate(-53.649 -332.072)" fill="#eec936"/>
            <path id="Path_11987" d="M56.192,358.7l-.477.826L51,357.237l.854-1.479Z" transform="translate(-51.002 -350.189)" fill="#eec936"/>
        </g>
        <g id="Group_2265" transform="translate(30.469 369.163)">
            <path id="Path_11988" d="M43.243,371.461l-.3,1.713-7.467-.619.541-3.066Z" transform="translate(-35.474 -369.488)" fill="#eec936"/>
            <path id="Path_11989" d="M50.572,391.764l.166.939-5.08,1.279-.3-1.683Z" transform="translate(-43.037 -386.526)" fill="#eec936"/>
        </g>
        <g id="Group_2266" transform="translate(31.832 376.823)">
            <path id="Path_11990" d="M48.075,402.065l.869,1.506L42.826,407.9l-1.557-2.7Z" transform="translate(-41.27 -402.065)" fill="#eec936"/>
            <path id="Path_11991" d="M66.513,413.342l.73.613L64.174,418.2l-1.308-1.1Z" transform="translate(-57.787 -410.69)" fill="#eec936"/>
        </g>
        <g id="Group_2267" transform="translate(39.401 380.923)">
            <path id="Path_11992" d="M76.656,419.5l1.634.595-1.906,7.246-2.926-1.065Z" transform="translate(-73.458 -419.503)" fill="#eec936"/>
            <path id="Path_11993" d="M99.334,422.894h.954l.377,5.224H98.957Z" transform="translate(-92.961 -422.096)" fill="#eec936"/>
        </g>
        <g id="Group_2268" transform="translate(48.27 379.475)">
            <path id="Path_11994" d="M111.173,420.1l1.634-.594,3.2,6.776-2.925,1.065Z" transform="translate(-111.173 -418.055)" fill="#eec936"/>
            <path id="Path_11995" d="M123.7,413.956l.73-.613,3.647,3.76-1.308,1.1Z" transform="translate(-120.752 -413.343)" fill="#eec936"/>
        </g>
        <g id="Group_2269" transform="translate(52.996 374.401)">
            <path id="Path_11996" d="M131.272,403.571l.87-1.506,6.8,3.135-1.556,2.7Z" transform="translate(-131.272 -399.643)" fill="#eec936"/>
            <path id="Path_11997" d="M136.956,392.7l.166-.939,5.211.536-.3,1.682Z" transform="translate(-135.619 -391.765)" fill="#eec936"/>
        </g>
        <g id="Group_2270" transform="translate(53.192 365.934)">
            <path id="Path_11998" d="M136.968,373.175l-.3-1.712,7.228-1.972.541,3.065Z" transform="translate(-135.594 -366.261)" fill="#eec936"/>
            <path id="Path_11999" d="M132.583,359.524l-.477-.826,4.336-2.939.854,1.479Z" transform="translate(-132.106 -355.759)" fill="#eec936"/>
        </g>
        <g id="Group_2271" transform="translate(48.639 360.365)">
            <path id="Path_12000" d="M123.751,339.348l-1.332-1.118,4.27-6.157,2.384,2Z" transform="translate(-120.144 -332.073)" fill="#eec936"/>
            <path id="Path_12001" d="M113.639,337.757l-.9-.326,1.432-5.038,1.6.584Z" transform="translate(-112.743 -332.318)" fill="#eec936"/>
        </g>
    </g>
</svg>
