<svg xmlns="http://www.w3.org/2000/svg" width="40" height="35.082" viewBox="0 0 40 35.082">
    <g id="Group_2302" transform="translate(-26.961 -275.658)">
        <path id="Path_12020" d="M21.209,26.2A13.1,13.1,0,0,1,18.851.216,16.218,16.218,0,1,0,31.759,20.864,13.081,13.081,0,0,1,21.209,26.2Z" transform="matrix(0.996, -0.087, 0.087, 0.996, 32.496, 278.426)" fill="#223055"/>
        <path id="Path_12021" d="M0,4.349,1.4,2.612.757.477l2.083.791L4.673,0,4.564,2.226,6.337,3.577l-2.15.585-.738,2.1L2.228,4.4Z" transform="translate(55.045 284.938) rotate(-31)" fill="#9d8b35"/>
        <path id="Path_12024" d="M0,2.756l.885-1.1L.479.3,1.8.8,2.961,0,2.892,1.41l1.123.856-1.363.37L2.185,3.97,1.412,2.788Z" transform="translate(31.748 278.272) rotate(-31)" fill="#9d8b35"/>
        <path id="Path_12025" d="M0,2.053l.659-.82L.357.225,1.341.6,2.206,0,2.155,1.051l.837.638-1.015.276-.348.993-.576-.88Z" transform="translate(26.961 290.527) rotate(-31)" fill="#9d8b35"/>
        <path id="Path_12022" d="M0,2.787.895,1.673.485.306,1.82.812,2.994,0,2.925,1.426l1.136.866-1.378.375L2.21,4.014,1.428,2.82Z" transform="translate(44.338 287.341) rotate(-31)" fill="#9d8b35"/>
        <path id="Path_12023" d="M0,1.629.523.978l-.24-.8.781.3L1.751,0,1.71.834l.664.506-.806.219-.276.788-.457-.7Z" transform="translate(51.801 296.131) rotate(-31)" fill="#9d8b35"/>
    </g>
</svg>
