<svg width="91" height="92" viewBox="0 0 91 92" fill="none" xmlns="http://www.w3.org/2000/svg">
<path d="M57.445 78.476H33.585C32.891 78.476 29.837 74.564 29.837 73.871V59.021C29.837 58.6879 29.9693 58.3684 30.2048 58.1329C30.4404 57.8973 30.7599 57.765 31.093 57.765H31.885V56.973C31.8852 56.6934 31.9786 56.422 32.1505 56.2015C32.3224 55.9811 32.5629 55.8243 32.834 55.756C29.148 48.575 35.534 43.003 39.882 39.209C41.945 37.409 44.076 35.549 44.24 34.352V34.224C44.2407 34.0879 44.2633 33.9528 44.307 33.824C44.3876 33.5695 44.5476 33.3477 44.7636 33.1909C44.9796 33.0342 45.2401 32.9508 45.507 32.953C45.842 32.9577 46.1616 33.0943 46.3966 33.3332C46.6315 33.5721 46.7628 33.8939 46.762 34.229V34.357C46.925 35.557 49.062 37.414 51.12 39.214C55.467 43.007 61.853 48.58 58.167 55.761C58.4382 55.8291 58.679 55.9858 58.851 56.2063C59.0231 56.4267 59.1167 56.6983 59.117 56.978V57.77H59.909C60.2421 57.77 60.5616 57.9023 60.7971 58.1378C61.0326 58.3734 61.165 58.6929 61.165 59.026V75.026C61.165 75.716 58.14 78.476 57.445 78.476ZM32.345 75.964H58.645V60.276H57.853C57.5199 60.276 57.2004 60.1436 56.9649 59.9081C56.7293 59.6725 56.597 59.3531 56.597 59.02V58.228H55.909C55.676 58.2278 55.4476 58.1628 55.2495 58.0403C55.0513 57.9177 54.8911 57.7425 54.7868 57.5341C54.6825 57.3258 54.6382 57.0925 54.6589 56.8604C54.6796 56.6283 54.7645 56.4066 54.904 56.22C59.264 50.398 55.398 46.281 49.46 41.101C48.0258 39.9352 46.6979 38.6445 45.492 37.244C44.286 38.6445 42.9582 39.9352 41.524 41.101C35.587 46.281 31.724 50.401 36.08 56.22C36.2195 56.4067 36.3044 56.6285 36.325 56.8607C36.3457 57.0928 36.3013 57.3262 36.1969 57.5346C36.0925 57.743 35.9322 57.9182 35.7339 58.0407C35.5355 58.1631 35.3071 58.228 35.074 58.228H34.387V59.02C34.387 59.3531 34.2546 59.6725 34.0191 59.9081C33.7836 60.1436 33.4641 60.276 33.131 60.276H32.339L32.345 75.964Z" fill="#F9AB3E"/>
<path d="M55.677 16.207L53.165 13.695H37.834L35.322 16.207H55.677Z" fill="#F9AB3E"/>
<path d="M15.57 35.962L13.058 38.474V53.806L15.57 56.318V35.962Z" fill="#F9AB3E"/>
<path d="M77.942 38.474L75.43 35.962V56.313L77.942 53.801V38.474Z" fill="#F9AB3E"/>
<path d="M63.67 16.207H75.4299V27.968L77.942 30.48V14.954C77.942 14.6209 77.8096 14.3014 77.5741 14.0659C77.3385 13.8303 77.0191 13.698 76.686 13.698H61.158L63.67 16.207Z" fill="#F9AB3E"/>
<path d="M75.4299 64.31V76.07H63.67L61.158 78.582H76.686C76.8509 78.5821 77.0143 78.5497 77.1668 78.4866C77.3192 78.4236 77.4577 78.331 77.5744 78.2144C77.691 78.0977 77.7835 77.9592 77.8466 77.8068C77.9097 77.6543 77.9421 77.4909 77.942 77.326V61.803L75.4299 64.31Z" fill="#F9AB3E"/>
<path d="M15.57 27.97V16.207H27.331L29.843 13.695H14.314C13.9809 13.695 13.6614 13.8273 13.4259 14.0628C13.1903 14.2984 13.058 14.6178 13.058 14.951V30.479L15.57 27.97Z" fill="#F9AB3E"/>
<path d="M27.33 76.07H15.57V64.31L13.058 61.798V77.326C13.058 77.6591 13.1903 77.9786 13.4259 78.2141C13.6614 78.4497 13.9809 78.582 14.314 78.582H29.842L27.33 76.07Z" fill="#F9AB3E"/>
<path d="M45.501 91.5C45.336 91.5001 45.1725 91.4675 45.0201 91.4042C44.8677 91.3409 44.7294 91.248 44.613 91.131L0.512985 47.031C0.396154 46.9145 0.303459 46.7761 0.240211 46.6237C0.176964 46.4713 0.144409 46.308 0.144409 46.143C0.144409 45.978 0.176964 45.8146 0.240211 45.6622C0.303459 45.5099 0.396154 45.3715 0.512985 45.255L44.613 1.15497C44.8485 0.9195 45.1679 0.787231 45.501 0.787231C45.834 0.787231 46.1535 0.9195 46.389 1.15497L90.489 45.255C90.7244 45.4905 90.8567 45.8099 90.8567 46.143C90.8567 46.476 90.7244 46.7954 90.489 47.031L46.389 91.131C46.2726 91.248 46.1343 91.3409 45.9819 91.4042C45.8295 91.4675 45.666 91.5001 45.501 91.5ZM3.17299 46.14L45.501 88.467L87.828 46.14L45.501 3.81198L3.17299 46.14Z" fill="#F9AB3E"/>
<path d="M45.514 35.046C43.7105 35.046 41.9809 34.3296 40.7057 33.0543C39.4304 31.7791 38.714 30.0494 38.714 28.246C38.714 26.4425 39.4304 24.7129 40.7057 23.4377C41.9809 22.1624 43.7105 21.446 45.514 21.446C45.8471 21.446 46.1666 21.5783 46.4021 21.8138C46.6377 22.0494 46.77 22.3689 46.77 22.702C46.77 23.0351 46.6377 23.3546 46.4021 23.5901C46.1666 23.8257 45.8471 23.958 45.514 23.958C44.6838 23.958 43.8714 24.1988 43.1753 24.6513C42.4792 25.1037 41.9293 25.7484 41.5923 26.5072C41.2553 27.2659 41.1456 28.1061 41.2766 28.926C41.4076 29.7458 41.7736 30.51 42.3302 31.126C42.8869 31.7419 43.6103 32.1832 44.4127 32.3963C45.2151 32.6093 46.0621 32.585 46.851 32.3263C47.6399 32.0676 48.3368 31.5856 48.8572 30.9388C49.3776 30.2919 49.6992 29.508 49.783 28.682C49.7993 28.5178 49.8479 28.3585 49.9258 28.2131C50.0037 28.0677 50.1095 27.9391 50.2371 27.8346C50.3648 27.7301 50.5117 27.6517 50.6697 27.604C50.8276 27.5563 50.9933 27.5401 51.1575 27.5565C51.3216 27.5728 51.481 27.6214 51.6264 27.6993C51.7718 27.7772 51.9004 27.883 52.0049 28.0106C52.1094 28.1383 52.1878 28.2852 52.2355 28.4431C52.2832 28.6011 52.2993 28.7668 52.283 28.931C52.1182 30.6099 51.3332 32.167 50.0814 33.2979C48.8295 34.4287 47.201 35.0521 45.514 35.046Z" fill="#F9AB3E"/>
<path d="M56.278 58.383H34.722C34.3889 58.383 34.0694 58.2507 33.8339 58.0151C33.5983 57.7796 33.466 57.4601 33.466 57.127C33.466 56.7939 33.5983 56.4744 33.8339 56.2389C34.0694 56.0033 34.3889 55.871 34.722 55.871H56.278C56.6111 55.871 56.9306 56.0033 57.1661 56.2389C57.4017 56.4744 57.534 56.7939 57.534 57.127C57.534 57.4601 57.4017 57.7796 57.1661 58.0151C56.9306 58.2507 56.6111 58.383 56.278 58.383Z" fill="#F9AB3E"/>
<path d="M30.34 44.9869H21.654C21.4765 44.9868 21.301 44.949 21.1391 44.8761C20.9773 44.8032 20.8327 44.6968 20.715 44.564C20.1735 44.0218 19.7475 43.3755 19.4627 42.6641C19.1779 41.9527 19.0402 41.191 19.058 40.425C19.217 37.947 21.31 36.125 22.992 34.653C23.6541 34.1455 24.2421 33.5481 24.739 32.878C24.7453 32.549 24.8804 32.2357 25.1152 32.0053C25.3501 31.7749 25.666 31.6459 25.995 31.646H26.001C26.3324 31.646 26.6503 31.7769 26.8856 32.0103C27.1209 32.2437 27.2543 32.5606 27.257 32.892C27.7578 33.5546 28.3454 34.1469 29.004 34.653C30.686 36.12 32.779 37.946 32.938 40.425C32.9558 41.1909 32.8182 41.9526 32.5336 42.6639C32.249 43.3753 31.8232 44.0216 31.282 44.564C31.1638 44.6971 31.0188 44.8036 30.8564 44.8766C30.694 44.9495 30.518 44.9871 30.34 44.9869ZM22.249 42.4749H29.749C30.1967 41.948 30.4396 41.2774 30.433 40.586C30.341 39.151 28.755 37.767 27.355 36.546C26.865 36.118 26.399 35.7119 26 35.3059C25.6 35.7119 25.136 36.118 24.646 36.546C23.246 37.767 21.66 39.146 21.568 40.586C21.5607 41.2756 21.8021 41.9448 22.248 42.4709L22.249 42.4749Z" fill="#F9AB3E"/>
<path d="M21.654 67.435C21.3209 67.435 21.0014 67.3026 20.7659 67.0671C20.5303 66.8315 20.398 66.5121 20.398 66.1789V43.7319C20.398 43.3988 20.5303 43.0794 20.7659 42.8438C21.0014 42.6083 21.3209 42.4759 21.654 42.4759C21.9871 42.4759 22.3066 42.6083 22.5421 42.8438C22.7777 43.0794 22.91 43.3988 22.91 43.7319V66.1799C22.9097 66.5129 22.7773 66.8321 22.5418 67.0674C22.3063 67.3028 21.9869 67.435 21.654 67.435Z" fill="#F9AB3E"/>
<path d="M30.34 49.5399C30.0069 49.5399 29.6874 49.4076 29.4519 49.1721C29.2163 48.9365 29.084 48.6171 29.084 48.284V43.7319C29.084 43.3988 29.2163 43.0794 29.4519 42.8438C29.6874 42.6083 30.0069 42.4759 30.34 42.4759C30.6731 42.4759 30.9926 42.6083 31.2281 42.8438C31.4637 43.0794 31.596 43.3988 31.596 43.7319V48.284C31.596 48.6171 31.4637 48.9365 31.2281 49.1721C30.9926 49.4076 30.6731 49.5399 30.34 49.5399Z" fill="#F9AB3E"/>
<path d="M69.535 44.9869H60.85C60.6723 44.9869 60.4967 44.9492 60.3346 44.8763C60.1726 44.8034 60.0279 44.697 59.91 44.564C59.3688 44.0216 58.9429 43.3753 58.6581 42.6639C58.3733 41.9526 58.2355 41.191 58.253 40.425C58.412 37.947 60.505 36.125 62.187 34.653C62.8491 34.1454 63.4371 33.548 63.934 32.878C63.9403 32.549 64.0754 32.2357 64.3103 32.0053C64.5451 31.7749 64.861 31.6459 65.19 31.646H65.196C65.5274 31.646 65.8454 31.7769 66.0806 32.0103C66.3159 32.2437 66.4494 32.5606 66.452 32.892C66.9528 33.5546 67.5404 34.1469 68.199 34.653C69.881 36.12 71.973 37.946 72.133 40.425C72.1507 41.191 72.0129 41.9527 71.7281 42.6641C71.4434 43.3754 71.0174 44.0217 70.476 44.564C70.358 44.697 70.2131 44.8034 70.0509 44.8763C69.8887 44.9493 69.7129 44.9869 69.535 44.9869ZM61.444 42.4749H68.944C69.3923 41.9483 69.6355 41.2776 69.629 40.586C69.537 39.151 67.95 37.767 66.55 36.546C66.06 36.118 65.594 35.7119 65.196 35.3059C64.796 35.7119 64.332 36.118 63.842 36.546C62.442 37.767 60.856 39.146 60.763 40.586C60.7563 41.2757 60.998 41.9448 61.444 42.4709V42.4749Z" fill="#F9AB3E"/>
<path d="M69.535 67.435C69.2019 67.435 68.8824 67.3026 68.6469 67.0671C68.4113 66.8315 68.279 66.5121 68.279 66.1789V43.7319C68.279 43.3988 68.4113 43.0794 68.6469 42.8438C68.8824 42.6083 69.2019 42.4759 69.535 42.4759C69.8681 42.4759 70.1876 42.6083 70.4231 42.8438C70.6587 43.0794 70.791 43.3988 70.791 43.7319V66.1799C70.7907 66.5129 70.6583 66.8321 70.4228 67.0674C70.1872 67.3028 69.8679 67.435 69.535 67.435Z" fill="#F9AB3E"/>
<path d="M60.85 49.5399C60.5169 49.5399 60.1974 49.4076 59.9619 49.1721C59.7263 48.9365 59.594 48.6171 59.594 48.284V43.7319C59.594 43.3988 59.7263 43.0794 59.9619 42.8438C60.1974 42.6083 60.5169 42.4759 60.85 42.4759C61.1831 42.4759 61.5026 42.6083 61.7381 42.8438C61.9737 43.0794 62.106 43.3988 62.106 43.7319V48.284C62.106 48.6171 61.9737 48.9365 61.7381 49.1721C61.5026 49.4076 61.1831 49.5399 60.85 49.5399Z" fill="#F9AB3E"/>
<path d="M45.567 29.604C46.5208 29.604 47.294 28.8308 47.294 27.877C47.294 26.9232 46.5208 26.15 45.567 26.15C44.6132 26.15 43.84 26.9232 43.84 27.877C43.84 28.8308 44.6132 29.604 45.567 29.604Z" fill="#F9AB3E"/>
</svg>
