<svg width="76" height="79" viewBox="0 0 76 79" fill="none" xmlns="http://www.w3.org/2000/svg">
<path d="M1.44579 72.763C1.44579 72.763 0.373782 65.333 8.73278 64.763C17.0918 64.193 57.8868 65.62 57.8868 65.62C57.8868 65.62 56.1718 73.908 57.8868 77.48C50.0278 77.408 4.58679 77.48 4.58679 77.48C4.58679 77.48 1.17879 75.842 1.44579 72.763Z" fill="url(#paint0_linear_1_168)"/>
<path d="M58.2737 76.573H7.18573C6.14473 76.573 2.17175 76.845 2.26575 72.368C2.27622 71.5126 2.49628 70.6729 2.90668 69.9224C3.31707 69.1719 3.90529 68.5334 4.61975 68.063C5.70765 67.3003 7.00819 66.8996 8.33673 66.918H54.8668C60.1668 66.918 58.6038 62.3381 58.6038 62.3381L58.5568 62.347L8.79376 62.28C8.79376 62.28 1.41474 66.68 0.627745 71.164C0.456767 72.1167 0.456767 73.0922 0.627745 74.045C0.84151 75.2231 1.45975 76.2896 2.37585 77.0606C3.29195 77.8316 4.44845 78.2586 5.64575 78.268H58.2737C58.4984 78.268 58.7138 78.1788 58.8727 78.0199C59.0315 77.8611 59.1207 77.6457 59.1207 77.4211C59.1207 77.1964 59.0315 76.9809 58.8727 76.8221C58.7138 76.6632 58.4984 76.573 58.2737 76.573Z" fill="url(#paint1_linear_1_168)"/>
<path d="M55.6467 0.847037H7.82275V65.73H55.6467C56.0799 65.7143 56.5058 65.6132 56.8998 65.4324C57.2938 65.2516 57.6481 64.9947 57.9425 64.6766C58.2369 64.3584 58.4655 63.9852 58.6152 63.5784C58.7649 63.1716 58.8328 62.7391 58.8148 62.306V4.05504C58.8286 3.63342 58.7563 3.21342 58.6025 2.82061C58.4487 2.4278 58.2166 2.07041 57.9202 1.77025C57.6238 1.4701 57.2693 1.23342 56.8784 1.0747C56.4876 0.915976 56.0685 0.838529 55.6467 0.847037Z" fill="url(#paint2_linear_1_168)"/>
<path d="M7.79879 0.747009C7.79879 0.747009 0.0828122 2.28402 0.654812 8.23102C1.22681 14.178 0.624783 71.153 0.624783 71.153C0.624783 71.153 2.94077 65.619 7.79977 65.619L7.79879 0.747009Z" fill="url(#paint3_linear_1_168)"/>
<g style="mix-blend-mode:soft-light">
<path d="M52.5467 67.763H15.2758C15.1824 67.763 15.1068 67.8387 15.1068 67.932V67.933C15.1068 68.0263 15.1824 68.102 15.2758 68.102H52.5467C52.6401 68.102 52.7158 68.0263 52.7158 67.933V67.932C52.7158 67.8387 52.6401 67.763 52.5467 67.763Z" fill="white"/>
</g>
<g style="mix-blend-mode:soft-light">
<path d="M53.5627 71.658C53.5627 71.717 53.4858 71.829 53.4178 71.829H9.92474C9.85574 71.829 9.68671 71.718 9.68671 71.658V71.496C9.68671 71.437 9.85674 71.486 9.92474 71.486H53.4178C53.4868 71.486 53.5627 71.436 53.5627 71.496V71.658Z" fill="white"/>
</g>
<g style="mix-blend-mode:soft-light">
<path d="M26.8808 74.709H54.1558C54.2231 74.709 54.2877 74.7358 54.3354 74.7834C54.383 74.831 54.4098 74.8956 54.4098 74.963C54.4098 75.0304 54.383 75.095 54.3354 75.1426C54.2877 75.1903 54.2231 75.217 54.1558 75.217H26.8808C26.8134 75.217 26.7488 75.1903 26.7012 75.1426C26.6535 75.095 26.6268 75.0304 26.6268 74.963C26.6268 74.8956 26.6535 74.831 26.7012 74.7834C26.7488 74.7358 26.8134 74.709 26.8808 74.709Z" fill="white"/>
</g>
<path d="M9.51575 58.685C9.47093 58.685 9.42793 58.6672 9.39624 58.6355C9.36455 58.6038 9.3468 58.5608 9.3468 58.516V34.629C9.3468 34.584 9.36457 34.5409 9.39636 34.5091C9.42815 34.4773 9.47128 34.4595 9.51624 34.4595C9.56119 34.4595 9.60432 34.4773 9.63611 34.5091C9.6679 34.5409 9.68579 34.584 9.68579 34.629V58.516C9.68579 58.5383 9.68141 58.5603 9.67285 58.5809C9.6643 58.6015 9.65166 58.6202 9.63586 58.6359C9.62007 58.6516 9.60131 58.664 9.58069 58.6725C9.56007 58.6809 9.53802 58.6852 9.51575 58.685Z" fill="#DDDEE0"/>
<path d="M9.51575 31.072C9.47093 31.072 9.42793 31.0542 9.39624 31.0225C9.36455 30.9908 9.3468 30.9479 9.3468 30.903V19.383C9.3468 19.3381 9.36457 19.2949 9.39636 19.2632C9.42815 19.2314 9.47128 19.2135 9.51624 19.2135C9.56119 19.2135 9.60432 19.2314 9.63611 19.2632C9.6679 19.2949 9.68579 19.3381 9.68579 19.383V30.903C9.68579 30.9253 9.68141 30.9474 9.67285 30.9679C9.6643 30.9885 9.65166 31.0072 9.63586 31.0229C9.62007 31.0386 9.60131 31.051 9.58069 31.0594C9.56007 31.0679 9.53802 31.0721 9.51575 31.072Z" fill="#DDDEE0"/>
<path d="M9.51575 9.38702C9.47093 9.38702 9.42793 9.36922 9.39624 9.33752C9.36455 9.30583 9.3468 9.26284 9.3468 9.21802V2.78003C9.3468 2.73508 9.36457 2.69194 9.39636 2.66016C9.42815 2.62837 9.47128 2.61053 9.51624 2.61053C9.56119 2.61053 9.60432 2.62837 9.63611 2.66016C9.6679 2.69194 9.68579 2.73508 9.68579 2.78003V9.21802C9.68579 9.2403 9.68141 9.26233 9.67285 9.2829C9.6643 9.30347 9.65166 9.32218 9.63586 9.33789C9.62007 9.3536 9.60131 9.36602 9.58069 9.37445C9.56007 9.38288 9.53802 9.38716 9.51575 9.38702Z" fill="#DDDEE0"/>
<path d="M53.1317 59.779H16.2368C16.0932 59.7809 15.9505 59.754 15.8175 59.7C15.6844 59.646 15.5634 59.5658 15.4617 59.4643C15.3601 59.3629 15.2798 59.2421 15.2255 59.1091C15.1713 58.9761 15.1441 58.8336 15.1457 58.69V7.963C15.144 7.81929 15.171 7.67666 15.2252 7.54356C15.2794 7.41046 15.3598 7.28961 15.4615 7.18803C15.5632 7.08645 15.6841 7.00623 15.8172 6.95213C15.9504 6.89803 16.0931 6.87109 16.2368 6.87297H53.1317C53.4261 6.86788 53.7105 6.97979 53.9226 7.18413C54.1346 7.38847 54.257 7.66859 54.2628 7.963V58.691C54.2565 58.9851 54.1339 59.2646 53.922 59.4686C53.71 59.6725 53.4258 59.7841 53.1317 59.779ZM16.2368 7.73997C16.2075 7.73957 16.1784 7.74508 16.1512 7.75609C16.124 7.76709 16.0992 7.78338 16.0784 7.80406C16.0577 7.82474 16.0414 7.84939 16.0302 7.87651C16.0191 7.90363 16.0135 7.93271 16.0138 7.96202V58.691C16.0135 58.7203 16.0191 58.7494 16.0302 58.7765C16.0414 58.8037 16.0577 58.8282 16.0784 58.8489C16.0992 58.8696 16.124 58.886 16.1512 58.897C16.1784 58.908 16.2075 58.9134 16.2368 58.913H53.1317C53.1951 58.9149 53.2571 58.8932 53.3056 58.8523C53.3541 58.8113 53.3859 58.7539 53.3947 58.691V7.963C53.3859 7.90011 53.3541 7.8427 53.3056 7.80174C53.2571 7.76078 53.1951 7.73916 53.1317 7.74101L16.2368 7.73997Z" fill="#DDDEE0"/>
<path d="M50.2507 56.917H19.0277C18.8833 56.9191 18.74 56.8925 18.606 56.8388C18.4719 56.785 18.3499 56.7052 18.2469 56.6038C18.144 56.5025 18.0623 56.3817 18.0065 56.2486C17.9506 56.1154 17.9219 55.9724 17.9218 55.828V10.911C17.9219 10.7666 17.9506 10.6237 18.0065 10.4905C18.0623 10.3573 18.144 10.2365 18.2469 10.1352C18.3499 10.0339 18.4719 9.95406 18.606 9.90029C18.74 9.84653 18.8833 9.81993 19.0277 9.82205H50.2507C50.5469 9.81636 50.8334 9.92737 51.0483 10.1311C51.2633 10.3349 51.3896 10.615 51.3998 10.911V55.828C51.3896 56.1241 51.2633 56.4042 51.0483 56.6079C50.8334 56.8117 50.5469 56.9227 50.2507 56.917ZM19.0277 10.6891C18.967 10.6879 18.9082 10.7104 18.8638 10.7519C18.8194 10.7933 18.7929 10.8504 18.7898 10.911V55.828C18.7929 55.8887 18.8194 55.9458 18.8638 55.9872C18.9082 56.0286 18.967 56.0511 19.0277 56.05H50.2507C50.279 56.0502 50.3069 56.0444 50.3328 56.033C50.3586 56.0216 50.3816 56.0049 50.4005 55.9839C50.4194 55.9629 50.4337 55.9382 50.4424 55.9113C50.451 55.8845 50.4538 55.8561 50.4507 55.828V10.911C50.4538 10.883 50.451 10.8546 50.4424 10.8277C50.4337 10.8009 50.4194 10.7761 50.4005 10.7552C50.3816 10.7342 50.3586 10.7175 50.3328 10.7061C50.3069 10.6947 50.279 10.6889 50.2507 10.6891H19.0277Z" fill="#DDDEE0"/>
<path d="M41.9598 40.877C40.7389 41.1216 39.4789 41.0923 38.2708 40.791C37.0627 40.4897 35.9365 39.9241 34.9734 39.1349C34.0104 38.3456 33.2345 37.3525 32.7017 36.2272C32.169 35.1018 31.8926 33.8721 31.8926 32.627C31.8926 31.3819 32.169 30.1523 32.7017 29.0269C33.2345 27.9015 34.0104 26.9083 34.9734 26.1191C35.9365 25.3299 37.0627 24.7643 38.2708 24.463C39.4789 24.1617 40.7389 24.1324 41.9598 24.377C41.9955 24.3839 42.0325 24.3784 42.0646 24.3614C42.0968 24.3443 42.1221 24.3168 42.1364 24.2833C42.1507 24.2498 42.1529 24.2125 42.143 24.1775C42.1331 24.1425 42.1115 24.112 42.0817 24.091C40.5216 23.0043 38.6935 22.3659 36.7961 22.245C34.8986 22.1242 33.0043 22.5256 31.3189 23.4056C29.6335 24.2856 28.2215 25.6106 27.2361 27.2367C26.2508 28.8627 25.7298 30.7277 25.7298 32.629C25.7298 34.5303 26.2508 36.3953 27.2361 38.0213C28.2215 39.6474 29.6335 40.9724 31.3189 41.8524C33.0043 42.7324 34.8986 43.1338 36.7961 43.013C38.6935 42.8921 40.5216 42.2537 42.0817 41.167C42.1115 41.1461 42.1331 41.1155 42.143 41.0805C42.1529 41.0455 42.1507 41.0082 42.1364 40.9747C42.1221 40.9412 42.0968 40.9137 42.0646 40.8966C42.0325 40.8796 41.9955 40.8741 41.9598 40.881V40.877Z" fill="#DDDEE0"/>
<path d="M43.7038 32.135C43.7249 32.1143 43.7399 32.0881 43.747 32.0593C43.7541 32.0305 43.753 32.0004 43.7438 31.9722C43.7347 31.944 43.7178 31.919 43.6952 31.8999C43.6726 31.8808 43.6451 31.8683 43.6158 31.864L41.9228 31.618C41.8972 31.6143 41.8729 31.6045 41.852 31.5893C41.831 31.5742 41.8142 31.5542 41.8028 31.531L41.0458 29.996C41.0327 29.9694 41.0123 29.9471 40.9871 29.9315C40.9619 29.9159 40.9329 29.9076 40.9032 29.9076C40.8736 29.9076 40.8445 29.9159 40.8194 29.9315C40.7942 29.9471 40.7739 29.9694 40.7608 29.996L40.0038 31.531C39.9925 31.5541 39.9757 31.5741 39.955 31.5893C39.9342 31.6044 39.9102 31.6143 39.8848 31.618L38.1907 31.864C38.1614 31.8683 38.134 31.8808 38.1114 31.8999C38.0887 31.919 38.0718 31.944 38.0626 31.9722C38.0535 32.0004 38.0524 32.0305 38.0595 32.0593C38.0666 32.0881 38.0816 32.1143 38.1028 32.135L39.3288 33.33C39.3473 33.348 39.3612 33.3702 39.3692 33.3948C39.3772 33.4194 39.3792 33.4456 39.3748 33.471L39.0857 35.158C39.0809 35.1871 39.0844 35.217 39.0956 35.2442C39.1068 35.2715 39.1253 35.2951 39.1492 35.3125C39.1731 35.3298 39.2013 35.3402 39.2307 35.3424C39.2601 35.3446 39.2895 35.3385 39.3157 35.325L40.9048 34.49L42.4938 35.325C42.52 35.3385 42.5494 35.3446 42.5788 35.3424C42.6082 35.3402 42.6364 35.3298 42.6603 35.3125C42.6842 35.2951 42.7027 35.2715 42.7139 35.2442C42.7251 35.217 42.7286 35.1871 42.7238 35.158L42.4347 33.471C42.4304 33.4456 42.4323 33.4194 42.4403 33.3948C42.4484 33.3702 42.4622 33.348 42.4807 33.33L43.7038 32.135Z" fill="#DDDEE0"/>
<path d="M61.9171 58.8391C62.1089 59.4617 62.5084 59.9997 63.0488 60.3636C63.5892 60.7275 64.2379 60.8954 64.887 60.8391C65.5307 60.8889 66.1694 60.6942 66.6758 60.2938C67.1822 59.8934 67.5191 59.3168 67.6191 58.679L65.981 58.328L65.8441 56.502L63.3791 56.685L63.3331 58.419L61.9171 58.8391Z" fill="url(#paint4_linear_1_168)"/>
<path d="M72.3561 63.981C72.0109 62.2534 71.1025 60.6891 69.7731 59.533C69.1295 59.1381 68.424 58.8544 67.6861 58.694L67.6191 58.6771C67.5621 58.6631 67.5051 58.652 67.4471 58.643L65.9801 58.327L64.836 58.89L63.336 58.418C63.336 58.418 61.836 58.709 61.795 58.718C61.1759 58.9017 60.5897 59.1822 60.0581 59.549C58.8037 60.6766 57.9486 62.1805 57.6211 63.835C57.6211 63.848 55.6211 69.4031 59.3951 72.5061L59.3701 73.5061L65.0991 76.382L70.1191 73.814L70.1401 72.944C73.8091 70.098 72.3561 63.981 72.3561 63.981Z" fill="url(#paint5_linear_1_168)"/>
<path d="M65.191 58.998H64.497V68.018H65.191V58.998Z" fill="url(#paint6_linear_1_168)"/>
<path d="M66.28 57.856C66.2762 57.8438 66.2698 57.8325 66.2614 57.8228C66.2529 57.8132 66.2427 57.8055 66.2311 57.8C66.2194 57.795 66.2068 57.7924 66.1941 57.7924C66.1814 57.7924 66.1687 57.795 66.157 57.8L64.951 58.257C64.9406 58.261 64.9312 58.2672 64.9236 58.2754C64.916 58.2835 64.9102 58.2934 64.907 58.304L64.807 58.619L64.774 58.3191C64.7725 58.3046 64.7668 58.2908 64.7576 58.2796C64.7483 58.2684 64.7359 58.2603 64.722 58.2561L63.0851 57.7561C63.0714 57.7517 63.057 57.7506 63.0428 57.7528C63.0287 57.7549 63.0152 57.7603 63.0035 57.7685C62.9918 57.7767 62.9822 57.7876 62.9753 57.8001C62.9685 57.8127 62.9646 57.8267 62.964 57.841L62.9341 58.404C63.4854 58.7958 64.1086 59.0748 64.7681 59.2251C65.3925 59.109 65.9748 58.8287 66.4551 58.413L66.28 57.856Z" fill="url(#paint7_linear_1_168)"/>
<path d="M62.771 52.059C62.748 52.103 61.293 53.173 61.293 53.173C61.293 53.173 61.6141 55.473 62.9191 56.378C64.3531 57.378 66.3781 55.5559 66.3781 55.5559C66.3781 55.5559 67.99 55.939 68.847 52.584C69.047 51.814 67.9091 51.749 66.5391 51.891C64.7721 52.075 62.771 52.059 62.771 52.059Z" fill="url(#paint8_linear_1_168)"/>
<path d="M63.725 51.675C63.725 51.675 60.901 57.146 64.251 58.475C66.615 59.411 68.096 54.842 67.651 53.604C66.968 51.69 66.518 51.917 66.518 51.917L63.725 51.675Z" fill="url(#paint9_linear_1_168)"/>
<path d="M68.333 51.1781C69.733 51.5621 68.5331 54.5881 66.4331 53.8721C64.3331 53.1561 63.5071 53.167 63.1791 53.744C62.8511 54.321 62.7791 56.3701 62.0711 55.3571C61.2921 54.2471 60.858 52.0191 61.813 51.3001C62.666 50.6581 62.8661 49.6631 63.8891 49.7001C65.2481 49.7461 66.298 49.144 66.911 49.578C67.618 50.074 67.307 50.8951 68.333 51.1781Z" fill="url(#paint10_linear_1_168)"/>
<path d="M63.0519 54.2141C63.0519 54.2141 62.452 53.566 62.352 54.347C62.252 55.128 62.5649 56.134 62.9279 55.583C63.14 55.1585 63.1843 54.6698 63.0519 54.2141Z" fill="url(#paint11_linear_1_168)"/>
<path d="M69.0281 52.875C69.0019 52.907 68.9687 52.9327 68.9311 52.95C68.8935 52.9673 68.8525 52.9758 68.8111 52.975L61.3111 52.8301C61.2675 52.8291 61.2247 52.8177 61.1862 52.7971C61.1477 52.7766 61.1146 52.7473 61.0895 52.7116C61.0644 52.6759 61.0481 52.6349 61.0418 52.5917C61.0355 52.5485 61.0393 52.5044 61.053 52.463L61.1301 52.2421L61.23 51.9661L61.319 51.698L61.4131 51.4201L62.0671 49.505C62.0909 49.4359 62.1206 49.369 62.1561 49.3051C62.21 49.2063 62.2774 49.1155 62.3561 49.0351C62.4828 48.9048 62.6361 48.8035 62.8056 48.7381C62.9751 48.6726 63.1567 48.6447 63.3381 48.656L67.438 48.9091C67.7273 48.9264 68.0018 49.0429 68.2151 49.239C68.3045 49.322 68.3815 49.4173 68.444 49.522C68.5217 49.6512 68.5751 49.7936 68.6011 49.942L68.9101 51.6541L68.9611 51.938L69.0081 52.198L69.0591 52.4821L69.0901 52.65C69.0967 52.6898 69.0945 52.7305 69.0838 52.7693C69.0731 52.8082 69.0541 52.8443 69.0281 52.875Z" fill="url(#paint12_linear_1_168)"/>
<g style="mix-blend-mode:soft-light">
<path d="M69.0581 52.475C66.4134 52.5328 63.7675 52.453 61.1311 52.236L61.2311 51.96C63.8181 52.1697 66.4141 52.2472 69.009 52.1921L69.0581 52.475Z" fill="white"/>
</g>
<g style="mix-blend-mode:soft-light">
<path d="M68.955 51.949C65.08 52.018 62.028 51.72 61.308 51.728L61.401 51.459C62.22 51.477 65.174 51.744 68.901 51.679L68.955 51.949Z" fill="white"/>
</g>
<g style="mix-blend-mode:soft-light">
<path d="M68.4421 49.514C65.5191 49.529 63.173 49.3761 62.154 49.2961C62.208 49.1973 62.2753 49.1065 62.3541 49.0261C63.4161 49.1071 65.5631 49.238 68.2141 49.226C68.3035 49.3105 68.3804 49.4075 68.4421 49.514Z" fill="white"/>
</g>
<path d="M71.35 64.477C71.3067 64.4472 71.2575 64.4272 71.2057 64.418C71.154 64.4089 71.1009 64.4109 71.05 64.424L64.621 66.267L58.262 64.425C58.1293 64.3967 57.9909 64.4151 57.8701 64.477C57.7891 64.538 57.634 64.634 57.634 64.736V65.068L64.58 67.419L71.5261 65.449V64.735C71.5172 64.6818 71.4969 64.6312 71.4665 64.5866C71.4361 64.542 71.3964 64.5046 71.35 64.477Z" fill="white"/>
<path d="M64.49 66.267L57.864 64.6921C57.8158 64.6804 57.7655 64.68 57.7171 64.6909C57.6686 64.7017 57.6234 64.7235 57.5847 64.7546C57.5461 64.7857 57.5151 64.8253 57.4942 64.8703C57.4732 64.9153 57.4629 64.9645 57.464 65.0141L57.615 72.3901C57.6165 72.4636 57.6429 72.5345 57.69 72.591C57.737 72.6475 57.802 72.6864 57.874 72.7011L64.658 74.0921L64.49 66.267Z" fill="url(#paint13_linear_1_168)"/>
<path d="M65.007 66.267L71.633 64.6921C71.6812 64.6804 71.7316 64.68 71.78 64.6909C71.8284 64.7017 71.8736 64.7235 71.9123 64.7546C71.9509 64.7857 71.9819 64.8253 72.0029 64.8703C72.0238 64.9153 72.0341 64.9645 72.033 65.0141L71.882 72.3901C71.8806 72.4636 71.8541 72.5345 71.8071 72.591C71.76 72.6475 71.695 72.6864 71.623 72.7011L64.8391 74.0921L65.007 66.267Z" fill="url(#paint14_linear_1_168)"/>
<path d="M64.491 65.968H64.49C64.0692 65.968 63.728 66.3092 63.728 66.73V73.338C63.728 73.7589 64.0692 74.1 64.49 74.1H64.491C64.9119 74.1 65.253 73.7589 65.253 73.338V66.73C65.253 66.3092 64.9119 65.968 64.491 65.968Z" fill="url(#paint15_linear_1_168)"/>
<path d="M58.883 67.487C58.735 67.1 57.9489 67.528 57.6829 67.687C57.6733 67.6922 57.6626 67.6952 57.6516 67.6954C57.6406 67.6956 57.6298 67.6931 57.62 67.6882C57.6101 67.6833 57.6016 67.6761 57.5952 67.6672C57.5888 67.6583 57.5845 67.6479 57.583 67.637L57.51 67.062L57.259 67.6101C56.859 68.2031 57.181 69.659 57.181 69.659C57.281 70.294 58.028 70.094 58.581 69.904C59.134 69.714 59.062 67.955 58.883 67.487Z" fill="url(#paint16_linear_1_168)"/>
<path d="M70.6131 67.487C70.7601 67.1 71.5472 67.528 71.8132 67.687C71.8228 67.6922 71.8335 67.6952 71.8445 67.6954C71.8555 67.6956 71.8663 67.6931 71.8762 67.6882C71.886 67.6833 71.8945 67.6761 71.9009 67.6672C71.9074 67.6583 71.9116 67.6479 71.9131 67.637L71.9861 67.062L72.2371 67.6101C72.6371 68.2031 72.3151 69.659 72.3151 69.659C72.2151 70.294 71.4681 70.094 70.9151 69.904C70.3621 69.714 70.4341 67.955 70.6131 67.487Z" fill="url(#paint17_linear_1_168)"/>
<path d="M75.1351 76.2331C73.752 76.0574 72.3555 76.0125 70.9641 76.099L70.845 76.4201L70.645 78.0141C72.0131 78.2675 73.3958 78.4345 74.785 78.5141C74.9151 78.5145 75.0446 78.4953 75.169 78.4571C75.2114 78.4199 75.2517 78.3804 75.29 78.339C75.547 78.0384 75.675 77.6486 75.6459 77.2542C75.6169 76.8598 75.4333 76.4928 75.1351 76.2331Z" fill="url(#paint18_linear_1_168)"/>
<path d="M75.26 76.265C75.22 76.2537 75.1783 76.2433 75.135 76.234C75.4319 76.4931 75.615 76.8587 75.6445 77.2517C75.6741 77.6446 75.5478 78.0335 75.293 78.3341C75.254 78.3761 75.214 78.415 75.172 78.452C75.4017 78.3815 75.6038 78.2415 75.7505 78.0512C75.8972 77.8609 75.9812 77.6298 75.9908 77.3897C76.0005 77.1497 75.9353 76.9125 75.8044 76.711C75.6735 76.5096 75.4833 76.3537 75.26 76.265Z" fill="url(#paint19_linear_1_168)"/>
<path d="M70.1271 76.01L70.62 76.031C70.7543 76.0382 70.8855 76.0738 71.005 76.1355C71.1245 76.1972 71.2294 76.2837 71.313 76.3891C71.4939 76.615 71.5844 76.9001 71.567 77.189C71.5568 77.4178 71.4616 77.6347 71.3 77.797C71.225 77.8725 71.1347 77.9311 71.0352 77.9689C70.9356 78.0067 70.8292 78.0227 70.723 78.016L69.968 77.9621L70.1271 76.01Z" fill="url(#paint20_linear_1_168)"/>
<path d="M53.549 76.0801C54.9367 75.947 56.3339 75.945 57.722 76.0741L57.8319 76.3981L57.9879 77.998C56.6138 78.2088 55.2277 78.3327 53.8379 78.369C53.7078 78.3654 53.5791 78.3422 53.456 78.3C53.415 78.261 53.3759 78.2211 53.3379 78.1781C53.09 77.871 52.9731 77.4784 53.0126 77.0857C53.0521 76.6929 53.2448 76.3317 53.549 76.0801Z" fill="url(#paint21_linear_1_168)"/>
<path d="M53.4211 76.108L53.5471 76.08C53.2425 76.3318 53.0495 76.6936 53.0102 77.0869C52.9709 77.4801 53.0883 77.8729 53.337 78.18C53.374 78.223 53.414 78.2631 53.455 78.3021C53.2253 78.2271 53.0246 78.0823 52.8812 77.8878C52.7377 77.6933 52.6586 77.4589 52.6549 77.2172C52.6511 76.9756 52.7229 76.7387 52.8603 76.5399C52.9977 76.341 53.1938 76.19 53.4211 76.108Z" fill="url(#paint22_linear_1_168)"/>
<path d="M58.56 76.01L58.0671 76.016C57.9332 76.0192 57.8014 76.0509 57.6807 76.109C57.56 76.1671 57.453 76.2504 57.367 76.353C57.1805 76.5735 57.0829 76.8555 57.0931 77.1441C57.0974 77.3734 57.1868 77.593 57.344 77.76C57.4169 77.8378 57.5055 77.8992 57.6039 77.9401C57.7024 77.9809 57.8085 78.0003 57.9151 77.997L58.6701 77.9661L58.56 76.01Z" fill="url(#paint23_linear_1_168)"/>
<path d="M75.487 71.2351C75.3585 70.9501 75.1696 70.6963 74.9334 70.4915C74.6972 70.2866 74.4193 70.1357 74.119 70.0488C73.8186 69.962 73.503 69.9415 73.1939 69.9886C72.8848 70.0358 72.5898 70.1495 72.329 70.322C67.7879 72.6341 63.0341 74.5025 58.134 75.9011C58.3213 76.5178 58.4253 77.1567 58.4431 77.801C58.4471 77.943 58.4446 78.0831 58.436 78.2211C63.53 77.9591 69.058 76.2611 73.808 74.7681C74.1621 74.6636 74.4901 74.4857 74.7707 74.246C75.0513 74.0062 75.2782 73.71 75.4366 73.3766C75.595 73.0432 75.6814 72.6802 75.6901 72.3112C75.6988 71.9422 75.6296 71.5756 75.487 71.2351Z" fill="url(#paint24_linear_1_168)"/>
<path d="M70.1629 77.8971C70.1378 77.1885 70.285 76.4843 70.592 75.8451C70.601 75.8161 70.6109 75.788 70.6209 75.76C70.2419 75.643 69.752 75.483 69.108 75.265C65.0484 73.908 61.1167 72.1946 57.359 70.145C57.0676 69.9542 56.7341 69.837 56.3874 69.8036C56.0407 69.7702 55.6911 69.8215 55.3686 69.9531C55.0461 70.0848 54.7604 70.2928 54.5361 70.5593C54.3118 70.8258 54.1556 71.1428 54.081 71.483C53.9089 72.1145 53.9939 72.7885 54.3176 73.3573C54.6413 73.9261 55.1772 74.3435 55.8079 74.5181C59.6079 75.7831 57.63 75.4311 58.872 75.8311C62.5445 76.9899 66.3344 77.7369 70.172 78.0581C70.168 78.0041 70.1649 77.9511 70.1629 77.8971Z" fill="url(#paint25_linear_1_168)"/>
<defs>
<linearGradient id="paint0_linear_1_168" x1="1.40112" y1="71.0543" x2="57.8868" y2="71.0543" gradientUnits="userSpaceOnUse">
<stop stop-color="#53EAC9"/>
<stop offset="0.996" stop-color="#45AED8"/>
</linearGradient>
<linearGradient id="paint1_linear_1_168" x1="28.0515" y1="45.3326" x2="28.2827" y2="89.3788" gradientUnits="userSpaceOnUse">
<stop stop-color="#2B3582"/>
<stop offset="1" stop-color="#150E42"/>
</linearGradient>
<linearGradient id="paint2_linear_1_168" x1="26.9968" y1="-55.1482" x2="44.4949" y2="98.454" gradientUnits="userSpaceOnUse">
<stop stop-color="#2B3582"/>
<stop offset="1" stop-color="#150E42"/>
</linearGradient>
<linearGradient id="paint3_linear_1_168" x1="0.624512" y1="35.95" x2="7.79977" y2="35.95" gradientUnits="userSpaceOnUse">
<stop stop-color="#2B3582"/>
<stop offset="1" stop-color="#150E42"/>
</linearGradient>
<linearGradient id="paint4_linear_1_168" x1="64.8308" y1="64.1236" x2="64.7579" y2="53.0496" gradientUnits="userSpaceOnUse">
<stop stop-color="#F9B776"/>
<stop offset="1" stop-color="#F47960"/>
</linearGradient>
<linearGradient id="paint5_linear_1_168" x1="60.1857" y1="55.2576" x2="81.3617" y2="93.2209" gradientUnits="userSpaceOnUse">
<stop stop-color="#2C50FF"/>
<stop offset="0.996" stop-color="#1A1B80"/>
</linearGradient>
<linearGradient id="paint6_linear_1_168" x1="64.6698" y1="67.7294" x2="66.939" y2="67.4034" gradientUnits="userSpaceOnUse">
<stop stop-color="#53EAC9"/>
<stop offset="0.996" stop-color="#45AED8"/>
</linearGradient>
<linearGradient id="paint7_linear_1_168" x1="64.0678" y1="56.8308" x2="64.4305" y2="61.8295" gradientUnits="userSpaceOnUse">
<stop stop-color="#53EAC9"/>
<stop offset="0.996" stop-color="#45AED8"/>
</linearGradient>
<linearGradient id="paint8_linear_1_168" x1="81.5766" y1="-18.0596" x2="79.6244" y2="-8.22401" gradientUnits="userSpaceOnUse">
<stop stop-color="#CB236D"/>
<stop offset="1" stop-color="#4C246D"/>
</linearGradient>
<linearGradient id="paint9_linear_1_168" x1="76.9362" y1="-3.00865" x2="77.656" y2="-12.5968" gradientUnits="userSpaceOnUse">
<stop stop-color="#F9B776"/>
<stop offset="1" stop-color="#F47960"/>
</linearGradient>
<linearGradient id="paint10_linear_1_168" x1="81.6157" y1="-19.3268" x2="78.1114" y2="-8.33108" gradientUnits="userSpaceOnUse">
<stop stop-color="#CB236D"/>
<stop offset="1" stop-color="#4C246D"/>
</linearGradient>
<linearGradient id="paint11_linear_1_168" x1="36.0636" y1="101.632" x2="39.0728" y2="87.0676" gradientUnits="userSpaceOnUse">
<stop stop-color="#F9B776"/>
<stop offset="1" stop-color="#F47960"/>
</linearGradient>
<linearGradient id="paint12_linear_1_168" x1="167.349" y1="-2.9234" x2="175.195" y2="-2.9234" gradientUnits="userSpaceOnUse">
<stop stop-color="#53EAC9"/>
<stop offset="0.996" stop-color="#45AED8"/>
</linearGradient>
<linearGradient id="paint13_linear_1_168" x1="61.2192" y1="63.2152" x2="60.1986" y2="87.3222" gradientUnits="userSpaceOnUse">
<stop stop-color="#2B3582"/>
<stop offset="1" stop-color="#150E42"/>
</linearGradient>
<linearGradient id="paint14_linear_1_168" x1="-1.34618" y1="63.2152" x2="-2.36683" y2="87.3222" gradientUnits="userSpaceOnUse">
<stop stop-color="#2B3582"/>
<stop offset="1" stop-color="#150E42"/>
</linearGradient>
<linearGradient id="paint15_linear_1_168" x1="60.6445" y1="82.0369" x2="66.1202" y2="81.436" gradientUnits="userSpaceOnUse">
<stop stop-color="#2B3582"/>
<stop offset="1" stop-color="#150E42"/>
</linearGradient>
<linearGradient id="paint16_linear_1_168" x1="58.2726" y1="69.2127" x2="56.7413" y2="67.5816" gradientUnits="userSpaceOnUse">
<stop stop-color="#F9B776"/>
<stop offset="1" stop-color="#F47960"/>
</linearGradient>
<linearGradient id="paint17_linear_1_168" x1="-7.98536" y1="69.2127" x2="-9.51667" y2="67.5816" gradientUnits="userSpaceOnUse">
<stop stop-color="#F9B776"/>
<stop offset="1" stop-color="#F47960"/>
</linearGradient>
<linearGradient id="paint18_linear_1_168" x1="67.5769" y1="75.5721" x2="72.7871" y2="75.5721" gradientUnits="userSpaceOnUse">
<stop stop-color="#2C759E"/>
<stop offset="1" stop-color="#051042"/>
</linearGradient>
<linearGradient id="paint19_linear_1_168" x1="77.2649" y1="74.3819" x2="72.73" y2="74.3737" gradientUnits="userSpaceOnUse">
<stop stop-color="#53EAC9"/>
<stop offset="0.996" stop-color="#45AED8"/>
</linearGradient>
<linearGradient id="paint20_linear_1_168" x1="74.0989" y1="67.8637" x2="66.2356" y2="81.3987" gradientUnits="userSpaceOnUse">
<stop stop-color="#F9B776"/>
<stop offset="1" stop-color="#F47960"/>
</linearGradient>
<linearGradient id="paint21_linear_1_168" x1="-392.13" y1="72.9837" x2="-386.923" y2="72.9837" gradientUnits="userSpaceOnUse">
<stop stop-color="#2C759E"/>
<stop offset="1" stop-color="#051042"/>
</linearGradient>
<linearGradient id="paint22_linear_1_168" x1="-717.832" y1="69.7116" x2="-722.401" y2="69.703" gradientUnits="userSpaceOnUse">
<stop stop-color="#53EAC9"/>
<stop offset="0.996" stop-color="#45AED8"/>
</linearGradient>
<linearGradient id="paint23_linear_1_168" x1="63.0689" y1="63.3707" x2="55.1637" y2="76.8767" gradientUnits="userSpaceOnUse">
<stop stop-color="#F9B776"/>
<stop offset="1" stop-color="#F47960"/>
</linearGradient>
<linearGradient id="paint24_linear_1_168" x1="76.4107" y1="67.5363" x2="72.3689" y2="81.3246" gradientUnits="userSpaceOnUse">
<stop stop-color="#C32B78"/>
<stop offset="1" stop-color="#593092"/>
</linearGradient>
<linearGradient id="paint25_linear_1_168" x1="63.4879" y1="77.2151" x2="62.5377" y2="67.3593" gradientUnits="userSpaceOnUse">
<stop stop-color="#C32B78"/>
<stop offset="1" stop-color="#593092"/>
</linearGradient>
</defs>
</svg>
