<svg width="104" height="84" viewBox="0 0 104 84" fill="none" xmlns="http://www.w3.org/2000/svg">
<path d="M100.34 48.025C100.029 47.6803 99.7193 47.3497 99.41 47.033C93.531 40.976 89.417 39.925 90.11 29.053C91.158 12.662 84.941 4.861 76.353 2.273C67.068 -0.527004 57.453 8.609 49.953 5.866C41.904 2.922 35.946 -1.624 26.997 2.922C18.475 7.251 18.397 20.928 14.336 25.761C10.275 30.594 0.252991 35.39 0.252991 44.02C0.252991 49.674 0.772989 56.064 10.253 61.103C17.816 65.122 12.784 74.465 12.784 74.465C12.858 75.893 17.031 77.282 17.54 78.365H75.15C78.55 74.033 80.673 74.948 88.894 74.335C105.089 73.129 106.571 54.933 100.34 48.025Z" fill="#37477A"/>
<path d="M42.972 52.611C50.3461 52.611 56.324 46.6331 56.324 39.259C56.324 31.8849 50.3461 25.907 42.972 25.907C35.5979 25.907 29.62 31.8849 29.62 39.259C29.62 46.6331 35.5979 52.611 42.972 52.611Z" fill="#FFFAF5"/>
<mask id="mask0_1_96" style="mask-type:luminance" maskUnits="userSpaceOnUse" x="0" y="0" width="104" height="79">
<path d="M100.34 48.025C100.029 47.6803 99.7193 47.3497 99.41 47.033C93.531 40.976 89.417 39.925 90.11 29.053C91.158 12.662 84.941 4.861 76.353 2.273C67.068 -0.527004 57.453 8.609 49.953 5.866C41.904 2.922 35.946 -1.624 26.997 2.922C18.475 7.251 18.397 20.928 14.336 25.761C10.275 30.594 0.252991 35.39 0.252991 44.02C0.252991 49.674 0.772989 56.064 10.253 61.103C17.816 65.122 12.784 74.465 12.784 74.465C12.858 75.893 17.031 77.282 17.54 78.365H75.15C78.55 74.033 80.673 74.948 88.894 74.335C105.089 73.129 106.571 54.933 100.34 48.025Z" fill="white"/>
</mask>
<g mask="url(#mask0_1_96)">
<path d="M86.891 32.928C86.642 31.683 83.865 31.562 82.169 29.939V29.622C82.329 29.5951 82.4753 29.515 82.5842 29.3946C82.6931 29.2743 82.7581 29.1207 82.7689 28.9588C82.7797 28.7968 82.7355 28.636 82.6435 28.5023C82.5515 28.3686 82.4171 28.2698 82.262 28.222C82.3652 28.1774 82.4516 28.1014 82.509 28.0047C82.5664 27.9081 82.5917 27.7957 82.5814 27.6838C82.5711 27.5719 82.5256 27.466 82.4516 27.3815C82.3775 27.2969 82.2786 27.238 82.169 27.213V25.307C82.4686 25.2784 82.7467 25.1391 82.9492 24.9164C83.1516 24.6936 83.2637 24.4035 83.2637 24.1025C83.2637 23.8016 83.1516 23.5114 82.9492 23.2887C82.7467 23.066 82.4686 22.9267 82.169 22.898V-11.058H81.915V22.899C81.6234 22.9367 81.3555 23.0793 81.1614 23.3002C80.9673 23.521 80.8602 23.805 80.8602 24.099C80.8602 24.393 80.9673 24.677 81.1614 24.8978C81.3555 25.1187 81.6234 25.2613 81.915 25.299V27.219C81.8088 27.2477 81.7141 27.3085 81.644 27.3932C81.5738 27.4778 81.5316 27.5822 81.5231 27.6918C81.5147 27.8014 81.5404 27.911 81.5968 28.0054C81.6532 28.0998 81.7375 28.1745 81.838 28.219C81.6828 28.2654 81.5479 28.3627 81.4547 28.4952C81.3616 28.6277 81.3158 28.7877 81.3247 28.9494C81.3336 29.111 81.3967 29.265 81.5038 29.3865C81.6108 29.508 81.7557 29.5899 81.915 29.619V29.954C80.215 31.562 77.457 31.686 77.209 32.928C77.1595 33.0819 77.143 33.2446 77.1607 33.4053C77.1783 33.566 77.2297 33.7212 77.3114 33.8607C77.3932 34.0002 77.5034 34.1209 77.635 34.2148C77.7666 34.3088 77.9165 34.374 78.075 34.406H78.068V35.021H78.031C77.9458 35.021 77.8642 35.0548 77.804 35.115C77.7438 35.1752 77.71 35.2569 77.71 35.342V35.399C77.71 35.4841 77.7438 35.5658 77.804 35.626C77.8642 35.6862 77.9458 35.72 78.031 35.72H78.068V45.082H78.031C77.9458 45.082 77.8642 45.1158 77.804 45.176C77.7438 45.2362 77.71 45.3179 77.71 45.403V45.462C77.71 45.5471 77.7438 45.6288 77.804 45.689C77.8642 45.7492 77.9458 45.783 78.031 45.783H78.068V46.167L82.05 48.56L86.032 46.167V45.783H86.069C86.1541 45.783 86.2358 45.7492 86.296 45.689C86.3562 45.6288 86.39 45.5471 86.39 45.462V45.403C86.39 45.3179 86.3562 45.2362 86.296 45.176C86.2358 45.1158 86.1541 45.082 86.069 45.082H86.032V35.721H86.069C86.1541 35.721 86.2358 35.6872 86.296 35.627C86.3562 35.5668 86.39 35.4851 86.39 35.4V35.341C86.39 35.2559 86.3562 35.1742 86.296 35.114C86.2358 35.0538 86.1541 35.02 86.069 35.02H86.032V34.405H86.025C86.1834 34.3729 86.3331 34.3078 86.4646 34.2139C86.5961 34.12 86.7063 33.9994 86.7881 33.86C86.8698 33.7207 86.9212 33.5656 86.9389 33.405C86.9567 33.2444 86.9403 33.0819 86.891 32.928ZM79.681 43.337C79.643 43.737 79.206 43.566 78.953 44.108C78.7 43.566 78.263 43.736 78.225 43.337C78.1973 43.198 78.2211 43.0537 78.292 42.931V37.831C78.2212 37.7083 78.1974 37.564 78.225 37.425C78.263 37.025 78.7 37.196 78.953 36.654C79.206 37.196 79.643 37.026 79.681 37.425C79.7085 37.564 79.6848 37.7083 79.614 37.831V42.931C79.6848 43.0538 79.7085 43.198 79.681 43.337ZM80.535 43.337C80.5114 43.2633 80.5123 43.1839 80.5376 43.1108C80.5628 43.0376 80.611 42.9746 80.675 42.931V37.831C80.611 37.7875 80.5628 37.7244 80.5376 37.6513C80.5123 37.5781 80.5114 37.4987 80.535 37.425C80.615 37.025 81.523 37.196 82.049 36.654C82.575 37.196 83.484 37.026 83.563 37.425C83.5865 37.4987 83.5856 37.5781 83.5604 37.6513C83.5352 37.7244 83.487 37.7875 83.423 37.831V42.931C83.487 42.9746 83.5352 43.0376 83.5604 43.1108C83.5856 43.1839 83.5865 43.2633 83.563 43.337C83.483 43.737 82.575 43.566 82.049 44.108C81.524 43.566 80.615 43.736 80.535 43.337ZM85.875 43.337C85.837 43.737 85.4 43.566 85.147 44.108C84.894 43.566 84.457 43.736 84.419 43.337C84.3915 43.198 84.4153 43.0538 84.486 42.931V37.831C84.4153 37.7082 84.3915 37.564 84.419 37.425C84.457 37.025 84.895 37.196 85.147 36.654C85.4 37.196 85.837 37.026 85.875 37.425C85.9025 37.564 85.8788 37.7083 85.808 37.831V42.931C85.8788 43.0537 85.9026 43.198 85.875 43.337Z" fill="#E89191"/>
<path d="M82.611 48.727C82.611 48.838 82.5781 48.9464 82.5165 49.0387C82.4548 49.131 82.3672 49.2029 82.2647 49.2453C82.1622 49.2878 82.0494 49.2989 81.9406 49.2773C81.8317 49.2556 81.7318 49.2022 81.6533 49.1237C81.5749 49.0453 81.5214 48.9453 81.4998 48.8365C81.4781 48.7276 81.4893 48.6148 81.5317 48.5123C81.5742 48.4098 81.6461 48.3222 81.7383 48.2606C81.8306 48.1989 81.939 48.166 82.05 48.166C82.1988 48.166 82.3415 48.2251 82.4467 48.3303C82.5519 48.4355 82.611 48.5782 82.611 48.727Z" fill="#E89191"/>
<path d="M82.897 50.07C82.897 50.2376 82.8473 50.4013 82.7543 50.5406C82.6612 50.6799 82.5289 50.7884 82.3741 50.8525C82.2194 50.9166 82.049 50.9334 81.8847 50.9008C81.7204 50.8681 81.5695 50.7874 81.4511 50.6689C81.3326 50.5505 81.252 50.3996 81.2193 50.2353C81.1866 50.071 81.2034 49.9006 81.2675 49.7459C81.3316 49.5911 81.4401 49.4589 81.5794 49.3658C81.7187 49.2727 81.8825 49.223 82.05 49.223C82.2746 49.223 82.4901 49.3123 82.6489 49.4711C82.8078 49.6299 82.897 49.8454 82.897 50.07Z" fill="#E89191"/>
<path d="M82.5 51.315C82.5 51.404 82.4736 51.491 82.4241 51.565C82.3747 51.639 82.3044 51.6967 82.2222 51.7308C82.14 51.7648 82.0495 51.7737 81.9622 51.7564C81.8749 51.739 81.7947 51.6961 81.7318 51.6332C81.6688 51.5703 81.626 51.4901 81.6086 51.4028C81.5913 51.3155 81.6002 51.225 81.6342 51.1428C81.6683 51.0606 81.726 50.9903 81.8 50.9409C81.874 50.8914 81.961 50.865 82.05 50.865C82.1693 50.865 82.2838 50.9124 82.3682 50.9968C82.4526 51.0812 82.5 51.1957 82.5 51.315Z" fill="#E89191"/>
<path d="M69.467 21.233C69.218 19.988 66.441 19.867 64.745 18.244V17.927C64.905 17.9001 65.0513 17.82 65.1602 17.6996C65.2691 17.5793 65.3341 17.4257 65.3449 17.2638C65.3556 17.1018 65.3114 16.941 65.2195 16.8073C65.1275 16.6736 64.9931 16.5748 64.838 16.527C64.9408 16.4822 65.0269 16.4062 65.0839 16.3096C65.141 16.2131 65.1662 16.101 65.1559 15.9894C65.1456 15.8777 65.1003 15.7722 65.0266 15.6877C64.9528 15.6033 64.8542 15.5442 64.745 15.519V13.612C65.0446 13.5833 65.3227 13.4441 65.5252 13.2213C65.7276 12.9986 65.8398 12.7085 65.8398 12.4075C65.8398 12.1065 65.7276 11.8164 65.5252 11.5937C65.3227 11.371 65.0446 11.2317 64.745 11.203V-22.753H64.491V11.205C64.1952 11.2381 63.922 11.379 63.7236 11.6009C63.5252 11.8227 63.4155 12.1099 63.4155 12.4075C63.4155 12.7051 63.5252 12.9923 63.7236 13.2141C63.922 13.436 64.1952 13.5769 64.491 13.61V15.524C64.3848 15.5527 64.2901 15.6135 64.2199 15.6982C64.1498 15.7828 64.1076 15.8872 64.0991 15.9968C64.0907 16.1064 64.1164 16.216 64.1728 16.3104C64.2292 16.4048 64.3134 16.4795 64.414 16.524C64.2588 16.5704 64.1238 16.6677 64.0307 16.8002C63.9376 16.9327 63.8918 17.0927 63.9007 17.2544C63.9096 17.416 63.9727 17.57 64.0797 17.6915C64.1868 17.813 64.3317 17.8949 64.491 17.924V18.259C62.791 19.867 60.033 19.991 59.785 21.233C59.7355 21.3869 59.719 21.5496 59.7367 21.7103C59.7543 21.871 59.8057 22.0262 59.8874 22.1657C59.9692 22.3052 60.0794 22.4259 60.211 22.5198C60.3426 22.6138 60.4925 22.6789 60.651 22.711H60.644V23.326H60.602C60.5169 23.326 60.4352 23.3598 60.375 23.42C60.3148 23.4802 60.281 23.5619 60.281 23.647V23.706C60.281 23.7911 60.3148 23.8728 60.375 23.933C60.4352 23.9932 60.5169 24.027 60.602 24.027H60.639V33.389H60.602C60.5169 33.389 60.4352 33.4228 60.375 33.483C60.3148 33.5432 60.281 33.6249 60.281 33.71V33.769C60.281 33.8541 60.3148 33.9358 60.375 33.996C60.4352 34.0562 60.5169 34.09 60.602 34.09H60.639V34.473L64.621 36.866L68.603 34.473V34.09H68.64C68.7251 34.09 68.8068 34.0562 68.867 33.996C68.9272 33.9358 68.961 33.8541 68.961 33.769V33.71C68.961 33.6249 68.9272 33.5432 68.867 33.483C68.8068 33.4228 68.7251 33.389 68.64 33.389H68.603V24.027H68.64C68.7251 24.027 68.8068 23.9932 68.867 23.933C68.9272 23.8728 68.961 23.7911 68.961 23.706V23.647C68.961 23.5619 68.9272 23.4802 68.867 23.42C68.8068 23.3598 68.7251 23.326 68.64 23.326H68.603V22.711C68.7614 22.6788 68.9102 22.6136 69.0416 22.5196C69.1731 22.4256 69.2832 22.3049 69.3649 22.1654C69.4465 22.0259 69.4978 21.8707 69.5154 21.7101C69.533 21.5494 69.5165 21.3869 69.467 21.233ZM62.257 31.643C62.219 32.043 61.782 31.872 61.529 32.414C61.276 31.872 60.839 32.042 60.801 31.643C60.7734 31.504 60.7972 31.3598 60.868 31.237V26.137C60.7972 26.0143 60.7734 25.87 60.801 25.731C60.839 25.331 61.276 25.502 61.529 24.96C61.782 25.502 62.219 25.332 62.257 25.731C62.2846 25.87 62.2607 26.0143 62.19 26.137V31.237C62.2606 31.3595 62.2844 31.5043 62.257 31.643ZM63.111 31.643C63.0875 31.5693 63.0884 31.4899 63.1136 31.4168C63.1388 31.3436 63.187 31.2805 63.251 31.237V26.137C63.187 26.0935 63.1388 26.0304 63.1136 25.9573C63.0884 25.8841 63.0875 25.8047 63.111 25.731C63.191 25.331 64.099 25.502 64.625 24.96C65.151 25.502 66.06 25.332 66.139 25.731C66.1625 25.8047 66.1616 25.8841 66.1364 25.9573C66.1112 26.0304 66.0629 26.0935 65.999 26.137V31.237C66.0629 31.2805 66.1112 31.3436 66.1364 31.4168C66.1616 31.4899 66.1625 31.5693 66.139 31.643C66.059 32.043 65.151 31.872 64.625 32.414C64.102 31.871 63.191 32.041 63.112 31.642L63.111 31.643ZM68.451 31.643C68.413 32.043 67.976 31.872 67.723 32.414C67.47 31.872 67.033 32.042 66.995 31.643C66.9673 31.504 66.9911 31.3597 67.062 31.237V26.137C66.9911 26.0143 66.9673 25.87 66.995 25.731C67.033 25.331 67.47 25.502 67.723 24.96C67.976 25.502 68.413 25.332 68.451 25.731C68.4786 25.87 68.4547 26.0143 68.384 26.137V31.237C68.4546 31.3595 68.4784 31.5043 68.451 31.643Z" fill="#E89191"/>
<path d="M65.187 37.031C65.187 37.142 65.1541 37.2504 65.0924 37.3427C65.0308 37.435 64.9432 37.5069 64.8407 37.5493C64.7382 37.5918 64.6254 37.6029 64.5165 37.5812C64.4077 37.5596 64.3078 37.5062 64.2293 37.4277C64.1509 37.3492 64.0974 37.2493 64.0758 37.1405C64.0541 37.0316 64.0652 36.9189 64.1077 36.8163C64.1502 36.7138 64.2221 36.6262 64.3143 36.5646C64.4066 36.5029 64.515 36.47 64.626 36.47C64.7748 36.47 64.9175 36.5291 65.0227 36.6343C65.1279 36.7395 65.187 36.8822 65.187 37.031Z" fill="#E89191"/>
<path d="M65.473 38.374C65.473 38.5415 65.4233 38.7053 65.3302 38.8446C65.2372 38.9839 65.1049 39.0924 64.9501 39.1565C64.7953 39.2206 64.6251 39.2374 64.4608 39.2047C64.2965 39.172 64.1455 39.0914 64.0271 38.9729C63.9086 38.8545 63.828 38.7035 63.7953 38.5392C63.7626 38.3749 63.7793 38.2046 63.8435 38.0499C63.9076 37.8951 64.0162 37.7628 64.1554 37.6698C64.2947 37.5767 64.4585 37.527 64.626 37.527C64.8506 37.527 65.0661 37.6162 65.2249 37.7751C65.3838 37.9339 65.473 38.1494 65.473 38.374Z" fill="#E89191"/>
<path d="M65.076 39.62C65.076 39.709 65.0496 39.796 65.0001 39.87C64.9507 39.944 64.8804 40.0017 64.7982 40.0358C64.7159 40.0698 64.6255 40.0787 64.5382 40.0614C64.4509 40.044 64.3707 40.0011 64.3078 39.9382C64.2448 39.8753 64.202 39.7951 64.1846 39.7078C64.1672 39.6205 64.1762 39.53 64.2102 39.4478C64.2443 39.3656 64.302 39.2953 64.376 39.2458C64.45 39.1964 64.537 39.17 64.626 39.17C64.7453 39.17 64.8598 39.2174 64.9442 39.3018C65.0286 39.3862 65.076 39.5007 65.076 39.62Z" fill="#E89191"/>
</g>
<path d="M93.382 68.047C87.06 65.003 81.675 61.023 74.182 61.257C71.138 61.491 68.797 58.213 65.987 56.574C65.3846 56.3398 64.7164 56.3398 64.114 56.574C55.919 64.066 44.914 62.662 35.081 61.257C29.696 60.32 25.481 56.574 20.564 54.467C18.457 53.53 15.881 52.828 13.54 53.53C10.566 54.363 8.196 56.344 5.755 58.091C7.13902 59.258 8.64826 60.2679 10.255 61.102C17.816 65.122 12.784 74.464 12.784 74.464C12.858 75.892 17.031 77.281 17.54 78.364H75.15C78.55 74.032 80.673 74.947 88.894 74.334C94.513 73.915 98.359 71.449 100.728 68.12C98.175 68.645 95.69 69.057 93.382 68.047Z" fill="#F4E7B0"/>
<path d="M12.784 74.465H88.894L101.289 82.877V83.004H2.58899V82.877L12.784 74.465Z" fill="#D16969"/>
<path d="M12.784 74.338H88.894L101.289 82.877H2.58899L12.784 74.338Z" fill="#E89191"/>
<path d="M14.981 74.662H86.222L94.841 81.69H8.28101L14.981 74.662Z" fill="#D16969"/>
<path d="M16.994 76.316C16.994 76.316 14.341 78.892 14.145 79.633C13.949 80.374 16.298 80.101 18.05 80.101C19.802 80.101 42.965 80.491 50.642 80.647C58.319 80.803 65.499 80.491 67.606 79.398C69.713 78.305 67.469 76.023 64.006 75.516C60.543 75.009 16.994 76.316 16.994 76.316Z" fill="#C95555"/>
<path d="M32.978 75.647C32.978 75.647 23.105 76.785 20.546 75.647C17.987 74.509 18.037 71.218 18.286 68.747C18.535 66.276 21.369 62.531 22.557 62.347C23.745 62.163 28.042 64.998 28.316 65.089C28.59 65.18 32.978 75.647 32.978 75.647Z" fill="#AA3333"/>
<path d="M18.293 77.498C18.293 77.498 18.084 77.919 18.415 78.024C18.746 78.129 18.808 77.788 19.104 77.448C19.4 77.108 20.159 77.125 20.159 77.125C20.159 77.125 19.271 76.346 19.086 76.388C18.901 76.43 18.293 77.498 18.293 77.498Z" fill="#D1864E"/>
<path d="M17.403 77.919C17.403 77.919 17.612 78.373 18.031 78.25C18.45 78.127 18.153 77.901 18.537 77.413C18.8206 77.0907 19.1806 76.8448 19.584 76.698C19.584 76.698 18.384 76.098 17.857 76.388C17.33 76.678 17.403 77.919 17.403 77.919Z" fill="#D89055"/>
<path d="M16.493 77.823C16.493 77.823 16.507 78.608 17.108 78.608C17.709 78.608 17.422 78.32 17.658 77.64C17.76 77.3652 17.9319 77.1217 18.1567 76.9335C18.3815 76.7454 18.6515 76.619 18.94 76.567C18.6985 76.4639 18.4373 76.4153 18.1749 76.4246C17.9125 76.434 17.6554 76.5009 17.4218 76.6208C17.1882 76.7407 16.9839 76.9106 16.8234 77.1184C16.6628 77.3261 16.55 77.5667 16.493 77.823Z" fill="#E09D61"/>
<path d="M31.652 79.541C31.469 79.541 27.924 79.367 25.577 79.17C22.314 78.896 21.11 77.692 19.328 76.915C17.546 76.138 16.753 77.159 16.753 77.844C16.753 78.529 16.799 78.987 15.653 78.85C14.507 78.713 14.739 77.067 15.653 75.285C16.567 73.503 19.142 71.202 20.787 69.968C22.432 68.734 24.002 68.109 24.017 70.73C24.032 73.351 28.588 75.194 31.284 74.417C33.98 73.64 31.652 79.541 31.652 79.541Z" fill="#E5A86C"/>
<path d="M31.287 74.416C28.587 75.193 24.035 73.35 24.02 70.729C24.005 68.108 22.436 68.729 20.79 69.967C19.2807 71.0965 17.8977 72.3856 16.665 73.812C17.2878 73.4439 18 73.2547 18.7233 73.2651C19.4467 73.2755 20.1531 73.4852 20.765 73.871C23.277 75.336 25.789 75.127 28.091 75.755C29.506 76.227 29.386 77.997 28.617 79.382C30.185 79.477 31.536 79.541 31.647 79.541C31.652 79.541 33.984 73.639 31.287 74.416Z" fill="#E09D61"/>
<path d="M63.144 65.427C63.144 65.427 67.105 70.02 65.155 75.646C63.205 81.272 54.917 79.718 52.083 79.718C49.249 79.718 47.33 80.112 43.2161 79.918C39.1021 79.724 31.424 79.538 31.424 79.538C29.87 74.145 29.687 70.579 31.424 66.969C33.161 63.359 33.801 62.444 40.291 61.987C46.781 61.53 63.144 65.427 63.144 65.427Z" fill="#BC4646"/>
<path d="M63.139 65.426C63.015 65.396 58.439 64.309 53.191 63.357C52.353 63.211 42.881 61.771 38.183 62.175C37.744 62.226 37.343 62.282 36.972 62.345C34.357 62.914 31.852 67.118 30.422 69.983C30.1501 71.4927 30.1218 73.0363 30.338 74.555C30.538 74.319 32.166 72.505 36.418 71.674C40.971 70.785 47.25 74.918 53.477 75.441C50.861 74.761 47.407 73.976 46.777 72.668C46.147 71.36 50.911 72.092 53.004 72.406C55.097 72.72 56.144 72.306 57.713 72.929C59.282 73.552 60.172 73.902 60.8 75.168C60.852 73.818 58.445 71.894 56.352 71.548C58.552 71.411 61.739 72.301 62.238 73.138C61.847 71.254 58.811 70.312 55.698 70.312C52.585 70.312 54.854 68.492 58.01 69.245C61.166 69.998 62.544 70.626 63.451 69.632C63.7728 69.2414 63.997 68.7799 64.1052 68.2856C64.2133 67.7912 64.2023 67.2782 64.073 66.789C63.8022 66.3149 63.4935 65.8634 63.15 65.439L63.139 65.426Z" fill="#AA3333"/>
<path d="M30.784 18.928L30.19 20.028C29.4266 21.337 28.5334 22.5658 27.524 23.696C26.701 24.324 28.773 27.524 30.51 29.383C31.5637 30.5085 32.7508 31.5012 34.045 32.339C34.045 32.339 35.477 30.876 36.086 30.876C36.695 30.876 36.452 22.405 36.452 22.405L30.784 18.928Z" fill="#E5A86C"/>
<path d="M36.4521 22.402L30.7841 18.928L30.19 20.028C30.19 20.028 29.876 20.545 29.451 21.195C29.877 22.662 31.392 22.995 32.91 22.802C32.329 25.855 32.4561 29.613 34.1991 32.186C34.5841 31.813 35.5991 30.875 36.0871 30.875C36.6961 30.873 36.4521 22.402 36.4521 22.402Z" fill="#DD965B"/>
<path d="M47.0851 20.94C46.763 22.0173 46.2001 23.0073 45.4391 23.835C44.6771 24.597 45.0881 26.516 45.1111 28.116C45.0651 28.939 43.4431 28.616 43.4431 28.616C43.4431 28.616 43.1081 29.546 43.0161 29.916C42.9241 30.286 42.8331 30.297 42.4071 30.343C42.023 30.3831 41.6414 30.4442 41.2641 30.526C42.0561 30.572 42.1021 30.678 42.0871 30.907C42.0721 31.136 41.5871 31.407 41.1871 31.562C40.7871 31.717 41.233 32.644 40.608 33.208C39.983 33.772 36.308 33.284 35.078 30.359C33.848 27.434 34.0611 26.019 35.8551 22.194L30.1851 20.026C30.1851 20.026 30.551 14.495 35.076 12.347C39.601 10.199 49.4481 14.678 47.0851 20.94Z" fill="#ECB67B"/>
<path d="M34.58 25.375C34.853 25.3876 35.1234 25.3171 35.3555 25.1729C35.5876 25.0286 35.7705 24.8174 35.88 24.567C35.8303 24.8855 35.661 25.1731 35.4066 25.3711C35.1523 25.5692 34.832 25.6628 34.511 25.633L34.58 25.375Z" fill="#DD965B"/>
<path d="M43.375 27C43.375 27 42.669 27.362 42.575 27.781C42.481 28.2 43.323 28.539 43.323 28.539C43.1394 28.3584 43.0161 28.1254 42.97 27.872C42.944 27.523 43.375 27 43.375 27Z" fill="#DD965B"/>
<path d="M42.272 24.383L42.747 24.783C42.9005 24.9149 43.0625 25.0365 43.232 25.147C43.3005 25.2061 43.3826 25.2473 43.4709 25.267C43.5591 25.2867 43.6509 25.2843 43.738 25.26C43.9096 25.1585 44.0548 25.018 44.162 24.85C44.1102 25.0663 43.9825 25.2569 43.802 25.387C43.6942 25.4486 43.5669 25.4668 43.446 25.438C43.3366 25.4077 43.2322 25.3615 43.136 25.301C42.782 25.0646 42.4865 24.7507 42.272 24.383Z" fill="#7A4313"/>
<path d="M42.222 23.53C42.838 23.3995 43.4715 23.3738 44.096 23.454C44.949 23.606 45.284 23.865 45.483 23.53C45.682 23.195 44.174 22.235 42.222 23.53Z" fill="#7A4313"/>
<path d="M44.74 19.958C43.8353 20.8907 42.645 21.4946 41.358 21.674C40.7568 21.6132 40.152 21.7498 39.6353 22.0632C39.1186 22.3766 38.718 22.8497 38.494 23.411C38.094 24.325 39.052 25.27 38.819 26.732C38.586 28.194 38.829 28.532 39.926 28.652C41.023 28.772 43.065 28.225 43.446 28.622C43.827 29.019 43.799 30.448 42.395 31.304C41.295 31.944 41.907 32.949 41.42 33.894C40.933 34.839 36.132 33.355 35.195 31.324C34.7873 30.6166 34.5727 29.8145 34.5727 28.998C34.5727 28.1815 34.7873 27.3794 35.195 26.672C35.895 25.443 36.849 23.534 36.483 22.193C36.409 21.9461 36.2699 21.7236 36.0802 21.5491C35.8906 21.3745 35.6574 21.2542 35.4052 21.2009C35.153 21.1476 34.891 21.1632 34.647 21.2461C34.4029 21.329 34.1856 21.4761 34.018 21.672C33.406 22.315 31.518 22.272 30.694 21.995C30.2076 21.8354 29.7975 21.5013 29.543 21.057C29.543 21.057 30.035 15.434 32.743 14.075C35.451 12.716 44.74 19.958 44.74 19.958Z" fill="#70360B"/>
<path d="M36.469 30.335C34.629 28.086 37.778 25.435 36.561 22.781C36.4228 24.1672 35.9544 25.5001 35.195 26.668C34.7873 27.3754 34.5727 28.1775 34.5727 28.994C34.5727 29.8105 34.7873 30.6126 35.195 31.32C36.131 33.351 40.932 34.834 41.42 33.89C41.744 33.262 41.586 32.608 41.763 32.052C40.8078 32.2701 39.8113 32.2256 38.8793 31.9233C37.9473 31.621 37.1144 31.0722 36.469 30.335Z" fill="#5E2E0B"/>
<path d="M44.741 19.958C44.741 19.958 35.447 12.716 32.741 14.075C32.0178 14.4826 31.4294 15.0926 31.048 15.83C34.3598 18.4292 38.1409 20.3668 42.185 21.537C43.1475 21.2151 44.0224 20.6746 44.741 19.958Z" fill="#5E2E0B"/>
<path d="M46.67 22.014C43.3502 21.8459 40.1276 20.8367 37.305 19.081C32.305 16.095 31.225 15.534 31.225 15.534C31.225 15.534 32.888 8.63399 33.654 7.76499C34.42 6.89599 40.487 8.97599 44.161 11.253C48.434 13.901 50.708 15.62 50.753 16.625C50.798 17.63 46.67 22.014 46.67 22.014Z" fill="#BC4646"/>
<path d="M40.007 16.095C36.048 13.729 33.291 12.014 32.314 11.401C32.023 12.413 31.752 13.443 31.552 14.221C32.428 14.771 34.488 16.049 38.077 18.194C40.8996 19.9497 44.1222 20.9589 47.442 21.127C47.442 21.127 47.901 20.64 48.511 19.954C48.769 19.654 49.03 19.338 49.28 19.027C45.994 18.832 42.8078 17.8246 40.007 16.095Z" fill="#E89191"/>
<path d="M48.225 15.997C49.969 16.904 51.006 17.432 50.662 16.278C50.199 15.242 47.979 13.618 44.162 11.252C40.627 9.06099 34.879 7.05199 33.762 7.67899C33.507 8.00299 35.948 9.09399 39.028 10.973C42.108 12.852 46.48 15.086 48.225 15.997Z" fill="#D15E5E"/>
<path d="M36.756 22.219C36.756 22.219 37.396 20.787 36.543 20.147C35.69 19.507 34.136 20.493 33.743 22.605C33.35 24.717 34.414 25.525 34.943 25.405C35.472 25.285 35.705 24.994 35.933 24.445C36.161 23.896 36.756 22.219 36.756 22.219Z" fill="#ECB67B"/>
<path d="M34.052 22.564C34.1988 21.8163 34.5663 21.1298 35.107 20.593C35.671 20.066 36.298 20.455 36.313 21.293C36.3399 22.2158 36.0654 23.1222 35.531 23.875C35.075 24.26 34.755 23.875 34.77 23.582C34.785 23.289 35.21 22.829 35.458 22.845C35.597 22.281 35.144 21.879 34.975 21.924C35.228 21.748 35.775 22.077 35.75 22.424C35.943 21.597 36.114 21.153 35.901 20.801C35.688 20.449 35.053 20.746 34.768 21.189C34.483 21.632 34.052 22.564 34.052 22.564Z" fill="#CC894C"/>
<path d="M17.552 72.822C16.7241 70.9308 16.2822 68.8933 16.252 66.829C16.16 63.264 13.601 63.995 12.961 60.247C12.321 56.499 13.601 54.854 13.692 52.385C13.783 49.916 12.412 47.632 13.509 45.438C14.606 43.244 13.235 41.416 14.332 37.759C15.429 34.102 17.074 30.629 19.085 29.288C21.096 27.947 23.285 24.295 26.174 23.918C26.641 25.96 28.927 28.435 30.192 29.593C31.457 30.751 35.113 33.417 35.311 33.76C35.509 34.103 38.038 39.427 37.611 41.64C37.2939 43.1892 37.4864 44.7994 38.16 46.23C38.7689 48.9312 39.0957 51.6883 39.135 54.457C39.074 56.224 43.34 61.587 44.681 62.014C45.7758 62.4138 46.8357 62.9031 47.85 63.477C47.85 63.477 37.25 65.061 34.077 68.109C32.2567 69.7932 30.8222 71.8513 29.872 74.142C29.872 74.142 24.872 67.987 24.448 65.671C24.067 69.8 26.28 75.171 26.28 75.171C26.28 75.171 19.258 71.318 17.552 72.822Z" fill="#EABBA2"/>
<path d="M38.28 65.823C36.064 65.01 31.18 63.123 30.314 61.944C29.184 60.415 29.914 52.519 31.914 50.357C33.914 48.195 34.161 45.682 34.23 43.38C34.23 43.38 32.973 47.02 32.276 47.217C33.323 43.659 34.09 38.844 32.976 36.542C33.3663 40.0423 32.6598 43.5775 30.954 46.659C30.954 46.659 26.14 52.38 21.186 46.659C19.7429 44.9592 18.7185 42.9448 18.1951 40.7774C17.6716 38.61 17.6637 36.35 18.172 34.179C16.135 38.722 17.698 42.892 18.172 44.357C18.646 45.822 16.791 44.078 15.884 40.38C15.8469 43.0659 16.521 45.7138 17.838 48.055C19.238 50.776 19.931 53.846 19.303 53.497C18.675 53.148 16.652 50.218 15.465 46.311C15.256 50.288 18.814 55.451 19.442 58.172C20.07 60.893 19.651 61.312 20.767 63.335C21.883 65.358 23.139 63.614 25.232 66.126C26.847 68.064 31.162 68.891 33.048 69.168C33.362 68.818 33.702 68.468 34.072 68.107C35.3152 67.0828 36.7439 66.3074 38.28 65.823Z" fill="#E5AC93"/>
<path d="M42.538 62.747C42.538 62.747 42.329 61.836 38.913 61.047C35.2272 61.7178 31.8302 63.4872 29.168 66.123C29.168 66.123 26.996 63.193 24.642 59.582C20.874 62.042 20.874 66.228 21.242 69.524C20.38 69.406 17.755 69.307 16.493 69.264C16.625 70.031 16.8118 70.7876 17.052 71.528C18.593 71.475 22.171 71.49 23.736 72.664C21.521 65.6 24.536 62.337 24.536 62.337C24.536 62.337 27.99 69.577 29.821 70.519C33.066 62.935 42.538 62.747 42.538 62.747Z" fill="#E59470"/>
<path d="M32.586 63.452C31.344 64.2036 30.1967 65.1016 29.169 66.127C29.169 66.127 26.997 63.197 24.643 59.586C23.0177 60.6237 21.8617 62.2547 21.421 64.132C21.98 64.548 22.598 64.47 23.347 64.72C23.5742 63.8527 23.9798 63.0425 24.538 62.341C24.538 62.341 25.938 65.281 27.433 67.658C28.5097 68.1286 29.6301 68.492 30.778 68.743C31.9313 67.0243 33.5043 65.6286 35.348 64.688C34.405 64.301 33.431 63.874 32.586 63.452Z" fill="#D8805D"/>
<path d="M36.5 49.121C36.363 49.614 38 50.409 38.913 50.809C38.781 49.2653 38.5285 47.7344 38.158 46.23C37.4844 44.7994 37.2918 43.1891 37.609 41.64C38.036 39.427 35.509 34.103 35.309 33.76C35.109 33.417 31.454 30.751 30.19 29.593C28.926 28.435 26.639 25.96 26.172 23.918C24.45 24.143 22.972 25.531 21.641 26.901C21.5921 27.3481 21.671 27.8 21.8685 28.2041C22.066 28.6082 22.3741 28.948 22.757 29.184C25.057 30.754 28.157 29.707 31.918 33.109C35.679 36.511 36.101 38.656 35.734 41.22C35.367 43.784 36.689 48.441 36.5 49.121Z" fill="#E59470"/>
<path d="M67.837 64.056C67.197 63.904 62.169 62.319 61.53 62.045C60.358 61.7108 59.2081 61.3037 58.087 60.826C57.1743 60.3816 56.2132 60.0443 55.223 59.821C55.223 59.821 51.074 64.714 53.397 64.821C54.1513 64.7954 54.9021 64.9351 55.5967 65.2303C56.2913 65.5256 56.9129 65.9692 57.418 66.53C58.046 67.0493 58.7829 67.4205 59.574 67.616C59.7093 67.9427 59.9176 68.234 60.183 68.4677C60.4484 68.7014 60.7638 68.8711 61.105 68.964C62.385 69.452 63.055 69.513 63.299 68.264C63.5857 68.09 63.8012 67.8199 63.9073 67.5018C64.0133 67.1836 64.003 66.8382 63.878 66.527C64.731 65.127 63.025 63.967 63.025 63.967C64.2216 64.384 65.4494 64.705 66.697 64.927C68.02 65.077 68.446 64.392 67.837 64.056Z" fill="#ECB67B"/>
<path d="M63.296 68.261C63.3831 67.6073 63.2353 66.9439 62.879 66.389C62.29 65.565 61.679 65.565 61.662 65.355C61.645 65.145 61.884 65.255 62.434 65.591C62.8467 65.8833 63.1537 66.3014 63.309 66.7826C63.4644 67.2639 63.4598 67.7825 63.296 68.261Z" fill="#E5A86C"/>
<path d="M63.871 66.524C63.7122 65.8835 63.3816 65.2986 62.915 64.832C62.274 64.361 61.9731 64.426 61.8821 64.243C61.7911 64.06 62.026 64.007 62.471 64.243C62.872 64.481 63.2091 64.813 63.453 65.2105C63.6969 65.6079 63.8404 66.0587 63.871 66.524Z" fill="#E5A86C"/>
<path d="M68.083 64.304C67.883 65.054 66.894 64.819 65.85 64.553C64.5004 64.1929 63.193 63.6901 61.95 63.053C61.244 62.608 60.76 63.014 61.558 63.21C62.2325 63.4579 62.8578 63.8232 63.405 64.289C64.4788 64.6207 65.5754 64.8737 66.686 65.046C67.734 65.167 68.228 64.639 68.083 64.304Z" fill="#E5A86C"/>
<path d="M61.323 67.685C61.715 68.025 61.598 68.077 61.859 68.117C62.12 68.157 62.526 67.777 61.924 67.332C61.6139 67.1094 61.2569 66.9607 60.8804 66.8974C60.5039 66.8342 60.1179 66.8579 59.752 66.967C58.941 67.178 58.575 66.678 57.79 66.181C57.005 65.684 55.932 65.056 56.613 63.355C56.9712 62.3341 56.9591 61.2199 56.579 60.207C56.1344 60.0515 55.6809 59.9226 55.221 59.821C55.221 59.821 54.985 60.1 54.658 60.521L53.781 64.841C54.4695 64.8597 55.147 65.0189 55.7719 65.3086C56.3967 65.5983 56.9559 66.0126 57.415 66.526C58.043 67.0453 58.7799 67.4165 59.571 67.612C59.7206 67.4803 59.8892 67.3717 60.071 67.29C60.486 67.096 60.931 67.344 61.323 67.685Z" fill="#E5A86C"/>
<path d="M31.808 36.479C31.808 36.479 32.917 39.404 32.491 41.172C32.123 43.1302 32.2913 45.1515 32.978 47.022C33.587 48.485 34.003 50.801 35.471 51.654C35.9557 51.9377 36.3785 52.3158 36.7144 52.7658C37.0504 53.2158 37.2927 53.7287 37.427 54.274C37.549 54.701 38.827 54.944 40.474 55.374C41.848 55.8844 43.1736 56.5166 44.435 57.263C44.984 57.446 54.369 59.198 55.649 59.701C56.06 63.129 53.775 66.601 53.135 66.968C50.027 66.968 45.635 66.222 43.753 66.282C41.871 66.342 42.43 66.727 39.377 66.221C36.324 65.715 33.257 66.587 30.314 65.246C27.371 63.905 23.959 62.504 23.227 60.246C22.495 57.988 21.277 50.373 19.174 44.888C17.071 39.403 18.717 33.675 23.928 32.334C29.139 30.993 31.808 36.479 31.808 36.479Z" fill="#EFC3AF"/>
<path d="M28.096 34.382C28.934 34.7445 29.6831 35.2847 30.2916 35.9654C30.9001 36.646 31.3533 37.4508 31.62 38.324C32.143 40.836 32.143 44.045 31.62 44.743C31.097 45.441 30.678 45.162 28.096 42.301C25.514 39.44 24.996 41.638 25.724 42.789C26.7034 44.5823 28.1499 46.0771 29.91 47.115C31.8534 48.3226 33.5661 49.8667 34.968 51.675C36.189 53.045 37.168 53.882 36.608 54.475C36.048 55.068 34.026 54.824 31.759 52.94C30.0285 51.5897 28.6021 49.8898 27.573 47.951C26.173 45.683 23.805 41.567 24.673 40.172C25.541 38.777 26.94 39.963 27.673 38.916C28.406 37.869 25.894 36.16 26.312 35.079C26.73 33.998 28.096 34.382 28.096 34.382Z" fill="#F4CEBE"/>
<path d="M50.491 59.168C50.491 59.168 48.555 60.476 44.84 59.587C41.125 58.698 38.666 59.532 35.107 59.821C31.548 60.11 32.334 57.912 34.584 57.284C36.834 56.656 40.654 57.022 40.968 56.865C41.282 56.708 37.698 55.504 35.003 56.08C32.308 56.656 29.038 56.686 27.73 55.925C26.422 55.164 27.207 54.091 31.158 54.615C33.4399 54.902 35.7395 55.0244 38.039 54.981C39.4166 55.077 40.7439 55.5374 41.885 56.315C43.48 57.284 47.144 59.113 50.491 59.168Z" fill="#F4CEBE"/>
<path d="M47.799 66.581C48.936 66.699 50.149 66.824 51.299 66.899C53.575 64.34 53.82 60.361 53.842 59.223C53.01 59.033 51.987 58.816 50.924 58.596C51.0464 60.0771 50.8284 61.5666 50.2867 62.9506C49.7451 64.3346 48.8942 65.5763 47.799 66.581Z" fill="#E59470"/>
<path d="M25.449 24.084L28.377 22.014C28.377 22.014 30.602 27.384 32.613 29.167C34.624 30.95 35.95 31.292 35.313 33.761C33.119 33.144 29.859 30.561 28 28.399C26.895 27.1273 26.0306 25.6652 25.449 24.084Z" fill="#EFC3AF"/>
</svg>
