<svg xmlns="http://www.w3.org/2000/svg" width="46" height="36.598" viewBox="0 0 46 36.598">
    <g id="Group_2301" transform="translate(-116.844 -275.601)">
        <g id="Group_2276" transform="translate(119.416 275.601)">
            <path id="Path_12002" d="M694.626,511.528a11.534,11.534,0,1,1-11.534-11.534A11.534,11.534,0,0,1,694.626,511.528Z" transform="translate(-662.857 -491.293)" fill="#ae8f12"/>
            <g id="Group_2274" transform="translate(0)">
                <path id="Path_12003" d="M702.684,477.163c0,.941-.764,4.508-1.705,4.508s-1.705-3.566-1.705-4.508a1.705,1.705,0,0,1,3.41,0Z" transform="translate(-680.744 -475.458)" fill="#ceaf32"/>
                <path id="Path_12005" d="M656.578,501.813c.816.471,3.522,2.915,3.051,3.73s-3.94-.306-4.756-.777a1.7,1.7,0,1,1,1.7-2.953Z" transform="translate(-651.538 -494.294)" fill="#ceaf32"/>
                <path id="Path_12006" d="M648.725,527.713c.942,0,4.508.763,4.508,1.7s-3.566,1.7-4.507,1.7a1.7,1.7,0,1,1,0-3.409Z" transform="translate(-647.02 -509.182)" fill="#ceaf32"/>
                <path id="Path_12012" d="M748.133,531.123c-.941,0-4.508-.763-4.508-1.7s3.567-1.705,4.507-1.705a1.7,1.7,0,1,1,0,3.41Z" transform="translate(-709.367 -509.182)" fill="#ceaf32"/>
                <path id="Path_12013" d="M742.985,504.767c-.815.471-4.285,1.593-4.756.778s2.237-3.26,3.052-3.73a1.7,1.7,0,1,1,1.7,2.952Z" transform="translate(-705.849 -494.296)" fill="#ceaf32"/>
            </g>
        </g>
    </g>
</svg>