<svg width="200" height="161" viewBox="0 0 200 161" fill="none" xmlns="http://www.w3.org/2000/svg">
<mask id="mask0_1_13" style="mask-type:luminance" maskUnits="userSpaceOnUse" x="50" y="0" width="118" height="136">
<path d="M160.131 35.779V29.986C159.296 22.099 146.667 16.496 131.361 9.19903C120.061 3.81103 118.606 0.733032 118.606 0.733032C118.606 0.733032 116.406 4.07003 105.85 9.19903C90.606 16.606 78.075 22.099 77.24 29.986V35.779C75.6007 35.771 74.0058 36.312 72.7097 37.3156C71.4135 38.3193 70.4906 39.7279 70.088 41.317V128.249H66.33V18.034C67.0806 17.3411 67.6207 16.4506 67.8885 15.4648C68.1563 14.4789 68.1409 13.4375 67.844 12.46C66.504 8.15103 61.02 7.36803 59.114 4.49603C57.207 7.36803 51.724 8.15203 50.384 12.46C50.0868 13.4375 50.0713 14.4789 50.339 15.4648C50.6068 16.4508 51.1471 17.3412 51.898 18.034V135.205H167.124V41.317C166.757 39.7387 165.866 38.3315 164.596 37.3255C163.325 36.3196 161.751 35.7743 160.131 35.779Z" fill="white"/>
</mask>
<g mask="url(#mask0_1_13)">
<path d="M170.377 -6.26898H44.651V139.952H170.377V-6.26898Z" fill="#332E66"/>
<path d="M164.253 97.556L163.232 82.077C163.457 82.077 163.674 81.9875 163.833 81.8281C163.992 81.6687 164.082 81.4525 164.082 81.2271V80.637C164.082 80.4116 163.992 80.1954 163.833 80.036C163.674 79.8766 163.457 79.787 163.232 79.787H163.081L161.981 63.107H162.845V61.376H163.233C163.411 61.3791 163.587 61.329 163.737 61.2321C163.887 61.1353 164.004 60.996 164.075 60.832C164.152 60.652 164.17 60.452 164.125 60.2613C164.08 60.0706 163.975 59.8995 163.825 59.773C164.167 59.3619 164.373 58.8542 164.414 58.3207C164.454 57.7871 164.327 57.2542 164.051 56.7961C163.304 55.7951 162.343 54.9732 161.238 54.39C160.764 54.1016 160.308 53.784 159.873 53.439C160.148 53.2881 160.372 53.058 160.516 52.7784C160.659 52.4988 160.715 52.1827 160.676 51.8709C160.638 51.5592 160.507 51.2661 160.3 51.0297C160.093 50.7934 159.82 50.6245 159.516 50.545L159.09 45.907L158.699 50.545C158.394 50.6253 158.121 50.7954 157.914 51.0332C157.707 51.2711 157.577 51.5657 157.54 51.8786C157.503 52.1915 157.562 52.5083 157.707 52.7877C157.853 53.0671 158.079 53.2961 158.357 53.445C157.924 53.781 157.471 54.0909 157.001 54.373C155.893 54.9492 154.926 55.7645 154.172 56.76C153.906 57.1923 153.774 57.6942 153.795 58.2014C153.815 58.7087 153.986 59.1984 154.286 59.608C154.098 59.6951 153.945 59.8438 153.853 60.0296C153.76 60.2154 153.735 60.4271 153.779 60.6296C153.824 60.8322 153.936 61.0134 154.098 61.1433C154.259 61.2733 154.461 61.3441 154.668 61.344H155.336V63.101H156.199L155.064 79.7811H154.864C154.639 79.7811 154.422 79.8706 154.263 80.03C154.104 80.1894 154.014 80.4056 154.014 80.631V81.221C154.014 81.4465 154.104 81.6627 154.263 81.8221C154.422 81.9815 154.639 82.071 154.864 82.071H154.907L153.854 97.55H148.179L147.599 88.75H148.24V87.466H148.528C148.661 87.4683 148.792 87.4305 148.904 87.3576C149.016 87.2847 149.103 87.18 149.155 87.057C149.211 86.9239 149.223 86.7765 149.189 86.6362C149.155 86.496 149.077 86.3701 148.967 86.277C149.221 85.9721 149.373 85.5957 149.403 85.2002C149.433 84.8047 149.339 84.4097 149.134 84.07C148.58 83.3279 147.867 82.7185 147.048 82.286C146.697 82.0737 146.359 81.8399 146.036 81.586C146.24 81.4739 146.406 81.3032 146.512 81.0959C146.618 80.8886 146.659 80.6543 146.631 80.4232C146.602 80.1922 146.505 79.975 146.352 79.7997C146.198 79.6244 145.996 79.4992 145.771 79.44L145.455 76.001L145.165 79.44C144.939 79.4994 144.736 79.6256 144.582 79.8021C144.429 79.9785 144.332 80.1972 144.304 80.4295C144.277 80.6618 144.32 80.8969 144.428 81.1043C144.537 81.3117 144.705 81.4816 144.911 81.592C144.59 81.8412 144.254 82.071 143.905 82.28C143.082 82.707 142.365 83.3116 141.805 84.05C141.607 84.3704 141.51 84.7423 141.525 85.1184C141.54 85.4944 141.667 85.8574 141.889 86.161C141.75 86.2258 141.637 86.3362 141.569 86.474C141.501 86.6117 141.481 86.7685 141.515 86.9185C141.548 87.0685 141.631 87.2027 141.751 87.299C141.87 87.3953 142.019 87.4479 142.173 87.448H142.673V88.748H143.312L142.712 97.548H136.871V92.279H129.997C131.085 90.4563 131.771 88.4221 132.009 86.3127C132.247 84.2033 132.031 82.0674 131.377 80.048C127.777 68.4911 113.787 65.781 107.525 58.733L107.243 54.0331C107.459 53.8811 107.632 53.6765 107.746 53.4389C107.86 53.2012 107.912 52.9383 107.896 52.675C107.88 52.4118 107.797 52.1569 107.656 51.9347C107.514 51.7124 107.317 51.5301 107.085 51.405L106.35 46.805L105.615 51.405C105.383 51.5301 105.186 51.7124 105.044 51.9347C104.902 52.1569 104.82 52.4118 104.804 52.675C104.788 52.9383 104.84 53.2012 104.954 53.4389C105.068 53.6765 105.241 53.8811 105.457 54.0331L105.175 58.733C98.914 65.781 84.918 68.4911 81.323 80.048C80.6685 82.0674 80.453 84.2033 80.691 86.3127C80.929 88.4221 81.615 90.4563 82.703 92.279H75.829V97.548H70.029L69.449 88.748H70.09V87.4641H70.378C70.5112 87.4662 70.6421 87.4284 70.7537 87.3555C70.8653 87.2826 70.9524 87.178 71.004 87.055C71.0598 86.922 71.0718 86.7747 71.0382 86.6344C71.0046 86.4942 70.9271 86.3683 70.817 86.275C71.0706 85.9701 71.223 85.5937 71.253 85.1982C71.2829 84.8027 71.1889 84.4077 70.984 84.068C70.4297 83.3258 69.7172 82.7164 68.898 82.284C68.5467 82.0716 68.2087 81.8378 67.886 81.584C68.09 81.4719 68.2558 81.3012 68.3618 81.0939C68.4678 80.8866 68.5092 80.6523 68.4807 80.4212C68.4521 80.1902 68.355 79.973 68.2017 79.7977C68.0485 79.6224 67.8462 79.4972 67.621 79.438L67.305 75.999L67.015 79.438C66.7887 79.4974 66.5857 79.6236 66.4322 79.8001C66.2787 79.9766 66.1819 80.1952 66.1545 80.4275C66.1271 80.6598 66.1703 80.8949 66.2785 81.1023C66.3866 81.3097 66.5548 81.4796 66.761 81.59C66.44 81.8393 66.1044 82.069 65.756 82.278C64.9333 82.7049 64.216 83.3096 63.656 84.048C63.4574 84.3692 63.3595 84.7424 63.3749 85.1197C63.3902 85.497 63.518 85.861 63.742 86.165C63.6027 86.2298 63.4897 86.3402 63.4216 86.478C63.3535 86.6157 63.3345 86.7725 63.3676 86.9225C63.4007 87.0725 63.484 87.2067 63.6037 87.303C63.7234 87.3993 63.8724 87.4519 64.026 87.452H64.526V88.752H65.165L64.565 97.552H58.857L57.836 82.073C58.0614 82.073 58.2776 81.9835 58.437 81.8241C58.5964 81.6647 58.686 81.4485 58.686 81.223V80.633C58.686 80.4076 58.5964 80.1914 58.437 80.032C58.2776 79.8726 58.0614 79.7831 57.836 79.7831H57.685L56.585 63.103H57.45V61.376H57.838C58.0165 61.3791 58.1918 61.329 58.3417 61.2321C58.4917 61.1353 58.6094 60.996 58.68 60.832C58.7573 60.652 58.7747 60.452 58.7297 60.2613C58.6847 60.0706 58.5796 59.8995 58.43 59.773C58.7723 59.3618 58.978 58.8542 59.0185 58.3206C59.059 57.7871 58.9323 57.2542 58.656 56.7961C57.9082 55.7951 56.9469 54.9732 55.842 54.39C55.3679 54.1014 54.912 53.7838 54.477 53.439C54.7525 53.2881 54.9763 53.058 55.1195 52.7784C55.2628 52.4988 55.3188 52.1827 55.2803 51.8709C55.2418 51.5592 55.1107 51.2661 54.9038 51.0297C54.6969 50.7934 54.4239 50.6245 54.12 50.545L53.694 45.907L53.303 50.545C52.9983 50.6253 52.7248 50.7954 52.5181 51.0332C52.3115 51.2711 52.1812 51.5657 52.1443 51.8786C52.1074 52.1915 52.1656 52.5083 52.3112 52.7877C52.4569 53.0671 52.6833 53.2961 52.961 53.445C52.5277 53.7809 52.0749 54.0908 51.605 54.373C50.4967 54.9491 49.5303 55.7645 48.776 56.76C48.5095 57.1922 48.378 57.6941 48.3983 58.2014C48.4186 58.7088 48.5898 59.1985 48.89 59.608C48.7017 59.6951 48.5489 59.8438 48.4567 60.0296C48.3645 60.2154 48.3385 60.4271 48.3831 60.6296C48.4277 60.8322 48.5401 61.0134 48.7017 61.1433C48.8634 61.2733 49.0646 61.3441 49.272 61.344H49.94V63.101H50.802L49.667 79.7811H49.467C49.2415 79.7811 49.0253 79.8706 48.8659 80.03C48.7065 80.1894 48.617 80.4056 48.617 80.631V81.221C48.617 81.4465 48.7065 81.6627 48.8659 81.8221C49.0253 81.9815 49.2415 82.071 49.467 82.071H49.511L48.456 97.556H36.915V132.747H175.783V97.556H164.253Z" fill="#211E42"/>
</g>
<path d="M82.65 56.294L81.583 56.911L80.634 56.125L80.891 57.33L79.85 57.99L81.076 58.118L81.382 59.312L81.882 58.186L83.112 58.264L82.196 57.44L82.65 56.294Z" fill="#F8CB6E"/>
<path d="M123.079 41.216L122.063 39.859L122.018 41.554L120.418 42.1L122.018 42.667L122.042 44.367L123.075 43.023L124.695 43.523L123.736 42.123L124.713 40.738L123.079 41.216Z" fill="#F8CB6E"/>
<path d="M150.528 34.463L149.296 34.11L149.196 32.832L148.479 33.895L147.233 33.595L148.022 34.605L147.349 35.696L148.549 35.258L149.379 36.235L149.334 34.954L150.528 34.463Z" fill="#F8CB6E"/>
<path d="M123.715 17.4601L123.637 16.4271L123.058 17.2861L122.049 17.0411L122.687 17.8571L122.143 18.7391L123.117 18.3851L123.788 19.1751L123.752 18.1401L124.71 17.7461L123.715 17.4601Z" fill="#F8CB6E"/>
<path d="M58.8739 34.215L58.5329 33.421L58.3079 34.255L57.4479 34.334L58.1719 34.806L57.9809 35.648L58.6529 35.106L59.3949 35.548L59.0869 34.741L59.7359 34.172L58.8739 34.215Z" fill="#F8CB6E"/>
<path d="M100.481 34.616C99.2029 34.6163 97.9532 34.2387 96.8891 33.5307C95.825 32.8227 94.9939 31.816 94.5004 30.637C94.0069 29.458 93.8729 28.1594 94.1154 26.9045C94.3578 25.6496 94.9658 24.4944 95.863 23.584C94.4355 23.9353 93.1329 24.6742 92.099 25.7191C91.065 26.764 90.3398 28.0743 90.0036 29.5053C89.6673 30.9364 89.7331 32.4325 90.1935 33.8286C90.654 35.2246 91.4912 36.4663 92.6129 37.4165C93.7345 38.3667 95.0969 38.9885 96.5496 39.2132C98.0024 39.4379 99.4889 39.2569 100.845 38.69C102.202 38.1231 103.375 37.1925 104.236 36.0008C105.096 34.8091 105.611 33.4028 105.723 31.937C105.123 32.7664 104.336 33.4418 103.424 33.9075C102.513 34.3732 101.504 34.616 100.481 34.616Z" fill="#F8CB6E"/>
<path d="M71.254 156L22.204 142.652L129.251 128.317L178.3 141.665L71.254 156Z" fill="#E0DCFF"/>
<path d="M163.024 140.499L90.024 150.099C88.2701 150.223 86.5074 150.081 84.796 149.678L84.269 149.549C83.2292 149.579 82.1898 149.476 81.176 149.243C80.6404 149.107 80.0835 149.076 79.536 149.151C78.9987 149.302 78.4463 149.392 77.889 149.421C75.93 149.584 71.789 149.027 65.947 148.192C64.084 147.875 62.203 147.675 60.315 147.592C60.315 147.592 60.679 147.32 58.876 146.461C56.276 145.221 54.545 144.351 56.041 144.075C56.6934 143.963 57.3532 143.9 58.015 143.885C58.582 143.868 58.59 143.716 58.04 143.585C57.112 143.358 56.859 143.103 57.372 142.971L56.845 142.842C55.232 142.448 54.958 141.997 56.232 141.834L129.232 132.234L163.024 140.499Z" fill="#8B81C7"/>
<path d="M71.2536 156L178.301 141.665L129.251 128.317L22.2042 142.652L71.2536 156ZM70.9663 160.328L0.786377 141.23L129.539 123.989L199.719 143.086L70.9663 160.328Z" fill="white"/>
<path d="M121.654 84.8921C120.88 85.3921 119.427 88.1251 118.954 90.9401C118.481 93.7551 115.995 105.696 115.654 106.4C114.859 107.695 113.887 108.873 112.767 109.9C110.843 111.934 104.418 119.123 104.043 119.254C103.668 119.385 105.401 120.109 106.499 120.854C107.212 121.361 107.85 121.967 108.393 122.654C108.393 122.654 114.931 119.791 118.501 116.903C123.485 112.87 123.738 109.518 124.331 104.59C124.924 99.6621 121.654 84.8921 121.654 84.8921Z" fill="#5D82E3"/>
<path d="M148.882 132.375C149.282 133.813 151.388 134.383 152.814 134.942C153.717 135.301 154.597 135.714 155.45 136.18C154.569 134.119 153.907 131.971 153.476 129.772C153.155 127.976 152.289 126.322 150.995 125.035L148.882 132.375Z" fill="#091C26"/>
<path d="M127.907 137.014C130.416 136.453 132.679 136.451 135.197 135.702C137.715 134.953 140.924 135.402 143.074 135.502C145.224 135.602 147.399 135.222 147.441 134.446C146.993 134.081 146.467 133.825 145.904 133.698C144.97 133.372 144.096 132.893 143.32 132.279C142.329 131.679 137.045 127.061 135.025 126.618C133.005 126.175 132.616 127.08 130.811 127.671C129.006 128.262 125.451 129.876 125.246 129.936C125.041 129.996 127.907 137.014 127.907 137.014Z" fill="#F7B2A1"/>
<path d="M92.417 139.951C95.382 141.537 102.277 142.918 105.925 142.568C109.573 142.218 120.159 139.709 123.104 138.932C126.049 138.155 130.238 137.456 130.937 137.282C131.636 137.108 132.323 132.875 131.886 130.253C131.748 129.189 131.534 128.135 131.248 127.101C131.248 127.101 113.441 130.823 110.187 131.394C106.933 131.965 96.612 133.447 96.612 133.447C96.612 133.447 89.452 138.365 92.417 139.951Z" fill="#133A50"/>
<path d="M102.78 138.034C107.056 137.267 111.369 136.717 115.701 136.386C121.138 135.886 126.501 134.986 131.896 134.237C132.068 132.915 132.065 131.576 131.887 130.254C131.749 129.19 131.535 128.136 131.249 127.102C131.249 127.102 113.442 130.824 110.189 131.395C106.936 131.966 96.614 133.448 96.614 133.448C96.614 133.448 92.379 136.358 91.775 138.423C95.327 139.548 99.187 138.734 102.78 138.034Z" fill="#0F2C3D"/>
<path d="M99.841 137.661L92.416 139.951C92.416 139.951 89.816 137.907 89.793 136.137C89.77 134.367 91.093 131.206 92.923 129.213C94.753 127.22 105.239 122.203 109.04 119.993C112.841 117.783 122.123 111.993 122.123 111.993L137.223 111.393C138.767 114.251 139.485 117.483 139.295 120.726C139.134 123.639 136.235 126.126 133.885 127.226C131.535 128.326 106.645 135.176 106.645 135.176L99.841 137.661Z" fill="#133A50"/>
<path d="M142.642 142.148C145.151 141.586 146.756 140.948 149.274 140.198C151.792 139.448 155.659 140.533 157.809 140.636C159.959 140.739 162.134 140.357 162.176 139.58C161.728 139.215 161.202 138.959 160.639 138.832C159.59 138.711 158.575 138.385 157.651 137.873C156.325 136.968 155.078 135.954 153.921 134.841C152.507 133.482 150.821 131.997 149.837 131.781C147.817 131.337 147.987 133.659 146.182 134.25C144.14 134.687 142.067 134.961 139.982 135.07C139.776 135.129 142.642 142.148 142.642 142.148Z" fill="#F7B2A1"/>
<path d="M107.152 145.084C110.117 146.67 117.012 148.051 120.66 147.701C124.308 147.351 134.894 144.842 137.839 144.065C140.784 143.288 144.973 142.589 145.673 142.415C146.373 142.241 147.058 138.008 146.622 135.386C146.483 134.322 146.27 133.269 145.984 132.234C145.984 132.234 128.176 135.956 124.923 136.528C121.67 137.1 111.348 138.581 111.348 138.581C111.348 138.581 104.187 143.498 107.152 145.084Z" fill="#133A50"/>
<path d="M114.819 143.939C119.435 143.099 125.878 140.939 130.305 139.527C136.752 137.476 140.041 137.174 146.739 136.574C146.722 136.176 146.683 135.78 146.621 135.387C146.482 134.323 146.269 133.269 145.983 132.235C145.983 132.235 128.175 135.957 124.922 136.529C121.669 137.101 111.347 138.582 111.347 138.582C111.347 138.582 106.394 141.624 106.971 143.633C109.359 143.773 112.702 144.324 114.819 143.939Z" fill="#0F2C3D"/>
<path d="M114.579 142.794L107.154 145.085C107.154 145.085 104.554 143.041 104.531 141.271C104.508 139.501 105.831 136.34 107.662 134.347C111.405 130.668 115.513 127.379 119.923 124.533C123.723 122.323 136.861 117.133 136.861 117.133L151.961 116.533C152.907 120.083 153.329 123.751 153.213 127.423C153.122 129.058 153.451 131.496 151.306 132.957C150.045 133.525 148.754 134.026 147.44 134.457C145.091 135.557 121.383 140.322 121.383 140.322L114.579 142.794Z" fill="#133A50"/>
<path d="M105.936 143.939C105.18 143.233 104.684 142.293 104.528 141.271C104.507 139.502 105.828 136.34 107.659 134.347C111.402 130.668 115.51 127.379 119.92 124.533C123.72 122.323 136.858 117.133 136.858 117.133L151.958 116.533C152.904 120.083 153.326 123.751 153.21 127.423" stroke="#0F2C3D" stroke-miterlimit="10"/>
<path d="M123.381 82.1021C122.391 82.8468 121.621 83.8458 121.154 84.993C120.686 86.1401 120.538 87.3925 120.725 88.6171C121.059 92.7091 121.487 98.7461 121.487 98.7461L126.075 96.6461L123.381 82.1021Z" fill="#5D82E3"/>
<path d="M137.34 66.6331C137.34 66.6331 137.999 69.7771 138.473 71.3701C138.728 72.3817 139.112 73.3563 139.616 74.2701C140.29 75.331 144.202 78.47 144.202 78.47C144.202 78.47 133.05 84.5351 129.666 84.7021C126.282 84.8691 128.02 78.457 128.02 78.457C128.02 78.457 130.579 75.85 131.041 74.489C131.381 72.7644 131.553 71.0109 131.555 69.2531L137.34 66.6331Z" fill="#F7B2A1"/>
<path d="M125.322 57.1051C124.332 57.6981 123.416 57.9601 123.096 58.7531C122.533 60.6489 122.373 62.6417 122.626 64.6031C122.86 66.0561 123.264 68.8091 123.659 70.4981C124.244 72.3973 125.207 74.159 126.488 75.6781C128.073 75.9866 129.709 75.9237 131.266 75.4941C132.266 75.0231 137.804 70.9551 137.366 67.3161C137.366 67.3161 138.591 67.6371 139.926 64.2851C140.274 63.4111 137.108 57.9851 136.626 57.0051C135.45 54.6191 129.105 57.8511 127.487 57.7401C126.716 57.7653 125.957 57.5428 125.322 57.1051Z" fill="#F7B2A1"/>
<path d="M127.763 59.3531C132.15 58.0331 133.178 58.9171 133.306 61.1641C133.349 61.9281 135.075 62.9941 135.193 63.7201C135.311 64.4461 136.258 64.7851 136.258 64.7851L136.61 66.9641C136.651 67.5792 136.761 68.1877 136.939 68.7781C137.273 69.4876 137.705 70.1467 138.223 70.7361C138.223 70.7361 137.776 69.2211 139.385 67.2891C143.208 62.6991 138.285 56.5521 133.938 54.3951C131.693 53.2801 128.715 54.5181 126.994 56.4951C124.971 58.8291 125.957 59.8961 127.763 59.3531Z" fill="url(#paint0_linear_1_13)"/>
<path d="M135.972 65.8321C135.895 64.8375 135.924 63.8375 136.059 62.8491H135.046C135.046 62.8491 134.735 66.0631 134.598 67.8391C134.461 69.6151 133.782 70.4531 132.672 70.2611C131.562 70.0691 130.872 68.8831 129.872 68.5511C128.661 68.1278 127.358 68.0383 126.1 68.2921C125.36 68.4512 124.71 68.8887 124.284 69.5141C123.856 70.5647 123.859 71.741 124.29 72.7901C124.752 74.3031 125.331 75.5811 126.957 76.1321C128.974 76.6726 131.121 76.4203 132.957 75.4271C133.753 75.0016 134.455 74.4188 135.019 73.714C135.584 73.0092 135.999 72.1971 136.24 71.3271C136.336 69.491 136.246 67.6501 135.972 65.8321ZM130.327 73.1321C129.901 73.2541 129.45 73.2619 129.021 73.1547C128.591 73.0474 128.197 72.8289 127.878 72.5211C127.832 72.3856 127.751 72.2649 127.643 72.1713C127.536 72.0778 127.404 72.0148 127.264 71.9891C127.028 71.9071 126.848 72.3321 126.502 72.8951C126.156 73.4581 125.441 73.3551 125.083 72.4731C124.919 72.1106 124.83 71.7189 124.821 71.3213C124.813 70.9236 124.884 70.5283 125.032 70.1591C125.337 69.3651 126.772 68.8591 128.6 69.0841C130.428 69.3091 130.793 70.0451 131.009 70.5601C131.225 71.0751 131.142 72.8021 130.326 73.1281L130.327 73.1321Z" fill="url(#paint1_linear_1_13)"/>
<path d="M120.671 116.07C126.913 116.524 133.147 117.094 139.41 117.17C143.602 117.186 147.792 116.974 151.961 116.533C151.661 112.443 152.831 107.987 152.419 103.874C151.758 97.4071 154.619 87.5991 152.06 82.7471C151.386 81.4681 142.142 76.4271 142.142 76.4271C142.142 76.4271 137.729 81.959 132.508 82.244C127.642 82.512 128.283 77.729 128.283 77.729L123.383 82.1071C122.475 86.4798 121.876 90.9111 121.59 95.368C121.39 98.74 120.708 105.391 120.871 112.232C120.784 113.344 120.721 114.632 120.671 116.07Z" fill="#304BC9"/>
<path d="M140.645 64.7161C139.159 63.3953 137.409 62.4051 135.512 61.8111C132.681 60.9252 129.73 60.4865 126.764 60.5111C123.664 60.5751 122.564 61.2201 122.564 61.2201C122.688 59.5286 123.12 57.8739 123.837 56.3371C124.978 54.3151 128.086 51.6691 135.031 53.2891C138.479 54.0891 140.22 57.4671 140.786 59.5981C141.084 61.2962 141.036 63.0369 140.645 64.7161Z" fill="white"/>
<path d="M135.651 63.937C136.065 62.851 136.451 61.872 137.638 61.998C138.825 62.124 139.714 63.337 138.526 64.985C138.045 65.7818 137.389 66.4583 136.607 66.963C136.188 65.989 135.867 64.9752 135.651 63.937Z" fill="#F7B2A1"/>
<path d="M142.143 76.421C140.58 78.2517 138.774 79.8602 136.775 81.202C135.081 82.3061 133.035 82.7366 131.04 82.409L131.687 79.924C133.464 79.5622 135.128 78.78 136.54 77.643C139.184 75.643 140.64 74.538 140.64 74.538L142.143 76.421Z" fill="url(#paint2_linear_1_13)"/>
<path d="M131.041 82.409L130.616 79.727C129.92 78.8945 129.429 77.9111 129.181 76.855L127.56 77.918C127.56 77.918 126.996 79.209 129.099 81.26C129.627 81.8165 130.299 82.2144 131.041 82.409Z" fill="url(#paint3_linear_1_13)"/>
<path d="M131.106 82.1591L129.939 94.3841L131.675 95.8471" stroke="#4A74E3" stroke-miterlimit="10"/>
<path d="M132.025 85.3911C132.025 85.5462 132.087 85.695 132.196 85.8047C132.306 85.9144 132.455 85.9761 132.61 85.9761C132.765 85.9909 132.92 85.944 133.04 85.8455C133.161 85.7471 133.238 85.605 133.255 85.4501C133.255 85.2949 133.193 85.1461 133.084 85.0364C132.974 84.9267 132.825 84.8651 132.67 84.8651C132.515 84.8502 132.36 84.8971 132.239 84.9956C132.119 85.0941 132.042 85.2361 132.025 85.3911Z" fill="#4A74E3"/>
<path d="M131.661 92.255C131.661 92.4102 131.723 92.559 131.832 92.6687C131.942 92.7784 132.091 92.84 132.246 92.84C132.401 92.8549 132.556 92.8079 132.676 92.7094C132.797 92.611 132.874 92.4689 132.89 92.314C132.89 92.1589 132.828 92.0101 132.719 91.9004C132.609 91.7907 132.46 91.729 132.305 91.729C132.15 91.7145 131.996 91.7615 131.875 91.8599C131.755 91.9584 131.678 92.1003 131.661 92.255Z" fill="#4A74E3"/>
<path d="M120.414 108.545C120.278 109.528 120.075 111.598 118.766 112.63C116.404 114.438 113.743 115.816 110.904 116.703C106.584 117.99 105.161 120.569 105.161 120.569C105.161 120.569 108.353 121.369 111.92 122.582C115.22 123.864 118.847 124.039 122.256 123.082C125.5 122.042 131.565 124.576 135.51 127.007C137.61 128.299 140.849 133.733 144.227 136.207C147.207 138.389 151.927 136.98 151.927 136.98C151.927 136.98 150.266 136.285 150.32 132.948C150.347 131.242 150.594 129.546 151.055 127.903C151.055 127.903 152.587 131.587 153.206 133.015C153.779 134.184 154.536 135.254 155.449 136.183C155.449 136.183 154.014 128.792 153.666 125.338C153.327 120.608 153.224 115.864 153.359 111.123C153.502 108.439 152.197 102.995 152.197 102.995L121.508 103.395C120.968 105.07 120.602 106.795 120.414 108.545Z" fill="#304BC9"/>
<path d="M127.557 122.776C127.557 122.776 121.146 126.476 119.957 127.061C118.708 127.661 117.523 128.386 116.421 129.225C116.018 129.653 115.743 130.186 115.629 130.762C115.629 130.762 113.886 133.187 113.318 134.152C112.75 135.117 112.518 135.864 112.888 136.173C113.021 136.259 113.174 136.308 113.332 136.315C113.49 136.323 113.647 136.289 113.788 136.216C113.788 136.216 113.352 137.129 113.717 137.555C114.082 137.981 114.867 137.785 115.349 137.225L115.83 136.665C115.86 136.788 115.918 136.902 116 136.999C116.082 137.096 116.184 137.173 116.3 137.224C116.417 137.274 116.543 137.298 116.669 137.292C116.796 137.286 116.919 137.251 117.03 137.189C118.017 136.828 119.073 135.189 119.693 134.458C119.505 135.103 119.278 135.735 119.012 136.351C118.723 136.921 119.548 137.193 120.159 136.639C120.77 136.085 121.767 134.324 123.036 133.51C124.305 132.696 125.509 130.71 126.423 129.297C127.337 127.884 132.934 124.607 132.934 124.607L127.557 122.776Z" fill="#F7B2A1"/>
<path d="M151.439 82.503C146.051 81.43 143.339 85.7321 142.36 90.1471C141.381 94.5621 140.714 106.827 139.388 109.747C137.918 112.987 133.739 117.094 130.642 119.622C127.545 122.15 124.165 124.722 124.165 124.722C125.549 125.77 126.798 126.984 127.885 128.338C129.054 130.038 128.636 130.663 128.636 130.663C128.636 130.663 138.278 125.982 142.922 122.189C147.566 118.396 150.758 114.089 151.722 109.895C152.686 105.701 156.869 83.582 151.439 82.503Z" fill="#5D82E3"/>
<path d="M105.219 118.761C103.818 120.167 102.27 121.418 100.603 122.495C98.119 123.989 95.7461 125.66 93.503 127.495C92.286 128.536 91.131 131.007 91.303 131.335C91.475 131.663 92.335 131.426 92.335 131.426C92.335 131.426 91.683 132.372 92.07 132.657C92.457 132.942 93.128 132.499 93.591 132.038C93.8048 132.166 94.0518 132.228 94.3008 132.217C94.5498 132.205 94.7899 132.12 94.991 131.973C95.805 131.48 97.21 128.303 97.962 127.887C99.1257 127.261 100.345 126.745 101.605 126.346C101.805 126.427 100.644 128.959 101.212 129.511C101.78 130.063 102.472 130.284 103.02 128.904C103.568 127.524 103.405 127.074 104.46 126.255C105.515 125.436 105.28 124.35 105.481 123.74C105.682 123.13 108.998 120.913 108.998 120.913L105.219 118.761Z" fill="#F7B2A1"/>
<path d="M113.288 109.35C113.125 109.524 112.956 109.705 112.77 109.901C110.846 111.935 104.421 119.124 104.046 119.255C103.671 119.386 105.404 120.11 106.502 120.855C107.215 121.362 107.853 121.968 108.396 122.655C111.046 121.206 113.568 119.535 115.936 117.661C118.7 115.425 120.098 109.821 120.817 107.619C117.434 108.046 116.286 110.561 113.288 109.35Z" fill="#5D82E3"/>
<defs>
<linearGradient id="paint0_linear_1_13" x1="113.32" y1="40.0451" x2="99.2039" y2="51.0537" gradientUnits="userSpaceOnUse">
<stop stop-color="#6E2D55"/>
<stop offset="1" stop-color="#523115"/>
</linearGradient>
<linearGradient id="paint1_linear_1_13" x1="121.121" y1="44.4597" x2="105.37" y2="57.2919" gradientUnits="userSpaceOnUse">
<stop stop-color="#6E2D55"/>
<stop offset="1" stop-color="#523115"/>
</linearGradient>
<linearGradient id="paint2_linear_1_13" x1="100.496" y1="64.8607" x2="111.421" y2="64.8607" gradientUnits="userSpaceOnUse">
<stop stop-color="#EEEEEE"/>
<stop offset="1" stop-color="#D5D5D5"/>
</linearGradient>
<linearGradient id="paint3_linear_1_13" x1="111.418" y1="65.6804" x2="114.538" y2="65.6804" gradientUnits="userSpaceOnUse">
<stop stop-color="#EEEEEE"/>
<stop offset="1" stop-color="#D5D5D5"/>
</linearGradient>
</defs>
</svg>
