<?xml version="1.0" encoding="UTF-8"?>
<!DOCTYPE svg PUBLIC "-//W3C//DTD SVG 1.1//EN" "http://www.w3.org/Graphics/SVG/1.1/DTD/svg11.dtd">
<svg xmlns="http://www.w3.org/2000/svg" version="1.1" width="300px" height="309px" style="shape-rendering:geometricPrecision; text-rendering:geometricPrecision; image-rendering:optimizeQuality; fill-rule:evenodd; clip-rule:evenodd" xmlns:xlink="http://www.w3.org/1999/xlink">
<g><path style="opacity:0.788" fill="#0e0a08" d="M 205.5,301.5 C 202.848,301.41 200.515,302.076 198.5,303.5C 186.836,305.915 175.169,307.581 163.5,308.5C 156.833,308.5 150.167,308.5 143.5,308.5C 107.266,307.589 74.2662,296.755 44.5,276C 9.73685,246.04 -2.42982,208.54 8,163.5C 21.7678,120.129 42.7678,80.7952 71,45.5C 78.8634,37.3023 87.03,29.469 95.5,22C 133.262,-4.86868 171.262,-5.20201 209.5,21C 226.863,35.0264 241.363,51.5264 253,70.5C 270.084,98.3381 283.084,128.005 292,159.5C 305.703,221.15 284.537,265.983 228.5,294C 221.116,297.406 213.45,299.906 205.5,301.5 Z M 146.5,87.5 C 162.234,87.9515 175.4,93.9515 186,105.5C 203.446,125.393 214.779,148.393 220,174.5C 221.511,200.644 210.344,219.144 186.5,230C 167.619,236.565 148.285,238.232 128.5,235C 90.9087,227.098 75.0754,204.264 81,166.5C 87.0824,146.67 96.0824,128.336 108,111.5C 117.694,98.277 130.527,90.277 146.5,87.5 Z"/></g>
<g><path style="opacity:1" fill="#7bc1fd" d="M 143.5,4.5 C 177.856,3.92674 206.356,16.5934 229,42.5C 233.536,47.7483 237.703,53.2483 241.5,59C 236.03,65.3049 230.364,71.4716 224.5,77.5C 226.706,79.0846 229.039,80.5846 231.5,82C 236.136,88.9054 235.136,94.9054 228.5,100C 225.167,100.667 221.833,100.667 218.5,100C 215.172,97.5142 212.839,94.3476 211.5,90.5C 204.833,96.1667 198.167,101.833 191.5,107.5C 164.505,77.7658 136.839,77.0991 108.5,105.5C 103.5,101.167 98.8333,96.5 94.5,91.5C 104.321,84.8987 104.988,77.3987 96.5,69C 88.0519,65.3585 81.7186,67.5252 77.5,75.5C 72.3839,71.5182 67.5505,67.1848 63,62.5C 63.044,60.7215 63.7107,59.0548 65,57.5C 74.7984,45.3677 85.6317,34.201 97.5,24C 111.411,13.8707 126.744,7.37066 143.5,4.5 Z"/></g>
<g><path style="opacity:1" fill="#ebcd9f" d="M 198.5,62.5 C 193.968,62.8182 189.634,62.4849 185.5,61.5C 183.76,55.9439 182.427,50.2773 181.5,44.5C 181.124,39.8787 183.124,37.212 187.5,36.5C 187.334,31.4889 187.501,26.4889 188,21.5C 188.112,18.5529 189.612,17.2196 192.5,17.5C 192.5,23.5 192.5,29.5 192.5,35.5C 202.79,34.9517 206.623,39.6184 204,49.5C 202.694,54.106 200.86,58.4393 198.5,62.5 Z"/></g>
<g><path style="opacity:1" fill="#0c134b" d="M 185.5,61.5 C 189.634,62.4849 193.968,62.8182 198.5,62.5C 199.833,62.5 201.167,62.5 202.5,62.5C 201.729,73.8243 201.062,85.1576 200.5,96.5C 193.587,96.1615 186.754,95.4948 180,94.5C 180.208,83.5055 180.708,72.5055 181.5,61.5C 182.833,61.5 184.167,61.5 185.5,61.5 Z"/></g>
<g><path style="opacity:1" fill="#fbb102" d="M 242.5,62.5 C 243.496,62.4142 244.329,62.7476 245,63.5C 265.14,94.1164 280.14,127.116 290,162.5C 294.813,182.421 294.647,202.255 289.5,222C 282.639,221.385 275.972,219.718 269.5,217C 268.465,215.493 268.632,213.993 270,212.5C 271.886,198.386 265.72,192.22 251.5,194C 244.772,196.951 241.772,202.117 242.5,209.5C 234.251,208.438 226.251,206.438 218.5,203.5C 224.203,190.183 225.036,176.516 221,162.5C 214.46,143.419 205.293,125.752 193.5,109.5C 198.87,104.128 204.537,99.1281 210.5,94.5C 217.424,105.274 225.591,106.274 235,97.5C 239.345,88.6733 237.178,81.84 228.5,77C 233.37,72.2979 238.037,67.4646 242.5,62.5 Z"/></g>
<g><path style="opacity:1" fill="#46cf39" d="M 59.5,64.5 C 61.2554,65.0722 62.9221,65.9055 64.5,67C 68.9783,71.4012 73.645,75.5679 78.5,79.5C 81.7478,70.036 87.7478,67.536 96.5,72C 102.043,80.6553 100.043,86.8219 90.5,90.5C 95.9851,96.4854 101.652,102.319 107.5,108C 89.0583,130.985 78.225,157.152 75,186.5C 66.4469,188.931 57.9469,191.598 49.5,194.5C 56.8568,202.502 55.8568,209.335 46.5,215C 35.3468,215.331 30.6802,209.831 32.5,198.5C 24.4207,199.748 16.4207,201.414 8.5,203.5C 6.99003,191.082 7.49003,178.749 10,166.5C 16.1217,144.473 24.7884,123.473 36,103.5C 43.6888,90.3342 51.5221,77.3342 59.5,64.5 Z"/></g>
<g><path style="opacity:1" fill="#0c0b02" d="M 75.5,133.5 C 67.6772,130.878 59.6772,128.878 51.5,127.5C 44.4757,128.393 37.4757,129.393 30.5,130.5C 30.5,129.5 30.5,128.5 30.5,127.5C 38.3313,125.9 46.1646,124.234 54,122.5C 60.8706,124.735 67.7039,127.068 74.5,129.5C 75.4287,130.689 75.762,132.022 75.5,133.5 Z"/></g>
<g><path style="opacity:1" fill="#b9ab4e" d="M 254.5,125.5 C 260.167,125.5 265.833,125.5 271.5,125.5C 274.085,146.436 276.085,167.436 277.5,188.5C 262.845,189.602 248.178,190.602 233.5,191.5C 232.555,170.105 230.888,148.772 228.5,127.5C 237.365,127.485 246.032,126.818 254.5,125.5 Z"/></g>
<g><path style="opacity:1" fill="#0d0a05" d="M 75.5,136.5 C 75.5,137.167 75.5,137.833 75.5,138.5C 74.1667,138.5 72.8333,138.5 71.5,138.5C 71.5,139.5 71.5,140.5 71.5,141.5C 72.8333,141.5 74.1667,141.5 75.5,141.5C 75.5,143.5 75.5,145.5 75.5,147.5C 74.0658,152.812 71.5658,153.479 68,149.5C 65.513,155.126 62.1797,155.792 58,151.5C 57.0695,154.362 55.4029,156.695 53,158.5C 50.6843,156.53 48.8509,154.196 47.5,151.5C 42.8603,154.885 39.6936,153.885 38,148.5C 34.0299,151.633 31.1966,150.966 29.5,146.5C 29.5,144.5 29.5,142.5 29.5,140.5C 31.1172,139.962 32.7839,139.629 34.5,139.5C 34.5,138.5 34.5,137.5 34.5,136.5C 32.8333,136.5 31.1667,136.5 29.5,136.5C 29.5,135.833 29.5,135.167 29.5,134.5C 37.011,133.641 44.511,132.641 52,131.5C 59.8168,133.246 67.6501,134.913 75.5,136.5 Z"/></g>
<g><path style="opacity:1" fill="#c09026" d="M 30.5,127.5 C 30.5,128.5 30.5,129.5 30.5,130.5C 37.4757,129.393 44.4757,128.393 51.5,127.5C 59.6772,128.878 67.6772,130.878 75.5,133.5C 75.5,134.5 75.5,135.5 75.5,136.5C 67.6501,134.913 59.8168,133.246 52,131.5C 44.511,132.641 37.011,133.641 29.5,134.5C 29.1984,131.941 29.5318,129.607 30.5,127.5 Z"/></g>
<g><path style="opacity:1" fill="#bb8d25" d="M 50.5,133.5 C 52.8568,133.337 55.1902,133.503 57.5,134C 58.3366,135.011 58.67,136.178 58.5,137.5C 55.8728,136.908 53.2062,136.575 50.5,136.5C 50.5,135.5 50.5,134.5 50.5,133.5 Z"/></g>
<g><path style="opacity:1" fill="#c69427" d="M 29.5,136.5 C 31.1667,136.5 32.8333,136.5 34.5,136.5C 34.5,137.5 34.5,138.5 34.5,139.5C 32.7839,139.629 31.1172,139.962 29.5,140.5C 29.5,139.167 29.5,137.833 29.5,136.5 Z"/></g>
<g><path style="opacity:1" fill="#b18523" d="M 40.5,134.5 C 42.1667,134.5 43.8333,134.5 45.5,134.5C 45.2407,138.068 43.2407,139.401 39.5,138.5C 39.4326,137.041 39.7659,135.708 40.5,134.5 Z"/></g>
<g><path style="opacity:1" fill="#bd8e25" d="M 62.5,135.5 C 64.1172,136.038 65.7839,136.371 67.5,136.5C 67.5,137.5 67.5,138.5 67.5,139.5C 64.0504,140.244 62.3838,138.91 62.5,135.5 Z"/></g>
<g><path style="opacity:1" fill="#c29326" d="M 75.5,138.5 C 75.5,139.5 75.5,140.5 75.5,141.5C 74.1667,141.5 72.8333,141.5 71.5,141.5C 71.5,140.5 71.5,139.5 71.5,138.5C 72.8333,138.5 74.1667,138.5 75.5,138.5 Z"/></g>
<g><path style="opacity:1" fill="#e7e7e6" d="M 29.5,146.5 C 31.1966,150.966 34.0299,151.633 38,148.5C 39.6936,153.885 42.8603,154.885 47.5,151.5C 48.8509,154.196 50.6843,156.53 53,158.5C 55.4029,156.695 57.0695,154.362 58,151.5C 62.1797,155.792 65.513,155.126 68,149.5C 71.5658,153.479 74.0658,152.812 75.5,147.5C 75.5,149.167 75.5,150.833 75.5,152.5C 67.9265,154.524 60.4265,156.857 53,159.5C 45.0207,156.786 37.1874,153.786 29.5,150.5C 29.5,149.167 29.5,147.833 29.5,146.5 Z"/></g>
<g><path style="opacity:1" fill="#34270a" d="M 29.5,150.5 C 37.1874,153.786 45.0207,156.786 53,159.5C 60.4265,156.857 67.9265,154.524 75.5,152.5C 75.7564,154.792 75.4231,156.959 74.5,159C 67.2691,161.299 60.1025,163.799 53,166.5C 45.2467,163.138 37.4134,159.971 29.5,157C 28.1888,154.726 28.1888,152.56 29.5,150.5 Z"/></g>
<g><path style="opacity:1" fill="#d767f1" d="M 142.5,285.5 C 143.49,291.645 143.823,297.978 143.5,304.5C 140.167,304.5 136.833,304.5 133.5,304.5C 98.4219,302.98 67.4219,291.146 40.5,269C 23.6374,253.78 13.1374,234.947 9,212.5C 8.18591,210.098 8.35258,207.765 9.5,205.5C 16.0914,203.782 22.7581,202.448 29.5,201.5C 30.6667,215.92 38,220.42 51.5,215C 53.6166,213.269 55.1166,211.102 56,208.5C 56.778,203.669 56.278,199.003 54.5,194.5C 61.8273,192.836 69.1606,191.169 76.5,189.5C 79.5287,209.38 90.1954,223.547 108.5,232C 120.219,237.51 132.552,240.01 145.5,239.5C 145.167,246.833 144.833,254.167 144.5,261.5C 131.79,259.378 125.957,264.712 127,277.5C 129.97,284.282 135.137,286.949 142.5,285.5 Z"/></g>
<g><path style="opacity:1" fill="#fa3420" d="M 130.5,278.5 C 129.701,275.57 129.368,272.57 129.5,269.5C 132.064,263.936 136.397,262.102 142.5,264C 143.5,264.5 144.5,265 145.5,265.5C 146.87,257 147.87,248.5 148.5,240C 170.123,240.236 189.456,233.903 206.5,221C 210.718,216.288 214.718,211.454 218.5,206.5C 227.242,208.519 235.908,210.852 244.5,213.5C 243.386,205.362 246.386,199.529 253.5,196C 260.273,194.705 265.106,197.205 268,203.5C 269.094,208.983 267.594,213.65 263.5,217.5C 271.783,220.654 280.117,223.654 288.5,226.5C 276.788,258.378 255.122,280.545 223.5,293C 198.684,302.141 173.018,306.308 146.5,305.5C 146.831,297.472 146.498,289.472 145.5,281.5C 139.433,284.96 134.433,283.96 130.5,278.5 Z"/></g>
<g><path style="opacity:1" fill="#8db85d" d="M 117.5,239.5 C 116.85,239.196 116.183,238.863 115.5,238.5C 112.376,242.174 108.709,243.174 104.5,241.5C 109.025,241.738 112.691,240.071 115.5,236.5C 116.919,237.005 117.585,238.005 117.5,239.5 Z"/></g>
<g><path style="opacity:1" fill="#f2f650" d="M 117.5,239.5 C 119.262,240.262 120.262,241.596 120.5,243.5C 122.607,244.468 124.941,244.802 127.5,244.5C 127.5,245.833 127.5,247.167 127.5,248.5C 127.343,249.873 127.51,251.207 128,252.5C 129.685,254.017 131.185,255.684 132.5,257.5C 130.814,258.857 129.148,260.19 127.5,261.5C 126.504,261.414 125.671,261.748 125,262.5C 124.503,264.81 124.337,267.143 124.5,269.5C 119.391,268.803 114.724,269.803 110.5,272.5C 108.96,270.613 107.293,268.78 105.5,267C 103.19,266.503 100.857,266.337 98.5,266.5C 99.2631,263.859 99.4298,261.192 99,258.5C 98.3292,257.748 97.4959,257.414 96.5,257.5C 95.7101,256.206 94.7101,255.039 93.5,254C 95.3962,251.932 97.3962,250.099 99.5,248.5C 101.02,246.412 102.02,244.078 102.5,241.5C 103.167,241.5 103.833,241.5 104.5,241.5C 108.709,243.174 112.376,242.174 115.5,238.5C 116.183,238.863 116.85,239.196 117.5,239.5 Z"/></g>
<g><path style="opacity:1" fill="#8dac6c" d="M 120.5,243.5 C 123.167,243.5 125.833,243.5 128.5,243.5C 128.784,245.415 128.451,247.081 127.5,248.5C 127.5,247.167 127.5,245.833 127.5,244.5C 124.941,244.802 122.607,244.468 120.5,243.5 Z"/></g>
<g><path style="opacity:1" fill="#9ab767" d="M 102.5,241.5 C 102.02,244.078 101.02,246.412 99.5,248.5C 99.2796,245.6 99.9462,242.933 101.5,240.5C 102.107,240.624 102.44,240.957 102.5,241.5 Z"/></g>
<g><path style="opacity:1" fill="#f3a72b" d="M 208.5,246.5 C 204.718,248.734 200.718,249.067 196.5,247.5C 193.757,241.396 195.59,238.063 202,237.5C 207.933,237.599 210.1,240.599 208.5,246.5 Z"/></g>
<g><path style="opacity:1" fill="#c1c3bc" d="M 112.5,243.5 C 113.675,243.281 114.675,243.614 115.5,244.5C 110.311,253.129 111.978,260.129 120.5,265.5C 108.676,267.51 103.509,262.51 105,250.5C 106.742,247.254 109.242,244.921 112.5,243.5 Z"/></g>
<g><path style="opacity:1" fill="#714d1e" d="M 208.5,246.5 C 210.857,246.337 213.19,246.503 215.5,247C 222.667,251.5 229.833,256 237,260.5C 237.5,267.826 237.666,275.159 237.5,282.5C 215.844,283.851 194.177,284.685 172.5,285C 167,280.167 161.5,275.333 156,270.5C 155.405,262.835 154.905,255.168 154.5,247.5C 168.5,247.5 182.5,247.5 196.5,247.5C 200.718,249.067 204.718,248.734 208.5,246.5 Z"/></g>
<g><path style="opacity:1" fill="#251906" d="M 186.5,253.5 C 192.842,253.334 199.175,253.5 205.5,254C 206.672,254.419 207.672,255.085 208.5,256C 201.833,256.667 195.167,256.667 188.5,256C 187.244,255.583 186.577,254.75 186.5,253.5 Z"/></g>
<g><path style="opacity:1" fill="#96b666" d="M 96.5,257.5 C 97.4959,257.414 98.3292,257.748 99,258.5C 99.4298,261.192 99.2631,263.859 98.5,266.5C 100.857,266.337 103.19,266.503 105.5,267C 107.293,268.78 108.96,270.613 110.5,272.5C 114.724,269.803 119.391,268.803 124.5,269.5C 124.337,267.143 124.503,264.81 125,262.5C 125.671,261.748 126.504,261.414 127.5,261.5C 125.874,264.246 125.207,267.246 125.5,270.5C 119.797,269.557 114.797,270.89 110.5,274.5C 108.493,272.992 106.826,271.158 105.5,269C 103.109,268.713 100.776,268.213 98.5,267.5C 97.7597,264.134 97.093,260.8 96.5,257.5 Z"/></g>
<g><path style="opacity:1" fill="#b33f76" d="M 129.5,269.5 C 129.368,272.57 129.701,275.57 130.5,278.5C 129.883,278.389 129.383,278.056 129,277.5C 128.199,274.633 128.366,271.966 129.5,269.5 Z"/></g>
<g><path style="opacity:1" fill="#967a22" d="M 201.5,267.5 C 202.71,271.181 204.71,273.848 207.5,275.5C 205.764,278.105 203.931,278.105 202,275.5C 201.586,275.957 201.086,276.291 200.5,276.5C 199.289,275.726 199.289,274.893 200.5,274C 197.949,272.484 198.282,271.651 201.5,271.5C 201.5,270.167 201.5,268.833 201.5,267.5 Z"/></g>
<g><path style="opacity:1" fill="#e0101c" d="M 72.5,252.5 C 90.6141,252.77 96.7808,261.437 91,278.5C 83.8199,286.299 75.6533,287.465 66.5,282C 57.0226,269.763 59.0226,259.93 72.5,252.5 Z"/></g>
<g><path style="opacity:1" fill="#da68ed" d="M 71.5,264.5 C 61.3366,266.362 61.0033,269.528 70.5,274C 73.5314,274.495 76.5314,274.329 79.5,273.5C 81.9635,275.461 84.2968,277.628 86.5,280C 75.248,286.624 67.4146,283.791 63,271.5C 61.9814,266.54 63.4814,262.54 67.5,259.5C 69.6114,260.605 70.9447,262.271 71.5,264.5 Z"/></g>
<g><path style="opacity:1" fill="#ced0f8" d="M 84.5,274.5 C 83.5,274.167 82.8333,273.5 82.5,272.5C 80.743,265.651 83.0763,263.318 89.5,265.5C 91.6533,270.875 89.9867,273.875 84.5,274.5 Z"/></g>
<g><path style="opacity:1" fill="#faeaf8" d="M 76.5,265.5 C 79.1667,266.167 80.8333,267.833 81.5,270.5C 79.5,269.167 77.8333,267.5 76.5,265.5 Z"/></g>
<g><path style="opacity:1" fill="#f2f1f7" d="M 71.5,264.5 C 74.9031,266.9 77.5698,269.9 79.5,273.5C 76.5314,274.329 73.5314,274.495 70.5,274C 61.0033,269.528 61.3366,266.362 71.5,264.5 Z"/></g>
<g><path style="opacity:1" fill="#d968ef" d="M 84.5,274.5 C 89.9867,273.875 91.6533,270.875 89.5,265.5C 83.0763,263.318 80.743,265.651 82.5,272.5C 81.6618,272.158 81.3284,271.492 81.5,270.5C 80.8333,267.833 79.1667,266.167 76.5,265.5C 74.3497,263.24 72.1831,260.907 70,258.5C 69.3828,257.551 69.5494,256.718 70.5,256C 85.0593,252.897 91.8926,258.73 91,273.5C 89.4746,279.571 87.3079,279.904 84.5,274.5 Z"/></g>
<g><path style="opacity:1" fill="#43214c" d="M 142.5,285.5 C 142.56,284.957 142.893,284.624 143.5,284.5C 144.497,291.468 144.83,298.468 144.5,305.5C 140.629,305.815 136.962,305.482 133.5,304.5C 136.833,304.5 140.167,304.5 143.5,304.5C 143.823,297.978 143.49,291.645 142.5,285.5 Z"/></g>
<g><path style="opacity:0.369" fill="#8e3e2c" d="M 205.5,301.5 C 203.485,302.924 201.152,303.59 198.5,303.5C 200.515,302.076 202.848,301.41 205.5,301.5 Z"/></g>
</svg>
