<svg xmlns="http://www.w3.org/2000/svg" width="53.506" height="63.837" viewBox="0 0 53.506 63.837">
    <path id="Path_12026" d="M365.933,41.411l.412-.714c.663.322,1.106.486,1.15.409l4.082-7.069-.008,0a11.155,11.155,0,0,0-2.783-1.937,11.212,11.212,0,0,0-3.068-1.442l-.008,0-4.082,7.071c-.044.076.32.379.93.792l-.267.463a28.464,28.464,0,0,1,3.642,2.437Zm-16.68,19.56a2.927,2.927,0,0,1,1.2.746l12.949-6.4.056.1-12.186,8.131c.005.068.007.137.007.206a2.924,2.924,0,0,1-4.189,2.634l-7.314,12.668-.6-.348,7.33-12.7a2.922,2.922,0,0,1,.961-5.041l.838-8.629h.111l.838,8.629Zm-.894,4.949a2.166,2.166,0,1,0-2.167-2.166,2.162,2.162,0,0,0,2.167,2.166Zm5.664-22.13a.608.608,0,1,1-.86,0,.607.607,0,0,1,.86,0ZM343.556,82.857a.608.608,0,1,1-.861,0,.609.609,0,0,1,.861,0Zm19.69-33.56a.608.608,0,1,1-.745-.43.607.607,0,0,1,.745.43Zm-28.6,28.6a.608.608,0,1,1-.745-.43.609.609,0,0,1,.745.43ZM368.48,58.677a.608.608,0,1,1-.429-.745.607.607,0,0,1,.429.745ZM329.413,69.145a.608.608,0,1,1-.43-.745.606.606,0,0,1,.43.745Zm38.91.273a.608.608,0,1,1,0-.86.607.607,0,0,1,0,.86ZM329.256,58.95a.608.608,0,1,1,0-.86.608.608,0,0,1,0,.86Zm33.56,19.691a.608.608,0,1,0-.745-.431.607.607,0,0,0,.745.431Zm-28.6-28.6a.608.608,0,1,1,.429-.745.608.608,0,0,1-.429.745Zm19.217,33.833a.608.608,0,1,1,.746-.43.608.608,0,0,1-.746.43ZM342.968,44.808a.608.608,0,1,1,.745-.43.609.609,0,0,1-.745.43Zm15.807.905a.84.84,0,1,1-1.148.308.842.842,0,0,1,1.148-.308ZM338.784,80.338a.84.84,0,1,1-1.147.308.841.841,0,0,1,1.147-.308Zm27.615-27a.84.84,0,1,1-1.147-.307.839.839,0,0,1,1.147.307ZM331.774,73.329a.84.84,0,1,1-1.147-.308.839.839,0,0,1,1.147.308Zm34.625.84a.84.84,0,1,1-.307-1.148.839.839,0,0,1,.307,1.148Zm-34.625-19.99a.84.84,0,1,1-.307-1.148.839.839,0,0,1,.307,1.148Zm27,27.615a.84.84,0,1,1,.308-1.148.84.84,0,0,1-.308,1.148ZM338.784,47.169a.84.84,0,1,1,.308-1.148.839.839,0,0,1-.308,1.148Zm9.575-4.247a1.467,1.467,0,1,1-1.467,1.468,1.468,1.468,0,0,1,1.467-1.468Zm0,38.728a1.467,1.467,0,1,1-1.467,1.468,1.468,1.468,0,0,1,1.467-1.468Zm20.831-17.9a1.467,1.467,0,1,1-1.466-1.467,1.467,1.467,0,0,1,1.466,1.467Zm-38.727,0A1.467,1.467,0,1,1,329,62.287a1.467,1.467,0,0,1,1.467,1.467ZM348.359,37a26.753,26.753,0,1,1-26.753,26.753A26.753,26.753,0,0,1,348.359,37Zm0,5.063a21.69,21.69,0,1,0,21.69,21.69,21.69,21.69,0,0,0-21.69-21.69Zm0-15.394c3.366,0,6.122.237,6.359.538h.016v6.65c0,.229-1.649.425-3.987.506V35.43q-1.181-.1-2.388-.1t-2.387.1V34.364c-2.338-.081-3.989-.277-3.989-.506v-6.65H342c.236-.3,2.992-.538,6.358-.538ZM327.932,32.1a11.239,11.239,0,0,0-2.784,1.937l-.006,0,.009.018v0h0l4.07,7.049c.045.077.488-.087,1.151-.409l.412.714a28.357,28.357,0,0,1,3.642-2.437l-.268-.463c.61-.414.975-.716.931-.792l-4.082-7.071-.008,0A11.183,11.183,0,0,0,327.932,32.1Z" transform="translate(-321.606 -26.67)" fill="#fff" fill-rule="evenodd"/>
</svg>
