<svg width="84" height="84" viewBox="0 0 84 84" fill="none" xmlns="http://www.w3.org/2000/svg">
<g filter="url(#filter0_d_1_3432)">
<path d="M41.496 77.433C40.2797 77.4386 39.075 77.1958 37.9557 76.7195C36.8365 76.2432 35.8263 75.5434 34.987 74.663C33.8607 75.1626 32.6431 75.4235 31.411 75.429C29.5914 75.4393 27.8116 74.8968 26.3071 73.8732C24.8026 72.8496 23.6445 71.3933 22.986 69.697C22.913 69.697 22.841 69.697 22.772 69.697C20.8422 69.6817 18.9677 69.0512 17.421 67.8971C15.8743 66.743 14.7361 65.1255 14.172 63.28C13.901 62.3788 13.7767 61.4398 13.804 60.499C12.6723 60.0571 11.6415 59.3911 10.7735 58.541C9.90549 57.6909 9.21813 56.6742 8.75269 55.552C8.28724 54.4297 8.05328 53.225 8.06485 52.0101C8.07642 50.7952 8.33328 49.5952 8.82001 48.482C7.92618 47.6581 7.21783 46.6536 6.74197 45.535C6.26612 44.4164 6.03365 43.2093 6.06 41.994C6.04652 39.6387 6.96581 37.3737 8.617 35.694C8.682 35.627 8.74902 35.562 8.81702 35.494C8.3315 34.3811 8.07566 33.1816 8.06488 31.9674C8.0541 30.7532 8.28859 29.5494 8.75427 28.428C9.21995 27.3066 9.90722 26.2908 10.7749 25.4414C11.6426 24.592 12.6729 23.9266 13.804 23.485C13.7771 22.544 13.9013 21.6047 14.172 20.703C14.7363 18.8577 15.8746 17.2405 17.4212 16.0866C18.9679 14.9327 20.8424 14.3023 22.772 14.287H22.985C23.1158 13.9511 23.2664 13.6231 23.436 13.305C24.5038 11.3063 26.2876 9.78518 28.4298 9.0465C30.572 8.30782 32.9143 8.40624 34.987 9.32201C35.8298 8.44647 36.8405 7.74998 37.9588 7.27424C39.077 6.7985 40.2798 6.55328 41.495 6.55328C42.7102 6.55328 43.913 6.7985 45.0312 7.27424C46.1495 7.74998 47.1602 8.44647 48.003 9.32201C49.1134 8.83243 50.3115 8.57285 51.525 8.55892C52.7385 8.545 53.9423 8.77702 55.0637 9.24099C56.185 9.70496 57.2008 10.3913 58.0497 11.2585C58.8987 12.1258 59.5631 13.156 60.003 14.287H60.217C62.1466 14.3023 64.0211 14.9327 65.5677 16.0866C67.1144 17.2405 68.2527 18.8577 68.817 20.703C69.0877 21.6047 69.2119 22.544 69.185 23.485C70.3167 23.9269 71.3475 24.5927 72.2155 25.4427C73.0835 26.2927 73.7708 27.3093 74.2363 28.4315C74.7017 29.5537 74.9357 30.7583 74.9241 31.9731C74.9126 33.1879 74.6557 34.3879 74.169 35.501C75.0628 36.3251 75.7711 37.3299 76.2469 38.4486C76.7228 39.5674 76.9553 40.7746 76.929 41.99C76.9426 44.3452 76.0237 46.6101 74.373 48.29C74.307 48.357 74.241 48.422 74.173 48.49C74.6584 49.603 74.9141 50.8025 74.9248 52.0166C74.9355 53.2307 74.701 54.4345 74.2354 55.5559C73.7697 56.6772 73.0824 57.693 72.2148 58.5424C71.3471 59.3918 70.317 60.0573 69.186 60.499C69.213 61.4397 69.0887 62.3787 68.818 63.28C68.2537 65.1255 67.1155 66.7428 65.5688 67.8969C64.0222 69.0509 62.1477 69.6815 60.218 69.697C60.149 69.697 60.078 69.697 60.004 69.697C59.8738 70.0332 59.7232 70.3612 59.553 70.679C58.7797 72.1198 57.629 73.323 56.2241 74.1598C54.8193 74.9965 53.2132 75.4353 51.578 75.429C50.3456 75.4235 49.1276 75.1627 48.001 74.663C47.1623 75.5432 46.1528 76.2428 45.0343 76.7191C43.9158 77.1954 42.7118 77.4384 41.496 77.433Z" fill="url(#paint0_linear_1_3432)" stroke="#C49A6C" stroke-miterlimit="10"/>
</g>
<path d="M46.534 16.698C48.595 6.33405 34.408 6.33405 36.469 16.698C34.408 6.33405 21.299 11.764 27.169 20.55C21.298 11.764 11.269 21.796 20.052 27.667C11.266 21.796 5.836 34.904 16.2 36.967C5.836 34.905 5.836 49.093 16.2 47.032C5.836 49.093 11.266 62.202 20.052 56.332C11.266 62.203 21.298 72.232 27.169 63.449C21.298 72.235 34.407 77.665 36.469 67.301C34.408 77.665 48.595 77.665 46.534 67.301C48.595 77.665 61.704 72.235 55.834 63.449C61.705 72.235 71.734 62.203 62.951 56.332C71.737 62.203 77.167 49.094 66.803 47.032C77.167 49.093 77.167 34.905 66.803 36.967C77.167 34.905 71.737 21.797 62.951 27.667C71.737 21.796 61.705 11.767 55.834 20.55C61.703 11.763 48.595 6.33405 46.534 16.698Z" fill="url(#paint1_radial_1_3432)" stroke="#CABCB8" stroke-linecap="round" stroke-linejoin="round"/>
<path d="M54.1435 70.857C70.0822 63.875 77.343 45.2942 70.361 29.3555C63.379 13.4169 44.7982 6.15605 28.8595 13.138C12.9208 20.12 5.66002 38.7009 12.642 54.6395C19.624 70.5782 38.2049 77.839 54.1435 70.857Z" fill="url(#paint2_linear_1_3432)" stroke="#DBD1CE" stroke-miterlimit="10"/>
<path d="M61.9652 62.4624C73.2673 51.1603 73.2673 32.8358 61.9652 21.5337C50.663 10.2315 32.3386 10.2315 21.0364 21.5337C9.73424 32.8358 9.73424 51.1603 21.0364 62.4624C32.3386 73.7646 50.663 73.7646 61.9652 62.4624Z" fill="url(#paint3_radial_1_3432)"/>
<path d="M42.9069 71.9778C59.4644 71.2016 72.2578 57.1498 71.4816 40.5922C70.7054 24.0347 56.6536 11.2414 40.096 12.0176C23.5385 12.7938 10.7452 26.8456 11.5214 43.4031C12.2976 59.9607 26.3494 72.754 42.9069 71.9778Z" stroke="#707070" stroke-miterlimit="10"/>
<path d="M28.758 42.239C28.89 42.239 28.958 42.291 28.958 42.427C28.8926 42.955 28.6408 43.4423 28.248 43.801L28.196 43.646C28.3993 43.4297 28.54 43.1622 28.603 42.872C28.603 42.82 28.564 42.788 28.503 42.788C27.2494 43.0847 25.9687 43.2523 24.681 43.288C23.59 43.288 22.493 43.153 22.27 42.133H22.25C22.2133 42.2628 22.1475 42.3826 22.0576 42.4831C21.9676 42.5836 21.8559 42.6622 21.731 42.713C21.8759 42.7993 21.9954 42.9223 22.0775 43.0697C22.1595 43.217 22.201 43.3834 22.198 43.552C22.198 44.024 21.935 44.294 21.686 44.294C21.5202 44.2891 21.3599 44.234 21.2261 44.136C21.0924 44.0379 20.9916 43.9016 20.937 43.745L20.917 43.752C20.871 44.281 20.358 44.707 19.177 45.197L18.277 45.133L18.257 45.075C19.0001 44.8308 19.7054 44.4834 20.352 44.043C20.911 43.669 20.825 43.127 20.93 42.933L21.147 42.5201C21.4982 42.4632 21.8273 42.3117 22.099 42.082C22.1772 41.9713 22.2127 41.836 22.199 41.701C20.865 41.617 20.09 41.314 19.959 40.668H19.939C19.8367 40.7744 19.7114 40.8558 19.5727 40.9061C19.434 40.9564 19.2856 40.9741 19.139 40.958C18.679 40.958 18.417 40.777 18.417 40.526C18.4345 40.3271 18.4975 40.1349 18.601 39.9641C18.921 39.5099 19.3563 39.1492 19.862 38.919L19.855 38.551C19.9212 38.4418 20.0004 38.3411 20.091 38.251L20.131 38.264L20.144 38.793L20.544 38.567L20.577 38.593L20.377 38.929C20.3121 39.0233 20.232 39.1061 20.14 39.174L20.153 39.949C20.153 40.717 20.777 41.02 22.215 41.123C22.202 40.123 22.182 39.194 22.162 38.284C22.2385 38.1659 22.3266 38.0557 22.425 37.955L22.451 37.968C22.471 38.277 22.484 38.668 22.49 38.981C22.49 39.729 22.497 40.401 22.497 41.143C22.951 41.194 24.113 41.243 24.79 41.243C25.8648 41.2425 26.9382 41.1649 28.002 41.011C28.3369 40.9608 28.6463 40.8024 28.883 40.56C28.8889 40.5497 28.8975 40.541 28.9079 40.535C28.9182 40.529 28.93 40.5258 28.942 40.5258C28.954 40.5258 28.9657 40.529 28.976 40.535C28.9864 40.541 28.995 40.5497 29.0009 40.56C29.0659 40.6601 29.1519 40.7449 29.253 40.8084C29.354 40.872 29.4676 40.9128 29.586 40.928C29.6922 40.9158 29.7903 40.8653 29.862 40.786C30.138 40.496 30.171 40.244 30.171 39.444C30.171 38.344 30.138 37.244 30.151 36.114C30.217 36.004 30.315 35.888 30.394 35.778L30.427 35.798C30.479 37.017 30.466 38.23 30.466 39.444C30.466 40.47 30.551 40.689 31.228 40.831L31.235 40.805C31.1274 40.7136 31.0428 40.5982 30.9881 40.4681C30.9334 40.338 30.91 40.1968 30.92 40.056C30.9331 39.8115 31.0176 39.5761 31.163 39.379C31.2441 39.2577 31.3534 39.1579 31.4816 39.0882C31.6098 39.0185 31.753 38.9811 31.899 38.979C32.273 38.979 32.5489 39.199 32.8449 39.65L32.786 39.702C32.5873 39.5362 32.3358 39.4468 32.077 39.45C31.65 39.45 31.223 39.689 31.223 39.882C31.2429 40.0934 31.3384 40.2904 31.492 40.437C31.5664 40.5153 31.6561 40.5774 31.7555 40.6196C31.855 40.6617 31.962 40.683 32.07 40.682C32.1779 40.6789 32.2844 40.6573 32.385 40.618C32.6666 40.5062 32.9349 40.3633 33.185 40.192L33.218 40.218L33.047 40.689C32.5043 41.0834 31.8527 41.2997 31.182 41.308C30.9702 41.3297 30.7575 41.2773 30.58 41.1596C30.4026 41.042 30.2715 40.8665 30.209 40.663H30.183C30.064 41.108 29.7289 41.444 29.4279 41.444C29.1527 41.4302 28.8916 41.3181 28.692 41.128H28.666C28.3537 41.4224 27.9457 41.5942 27.517 41.612C26.5787 41.7409 25.633 41.8077 24.686 41.812C23.714 41.812 23.011 41.773 22.532 41.728C22.632 42.444 23.708 42.735 25.002 42.735C26.2657 42.6763 27.5223 42.5104 28.758 42.239ZM19.871 39.3391C19.149 39.7321 18.794 40.039 18.794 40.21C18.794 40.345 19.005 40.41 19.326 40.423C19.523 40.4239 19.7187 40.3901 19.904 40.323L19.871 39.3391ZM21.303 37.3C21.2211 37.4019 21.1152 37.4818 20.9947 37.5324C20.8742 37.5831 20.743 37.6029 20.613 37.59C20.305 37.59 20.068 37.474 20.068 37.254C20.1045 36.9792 20.221 36.7212 20.403 36.512C20.6541 36.2527 20.9498 36.0407 21.276 35.886L21.269 35.57C21.3386 35.4821 21.4156 35.4001 21.499 35.325L21.538 35.332L21.531 35.764L21.768 35.655L21.788 35.7L21.512 36.074V36.855C21.507 36.91 21.5141 36.9654 21.5327 37.0173C21.5513 37.0693 21.581 37.1165 21.6198 37.1558C21.6585 37.1951 21.7054 37.2255 21.757 37.2449C21.8087 37.2643 21.864 37.2722 21.919 37.268C22.0314 37.2682 22.142 37.2393 22.24 37.184C22.2938 37.1582 22.3394 37.118 22.3719 37.0679C22.4043 37.0178 22.4223 36.9597 22.424 36.9L22.378 35.506C22.4448 35.406 22.5219 35.3131 22.608 35.229L22.641 35.255L22.674 36.481C22.674 36.781 22.746 37.004 22.974 37.101C23.0915 37.1784 23.2275 37.2229 23.368 37.23C23.468 37.23 23.545 37.178 23.545 37.082C23.545 36.907 23.289 35.7721 23.289 35.4361C23.3438 35.3053 23.4143 35.1817 23.499 35.068L23.539 35.094C23.539 35.585 23.789 36.508 23.789 36.94C23.789 37.346 23.572 37.7141 23.296 37.7141C23.1628 37.7108 23.0322 37.6764 22.9147 37.6137C22.7972 37.5511 22.6959 37.4618 22.619 37.353H22.599C22.5139 37.4753 22.4012 37.5757 22.27 37.6463C22.1388 37.7168 21.9929 37.7554 21.844 37.759C21.7156 37.7624 21.5907 37.7171 21.4944 37.6321C21.3981 37.5471 21.3376 37.4288 21.325 37.301L21.303 37.3ZM21.27 36.255C20.685 36.565 20.357 36.797 20.357 36.92C20.357 37.043 20.535 37.127 20.751 37.127C20.9304 37.1338 21.1093 37.1028 21.276 37.036L21.27 36.255ZM20.508 39.881L20.587 39.597C21.0582 39.3749 21.5405 39.177 22.032 39.004L22.045 39.023L21.874 39.307C21.4134 39.4798 20.9618 39.6757 20.521 39.894L20.508 39.881ZM21.08 43.181C21.0989 43.3393 21.1733 43.4858 21.2899 43.5945C21.4064 43.7032 21.5578 43.7672 21.717 43.775C21.7643 43.7774 21.8116 43.7697 21.8557 43.7525C21.8998 43.7353 21.9398 43.7089 21.973 43.675C21.916 43.4869 21.8044 43.3199 21.6524 43.1952C21.5003 43.0706 21.3146 42.994 21.119 42.975C21.0885 43.0392 21.075 43.1102 21.08 43.181ZM22.466 34.935C22.4479 34.9853 22.415 35.0288 22.3716 35.0599C22.3282 35.091 22.2763 35.1081 22.223 35.109C22.066 35.109 21.986 34.98 21.986 34.754C21.9853 34.6594 22.0009 34.5654 22.032 34.476L22.15 34.399L22.156 34.412C22.1267 34.4905 22.1111 34.5733 22.11 34.657C22.11 34.741 22.13 34.8111 22.222 34.8111C22.294 34.8111 22.354 34.747 22.373 34.657L22.419 34.3671L22.524 34.309L22.531 34.316C22.5258 34.3491 22.5234 34.3826 22.524 34.416C22.5157 34.4705 22.5223 34.5262 22.5431 34.5773C22.5638 34.6283 22.598 34.6728 22.642 34.706C22.6776 34.7284 22.7181 34.7418 22.76 34.745C22.8 34.745 22.826 34.725 22.826 34.687C22.8172 34.5739 22.7998 34.4616 22.774 34.351C22.82 34.28 22.859 34.222 22.905 34.164L22.925 34.171C22.9483 34.3571 22.9594 34.5445 22.958 34.732C22.958 34.855 22.879 35.032 22.721 35.032C22.6758 35.0328 22.6309 35.0243 22.5891 35.0071C22.5474 34.9899 22.5095 34.9644 22.478 34.932L22.466 34.935ZM26.814 39.103L26.945 38.696C26.8521 38.6343 26.7717 38.5556 26.708 38.4641H26.688C26.498 38.8061 26.281 39.019 26.018 39.019C25.67 39.019 25.394 38.826 25.289 38.119H25.269C25.0811 38.4752 24.7635 38.7455 24.382 38.874C23.758 39.125 23.282 39.299 23.282 39.467C23.282 39.567 23.42 39.654 23.722 39.738C24.275 39.8493 24.839 39.897 25.403 39.88C26.8846 39.8808 28.3635 39.7557 29.8239 39.506L29.8369 39.532L29.456 40.022C28.0596 40.2732 26.6446 40.407 25.226 40.422C23.663 40.422 22.907 40.299 22.907 39.757C22.9333 39.5977 22.9937 39.446 23.084 39.312C23.4955 38.7942 24.0651 38.4251 24.706 38.261C25.218 38.041 25.291 37.79 25.291 37.151C25.291 36.403 25.245 35.125 25.245 34.06C25.3219 33.934 25.4074 33.8133 25.501 33.699L25.534 33.719C25.593 35.019 25.593 36.306 25.593 37.545C25.593 38.165 25.77 38.487 26.151 38.487C26.2364 38.4884 26.3206 38.4659 26.394 38.422C26.5466 38.302 26.6737 38.1528 26.768 37.983C26.788 37.957 26.801 37.957 26.827 37.983C26.9191 38.0873 27.0251 38.1785 27.142 38.254C27.318 37.8459 27.5827 37.4821 27.917 37.189C28.1226 37.0057 28.384 36.8968 28.659 36.88C28.8612 36.8801 29.0561 36.9561 29.205 37.093C29.2844 37.166 29.3477 37.2547 29.3908 37.3536C29.4338 37.4524 29.4557 37.5592 29.455 37.667C29.4529 37.901 29.3835 38.1295 29.255 38.325C29.0896 38.5371 28.8738 38.7044 28.6271 38.8115C28.3804 38.9186 28.1108 38.9621 27.843 38.938C27.5998 38.9468 27.3576 38.9027 27.133 38.809C27.0499 38.9292 26.9487 39.0358 26.833 39.125L26.814 39.103ZM24.43 44.003C24.6522 44.1548 24.861 44.3254 25.054 44.513C24.9676 44.6937 24.8573 44.8619 24.726 45.013C24.5231 44.8377 24.3104 44.6741 24.089 44.523L24.43 44.003ZM24.594 33.853C24.5755 33.9047 24.5664 33.9592 24.567 34.014C24.5779 34.2891 24.65 34.5583 24.778 34.802L24.535 34.963C24.568 35.711 24.614 36.441 24.614 36.912C24.6205 37.0413 24.6025 37.1705 24.561 37.293C24.5053 37.4386 24.4328 37.5772 24.345 37.706L24.292 37.674C24.3347 37.5184 24.3546 37.3574 24.351 37.196C24.351 36.28 24.233 35.376 24.233 34.525C24.2196 34.3883 24.242 34.2505 24.298 34.125C24.367 34.0159 24.4485 33.9152 24.541 33.825L24.594 33.853ZM25.408 43.912C25.6321 44.0659 25.8372 44.2459 26.019 44.448C25.935 44.6235 25.827 44.7864 25.698 44.932C25.4971 44.7537 25.2865 44.5868 25.067 44.432L25.408 43.912ZM25.796 36.704L25.967 36.22C27.2998 35.6401 28.6635 35.134 30.052 34.704L30.071 34.73L29.802 35.162C29.243 35.343 28.541 35.601 27.824 35.862C27.1403 36.1094 26.4724 36.3983 25.824 36.727L25.796 36.704ZM26.341 34.652C26.3229 34.7023 26.29 34.7458 26.2466 34.7769C26.2032 34.808 26.1513 34.8251 26.098 34.826C25.94 34.826 25.861 34.697 25.861 34.471C25.8603 34.3767 25.8758 34.2831 25.907 34.194L26.025 34.116L26.032 34.129C26.0026 34.2075 25.9871 34.2903 25.986 34.374C25.986 34.458 26.006 34.528 26.098 34.528C26.17 34.528 26.23 34.464 26.249 34.374L26.295 34.084L26.395 34.026L26.402 34.0331C26.3967 34.0661 26.3944 34.0996 26.395 34.133C26.3867 34.1875 26.3933 34.2432 26.4141 34.2943C26.4348 34.3453 26.469 34.3898 26.513 34.423C26.5489 34.4455 26.5897 34.4589 26.632 34.462C26.671 34.462 26.697 34.442 26.697 34.404C26.6882 34.2909 26.6709 34.1785 26.645 34.068C26.691 33.997 26.73 33.939 26.776 33.881L26.796 33.888C26.8194 34.0741 26.8304 34.2615 26.829 34.449C26.829 34.572 26.75 34.749 26.592 34.749C26.5468 34.7498 26.5019 34.7413 26.4601 34.7241C26.4184 34.7069 26.3805 34.6814 26.349 34.649L26.341 34.652ZM27.878 38.452C28.2688 38.4587 28.6536 38.3547 28.9879 38.152C29.1129 38.068 29.172 37.984 29.172 37.894C29.1638 37.8201 29.1404 37.7488 29.1032 37.6844C29.0661 37.62 29.0159 37.564 28.956 37.5201C28.843 37.4273 28.7021 37.3752 28.5559 37.372C28.3512 37.3776 28.1525 37.4425 27.984 37.559C27.6996 37.7633 27.4659 38.0302 27.301 38.3391C27.4834 38.417 27.6796 38.4574 27.878 38.458V38.452ZM27.491 45.06C28.2422 44.8063 28.9678 44.4822 29.658 44.092C30.295 43.743 30.61 43.453 30.61 43.344C30.61 43.253 30.491 43.234 30.137 43.234C29.671 43.234 29.4149 43.008 29.4149 42.628C29.4126 42.4969 29.4363 42.3666 29.4847 42.2448C29.5331 42.1229 29.6053 42.0118 29.697 41.918C29.7593 41.8413 29.8371 41.7787 29.9253 41.7342C30.0136 41.6898 30.1102 41.6645 30.209 41.66C30.2868 41.661 30.3635 41.6789 30.4337 41.7124C30.504 41.7459 30.5662 41.7942 30.6159 41.854C30.8531 42.185 30.9626 42.5907 30.924 42.996C30.924 43.861 30.313 44.435 28.481 45.196L27.489 45.125L27.491 45.06ZM30.703 42.808C30.624 42.44 30.46 42.108 30.125 42.108C29.888 42.108 29.659 42.295 29.659 42.463C29.659 42.763 30.67 42.611 30.67 42.818L30.703 42.808ZM30.637 38.175L30.716 37.875C31.11 37.681 31.7339 37.43 32.5349 37.12L32.541 37.132L32.37 37.432C31.7836 37.6537 31.2092 37.9057 30.649 38.187L30.637 38.175Z" fill="#C39D3A"/>
<path d="M64.704 39.048C64.2862 40.313 63.6935 41.5134 62.943 42.614C62.823 42.7787 59.337 44.2497 52.485 47.027L47.813 48.722C45.369 49.6627 44.207 50.298 44.327 50.628C44.5663 51.334 45.6443 52.0284 47.561 52.711C48.543 53.0637 49.5253 53.405 50.5079 53.735C50.6708 54.4198 50.6708 55.1333 50.5079 55.818C50.3399 56.9714 50.1603 57.6067 49.969 57.724C49.6097 58.0767 48.3876 57.9944 46.303 57.477C41.535 56.347 38.3246 52.593 36.6719 46.215C36.4628 47.4778 35.9381 48.6674 35.1465 49.6733C34.355 50.6792 33.3222 51.4688 32.144 51.969C30.3537 52.7933 28.4006 53.2035 26.43 53.169C24.6567 53.169 23.7703 51.9334 23.7709 49.462C23.7709 47.6267 23.9266 46.6617 24.238 46.567C24.5319 47.0614 24.7499 47.597 24.8849 48.156C25.1291 48.4771 25.4538 48.7279 25.8261 48.8829C26.1984 49.038 26.6051 49.0919 27.0049 49.039C29.0968 49.054 31.1635 48.5826 33.042 47.662C34.5033 46.9327 35.342 46.309 35.558 45.791C35.6685 45.425 35.7172 45.0431 35.702 44.661C35.5829 42.6188 35.2759 40.5919 34.785 38.606C34.1743 35.77 33.869 34.3034 33.869 34.206C33.9164 33.4523 34.0183 32.703 34.174 31.964C34.2222 31.3867 34.3616 30.8207 34.587 30.287C34.8503 30.287 35.078 30.8517 35.27 31.981C36.0094 36.0781 36.9692 40.1323 38.145 44.126C38.4411 45.2033 38.8257 46.2542 39.295 47.268C40.0623 49.0625 41.3201 50.6041 42.924 51.716C43.2767 49.8895 44.1798 48.2145 45.512 46.916C47.0551 46.0442 48.6954 45.3568 50.399 44.868C53.0097 43.9507 54.4473 43.3387 54.712 43.032C52.938 43.2207 49.9193 43.3974 45.6559 43.562C41.3226 43.7267 39.1559 43.7384 39.1559 43.597C39.1559 41.597 40.1863 39.5847 42.2469 37.56C43.9941 35.8936 45.966 34.4799 48.105 33.36C49.2783 32.748 50.4403 32.136 51.5909 31.524C51.0876 31.3127 50.872 31.054 50.944 30.748C51.2153 29.9049 51.5392 29.0796 51.9139 28.277C52.5139 26.935 52.9333 26.217 53.1719 26.123C53.2472 26.0754 53.3349 26.051 53.424 26.053C54.4731 26.1768 55.4903 26.4938 56.424 26.988C57.8013 27.612 58.55 28.0884 58.67 28.417C58.7333 29.1364 58.6092 29.8598 58.3099 30.517C58.1282 31.2741 57.7986 31.9878 57.34 32.617C56.5121 33.2499 55.5568 33.6954 54.54 33.923C53.582 34.1824 52.6357 34.4414 51.701 34.7C47.293 36.2334 44.1426 38.0224 42.2499 40.067C43.0736 40.1533 43.9019 40.1887 44.73 40.173C50.6279 40.121 56.5185 39.7438 62.3749 39.043C63.1597 38.9219 63.9529 38.8631 64.7469 38.867C64.7424 38.9293 64.7279 38.9904 64.704 39.048Z" fill="url(#paint4_linear_1_3432)" stroke="#C39D3A" stroke-width="0.837" stroke-miterlimit="10"/>
<defs>
<filter id="filter0_d_1_3432" x="3.55798" y="6.05328" width="75.873" height="76.8798" filterUnits="userSpaceOnUse" color-interpolation-filters="sRGB">
<feFlood flood-opacity="0" result="BackgroundImageFix"/>
<feColorMatrix in="SourceAlpha" type="matrix" values="0 0 0 0 0 0 0 0 0 0 0 0 0 0 0 0 0 0 127 0" result="hardAlpha"/>
<feOffset dy="3"/>
<feGaussianBlur stdDeviation="1"/>
<feColorMatrix type="matrix" values="0 0 0 0 0 0 0 0 0 0 0 0 0 0 0 0 0 0 0.251 0"/>
<feBlend mode="normal" in2="BackgroundImageFix" result="effect1_dropShadow_1_3432"/>
<feBlend mode="normal" in="SourceGraphic" in2="effect1_dropShadow_1_3432" result="shape"/>
</filter>
<linearGradient id="paint0_linear_1_3432" x1="-8.25837" y1="-7.76445" x2="72.6864" y2="73.1726" gradientUnits="userSpaceOnUse">
<stop stop-color="#8E6128"/>
<stop offset="0.241" stop-color="#DDBD87"/>
<stop offset="0.354" stop-color="#EFEAAF"/>
<stop offset="0.584" stop-color="#A87F47"/>
<stop offset="0.782" stop-color="#DDBD87"/>
<stop offset="1" stop-color="#8E6128"/>
</linearGradient>
<radialGradient id="paint1_radial_1_3432" cx="0" cy="0" r="1" gradientUnits="userSpaceOnUse" gradientTransform="translate(35.3496 30.0927) scale(39.6232 39.6232)">
<stop stop-color="#F3EDEA"/>
<stop offset="1" stop-color="#DBD1CE"/>
</radialGradient>
<linearGradient id="paint2_linear_1_3432" x1="10.948" y1="19.6772" x2="72.7625" y2="64.8336" gradientUnits="userSpaceOnUse">
<stop stop-color="#F3EDEA"/>
<stop offset="1" stop-color="#BDAAA5"/>
</linearGradient>
<radialGradient id="paint3_radial_1_3432" cx="0" cy="0" r="1" gradientUnits="userSpaceOnUse" gradientTransform="translate(29.7158 70.4347) scale(28.9366)">
<stop offset="0.035" stop-color="#0F3772"/>
<stop offset="0.457" stop-color="#0E356F"/>
<stop offset="0.656" stop-color="#0C3068"/>
<stop offset="0.809" stop-color="#08285B"/>
<stop offset="0.937" stop-color="#031D49"/>
<stop offset="1" stop-color="#00163D"/>
</radialGradient>
<linearGradient id="paint4_linear_1_3432" x1="27.7456" y1="29.5603" x2="50.9424" y2="59.4499" gradientUnits="userSpaceOnUse">
<stop stop-color="#A6773E"/>
<stop offset="0.204" stop-color="#C9A255"/>
<stop offset="0.446" stop-color="#F0D16D"/>
<stop offset="0.567" stop-color="#FFE377"/>
<stop offset="0.638" stop-color="#F6D971"/>
<stop offset="0.757" stop-color="#E1BE63"/>
<stop offset="0.909" stop-color="#BD944D"/>
<stop offset="1" stop-color="#A6773E"/>
</linearGradient>
</defs>
</svg>
