<svg xmlns="http://www.w3.org/2000/svg" width="321.2" height="321.2" viewBox="0 0 321.2 321.2">
    <g id="Group_2649" transform="translate(-247.994 -19.887)">
        <g id="Group_2647" transform="translate(247.994 19.887)">
            <g id="Group_2637">
                <circle id="Ellipse_30" cx="113.561" cy="113.561" r="113.561" transform="translate(0 160.6) rotate(-45)" fill="#faad18"/>
                <circle id="Ellipse_31" cx="108.363" cy="108.363" r="108.363" transform="translate(7.352 160.6) rotate(-45)" fill="#364551"/>
                <circle id="Ellipse_32" cx="102.833" cy="102.833" r="102.833" transform="translate(15.173 160.6) rotate(-45)" fill="#425160"/>
                <path id="Path_12517"   d="M339.61,203.877l-4.173,6.3a68.969,68.969,0,0,0,18,6.3c.573-3.437,1.309-6.628,1.309-6.628A84.671,84.671,0,0,1,339.61,203.877Z" transform="translate(-218.845 41.447)" fill="#364551"/>
                <path id="Path_12518"   d="M351.48,208.684l-1,6.941s7.482,1.775,9.95,1.851c.463-5.4.54-7.249.54-7.249S352.1,209.455,351.48,208.684Z" transform="translate(-213.831 43.05)" fill="#364551"/>
                <path id="Path_12519"   d="M296.589,136.991S317.456,64.079,394.295,65.8s94.025,72.911,96.725,80.276c-8.1-13.994-25.28-76.131-99.179-75.612C321.875,70.952,296.589,136.991,296.589,136.991Z" transform="translate(-231.795 -4.593)" fill="#364551"/>
                <circle id="Ellipse_33" cx="95.826" cy="95.826" r="95.826" transform="translate(45.827 232.658) rotate(-77.122)" fill="#faad18"/>
                <circle id="Ellipse_34" cx="77.202" cy="77.202" r="77.202" transform="translate(68.055 218.53) rotate(-77.045)" fill="#cb8b2a"/>
                <path id="Path_12520" d="M462.614,159.173a75.336,75.336,0,1,1-75.336-75.341A75.228,75.228,0,0,1,462.614,159.173Z" transform="translate(-226.677 1.429)" fill="#208fce"/>
                <path id="Path_12521" d="M459.834,159.714a75.354,75.354,0,0,1-146.224,0,128.5,128.5,0,0,1,146.224,0Z" transform="translate(-226.121 19.116)" fill="#1b7ec1"/>
                <path id="Path_12522" d="M416.726,159.308s-11.138,33.339-47.429,38.545c12.428.24,41.043-2.361,56.888-36.417C422.4,158.362,416.726,159.308,416.726,159.308Z" transform="translate(-207.557 26.544)" fill="#fff" opacity="0.43"/>
                <path id="Path_12523" d="M462.613,159.17c-1.089-3.132-7.179-66.385-73.595-68.193-63.808-1.739-77.078,68.193-77.078,68.193a75.336,75.336,0,1,1,150.672,0Z" transform="translate(-226.677 1.43)" fill="#1b7ec1"/>
                <path id="Path_12524" d="M317.962,99.157l9.763,6.352a85.928,85.928,0,0,0-15.432,30.582l-12.059.341A121.435,121.435,0,0,1,317.962,99.157Z" transform="translate(-230.58 6.538)" fill="#fcdb00"/>
                <path id="Path_12525" d="M473.493,145.465s-2.268.04-13.294,1.075c-2.067-14.472-25.764-63.019-76.035-62.151-20.651.356-36.251,5.989-47.948,13.991l-8.938-9.52c12.726-10.2,29.529-17.715,51.458-17.822C460.9,70.64,473.493,145.465,473.493,145.465Z" transform="translate(-221.564 -2.836)" fill="#fcdb00"/>
                <path id="Path_12526" d="M442.559,155.347s-4.393,22.483-15.247,32.045c-8.787-6.977-9.3-7.624-9.3-7.624s10.079-15.376,10.854-26.23C436.873,154.83,442.559,155.347,442.559,155.347Z" transform="translate(-191.318 24.666)" fill="#fde464"/>
                <path id="Path_12527" d="M320.713,176.02s15.247,34.63,65.381,36.181c43.933-2.327,61.248-35.922,61.248-35.922s-23.259,30.754-61.505,29.978S320.713,176.02,320.713,176.02Z" transform="translate(-223.753 32.161)" fill="#fcdb00"/>
            </g>
            <g id="Group_2646" transform="translate(89.111 90.555)">
                <g id="Group_2638" transform="translate(81.849 10.464)">
                    <path id="Path_12528" d="M377.048,95.865l-.836,7.993,3.346-7.435Z" transform="translate(-376.212 -95.579)" fill="#2a3a4d"/>
                    <path id="Path_12529" d="M394.5,103.114l-3.9,7.869,6.072-6.134Z" transform="translate(-371.417 -93.162)" fill="#2a3a4d"/>
                    <path id="Path_12530" d="M388.718,95.65l2.453,1.082L382.3,114.194Z" transform="translate(-374.183 -95.65)" fill="#2a3a4d"/>
                </g>
                <g id="Group_2639" transform="translate(34.537 11.188)">
                    <path id="Path_12531" d="M359.665,96.407l.836,7.993-3.346-7.435Z" transform="translate(-335.252 -96.121)" fill="#2a3a4d"/>
                    <path id="Path_12532" d="M342.9,103.656l3.9,7.869-6.072-6.134Z" transform="translate(-340.728 -93.705)" fill="#2a3a4d"/>
                    <path id="Path_12533" d="M349.377,96.193l-2.453,1.082,8.908,16.139Z" transform="translate(-338.663 -96.193)" fill="#2a3a4d"/>
                </g>
                <g id="Group_2640" transform="translate(80.362 114.908)">
                    <path id="Path_12534" d="M375.933,189.673l-.836-7.993,3.346,7.435Z" transform="translate(-375.096 -171.415)" fill="#2a3a4d"/>
                    <path id="Path_12535" d="M393.382,182.393l-3.9-7.869,6.072,6.134Z" transform="translate(-370.302 -173.801)" fill="#2a3a4d"/>
                    <path id="Path_12536" d="M387.6,192.526l2.453-1.082-8.875-17.461Z" transform="translate(-373.068 -173.982)" fill="#2a3a4d"/>
                </g>
                <g id="Group_2641" transform="translate(34.289 114.557)">
                    <path id="Path_12537" d="M359.479,189.41l.836-7.993-3.346,7.435Z" transform="translate(-335.067 -171.152)" fill="#2a3a4d"/>
                    <path id="Path_12538" d="M342.711,182.129l3.9-7.869-6.072,6.134Z" transform="translate(-340.543 -173.537)" fill="#2a3a4d"/>
                    <path id="Path_12539" d="M349.191,192.262l-2.453-1.082,8.875-17.461Z" transform="translate(-338.477 -173.718)" fill="#2a3a4d"/>
                </g>
                <g id="Group_2642" transform="translate(8.635 36.687)">
                    <path id="Path_12540" d="M321.749,134.444l8.01.656-7.509-3.177Z" transform="translate(-321.154 -109.781)" fill="#2a3a4d"/>
                    <path id="Path_12541" d="M328.62,117.524l7.955,3.725-6.269-5.932Z" transform="translate(-318.863 -115.317)" fill="#2a3a4d"/>
                    <path id="Path_12542" d="M321.3,124.167l1.027-2.477,17.657,8.479Z" transform="translate(-321.303 -113.192)" fill="#2a3a4d"/>
                </g>
                <g id="Group_2643" transform="translate(10.09 82.817)">
                    <path id="Path_12543" d="M322.393,150.93l7.972-1.017-7.358,3.513Z" transform="translate(-322.393 -149.914)" fill="#2a3a4d"/>
                    <path id="Path_12544" d="M330.017,168.211l7.779-4.08-6,6.209Z" transform="translate(-319.852 -145.174)" fill="#2a3a4d"/>
                    <path id="Path_12545" d="M322.411,162.662l1.137,2.428,17.257-9.267Z" transform="translate(-322.387 -147.944)" fill="#2a3a4d"/>
                </g>
                <g id="Group_2644" transform="translate(113.232 35.926)">
                    <path id="Path_12546" d="M415.554,133.481l-7.972,1.017,7.358-3.513Z" transform="translate(-397.137 -109.333)" fill="#2a3a4d"/>
                    <path id="Path_12547" d="M407.882,116.875l-7.779,4.08,6-6.209Z" transform="translate(-399.63 -114.746)" fill="#2a3a4d"/>
                    <path id="Path_12548" d="M418.142,123.189,417,120.76l-17.257,9.267Z" transform="translate(-399.748 -112.741)" fill="#2a3a4d"/>
                </g>
                <g id="Group_2645" transform="translate(113.716 81.918)">
                    <path id="Path_12549" d="M415.681,149.9l-8.01-.656,7.509,3.177Z" transform="translate(-397.592 -149.24)" fill="#2a3a4d"/>
                    <path id="Path_12550" d="M408.8,167.5l-7.955-3.725,6.269,5.932Z" transform="translate(-399.868 -144.393)" fill="#2a3a4d"/>
                    <path id="Path_12551" d="M418.8,161.5l-1.027,2.477L400.112,155.5Z" transform="translate(-400.112 -147.154)" fill="#2a3a4d"/>
                </g>
                <path id="Path_12552" d="M365.245,97.468l2.138-.279-.651-5.2,3.346,5.112,2.324.279.465-9.48-3.253.465.929,5.855L365.989,87.8l-1.487.651Z" transform="translate(-298.266 -87.802)" fill="#fff"/>
                <path id="Path_12553" d="M372.309,187.037l-.745,2.319s-2.981-1.573-3.148-.248,3.849,1.645,3.811,4.472c-.035,2.528-2.071,3.313-5.053,2.485l.249-1.408s2.063.829,2.476-1-4.3-2.4-3.8-4.8S369.908,185.96,372.309,187.037Z" transform="translate(-297.747 -54.902)" fill="#fff"/>
                <path id="Path_12554" d="M314.826,139.215l2.224,7.97,2.873-.185.741-4.078,1.39,3.429h2.78l.834-7.877-2.5.185-.185,5.1-2.039-3.985-2.132.741-.278,3.522-1.3-6.024Z" transform="translate(-314.826 -71.065)" fill="#fff"/>
                <path id="Path_12555" d="M417.44,137.347v2.059l-4.2-.238.079,2.218,3.881-.079-.158,1.9-3.485-.317-.238,2.534,3.564-.317-.158,2.455-5.306-.634.158-9.266Z" transform="translate(-282.625 -71.286)" fill="#fff"/>
            </g>
        </g>
        <g id="Group_2648" transform="matrix(0.891, 0.454, -0.454, 0.891, 411.687, 145.82)">
            <path id="Path_12556" d="M366.256,103.393l-15.1,52.128,16.781-3.684,17,7.83Z" transform="translate(-351.158 -103.391)" fill="#246fa0" style="mix-blend-mode: multiply;isolation: isolate"/>
            <path id="Path_12557" d="M366.256,103.393l-15.1,52.128,15.1-7.406Z" transform="translate(-351.158 -103.391)" fill="#fff"/>
            <path id="Path_12558" d="M385.23,155.519l-6.329-3.1-8.769-4.3V103.391Z" transform="translate(-355.093 -103.391)" fill="#ed3435"/>
            <path id="Path_12559" d="M385.23,155.519l-6.329-3.1-8.769-49.024Z" transform="translate(-355.093 -103.391)" fill="#f05b63"/>
            <path id="Path_12560" d="M364.648,124.143l-8.905,30.625,7.385-4.778Z" transform="translate(-352.109 -107.694)" fill="#dde6f4"/>
        </g>
        <path id="Path_12561" d="M322.747,165.51s17.264,38.074,61.016,38.311c43.932.237,58.164-31.761,62.471-42.614C410.722,148.481,341.526,154.483,322.747,165.51Z" transform="translate(24.919 44.724)" fill="#fff" opacity="0.36"/>
    </g>
</svg>
