<svg xmlns="http://www.w3.org/2000/svg" width="70.497" height="48.972" viewBox="0 0 70.497 48.972">
    <g id="Group_2361" transform="translate(252.247 -252.28)">
        <path id="Path_12288" d="M-181.75,264.2l-9.538-8.18-.632.28-1.652-1.305-.44.184-2.531-1.983s-.18.171-.511.45l-1.241-.989a7.445,7.445,0,0,1-.563.534l-1.013-.906a13.877,13.877,0,0,1-8.936,4.468c-3.954.295-6.633,1.208-7.832,4.522l-.017.045-.011.031c-.037.1-.072.2-.1.3-.032-.1-.067-.2-.1-.3,0-.01-.008-.021-.012-.031s-.011-.029-.016-.045c-1.2-3.314-3.878-4.227-7.832-4.522a13.875,13.875,0,0,1-8.936-4.468l-1.013.906a7.411,7.411,0,0,1-.564-.534l-1.241.989c-.33-.279-.51-.45-.51-.45l-2.531,1.983-.44-.184-1.817,1.435-.924-.409-9.538,8.18v3.061l29.825,13.232-9.613,5.232h0l-5.151,2.8-3.189,1.736-2.127,1.158-5.029,7.3,1.129,2.532,29.4-15.287,29.4,15.287,1.129-2.532-5.028-7.3-2.126-1.158-3.19-1.736-5.15-2.8h0l-1.008-.549-1.008-.549-1.008-.548-1.008-.549-4.074-2.217h0l-1.508-.821,29.824-13.232Z" fill="#9b7056"/>
        <path id="Path_12289" d="M-131.587,264.881l2.115,1.767s.819.681.071,1.326l-2.165.937-2.161.936-2.158.934-.337.147-1.757.844-2.076,1-1.6.77c.251.283.5.569.753.85.038.043-1.142.625-1.106.67l.875-.389,4.516-2,5.64-2.5.522-.232,4.346-1.928-9.538-8.18-.632.28,4.553,3.6Z" transform="translate(-55.642 -3.807)" fill="#a47e64"/>
        <path id="Path_12290" d="M-142.331,288.365c-.253-.281-.5-.567-.753-.85l-1.6.77c.2.227.4.454.6.68.075.087-.824.6-.749.691l1.375-.61.023-.01C-143.472,288.99-142.293,288.407-142.331,288.365Z" transform="translate(-54.214 -17.785)" fill="#a07a60"/>
        <path id="Path_12291" d="M-148.245,289.749c-.2-.225-.4-.453-.6-.68l-1.6.77c.149.169.3.34.447.508.113.13-.5.583-.392.713l-1.4.62-1.29.573,4.086-1.813C-149.069,290.353-148.17,289.835-148.245,289.749Z" transform="translate(-50.054 -18.569)" fill="#9b755c"/>
        <path id="Path_12292" d="M-150.706,291.732c.151.173-.186.56-.036.733l1.4-.62c-.113-.13.5-.583.392-.713-.15-.168-.3-.339-.447-.508l-1.6.771Z" transform="translate(-51.103 -19.354)" fill="#967057"/>
        <path id="Path_12293" d="M-180.018,304.407l6.722-2.982-.245.109Z" transform="translate(-36.457 -24.806)" fill="#916b53"/>
        <path id="Path_12294" d="M-152.9,292.518l-.3-.337-1.6.771c.049.054.1.11.145.166.188.215.133.537.321.753l-1.018.451,1.126-.5,1.29-.573C-153.089,293.077-152.752,292.691-152.9,292.518Z" transform="translate(-48.906 -20.14)" fill="#916b53"/>
        <path id="Path_12295" d="M-155.73,293.9c-.049-.055-.1-.111-.145-.166l-1.605.771c.223.257.449.512.673.769l.38-.17,1.018-.451C-155.6,294.441-155.543,294.119-155.73,293.9Z" transform="translate(-47.833 -20.926)" fill="#8d674f"/>
        <path id="Path_12296" d="M-180.018,302.571l6.477-2.873.245-.109,4.061-1.8-5.127,2.275Z" transform="translate(-36.457 -22.97)" fill="#8d674f"/>
        <path id="Path_12297" d="M-148.7,320.9c.45,1.869.888,3.741,1.334,5.609l1.135.588,1.573.815,3.145,1.629,1.574.815,1.572.814,1.573.816,1.573.814-5.028-7.3-2.126-1.158-3.19-1.736-5.15-2.8h0Z" transform="translate(-51.25 -34.082)" fill="#a47e64"/>
        <path id="Path_12298" d="M-148.7,320.9l-2.015-1.1,1.008.549c.415,1.855.811,3.713,1.207,5.571l-1.134-.588h0l2.269,1.174C-147.807,324.642-148.246,322.77-148.7,320.9Z" transform="translate(-51.25 -34.082)" fill="#9d775e"/>
        <path id="Path_12299" d="M-149.7,320.353l-1.008-.549c.381,1.841.733,3.687,1.081,5.531l1.134.588C-148.892,324.066-149.288,322.207-149.7,320.353Z" transform="translate(-51.25 -34.082)" fill="#966f58"/>
        <path id="Path_12300" d="M-154.267,323.6l-1.135-.588,3.4,1.764h0c-.347-1.844-.7-3.69-1.081-5.531h0l-1.008-.549c.347,1.828.657,3.66.953,5.493Z" transform="translate(-48.882 -33.523)" fill="#8f6852"/>
        <path id="Path_12301" d="M-153.954,323.042l1.134.587c-.3-1.833-.607-3.664-.953-5.493h0l-1.008-.549C-154.469,319.4-154.2,321.221-153.954,323.042Z" transform="translate(-49.195 -32.963)" fill="#88624c"/>
        <path id="Path_12302" d="M-156.116,321.9l1.135.588c-.248-1.821-.515-3.641-.828-5.455h0l-1.008-.548C-156.539,318.281-156.314,320.086-156.116,321.9Z" transform="translate(-48.168 -32.405)" fill="#815b46"/>
        <path id="Path_12303" d="M-162,320.748l-4.227-2.19h0l5.362,2.776c-.2-1.809-.422-3.614-.7-5.414h0l-1.008-.549C-162.331,317.158-162.149,318.951-162,320.748Z" transform="translate(-43.418 -31.845)" fill="#7c5541"/>
        <path id="Path_12304" d="M-162.431,318.489c-.148-1.8-.329-3.591-.574-5.376h0l-4.074-2.217.421,5.4Z" transform="translate(-42.989 -29.586)" fill="#764f3c"/>
        <path id="Path_12305" d="M-178.991,310.961l2.786-1.249c.368.107.131.417.131.417l-3.79,1.708a1.745,1.745,0,0,1-.2.076l6.852,3.55h0l-.421-5.4h0l-1.508-.821-3.844,1.705Z" transform="translate(-36.434 -28.749)" fill="#674232"/>
        <path id="Path_12306" d="M-184.806,328.566l-1.572-.814-1.574-.815-3.145-1.629-1.573-.815-1.135-.588-2.269-1.174-3.4-1.764-5.362-2.776-6.852-3.55a1.664,1.664,0,0,1-.5.077,1.665,1.665,0,0,1-.5-.077l-12.213,6.326h0l-5.673,2.938-5.853,3.032-1.573.815h0l-1.573.814h0l-1.573.816-1.573.814,1.129,2.532,29.4-15.287,29.4,15.287,1.129-2.532-1.573-.814Z" transform="translate(-4.806 -31.475)" fill="#8f674d"/>
        <path id="Path_12307" d="M-239.579,331.173h0l1.573-.814h0l1.573-.815,5.853-3.032h0c.446-1.869.884-3.741,1.334-5.609l2.016-1.1h0l-5.151,2.8-3.189,1.736L-237.7,325.5l-5.029,7.3,1.573-.814Z" transform="translate(-4.806 -34.082)" fill="#a47e64"/>
        <path id="Path_12308" d="M-215.932,325.336l-1.135.588c.4-1.857.791-3.716,1.207-5.571l1.008-.549-2.016,1.1c-.45,1.869-.888,3.741-1.334,5.609h0l5.673-2.938-3.4,1.764Z" transform="translate(-17.185 -34.082)" fill="#9d775e"/>
        <path id="Path_12309" d="M-215.91,325.923l1.135-.588c.346-1.844.7-3.69,1.081-5.531l-1.008.549C-215.119,322.207-215.514,324.066-215.91,325.923Z" transform="translate(-18.341 -34.082)" fill="#966f58"/>
        <path id="Path_12310" d="M-213.619,320h0l3.4-1.764h0l-1.134.588-1.135.587c.3-1.833.607-3.664.954-5.493l8.606-4.684-9.613,5.232h0C-212.92,316.312-213.273,318.158-213.619,320Z" transform="translate(-19.497 -28.749)" fill="#8f6852"/>
        <path id="Path_12311" d="M-211.328,319.415l1.135-.587c.247-1.821.514-3.641.827-5.455l7.6-4.135-8.606,4.684C-210.721,315.75-211.031,317.582-211.328,319.415Z" transform="translate(-20.654 -28.749)" fill="#88624c"/>
        <path id="Path_12312" d="M-209.037,318.828l1.134-.588c.2-1.809.422-3.614.7-5.414l6.589-3.587-7.6,4.135C-208.523,315.187-208.79,317.007-209.037,318.828Z" transform="translate(-21.81 -28.749)" fill="#815b46"/>
        <path id="Path_12313" d="M-206.747,318.239h0l12.214-6.326-11.079,5.74c.148-1.8.33-3.591.574-5.376l5.582-3.038-6.589,3.587C-206.325,314.625-206.549,316.431-206.747,318.239Z" transform="translate(-22.966 -28.749)" fill="#7c5541"/>
        <path id="Path_12314" d="M-204.456,317.652l11.079-5.74h0l-6.594,3.415.552-5.481,1.119-.608h0l-5.582,3.038C-204.126,314.062-204.308,315.855-204.456,317.652Z" transform="translate(-24.122 -28.749)" fill="#764f3c"/>
        <path id="Path_12315" d="M-189.036,311.838l-3.79-1.708s-.238-.31.131-.417l2.825,1.266-.015-.034-3.844-1.7-1.119.608-.552,5.481,6.594-3.415a1.684,1.684,0,0,1-.236-.1Z" transform="translate(-28.693 -28.75)" fill="#674232"/>
        <path id="Path_12316" d="M-199.334,299.815l8.52,3.779-7.3-3.237Z" transform="translate(-26.707 -23.993)" fill="#a47e64"/>
        <path id="Path_12317" d="M-240.175,273.359l7.725,3.427,3.151,1.4-.461-.205-1.586-.7-1.073-.475-.822-.366-.248-.11-.293-.129-2.564-1.138c.038-.043-1.144-.628-1.106-.67.293-.328.582-.659.873-.989l-1.581-.787L-240.2,271.6l-.484-.242-1.64-.71-2.153-.932-2.159-.935-1.856-.8a1.04,1.04,0,0,1-.2-.225c-.368-.569.27-1.1.27-1.1l2.115-1.767.136-1.181,4.389-3.468-.924-.409-9.538,8.18,4.347,1.928Z" transform="translate(0 -3.807)" fill="#a47e64"/>
        <path id="Path_12318" d="M-220.621,288.823c.236-.265.467-.532.7-.8l-1.584-.788c-.291.33-.579.661-.873.989-.038.043,1.144.627,1.106.67l2.564,1.138.293.129.248.11-1.708-.757C-219.8,289.427-220.7,288.909-220.621,288.823Z" transform="translate(-15.077 -17.643)" fill="#a07a60"/>
        <path id="Path_12319" d="M-215.29,291.558l-1.4-.621c.113-.129-.5-.582-.392-.712.178-.2.354-.406.532-.609l-1.585-.789c-.235.267-.466.534-.7.8-.075.087.824.6.749.691l1.708.757.822.366,1.073.475,1.586.7-2.393-1.061Z" transform="translate(-16.862 -18.447)" fill="#9b755c"/>
        <path id="Path_12320" d="M-215.3,291.03c-.112.13.506.583.392.712l1.4.621c.15-.173-.186-.56-.037-.733.122-.138.243-.279.364-.418l-1.586-.79C-214.949,290.624-215.125,290.828-215.3,291.03Z" transform="translate(-18.64 -19.251)" fill="#967057"/>
        <path id="Path_12321" d="M-207.479,295.062l-1.259-.559-.216-.1-1.4-.621c.188-.215.133-.538.321-.753.066-.076.131-.153.2-.228l-1.588-.79c-.121.14-.242.28-.364.418-.15.173.186.56.037.733h0l2.393,1.061.461.205.263.117,2.994,1.328,1.222.542,7.3,3.237-6.477-2.872Z" transform="translate(-20.403 -20.057)" fill="#916b53"/>
        <path id="Path_12322" d="M-205.591,297.039l1.259.558,3.883,1.723,6.477,2.873-5.656-2.509Z" transform="translate(-23.55 -22.592)" fill="#8d674f"/>
        <path id="Path_12323" d="M-208.529,293.84c-.188.215-.133.537-.321.753l1.4.621c.225-.259.453-.515.678-.774.011-.011.021-.024.031-.037l-1.589-.791C-208.4,293.688-208.463,293.765-208.529,293.84Z" transform="translate(-21.904 -20.862)" fill="#8d674f"/>
        <path id="Path_12324" d="M-193.814,300.938l-11.5-5.729c-.01.012-.02.025-.031.037-.225.259-.452.515-.678.774l.216.1,5.963,2.645,5.656,2.509a1.681,1.681,0,0,1,.523-.083,1.68,1.68,0,0,1,.523.083l5.656-2.509,5.127-2.275,1.052-.466c-.223-.257-.449-.512-.673-.769Z" transform="translate(-23.329 -21.668)" fill="#88624b"/>
        <path id="Path_12325" d="M-221.631,286.293l1.586.79,1.588.79,1.589.791,11.5,5.729,11.83-5.687,1.605-.771,1.6-.771,1.6-.771,1.6-.77,1.6-.77,1.6-.77,2.076-1,1.757-.844-23.066,9.985a2.368,2.368,0,0,1-1.84,1.082,2.369,2.369,0,0,1-1.841-1.082l-22.077-9.558.484.242,2.043,1.017,1.581.787,1.584.788Z" transform="translate(-11.78 -15.123)" fill="#4c2b1b"/>
        <path id="Path_12326" d="M-212.877,286.255c.365-.01,1.043-.193,1.54-1.3l30.116-13.157-2.115-1.767.155,1.348-28.4,12.737a2.054,2.054,0,0,0-1.292-.957,2.053,2.053,0,0,0-1.293.957l-28.4-12.737.155-1.348-2.115,1.767,30.115,13.157C-213.92,286.062-213.242,286.245-212.877,286.255Z" transform="translate(-3.894 -8.962)" fill="#914846"/>
        <path id="Path_12327" d="M-180.3,279.61a28,28,0,0,1,8.732-4.211c5.616-1.626,16.725-6.458,18.276-7.765l-.447-.323c-3.336,3.344-15.4,7.266-20.461,8.2A8.175,8.175,0,0,0-180.3,279.61Z" transform="translate(-36.317 -7.587)" fill="#a29a8f"/>
        <path id="Path_12328" d="M-201.663,271.83a8.093,8.093,0,0,0-4.033,5.588,8.094,8.094,0,0,0-4.033-5.588c-3.708-1.776-16.75-3.547-19.923-8.018l-.654.543s1.859,4.3,14.665,7.51c2.744.687,8.58,1.242,9.945,6.066v-.453c1.538-4.509,7.159-5.055,9.836-5.726,12.806-3.211,14.665-7.509,14.665-7.509l-.536-.446C-184.887,268.281-197.95,270.053-201.663,271.83Z" transform="translate(-11.075 -5.814)" fill="#bdb5aa"/>
        <path id="Path_12329" d="M-213.268,288.948a2.368,2.368,0,0,0,1.84-1.082l23.066-9.985.337-.147,2.158-.934,2.161-.936,2.165-.937c.747-.644-.071-1.326-.071-1.326l-30.116,13.157c-.5,1.1-1.175,1.285-1.54,1.3-.365-.01-1.043-.193-1.541-1.3L-244.925,273.6s-.638.532-.27,1.1a1.04,1.04,0,0,0,.2.225l1.856.8,2.159.935,2.153.932,1.64.71,22.077,9.558A2.369,2.369,0,0,0-213.268,288.948Z" transform="translate(-3.502 -10.763)" fill="#753430"/>
        <path id="Path_12330" d="M-212.172,282.918a2.053,2.053,0,0,1,1.293-.957,2.054,2.054,0,0,1,1.292.957l28.4-12.737-.155-1.348-.137-1.181-29.4,13.027-29.4-13.027-.136,1.181-.155,1.348Z" transform="translate(-5.891 -7.759)" fill="#bfc0c2"/>
        <path id="Path_12331" d="M-210.582,275.682l29.4-13.027-4.553-3.6-1.652-1.305-.44.184,4.65,3.644a3.6,3.6,0,0,1-.69.906l.447.323c-1.551,1.307-12.66,6.139-18.276,7.765a28,28,0,0,0-8.732,4.211c-.06.113-.112.221-.157.319a27.133,27.133,0,0,0-9-4.418c-5.616-1.625-16.725-6.458-18.276-7.764l.575-.416a3.642,3.642,0,0,1-.71-.927l4.65-3.644-.44-.184-1.817,1.435-4.389,3.468Z" transform="translate(-6.188 -2.762)" fill="#d5cdbf"/>
        <path id="Path_12332" d="M-214.668,275.532c-5.047-.931-17.078-4.841-20.442-8.18l-.575.416c1.551,1.306,12.66,6.139,18.276,7.764a27.132,27.132,0,0,1,9,4.418C-208.965,278.737-210.567,276.289-214.668,275.532Z" transform="translate(-8.36 -7.608)" fill="#a29a8f"/>
        <path id="Path_12333" d="M-235.246,260.673c3.364,3.339,15.395,7.249,20.442,8.18,4.1.758,5.7,3.206,6.257,4.418.045-.1.1-.206.158-.319a8.175,8.175,0,0,1,6.1-4.1c5.057-.934,17.125-4.855,20.461-8.2a3.6,3.6,0,0,0,.69-.906l-4.65-3.644-2.531-1.983s-.18.171-.511.45l4.63,3.687a4.167,4.167,0,0,1-.381.657l.536.446s-1.859,4.3-14.665,7.509c-2.677.672-8.3,1.217-9.836,5.726v.453c-1.365-4.825-7.2-5.379-9.945-6.066-12.806-3.211-14.665-7.51-14.665-7.51l.654-.543a4.173,4.173,0,0,1-.39-.671l4.63-3.687c-.33-.279-.51-.45-.51-.45l-2.531,1.983-4.65,3.644A3.642,3.642,0,0,0-235.246,260.673Z" transform="translate(-8.223 -0.928)" fill="#eee9e1"/>
        <path id="Path_12334" d="M-229.384,258c3.174,4.471,16.215,6.242,19.923,8.018a8.094,8.094,0,0,1,4.033,5.588,8.093,8.093,0,0,1,4.033-5.588c3.713-1.777,16.776-3.549,19.933-8.032a4.167,4.167,0,0,0,.381-.657l-4.63-3.687-1.241-.989a7.445,7.445,0,0,1-.563.534l-1.013-.906a13.877,13.877,0,0,1-8.936,4.468c-3.954.295-6.633,1.208-7.832,4.522l-.017.045-.011.031c-.037.1-.072.2-.1.3-.032-.1-.067-.2-.1-.3,0-.01-.008-.021-.012-.031s-.011-.029-.016-.045c-1.2-3.314-3.878-4.227-7.832-4.522a13.875,13.875,0,0,1-8.936-4.468l-1.013.906a7.407,7.407,0,0,1-.564-.534l-1.241.989-4.63,3.687A4.173,4.173,0,0,0-229.384,258Z" transform="translate(-11.343)" fill="#fffcf4"/>
        <path id="Path_12335" d="M-186.282,307.361a1.854,1.854,0,0,0-1.236,1.778,1.939,1.939,0,0,0,.179.815l.015.034-2.825-1.266c-.368.107-.131.417-.131.417l3.79,1.708-.006-.019a1.683,1.683,0,0,0,.236.1h0a1.666,1.666,0,0,0,.5.077,1.665,1.665,0,0,0,.5-.077,1.746,1.746,0,0,0,.2-.076l3.79-1.708s.237-.31-.131-.417l-2.786,1.249.008-.017a1.943,1.943,0,0,0,.179-.815,1.855,1.855,0,0,0-1.237-1.778,1.682,1.682,0,0,0-.523-.083A1.682,1.682,0,0,0-186.282,307.361Zm1.646,1.778a1.157,1.157,0,0,1-1.123,1.188,1.157,1.157,0,0,1-1.123-1.188,1.157,1.157,0,0,1,1.123-1.187A1.157,1.157,0,0,1-184.635,309.139Z" transform="translate(-31.24 -27.76)" fill="#3c2c27"/>
    </g>
</svg>
