<svg xmlns="http://www.w3.org/2000/svg" xmlns:xlink="http://www.w3.org/1999/xlink" width="288.469" height="248.18" viewBox="0 0 288.469 248.18">
    <defs>
        <linearGradient id="linear-gradient" x1="1.358" y1="-0.311" x2="1.358" y2="1.29" gradientUnits="objectBoundingBox">
            <stop offset="0" stop-color="#4f80c1"/>
            <stop offset="1" stop-color="#4f80c1" stop-opacity="0.561"/>
        </linearGradient>
        <clipPath id="clip-path">
            <path id="Path_53" d="M307.51,215.378q-1.3-1.436-2.584-2.759c-16.346-16.84-27.784-19.762-25.85-49.989,2.915-45.57-14.371-67.26-38.246-74.455-25.816-7.78-52.543,17.616-73.4,9.989-22.378-8.184-38.944-20.823-63.824-8.184-23.693,12.036-23.908,50.062-35.2,63.5s-39.162,26.772-39.162,50.765c0,15.721,1.444,33.487,27.8,47.495,21.028,11.175,7.038,37.15,7.038,37.15.207,3.97,11.808,7.833,13.224,10.852h160.17c9.462-12.045,15.356-9.5,38.211-11.2C320.715,285.173,324.835,234.582,307.51,215.378Z" transform="translate(-29.246 -84.626)" fill="none"/>
        </clipPath>
    </defs>
    <g id="Group_2702" transform="translate(-106.031 -221)">
        <g id="Group_2701">
            <g id="Group_2700">
                <g id="Group_20" transform="translate(77.286 136.374)">
                    <g id="Group_15" transform="translate(29.246 84.626)">
                        <path id="Path_44" d="M307.51,215.378q-1.3-1.436-2.584-2.759c-16.346-16.84-27.784-19.762-25.85-49.989,2.915-45.57-14.371-67.26-38.246-74.455-25.816-7.78-52.543,17.616-73.4,9.989-22.378-8.184-38.944-20.823-63.824-8.184-23.693,12.036-23.908,50.062-35.2,63.5s-39.162,26.772-39.162,50.765c0,15.721,1.444,33.487,27.8,47.495,21.028,11.175,7.038,37.15,7.038,37.15.207,3.97,11.808,7.833,13.224,10.852h160.17c9.462-12.045,15.356-9.5,38.211-11.2C320.715,285.173,324.835,234.582,307.51,215.378Z" transform="translate(-29.246 -84.626)" fill="none"/>
                        <circle id="Ellipse_2" cx="37.121" cy="37.121" r="37.121" transform="translate(81.649 69.259)" fill="none"/>
                        <g id="Group_14">
                            <g id="Group_13" clip-path="url(#clip-path)">
                                <g id="Group_12" transform="translate(165.408 -66.029)">
                                    <g id="Group_10" transform="translate(48.444 32.515)">
                                        <path id="Path_45" d="M384.787,155.433c-.692-3.462-8.414-3.8-13.129-8.309v-.882a2,2,0,0,0,.26-3.891,1.481,1.481,0,0,0-.26-2.8v-5.3a3.365,3.365,0,0,0,0-6.7v-94.4h-.707v94.41a3.364,3.364,0,0,0,0,6.686v5.322a1.479,1.479,0,0,0-.214,2.79,2,2,0,0,0,.214,3.884v.931c-4.718,4.469-12.393,4.816-13.083,8.267a3.194,3.194,0,0,0,2.409,4.108h-.02v1.709h-.1a.893.893,0,0,0-.893.893v.164a.893.893,0,0,0,.893.893h.1v26.03h-.1a.893.893,0,0,0-.893.893v.165a.893.893,0,0,0,.893.892h.1v1.066l11.07,6.653,11.07-6.653v-1.066h.1a.893.893,0,0,0,.893-.892v-.165a.893.893,0,0,0-.893-.893h-.1V163.2h.1a.893.893,0,0,0,.893-.893v-.164a.893.893,0,0,0-.893-.893h-.1v-1.709h-.019A3.193,3.193,0,0,0,384.787,155.433Zm-20.044,28.94c-.107,1.109-1.321.637-2.025,2.143-.7-1.506-1.918-1.034-2.025-2.143a1.624,1.624,0,0,1,.188-1.129V169.058a1.626,1.626,0,0,1-.187-1.13c.107-1.108,1.321-.636,2.025-2.142.7,1.506,1.918,1.034,2.025,2.142a1.627,1.627,0,0,1-.187,1.13v14.186A1.626,1.626,0,0,1,364.743,184.374Zm2.375,0a1,1,0,0,1,.39-1.129V169.058a1,1,0,0,1-.39-1.13c.222-1.108,2.748-.636,4.21-2.142,1.463,1.506,3.989,1.034,4.21,2.142a1,1,0,0,1-.39,1.13v14.186a1,1,0,0,1,.39,1.129c-.221,1.109-2.748.637-4.21,2.143C369.865,185.01,367.339,185.482,367.118,184.374Zm14.846,0c-.107,1.109-1.321.637-2.025,2.143-.7-1.506-1.918-1.034-2.025-2.143a1.628,1.628,0,0,1,.188-1.129V169.058a1.629,1.629,0,0,1-.187-1.13c.107-1.108,1.322-.636,2.025-2.142.7,1.506,1.918,1.034,2.025,2.142a1.626,1.626,0,0,1-.187,1.13v14.186A1.625,1.625,0,0,1,381.963,184.374Z" transform="translate(-357.764 -33.143)" fill="none"/>
                                        <path id="Path_46" d="M379.325,287.65a1.56,1.56,0,1,1-1.56-1.56A1.56,1.56,0,0,1,379.325,287.65Z" transform="translate(-364.201 -121.432)" fill="none"/>
                                        <path id="Path_47" d="M379.693,292.958a2.354,2.354,0,1,1-2.354-2.355A2.355,2.355,0,0,1,379.693,292.958Z" transform="translate(-363.775 -123.007)" fill="none"/>
                                        <path id="Path_48" d="M379.181,298.868a1.251,1.251,0,1,1-1.251-1.251A1.251,1.251,0,0,1,379.181,298.868Z" transform="translate(-364.366 -125.456)" fill="none"/>
                                    </g>
                                    <g id="Group_11" transform="translate(0 0)">
                                        <path id="Path_49" d="M310.369,105.483c-.693-3.462-8.414-3.8-13.129-8.309v-.881a2,2,0,0,0,.26-3.891,1.481,1.481,0,0,0-.26-2.8V84.3a3.365,3.365,0,0,0,0-6.7V-16.807h-.706V77.6a3.364,3.364,0,0,0,0,6.687v5.321a1.479,1.479,0,0,0-.215,2.79,2,2,0,0,0,.215,3.884v.931c-4.719,4.469-12.394,4.816-13.084,8.267a3.2,3.2,0,0,0,2.409,4.109h-.02V111.3h-.1a.893.893,0,0,0-.893.893v.164a.894.894,0,0,0,.893.893h.1v26.03h-.1a.893.893,0,0,0-.893.893v.164a.894.894,0,0,0,.893.893h.1V142.3l11.07,6.653L307.98,142.3v-1.066h.1a.893.893,0,0,0,.893-.893v-.164a.893.893,0,0,0-.893-.893h-.1v-26.03h.1a.893.893,0,0,0,.893-.893v-.164a.893.893,0,0,0-.893-.893h-.1v-1.709h-.019A3.194,3.194,0,0,0,310.369,105.483Zm-20.045,28.941c-.107,1.108-1.322.636-2.025,2.143-.7-1.507-1.918-1.035-2.024-2.143a1.626,1.626,0,0,1,.187-1.129V119.108a1.627,1.627,0,0,1-.187-1.129c.106-1.109,1.321-.636,2.024-2.143.7,1.507,1.918,1.034,2.025,2.143a1.625,1.625,0,0,1-.188,1.129v14.186A1.624,1.624,0,0,1,290.324,134.424Zm2.375,0a1,1,0,0,1,.389-1.129V119.108a1,1,0,0,1-.389-1.129c.221-1.109,2.748-.636,4.21-2.143,1.463,1.507,3.989,1.034,4.21,2.143a1,1,0,0,1-.389,1.129v14.186a1,1,0,0,1,.389,1.129c-.221,1.108-2.748.636-4.21,2.143C295.447,135.06,292.921,135.532,292.7,134.424Zm14.845,0c-.106,1.108-1.321.636-2.024,2.143-.7-1.507-1.919-1.035-2.025-2.143a1.624,1.624,0,0,1,.187-1.129V119.108a1.625,1.625,0,0,1-.187-1.129c.106-1.109,1.321-.636,2.025-2.143.7,1.507,1.918,1.034,2.024,2.143a1.625,1.625,0,0,1-.187,1.129v14.186A1.624,1.624,0,0,1,307.544,134.424Z" transform="translate(-283.345 16.807)" fill="none"/>
                                        <path id="Path_50" d="M304.906,237.7a1.56,1.56,0,1,1-1.56-1.56A1.56,1.56,0,0,1,304.906,237.7Z" transform="translate(-289.782 -71.482)" fill="none"/>
                                        <path id="Path_51" d="M305.274,243.008a2.354,2.354,0,1,1-2.354-2.354A2.355,2.355,0,0,1,305.274,243.008Z" transform="translate(-289.356 -73.058)" fill="none"/>
                                        <path id="Path_52" d="M304.762,248.918a1.251,1.251,0,1,1-1.251-1.251A1.251,1.251,0,0,1,304.762,248.918Z" transform="translate(-289.947 -75.506)" fill="none"/>
                                    </g>
                                </g>
                            </g>
                        </g>
                    </g>
                    <path id="Path_54" d="M296.371,348.934c-17.576-8.462-32.548-19.529-53.379-18.878-8.462.651-14.972-8.462-22.784-13.019a7.188,7.188,0,0,0-5.208,0c-22.784,20.831-53.379,16.925-80.719,13.019-14.972-2.6-26.689-13.019-40.359-18.878-5.859-2.6-13.019-4.557-19.529-2.6-8.269,2.315-14.859,7.823-21.645,12.682a68.041,68.041,0,0,0,12.5,8.371c21.028,11.175,7.038,37.15,7.038,37.15.207,3.97,11.808,7.833,13.224,10.852H245.682c9.462-12.045,15.356-9.5,38.211-11.2,15.622-1.166,26.316-8.021,32.9-17.275C309.7,350.6,302.786,351.741,296.371,348.934Z" transform="translate(-8.204 -77.89)" fill="none"/>
                    <g id="Group_16" transform="translate(35.744 288.534)">
                        <path id="Path_55" d="M67.57,398.411h211.6L313.635,421.8v.353H39.228V421.8Z" transform="translate(-39.228 -398.058)" fill="#d16969"/>
                        <path id="Path_56" d="M67.57,397.869h211.6l34.461,23.74H39.228Z" transform="translate(-39.228 -397.869)" fill="#e89191"/>
                        <path id="Path_57" d="M82.164,399.253H280.231l23.962,19.54H63.536Z" transform="translate(-47.713 -398.352)" fill="#d16969"/>
                        <path id="Path_58" d="M96.486,404.95s-7.377,7.161-7.92,9.222,5.985,1.3,10.858,1.3,69.269,1.085,90.613,1.519,41.307-.434,47.165-3.472-.381-9.384-10.014-10.793S96.486,404.95,96.486,404.95Z" transform="translate(-56.438 -399.452)" fill="#c95555"/>
                    </g>
                    <g id="Group_19" transform="translate(64.073 102.883)">
                        <path id="Path_59" d="M146.944,383.622s-27.448,3.165-34.565,0-6.975-12.315-6.283-19.177,8.571-17.282,11.874-17.79,15.249,7.37,16.012,7.624S146.944,383.622,146.944,383.622Z" transform="translate(-90.788 -194.334)" fill="#a33"/>
                        <path id="Path_60" d="M106.195,409.706s-.582,1.17.339,1.461,1.092-.655,1.916-1.6,2.934-.9,2.934-.9-2.469-2.166-2.983-2.05S106.195,409.706,106.195,409.706Z" transform="translate(-90.868 -215.271)" fill="#d1864e"/>
                        <path id="Path_61" d="M102.488,410.761s.581,1.261,1.745.921.34-.97,1.407-2.327a7.121,7.121,0,0,1,2.91-1.989s-3.349-1.667-4.8-.862S102.488,410.761,102.488,410.761Z" transform="translate(-89.635 -215.155)" fill="#d89055"/>
                        <path id="Path_62" d="M98.6,410.612s.038,2.183,1.711,2.183.873-.8,1.528-2.692a4.689,4.689,0,0,1,3.564-2.983C103.582,405.811,99.433,407.12,98.6,410.612Z" transform="translate(-88.28 -215.273)" fill="#e09d61"/>
                        <path id="Path_63" d="M138.346,404.231c-.508,0-10.365-.483-16.89-1.032-9.072-.762-12.418-4.109-17.374-6.269s-7.159.678-7.159,2.584.127,3.177-3.05,2.8-2.541-4.956,0-9.912,9.7-11.352,14.275-14.783,8.938-5.167,8.98,2.118,12.707,12.411,20.205,10.251S138.346,404.231,138.346,404.231Z" transform="translate(-85.88 -204.115)" fill="#e5a86c"/>
                        <path id="Path_64" d="M139.992,389.983c-7.5,2.161-20.163-2.965-20.205-10.251s-4.405-5.549-8.98-2.118A72.832,72.832,0,0,0,99.338,388.3c3.731-1.832,7.733-2.289,11.413.165,6.983,4.073,13.967,3.491,20.368,5.237,3.934,1.312,3.6,6.234,1.463,10.083,4.361.263,8.114.441,8.423.441C141,404.231,147.489,387.823,139.992,389.983Z" transform="translate(-88.538 -204.115)" fill="#e09d61"/>
                        <path id="Path_65" d="M248.725,354.622s11.013,12.768,5.592,28.411-28.465,11.321-36.344,11.321-13.216,1.094-24.652.547-32.785-1.055-32.785-1.055c-4.321-14.995-4.829-24.907,0-34.946s6.608-12.58,24.652-13.851S248.725,354.622,248.725,354.622Z" transform="translate(-108.7 -193.746)" fill="#bc4646"/>
                        <path id="Path_66" d="M248.717,354.852c-.346-.082-13.079-3.106-27.657-5.751h-.008c-2.33-.406-28.663-4.41-41.726-3.287-1.22.141-2.336.3-3.367.473-7.269,1.583-14.235,13.27-18.211,21.234a39.95,39.95,0,0,0-.232,12.713c.546-.655,5.081-5.7,16.9-8.009,12.657-2.473,30.115,9.02,47.428,10.474-7.274-1.891-16.876-4.073-18.621-7.711s11.493-1.6,17.312-.727,8.729-.291,13.093,1.455,6.838,2.7,8.584,6.226c.146-3.753-6.547-9.1-12.366-10.065,6.111-.38,14.979,2.094,16.364,4.421-1.088-5.238-9.529-7.856-18.183-7.856s-2.347-5.059,6.429-2.966,12.6,3.839,15.127,1.075a8.866,8.866,0,0,0,1.731-7.922,28.206,28.206,0,0,0-2.567-3.753Z" transform="translate(-108.706 -193.979)" fill="#a33"/>
                        <g id="Group_18" transform="translate(40.474)">
                            <path id="Path_67" d="M154.5,161.214l-1.652,3.05s-5.126,8.45-7.413,10.2,3.473,10.643,8.3,15.81a52.668,52.668,0,0,0,9.828,8.218s3.982-4.067,5.676-4.067,1.017-23.552,1.017-23.552Z" transform="translate(-144.923 -129.615)" fill="#e5a86c"/>
                            <path id="Path_68" d="M173.412,170.872l-15.757-9.658L156,164.264s-.872,1.436-2.055,3.246c1.185,4.078,5.4,5,9.616,4.469-1.616,8.487-1.263,18.935,3.583,26.089,1.07-1.038,3.891-3.644,5.248-3.644C174.09,194.423,173.412,170.872,173.412,170.872Z" transform="translate(-148.073 -129.615)" fill="#dd965b"/>
                            <path id="Path_69" d="M204.081,156.181s-1.779,5.76-4.575,8.048c-2.118,2.118-.974,7.455-.911,11.9-.127,2.287-4.638,1.4-4.638,1.4s-.932,2.584-1.186,3.6-.508,1.059-1.694,1.186a29.428,29.428,0,0,0-3.177.508c2.2.127,2.33.424,2.288,1.059s-1.4,1.4-2.5,1.821.127,3.007-1.61,4.575-11.945.212-15.376-7.921-2.827-12.067,2.159-22.7L157.1,153.639s1.017-15.376,13.6-21.349S210.646,138.772,204.081,156.181Z" transform="translate(-149.175 -118.991)" fill="#ecb67b"/>
                            <path id="Path_70" d="M175.751,187.539a3.757,3.757,0,0,0,3.615-2.248c-.888,2.754-2.3,2.873-3.807,2.964Z" transform="translate(-155.616 -138.019)" fill="#dd965b"/>
                            <path id="Path_71" d="M212.219,195.7s-1.964,1.006-2.219,2.17,2.08,2.108,2.08,2.108a3.473,3.473,0,0,1-.98-1.853C211.018,197.146,212.219,195.7,212.219,195.7Z" transform="translate(-167.631 -141.654)" fill="#dd965b"/>
                            <path id="Path_72" d="M208.706,184.51l1.32,1.125a12.711,12.711,0,0,0,1.348,1.012,1.526,1.526,0,0,0,1.407.314,3.532,3.532,0,0,0,1.178-1.139,2.583,2.583,0,0,1-1,1.493,1.359,1.359,0,0,1-.989.143,3.244,3.244,0,0,1-.863-.381A7.792,7.792,0,0,1,208.706,184.51Z" transform="translate(-167.186 -137.747)" fill="#7a4313"/>
                            <path id="Path_73" d="M208.5,179.886a15.577,15.577,0,0,1,5.21-.212c2.372.424,3.3,1.144,3.855.212S213.924,176.284,208.5,179.886Z" transform="translate(-167.114 -135.494)" fill="#7a4313"/>
                            <path id="Path_74" d="M196.591,156.572s-4.406,4.6-9.4,4.772-6.862,2.287-7.963,4.829,1.553,5.168.9,9.234.028,5,3.078,5.337,8.726-1.186,9.785-.085.98,5.076-2.923,7.455c-3.05,1.779-1.356,4.574-2.711,7.2s-14.7-1.5-17.306-7.145-1.939-9.517,0-12.933,4.6-8.725,3.582-12.453-5.152-3.235-6.854-1.448-6.955,1.66-9.242.9a5.755,5.755,0,0,1-3.2-2.607s1.368-15.633,8.891-19.411S196.591,156.572,196.591,156.572Z" transform="translate(-148.209 -122.121)" fill="#70360b"/>
                            <path id="Path_75" d="M181.1,198.671c-5.115-6.252,3.64-13.614.257-21,.065,3.529-2.131,7.867-3.8,10.807-1.939,3.416-2.6,7.286,0,12.933s15.95,9.771,17.306,7.145c.9-1.745.461-3.563.955-5.11C190.255,204.419,184.556,202.991,181.1,198.671Z" transform="translate(-155.717 -135.359)" fill="#5e2e0b"/>
                            <path id="Path_76" d="M198.836,156.572S173,136.438,165.473,140.216a11.85,11.85,0,0,0-4.706,4.88,91.22,91.22,0,0,0,30.964,15.866A18.271,18.271,0,0,0,198.836,156.572Z" transform="translate(-150.453 -122.121)" fill="#5e2e0b"/>
                            <path id="Path_77" d="M204.466,152.849s-12.144.148-26.037-8.154-16.9-9.861-16.9-9.861,4.624-19.186,6.753-21.6,19,3.367,29.213,9.7c11.879,7.363,18.2,12.14,18.328,14.936S204.466,152.849,204.466,152.849Z" transform="translate(-150.717 -112.672)" fill="#bc4646"/>
                            <g id="Group_17" transform="translate(11.719 10.67)">
                                <path id="Path_78" d="M186.43,142.112c-11.008-6.578-18.672-11.347-21.387-13.049-.809,2.815-1.564,5.676-2.118,7.841,2.436,1.53,8.164,5.083,18.141,11.045,13.894,8.3,26.037,8.154,26.037,8.154s1.276-1.355,2.971-3.262c.716-.84,1.443-1.713,2.137-2.578C210.418,150.231,199.164,149.721,186.43,142.112Z" transform="translate(-162.925 -129.063)" fill="#e89191"/>
                            </g>
                            <path id="Path_79" d="M212.547,136.124c4.849,2.522,7.733,3.988,6.776.782-1.287-2.881-7.461-7.394-18.073-13.972-9.828-6.092-25.809-11.67-28.9-9.934-.709.9,6.079,3.934,14.642,9.158C195.574,127.4,207.7,133.6,212.547,136.124Z" transform="translate(-154.478 -112.674)" fill="#d15e5e"/>
                            <path id="Path_80" d="M180.524,171.893s1.779-3.981-.593-5.76-6.693.961-7.794,6.834,1.864,8.118,3.347,7.779,2.118-1.144,2.754-2.668S180.524,171.893,180.524,171.893Z" transform="translate(-154.338 -131.145)" fill="#ecb67b"/>
                            <path id="Path_81" d="M173.6,173.448a10.6,10.6,0,0,1,2.934-5.48c1.567-1.465,3.31-.383,3.352,1.956s-.908,6.108-2.175,7.179-2.157,0-2.116-.816,1.224-2.095,1.912-2.049c.387-1.569-.874-2.685-1.344-2.56.7-.49,2.227.426,2.154,1.394.537-2.3,1.013-3.533.421-4.511s-2.358-.154-3.151,1.079S173.6,173.448,173.6,173.448Z" transform="translate(-154.932 -131.74)" fill="#cc894c"/>
                        </g>
                        <path id="Path_82" d="M96.013,318.49a43.122,43.122,0,0,1-3.621-16.662c-.255-9.912-7.371-7.879-9.15-18.3s1.779-14.995,2.034-21.857-3.558-13.216-.508-19.315-.762-11.183,2.287-21.349,7.625-19.824,13.216-23.552,11.679-13.883,19.71-14.931c1.3,5.678,7.654,12.559,11.17,15.779s13.682,10.632,14.233,11.585,7.582,15.755,6.4,21.909.17,8.526,1.525,12.762,2.88,17.96,2.711,22.873,11.691,19.824,15.419,21.01a58.954,58.954,0,0,1,8.811,4.067s-29.481,4.4-38.292,12.877-11.691,16.774-11.691,16.774-13.893-17.113-15.079-23.552c-1.059,11.479,5.092,26.407,5.092,26.407S100.758,314.308,96.013,318.49Z" transform="translate(-82.747 -137.054)" fill="#eabba2"/>
                        <path id="Path_83" d="M157.635,314.338c-6.162-2.261-19.732-7.518-22.147-10.784-3.143-4.252-1.125-26.2,4.462-32.216s6.246-13,6.44-19.4c0,0-3.5,10.121-5.432,10.669,2.91-9.893,5.044-23.278,1.937-29.678,2.13,15.324-5.622,28.127-5.622,28.127s-13.384,15.906-27.157,0-8.38-34.7-8.38-34.7c-5.664,12.632-1.319,24.224,0,28.3S97.9,253.88,95.374,243.6c-.582,5.626,1.552,13.772,5.432,21.338s5.82,16.1,4.074,15.13-7.371-9.117-10.669-19.98c-.582,11.057,9.311,25.411,11.057,32.976s.582,8.729,3.685,14.354,6.6.776,12.415,7.759c4.491,5.389,16.486,7.688,21.73,8.458.872-.972,1.817-1.959,2.847-2.949C148.506,318.223,152.814,316.1,157.635,314.338Z" transform="translate(-86.739 -152.353)" fill="#e5ac93"/>
                        <path id="Path_84" d="M171.014,343.653s-.582-2.533-10.079-4.716c-16.188,2.474-27.092,14.112-27.092,14.112s-6.038-8.147-12.584-18.186c-10.475,6.838-10.475,18.477-9.456,27.642-2.4-.327-9.694-.6-13.2-.723a45.3,45.3,0,0,0,1.555,6.293c4.283-.148,14.232-.106,18.584,3.158-6.159-19.64,2.232-28.712,2.232-28.712s9.6,20.128,14.693,22.747C144.681,344.175,171.014,343.653,171.014,343.653Z" transform="translate(-88.28 -190.227)" fill="#e59470"/>
                        <path id="Path_85" d="M150.691,345.613a50.375,50.375,0,0,0-9.5,7.437s-6.038-8.147-12.584-18.186a20.569,20.569,0,0,0-8.958,12.639c1.553,1.157,3.272.939,5.355,1.635a17.911,17.911,0,0,1,3.312-6.614s3.9,8.173,8.048,14.781a49.769,49.769,0,0,0,9.3,3.018A33.8,33.8,0,0,1,158.37,349.05C155.749,347.972,153.041,346.787,150.691,345.613Z" transform="translate(-95.627 -190.227)" fill="#d8805d"/>
                        <path id="Path_86" d="M161.889,252.595c-.381,1.37,4.171,3.58,6.708,4.693a82.7,82.7,0,0,0-2.1-12.729c-1.355-4.236-2.711-6.608-1.525-12.761s-5.845-20.956-6.4-21.909-10.717-8.366-14.233-11.585-9.872-10.1-11.17-15.779c-4.786.625-8.883,4.486-12.6,8.293a6.611,6.611,0,0,0,3.1,6.348c6.4,4.365,15,1.455,25.469,10.911s11.629,15.421,10.611,22.55S162.415,250.7,161.889,252.595Z" transform="translate(-95.942 -137.054)" fill="#e59470"/>
                        <path id="Path_87" d="M295.314,347.641c-1.779-.424-15.757-4.829-17.536-5.592s-5.422-1.355-9.573-3.389a36.568,36.568,0,0,0-7.963-2.8s-11.534,13.6-5.078,13.9c6.4.291,8.341,2.16,11.178,4.752a15.087,15.087,0,0,0,5.994,3.018c.189,1.027,1.57,2.724,4.255,3.747,3.558,1.356,5.422,1.525,6.1-1.948a3.934,3.934,0,0,0,1.61-4.829c2.372-3.9-2.372-7.116-2.372-7.116a66.334,66.334,0,0,0,10.208,2.669C295.822,350.478,297.008,348.572,295.314,347.641Z" transform="translate(-142.242 -190.576)" fill="#ecb67b"/>
                        <path id="Path_88" d="M296.069,367.422a7.739,7.739,0,0,0-1.158-5.2c-1.637-2.291-3.346-2.291-3.382-2.873s.619-.291,2.146.655S297.445,364.334,296.069,367.422Z" transform="translate(-155.62 -198.666)" fill="#e5a86c"/>
                        <path id="Path_89" d="M297.982,360.861s-.877-3.395-2.659-4.7-2.619-1.128-2.873-1.637.4-.655,1.636,0S298.058,357.745,297.982,360.861Z" transform="translate(-155.923 -196.934)" fill="#e5a86c"/>
                        <path id="Path_90" d="M308.6,352.849c-.559,2.085-3.306,1.431-6.208.693a54.674,54.674,0,0,1-10.838-4.17c-1.964-1.237-3.31-.109-1.091.436s5.134,3,5.134,3a64.327,64.327,0,0,0,9.123,2.1C307.633,355.247,309,353.792,308.6,352.849Z" transform="translate(-154.849 -195.096)" fill="#e5a86c"/>
                        <path id="Path_91" d="M278.834,357.727c1.091.945.764,1.091,1.491,1.2s1.855-.946.182-2.183a6.945,6.945,0,0,0-6.038-1.014c-2.255.586-3.273-.8-5.455-2.187s-5.165-3.128-3.274-7.856a12.825,12.825,0,0,0-.094-8.752,32.991,32.991,0,0,0-3.776-1.072s-.657.775-1.566,1.953l-2.438,12.012c5.553.445,7.432,2.243,10.1,4.684a15.087,15.087,0,0,0,5.994,3.018,5.541,5.541,0,0,1,1.377-.9C276.506,356.09,277.743,356.782,278.834,357.727Z" transform="translate(-143.871 -190.576)" fill="#e5a86c"/>
                        <path id="Path_92" d="M143.857,229.683s3.084,8.133,1.9,13.047A30.724,30.724,0,0,0,147.111,259c1.694,4.067,2.851,10.505,6.932,12.877a11.69,11.69,0,0,1,5.437,7.285c.338,1.186,3.9,1.864,8.472,3.05s9.488,4.744,11.013,5.253,27.618,5.38,31.176,6.777c1.143,9.531-5.21,19.189-6.989,20.205-8.641,0-20.865-2.075-26.084-1.906s-3.678,1.237-12.166-.169-17.016,1.016-25.2-2.711-17.67-7.625-19.7-13.893-5.422-27.448-11.267-42.7-1.271-31.176,13.216-34.9S143.857,229.683,143.857,229.683Z" transform="translate(-90.955 -149.288)" fill="#efc3af"/>
                        <path id="Path_93" d="M142.783,227.117c.388-.1,8.341,3.977,9.8,10.959s1.455,15.907,0,17.846-2.619,1.164-9.8-6.789-8.632-1.843-6.595,1.358,4.946,8.244,11.638,12.026,10.669,8.869,14.063,12.679,6.111,6.137,4.559,7.786-7.177.97-13.481-4.268-7.759-7.565-11.639-13.869-10.475-17.749-8.05-21.629,6.3-.582,8.341-3.492-4.946-7.662-3.783-10.669S142.783,227.117,142.783,227.117Z" transform="translate(-100.202 -152.554)" fill="#f4cebe"/>
                        <path id="Path_94" d="M209.009,326.083s-5.383,3.638-15.712,1.164-17.166-.152-27.06.652-7.711-5.307-1.455-7.052,16.876-.728,17.749-1.164-9.093-3.783-16.585-2.182-16.585,1.685-20.222-.431-1.455-5.1,9.529-3.643,15.82.808,19.131,1.018,6.256,1.019,10.693,3.71S199.7,325.93,209.009,326.083Z" transform="translate(-104.162 -182.609)" fill="#f4cebe"/>
                        <path id="Path_95" d="M232.311,352.836c3.162.329,6.533.676,9.726.883,6.328-7.116,7.009-18.177,7.069-21.341-2.314-.528-5.158-1.131-8.112-1.742C242.105,342.385,235.208,350.135,232.311,352.836Z" transform="translate(-134.951 -188.751)" fill="#e59470"/>
                        <path id="Path_96" d="M136.856,180.145l8.14-5.754s6.185,14.931,11.776,19.887,9.277,5.909,7.5,12.771c-6.1-1.716-15.165-8.891-20.332-14.906A38.613,38.613,0,0,1,136.856,180.145Z" transform="translate(-101.633 -134.215)" fill="#efc3af"/>
                    </g>
                </g>
                <path id="Path_12049"  d="M1136.531,468.68H1424" transform="translate(-1030)" fill="none" stroke="#f8f8f8" stroke-linecap="round" stroke-width="1"/>
            </g>
        </g>
    </g>
</svg>
