<svg xmlns="http://www.w3.org/2000/svg"
    xmlns:xlink="http://www.w3.org/1999/xlink"
    width="378"
    height="298"
    viewBox="0 0 378 298">
    <g id="Group_2618" transform="translate(-1504 -1133)">
        <g id="Group_2616">
            <rect id="Rectangle_42" width="377" height="298" rx="24" transform="translate(1504 1133)" fill="#8DA05E"/>
        </g>
        <g id="Group_2623" transform="translate(0 2)">
            <g id="Ellipse_25" transform="translate(1639 1227)" fill="#fff" stroke="#707070" stroke-width="1">
                <circle cx="53.5" cy="53.5" r="53.5" stroke="none"/>
                <circle cx="53.5" cy="53.5" r="53" fill="none"/>
            </g>
            <g id="svgexport-17_49_" transform="translate(1671 1256)">
                <path id="Path_12502" d="M14.882,54.713a6.626,6.626,0,0,1-3.348-.916,6.354,6.354,0,0,1-3.2-5.526V13.44a6.354,6.354,0,0,1,3.2-5.526,6.574,6.574,0,0,1,6.611-.051L49.016,25.28a6.375,6.375,0,0,1,0,11.153L18.144,53.851A6.639,6.639,0,0,1,14.882,54.713Zm0-44.9a3.81,3.81,0,0,0-1.932.529,3.573,3.573,0,0,0-1.809,3.1V48.275a3.573,3.573,0,0,0,1.809,3.1,3.8,3.8,0,0,0,3.817.029L47.638,33.989a3.567,3.567,0,0,0,0-6.264L16.766,10.307A3.839,3.839,0,0,0,14.882,9.808Z" transform="translate(-8.334 -6.997)" fill="#8DA05E"/>
            </g>
        </g>
    </g>
    <defs>
        <pattern id="pattern" preserveAspectRatio="xMidYMid slice" width="100%" height="100%" viewBox="0 0 5530 3687">
            <image width="5530" height="3687" />
        </pattern>
    </defs>
</svg>
