<svg xmlns="http://www.w3.org/2000/svg" viewBox="0 0 543 541.7"><path d="M270.1,529.7A260.1,260.1,0,0,1,86.2,85.8,260,260,0,1,1,453.9,453.5,258.3,258.3,0,0,1,270.1,529.7Z" style="fill:#fff"/><path d="M271.1,40.7H273L271,21l-1.9,19.7Z" style="fill:#0a0659;stroke:#0a0659;stroke-miterlimit:10;stroke-width:4px"/><path d="M108.4,108l1.3-1.2L94.6,94.5l12.4,15Z" style="fill:#0a0659;stroke:#0a0659;stroke-miterlimit:10;stroke-width:4px"/><path d="M521.2,270.1,501,268.2c0,.8.1,1.7.1,2.5a7.6,7.6,0,0,1-.1,1.5Z" style="fill:#0a0659;stroke:#0a0659;stroke-miterlimit:10;stroke-width:4px"/><path d="M433.7,108a8,8,0,0,0,1.3,1.3l12.7-15.5-15.5,12.8Z" style="fill:#0a0659;stroke:#0a0659;stroke-miterlimit:10;stroke-width:4px"/><path d="M41.1,270.7v-1.4l-19.2,1.9,19.2,1.9Z" style="fill:#0a0659;stroke:#0a0659;stroke-miterlimit:10;stroke-width:4px"/><path d="M433.7,433.3l-.8.8,15.6,12.7-12.8-15.5Z" style="fill:#0a0659;stroke:#0a0659;stroke-miterlimit:10;stroke-width:4px"/><path d="M271.1,500.7h-1l2,19.7,1.9-19.8Z" style="fill:#0a0659;stroke:#0a0659;stroke-miterlimit:10;stroke-width:4px"/><path d="M108.4,433.3a4.6,4.6,0,0,0-.7-.7l-12.3,15,15-12.4Z" style="fill:#0a0659;stroke:#0a0659;stroke-miterlimit:10;stroke-width:4px"/><path d="M45.7,224.4l-19.1-1.9L45,228C45.2,226.8,45.5,225.6,45.7,224.4Z" style="fill:#085cc1;stroke:#085cc1;stroke-miterlimit:10"/><path d="M228,44.7l-5.7-18.8,2,19.5Z" style="fill:#085cc1;stroke:#085cc1;stroke-miterlimit:10"/><path d="M144.8,78.4l-12.4-15,9.2,17.1Z" style="fill:#085cc1;stroke:#085cc1;stroke-miterlimit:10"/><path d="M317.8,45.4l1.9-19.7-5.7,19Z" style="fill:#085cc1;stroke:#085cc1;stroke-miterlimit:10"/><path d="M59.1,181.2l-18.4-5.6,17,9C58.1,183.5,58.6,182.3,59.1,181.2Z" style="fill:#085cc1;stroke:#085cc1;stroke-miterlimit:10"/><path d="M80.7,141.5l-17-9.1,14.9,12.2Z" style="fill:#085cc1;stroke:#085cc1;stroke-miterlimit:10"/><path d="M184.7,57.4l-9.2-17.2,5.7,18.6Z" style="fill:#085cc1;stroke:#085cc1;stroke-miterlimit:10"/><path d="M497,227.3l19.3-5.9-20.1,2.1C496.5,224.8,496.8,226,497,227.3Z" style="fill:#085cc1;stroke:#085cc1;stroke-miterlimit:10"/><path d="M360.9,58.8l5.7-19-9.3,17.5Z" style="fill:#085cc1;stroke:#085cc1;stroke-miterlimit:10"/><path d="M496.4,316.9l20.1,2L497.2,313C496.9,314.3,496.7,315.6,496.4,316.9Z" style="fill:#085cc1;stroke:#085cc1;stroke-miterlimit:10"/><path d="M463.3,144.3l15.6-12.8-17.8,9.6A36.2,36.2,0,0,1,463.3,144.3Z" style="fill:#085cc1;stroke:#085cc1;stroke-miterlimit:10"/><path d="M400.4,80.4l9.4-17.6L397.2,78.3Z" style="fill:#085cc1;stroke:#085cc1;stroke-miterlimit:10"/><path d="M484.3,184.1l17.7-9.5-19.2,5.9Z" style="fill:#085cc1;stroke:#085cc1;stroke-miterlimit:10"/><path d="M315,496.5l5.8,18.9-2-19.7Z" style="fill:#085cc1;stroke:#085cc1;stroke-miterlimit:10"/><path d="M398,462.5,410.7,478l-9.5-17.6Z" style="fill:#085cc1;stroke:#085cc1;stroke-miterlimit:10"/><path d="M483.2,359.9l19.2,5.8-17.7-9.4Z" style="fill:#085cc1;stroke:#085cc1;stroke-miterlimit:10"/><path d="M461.7,399.5l17.8,9.4-15.6-12.7Z" style="fill:#085cc1;stroke:#085cc1;stroke-miterlimit:10"/><path d="M358.2,483.6l9.4,17.5-5.8-18.9Z" style="fill:#085cc1;stroke:#085cc1;stroke-miterlimit:10"/><path d="M58,357.7l-16.9,9,18.4-5.6Z" style="fill:#085cc1;stroke:#085cc1;stroke-miterlimit:10"/><path d="M45.2,314.3l-18.4,5.6L45.9,318C45.7,316.8,45.4,315.5,45.2,314.3Z" style="fill:#085cc1;stroke:#085cc1;stroke-miterlimit:10"/><path d="M79.2,397.6,64.3,409.8l17-9.1Z" style="fill:#085cc1;stroke:#085cc1;stroke-miterlimit:10"/><path d="M142.5,461.4l-9.2,17.2,12.3-15.1Z" style="fill:#085cc1;stroke:#085cc1;stroke-miterlimit:10"/><path d="M182.2,482.9l-5.7,18.7,9.2-17.2Z" style="fill:#085cc1;stroke:#085cc1;stroke-miterlimit:10"/><path d="M225.3,496.1l-1.9,19.6,5.6-18.8Z" style="fill:#085cc1;stroke:#085cc1;stroke-miterlimit:10"/><text transform="translate(266.3 10)" style="font-size:12px;fill:#0613f9;font-family:MyriadPro-Regular, Myriad Pro">N</text><text transform="translate(275.4 531.7) rotate(180)" style="font-size:12px;fill:#0613f9;font-family:MyriadPro-Regular, Myriad Pro">S</text><text transform="translate(533 267.4) rotate(90)" style="font-size:12px;fill:#0613f9;font-family:MyriadPro-Regular, Myriad Pro">E</text><text transform="translate(10 276.4) rotate(-90)" style="font-size:12px;fill:#0613f9;font-family:MyriadPro-Regular, Myriad Pro">W</text><text transform="translate(265.9 55.2)" style="font-size:12px;fill:#ed0f0f;font-family:MyriadPro-Regular, Myriad Pro">0</text><text transform="translate(260.6 492.2)" style="font-size:12px;fill:#ed0f0f;font-family:MyriadPro-Regular, Myriad Pro">180</text><text transform="translate(478.6 272.9) scale(1.49 1)" style="font-size:8.062649726867676px;fill:#ed0f0f;font-family:MyriadPro-Regular, Myriad Pro">90</text><text transform="translate(46.6 276.2)" style="font-size:12px;fill:#ed0f0f;font-family:MyriadPro-Regular, Myriad Pro">270</text><polygon points="271.1 273.2 278.7 273.2 274.9 219.4 271.1 165.7 267.2 219.4 263.4 273.2 271.1 273.2" style="fill:#e80a0a;stroke:red;stroke-miterlimit:10"/><ellipse cx="66.6" cy="267.2" rx="1.5" ry="2" style="fill:none;stroke:#ed0f0f;stroke-miterlimit:10;stroke-width:0.5px"/><ellipse cx="274.6" cy="47.2" rx="1.5" ry="2" style="fill:none;stroke:#ed0f0f;stroke-miterlimit:10;stroke-width:0.5px"/><ellipse cx="492.6" cy="266.2" rx="1.5" ry="2" style="fill:none;stroke:#ed0f0f;stroke-miterlimit:10;stroke-width:0.5px"/><ellipse cx="282.6" cy="484.2" rx="1.5" ry="2" style="fill:none;stroke:#ed0f0f;stroke-miterlimit:10;stroke-width:0.5px"/></svg>