<svg xmlns="http://www.w3.org/2000/svg" xmlns:xlink="http://www.w3.org/1999/xlink" viewBox="0 0 63.8 254.3"><defs><clipPath id="a"><rect x="15.9" y="15.6" width="32.6" height="31.84" style="fill:none"/></clipPath><clipPath id="b"><rect x="32.1" y="15.6" width="16.5" height="31.84" style="fill:none"/></clipPath><clipPath id="c"><rect x="32.1" y="27.6" width="16.5" height="5.61" style="fill:none"/></clipPath><clipPath id="d"><rect x="15.9" y="27.6" width="16.4" height="5.61" style="fill:none"/></clipPath><clipPath id="e"><rect x="15.9" y="22.2" width="16.4" height="10.98" style="fill:none"/></clipPath><clipPath id="f"><rect x="32.1" y="22.2" width="16.5" height="6.54" style="fill:none"/></clipPath></defs><path d="M43.8,241.5c-.1,16.3-25,16.4-25,0,0-6.9,12.4-182.4,13-175.5C32.8,79,43.8,234.6,43.8,241.5Z" style="fill:#e8840c;stroke:#e8840c;stroke-miterlimit:10"/><path d="M58.8,32A27,27,0,0,0,30.7,5C3.9,5.6-4.8,43.1,18.4,55.5c4.4,2.4,9.2,6.8,13.1,10C42.7,55.4,59.3,50.3,58.8,32Z" style="fill:none;stroke:#e8840c;stroke-miterlimit:10;stroke-width:10px"/><g style="clip-path:url(#a)"><path d="M32.2,15.6,15.9,20V45.7l16.3,1.7,16.4-1.7V20Z"/></g><g style="clip-path:url(#b)"><path d="M32.2,47.4l16.4-1.7V20L32.2,15.6Z" style="fill:#292f33"/></g><g style="clip-path:url(#c)"><path d="M36.3,28.4v3l3.8.6V29.1Zm6.3,1.1v2.8l3,.5V30ZM32.2,27.8v3.1l1.6.2V28Zm16.4,2.6h-.5v2.7h.5Z" style="fill:#ffd983"/></g><g style="clip-path:url(#d)"><path d="M15.9,30.4v2.8h.5V30.4ZM30.7,28v3.1l1.5-.2V27.8ZM18.9,30v2.8l3-.5V29.5Zm5.5-.9V32l3.8-.6v-3Z" style="fill:#ffac33"/></g><path d="M35.3,29c0-.9-.6-.9-.6,0a1.7,1.7,0,0,0,.1,2c.1.4.4.4.5,0A1.8,1.8,0,0,0,35.3,29Zm6.4.9c0-.9-.7-.9-.6,0a1.6,1.6,0,0,0,0,2c.1.4.4.4.5,0S42.1,30.3,41.7,29.9Zm5.4.9c0-.8-.6-.8-.5,0a1.7,1.7,0,0,0,0,1.9c.1.4.4.4.5,0A1.7,1.7,0,0,0,47.1,30.8Z" style="fill:#ffd983"/><g style="clip-path:url(#e)"><path d="M29.2,29c-.1-.9.6-.9.6,0a1.7,1.7,0,0,1-.1,2c-.1.4-.4.4-.5,0S28.7,29.3,29.2,29Zm-6.4.9c0-.9.6-.9.6,0a1.8,1.8,0,0,1,0,2c-.1.4-.4.4-.5,0S22.4,30.3,22.8,29.9Zm-5.4.9c0-.8.6-.8.5,0a1.7,1.7,0,0,1,0,1.9c-.1.4-.4.3-.5,0A1.7,1.7,0,0,1,17.4,30.8Zm-1.5-5.3v3l16.3-2.8V22.3Z" style="fill:#ffac33"/></g><g style="clip-path:url(#f)"><path d="M32.2,22.3v3.4l16.4,2.8v-3Z" style="fill:#ffd983"/></g></svg>