<svg xmlns="http://www.w3.org/2000/svg" xmlns:xlink="http://www.w3.org/1999/xlink" viewBox="0 0 64 254.5"><defs><clipPath id="a"><rect x="16.2" y="15.6" width="32.6" height="31.84" style="fill:none"/></clipPath><clipPath id="b"><rect x="32.3" y="15.6" width="16.5" height="31.84" style="fill:none"/></clipPath><clipPath id="c"><rect x="32.3" y="27.6" width="16.5" height="5.61" style="fill:none"/></clipPath><clipPath id="d"><rect x="16.2" y="27.6" width="16.4" height="5.61" style="fill:none"/></clipPath><clipPath id="e"><rect x="16.2" y="22.2" width="16.4" height="10.98" style="fill:none"/></clipPath><clipPath id="f"><rect x="32.3" y="22.2" width="16.5" height="6.54" style="fill:none"/></clipPath></defs><path d="M44,241.5a12.5,12.5,0,0,1-25,0C19,234.6,31.5,59.1,32,66,33,79,44,234.6,44,241.5Z" style="fill:#070;stroke:#070;stroke-miterlimit:10"/><path d="M59,32A27,27,0,1,0,18.7,55.5a47.6,47.6,0,0,1,7.4,5.3l5.6,4.7,5-4.1a59.8,59.8,0,0,1,8.4-5.8A26.9,26.9,0,0,0,59,32Z" style="fill:#070;stroke:#070;stroke-miterlimit:10;stroke-width:10px"/><g style="clip-path:url(#a)"><path d="M32.5,15.6,16.2,20V45.7l16.3,1.7,16.3-1.7V20Z"/></g><g style="clip-path:url(#b)"><path d="M32.5,47.4l16.3-1.7V20L32.5,15.6Z" style="fill:#292f33"/></g><g style="clip-path:url(#c)"><path d="M36.5,28.4v3l3.9.6V29.1Zm6.4,1.1v2.8l3,.5V30ZM32.5,27.8v3.1l1.5.2V28Zm16.3,2.6h-.5v2.7h.5Z" style="fill:#ffd983"/></g><g style="clip-path:url(#d)"><path d="M16.2,30.4v2.8h.5V30.4ZM31,28v3.1l1.5-.2V27.8ZM19.1,30v2.8l3-.5V29.5Zm5.5-.9V32l3.9-.6v-3Z" style="fill:#ffac33"/></g><path d="M35.6,29h0c0-.3-.2-.6-.3-.6s-.3.3-.3.6h0a1.3,1.3,0,0,0-.3,1,1.5,1.5,0,0,0,.3,1l.3.3c.1,0,.2-.2.2-.3a1.5,1.5,0,0,0,.4-1A1.3,1.3,0,0,0,35.6,29Zm6.3.9h0c0-.4-.1-.7-.3-.7s-.3.3-.3.7h0a1.5,1.5,0,0,0-.3,1,1.5,1.5,0,0,0,.4,1c0,.2.1.3.2.3s.2-.1.3-.3a1.8,1.8,0,0,0,0-2Zm5.5.9h0c0-.4-.2-.6-.3-.6s-.3.2-.3.6h0a1.2,1.2,0,0,0-.3.9,2,2,0,0,0,.3,1q.2.3.3.3c.1,0,.2-.1.2-.3a1.3,1.3,0,0,0,.4-1A1.9,1.9,0,0,0,47.4,30.8Z" style="fill:#ffd983"/><g style="clip-path:url(#e)"><path d="M29.4,29h0c0-.3.2-.6.3-.6s.3.3.3.6h0a1.3,1.3,0,0,1,.3,1,1.5,1.5,0,0,1-.3,1c-.1.1-.2.3-.3.3s-.2-.2-.2-.3a1.5,1.5,0,0,1-.4-1A1.3,1.3,0,0,1,29.4,29Zm-6.3.9h0c0-.4.1-.7.3-.7s.3.3.3.7h0a1.5,1.5,0,0,1,.3,1,1.5,1.5,0,0,1-.4,1c0,.2-.1.3-.2.3s-.2-.1-.3-.3a1.8,1.8,0,0,1,0-2Zm-5.5.9h0c0-.4.2-.6.3-.6s.3.2.3.6h0a1.2,1.2,0,0,1,.3.9,1.3,1.3,0,0,1-.4,1c0,.2-.1.3-.2.3s-.2-.1-.2-.3a1.3,1.3,0,0,1-.4-1A1.9,1.9,0,0,1,17.6,30.8Zm-1.4-5.3v3l16.3-2.8V22.3Z" style="fill:#ffac33"/></g><g style="clip-path:url(#f)"><path d="M32.5,22.3v3.4l16.3,2.8v-3Z" style="fill:#ffd983"/></g></svg>