<svg width="37" height="39" viewBox="0 0 37 39" fill="none" xmlns="http://www.w3.org/2000/svg">
<path d="M6.625 27.625H15.25C15.4821 27.625 15.5982 27.625 15.6962 27.6314C17.1985 27.7299 18.3951 28.9265 18.4936 30.4288C18.5 30.5268 18.5 30.6429 18.5 30.875V12.5C18.5 9.67157 18.5 8.25736 17.6213 7.37868C16.7426 6.5 15.3284 6.5 12.5 6.5H6.625C5.68219 6.5 5.21079 6.5 4.91789 6.79289C4.625 7.08579 4.625 7.55719 4.625 8.5V25.625C4.625 26.5678 4.625 27.0392 4.91789 27.3321C5.21079 27.625 5.68219 27.625 6.625 27.625Z" fill="#2A2C41"/>
<path d="M30.375 27.625H21.75C21.5179 27.625 21.4018 27.625 21.3038 27.6314C19.8015 27.7299 18.6049 28.9265 18.5064 30.4288C18.5 30.5268 18.5 30.6429 18.5 30.875V12.5C18.5 9.67157 18.5 8.25736 19.3787 7.37868C20.2574 6.5 21.6716 6.5 24.5 6.5H30.375C31.3178 6.5 31.7892 6.5 32.0821 6.79289C32.375 7.08579 32.375 7.55719 32.375 8.5V25.625C32.375 26.5678 32.375 27.0392 32.0821 27.3321C31.7892 27.625 31.3178 27.625 30.375 27.625Z" fill="#2A2C41"/>
</svg>
