<svg width="27" height="27" viewBox="0 0 27 27" fill="none" xmlns="http://www.w3.org/2000/svg">
<g id="Bookmark">
<path id="Rectangle 1" d="M4.5 10.125C4.5 6.94302 4.5 5.35203 5.48851 4.36351C6.47703 3.375 8.06802 3.375 11.25 3.375H15.75C18.932 3.375 20.523 3.375 21.5115 4.36351C22.5 5.35203 22.5 6.94302 22.5 10.125V17.8061C22.5 20.8248 22.5 22.3341 21.5502 22.7958C20.6003 23.2574 19.4135 22.3249 17.0399 20.4599L16.2802 19.863C14.9455 18.8143 14.2782 18.29 13.5 18.29C12.7218 18.29 12.0545 18.8143 10.7198 19.863L9.96015 20.4599C7.58649 22.3249 6.39966 23.2574 5.44983 22.7958C4.5 22.3341 4.5 20.8248 4.5 17.8061V10.125Z" stroke="#FDBF50" stroke-width="2"/>
</g>
</svg>
