<svg width="33" height="27" viewBox="0 0 33 27" fill="none" xmlns="http://www.w3.org/2000/svg">
<path d="M2.75 9.625C2.75 7.73938 2.75 6.79657 3.33579 6.21079C3.92157 5.625 4.86438 5.625 6.75 5.625H26.25C28.1356 5.625 29.0784 5.625 29.6642 6.21079C30.25 6.79657 30.25 7.73938 30.25 9.625V10.25C30.25 10.7214 30.25 10.9571 30.1036 11.1036C29.9571 11.25 29.7214 11.25 29.25 11.25H3.75C3.2786 11.25 3.04289 11.25 2.89645 11.1036C2.75 10.9571 2.75 10.7214 2.75 10.25V9.625Z" fill="#2A2C41"/>
<path fill-rule="evenodd" clip-rule="evenodd" d="M2.75 20.75C2.75 22.6356 2.75 23.5784 3.33579 24.1642C3.92157 24.75 4.86438 24.75 6.75 24.75H26.25C28.1356 24.75 29.0784 24.75 29.6642 24.1642C30.25 23.5784 30.25 22.6356 30.25 20.75V14.5C30.25 14.0286 30.25 13.7929 30.1036 13.6464C29.9571 13.5 29.7214 13.5 29.25 13.5H3.75C3.2786 13.5 3.04289 13.5 2.89645 13.6464C2.75 13.7929 2.75 14.0286 2.75 14.5V20.75ZM9.625 16.75C9.625 16.2786 9.625 16.0429 9.77145 15.8964C9.91789 15.75 10.1536 15.75 10.625 15.75H14.125C14.5964 15.75 14.8321 15.75 14.9786 15.8964C15.125 16.0429 15.125 16.2786 15.125 16.75V17C15.125 17.4714 15.125 17.7071 14.9786 17.8536C14.8321 18 14.5964 18 14.125 18H10.625C10.1536 18 9.91789 18 9.77145 17.8536C9.625 17.7071 9.625 17.4714 9.625 17V16.75ZM9.77145 20.3964C9.625 20.5429 9.625 20.7786 9.625 21.25V21.5C9.625 21.9714 9.625 22.2071 9.77145 22.3536C9.91789 22.5 10.1536 22.5 10.625 22.5H14.125C14.5964 22.5 14.8321 22.5 14.9786 22.3536C15.125 22.2071 15.125 21.9714 15.125 21.5V21.25C15.125 20.7786 15.125 20.5429 14.9786 20.3964C14.8321 20.25 14.5964 20.25 14.125 20.25H10.625C10.1536 20.25 9.91789 20.25 9.77145 20.3964ZM17.875 16.75C17.875 16.2786 17.875 16.0429 18.0214 15.8964C18.1679 15.75 18.4036 15.75 18.875 15.75H22.375C22.8464 15.75 23.0821 15.75 23.2286 15.8964C23.375 16.0429 23.375 16.2786 23.375 16.75V17C23.375 17.4714 23.375 17.7071 23.2286 17.8536C23.0821 18 22.8464 18 22.375 18H18.875C18.4036 18 18.1679 18 18.0214 17.8536C17.875 17.7071 17.875 17.4714 17.875 17V16.75ZM18.0214 20.3964C17.875 20.5429 17.875 20.7786 17.875 21.25V21.5C17.875 21.9714 17.875 22.2071 18.0214 22.3536C18.1679 22.5 18.4036 22.5 18.875 22.5H22.375C22.8464 22.5 23.0821 22.5 23.2286 22.3536C23.375 22.2071 23.375 21.9714 23.375 21.5V21.25C23.375 20.7786 23.375 20.5429 23.2286 20.3964C23.0821 20.25 22.8464 20.25 22.375 20.25H18.875C18.4036 20.25 18.1679 20.25 18.0214 20.3964Z" fill="#2A2C41"/>
<path d="M9.625 3.375L9.625 6.75" stroke="#2A2C41" stroke-width="2" stroke-linecap="round"/>
<path d="M23.375 3.375L23.375 6.75" stroke="#2A2C41" stroke-width="2" stroke-linecap="round"/>
</svg>
