<svg width="50" height="50" viewBox="0 0 50 50" fill="none" xmlns="http://www.w3.org/2000/svg">
<path d="M14.5833 4.16667H6.25001C5.69747 4.16667 5.16757 4.38616 4.77687 4.77686C4.38617 5.16756 4.16667 5.69747 4.16667 6.25V43.75C4.16667 44.3025 4.38617 44.8324 4.77687 45.2231C5.16757 45.6138 5.69747 45.8333 6.25001 45.8333H14.5833C15.1359 45.8333 15.6658 45.6138 16.0565 45.2231C16.4472 44.8324 16.6667 44.3025 16.6667 43.75V6.25C16.6667 5.69747 16.4472 5.16756 16.0565 4.77686C15.6658 4.38616 15.1359 4.16667 14.5833 4.16667ZM10.4167 43.75C9.59258 43.75 8.787 43.5056 8.1018 43.0478C7.41659 42.59 6.88254 41.9392 6.56717 41.1778C6.25181 40.4165 6.16929 39.5787 6.33007 38.7705C6.49084 37.9622 6.88767 37.2198 7.47039 36.6371C8.05311 36.0543 8.79554 35.6575 9.6038 35.4967C10.412 35.336 11.2498 35.4185 12.0112 35.7338C12.7725 36.0492 13.4233 36.5833 13.8811 37.2685C14.339 37.9537 14.5833 38.7592 14.5833 39.5833C14.5833 40.6884 14.1444 41.7482 13.3629 42.5296C12.5815 43.311 11.5217 43.75 10.4167 43.75ZM14.5833 25H6.25001V6.25H14.5833V25Z" fill="#699BF7"/>
<path d="M10.4375 41.6875C11.5881 41.6875 12.5208 40.7548 12.5208 39.6042C12.5208 38.4536 11.5881 37.5208 10.4375 37.5208C9.28691 37.5208 8.35417 38.4536 8.35417 39.6042C8.35417 40.7548 9.28691 41.6875 10.4375 41.6875Z" fill="#699BF7"/>
<path d="M20.8542 4.16667V22.9375H31.2708V4.16667H20.8542ZM35.4167 4.16667V22.9375H45.8333V4.16667H35.4167ZM20.8542 27.0833V45.8333H31.2708V27.0833H20.8542ZM35.4167 27.0833V45.8333H45.8333V27.0833H35.4167Z" fill="#699BF7"/>
</svg>
