<svg width="22" height="21" viewBox="0 0 22 21" fill="none" xmlns="http://www.w3.org/2000/svg">
<path id="Vector" d="M4.75 12.875C3.58515 12.875 3.00272 12.875 2.54329 12.6942C1.93072 12.4532 1.44404 11.9908 1.1903 11.4089C1 10.9724 1 10.4191 1 9.3125V5.75C1 3.51083 1 2.39124 1.73223 1.69562C2.46447 1 3.64298 1 6 1H9.75C10.9149 1 11.4973 1 11.9567 1.18079C12.5693 1.42183 13.056 1.88419 13.3097 2.46613C13.5 2.90258 13.5 3.45589 13.5 4.5625M13.5 20H16C18.357 20 19.5355 20 20.2678 19.3044C21 18.6088 21 17.4892 21 15.25V12.875C21 10.6358 21 9.51624 20.2678 8.82062C19.5355 8.125 18.357 8.125 16 8.125H13.5C11.143 8.125 9.96447 8.125 9.23223 8.82062C8.5 9.51624 8.5 10.6358 8.5 12.875V15.25C8.5 17.4892 8.5 18.6088 9.23223 19.3044C9.96447 20 11.143 20 13.5 20Z" stroke="#FDBF50" stroke-width="2"/>
</svg>
