<svg width="27" height="27" viewBox="0 0 27 27" fill="none" xmlns="http://www.w3.org/2000/svg">
<g id="Load_circle">
<path id="Ellipse 47" d="M5.89333 16.6632C6.34201 18.3377 7.33068 19.8173 8.706 20.8727C10.0813 21.928 11.7664 22.5 13.5 22.5C15.2336 22.5 16.9187 21.928 18.294 20.8727C19.6693 19.8173 20.658 18.3377 21.1067 16.6632" stroke="#FDBF50" stroke-width="2"/>
<path id="Vector 9" d="M13.5 14.625L12.8753 15.4059L13.5 15.9056L14.1247 15.4059L13.5 14.625ZM14.5 4.5C14.5 3.94772 14.0523 3.5 13.5 3.5C12.9477 3.5 12.5 3.94772 12.5 4.5L14.5 4.5ZM7.25031 10.9059L12.8753 15.4059L14.1247 13.8441L8.4997 9.34413L7.25031 10.9059ZM14.1247 15.4059L19.7497 10.9059L18.5003 9.34413L12.8753 13.8441L14.1247 15.4059ZM14.5 14.625L14.5 4.5L12.5 4.5L12.5 14.625L14.5 14.625Z" fill="#FDBF50"/>
</g>
</svg>
