<?xml version="1.0" standalone="no"?>
<!DOCTYPE svg PUBLIC "-//W3C//DTD SVG 20010904//EN"
 "http://www.w3.org/TR/2001/REC-SVG-20010904/DTD/svg10.dtd">
<svg version="1.0" xmlns="http://www.w3.org/2000/svg"
 width="512.000000pt" height="512.000000pt" viewBox="0 0 512.000000 512.000000"
 preserveAspectRatio="xMidYMid meet">

<g transform="translate(0.000000,512.000000) scale(0.100000,-0.100000)"
fill="#000000" stroke="none">
<path d="M1548 4531 c-26 -10 -63 -28 -82 -40 -108 -67 -362 -410 -655 -883
l-104 -167 -37 58 c-21 32 -50 67 -66 78 -135 95 -257 94 -342 -2 -60 -68 -72
-120 -87 -371 -24 -388 -71 -784 -161 -1364 -34 -225 -3 -345 166 -640 105
-184 333 -546 376 -598 1 -2 30 15 63 37 l60 41 -36 58 c-20 31 -62 95 -93
142 -97 145 -259 419 -317 536 -90 184 -97 236 -63 459 75 485 135 994 150
1285 11 213 22 277 52 315 25 32 61 32 112 2 78 -48 130 -169 180 -422 52
-261 60 -357 60 -707 l1 -328 69 0 c135 0 255 -49 407 -166 l84 -65 -70 66
c-132 124 -260 192 -396 210 l-45 6 7 65 c35 284 30 673 -11 955 l-20 137 176
283 c196 316 281 442 424 634 145 193 218 255 305 255 96 0 107 -116 35 -367
-79 -275 -217 -550 -528 -1052 -28 -47 3 -8 115 139 303 401 433 609 520 834
36 94 72 239 73 292 0 37 26 58 94 76 34 9 53 9 83 0 105 -32 110 -80 32 -359
-63 -229 -169 -499 -315 -801 -46 -97 -81 -172 -76 -167 22 23 173 295 267
480 92 181 204 442 236 553 7 23 18 42 24 42 21 0 92 -84 105 -125 21 -64 8
-194 -34 -335 -66 -218 -177 -519 -265 -714 -17 -38 -30 -70 -28 -72 11 -11
265 490 337 664 23 56 46 102 50 102 15 0 60 -100 76 -166 22 -96 9 -204 -46
-400 -49 -171 -104 -298 -269 -623 -99 -194 -96 -258 24 -486 101 -192 130
-316 114 -475 -20 -197 -118 -481 -239 -690 -27 -48 -50 -92 -50 -97 0 -10 50
-47 97 -71 20 -11 24 -6 67 66 114 195 215 458 257 667 17 89 20 133 17 235
-6 156 -31 237 -131 434 -103 203 -104 193 21 439 96 189 182 390 218 510 10
31 21 57 24 57 3 0 14 -26 24 -57 36 -120 122 -321 218 -510 125 -246 125
-238 21 -440 -100 -195 -125 -277 -131 -433 -3 -102 0 -146 17 -235 42 -209
143 -472 257 -667 43 -72 47 -77 67 -66 47 24 97 61 97 71 0 5 -23 49 -50 97
-141 243 -241 560 -241 760 0 147 27 240 125 423 110 207 113 277 15 468 -177
348 -236 490 -288 693 -33 125 -44 237 -31 309 12 63 64 187 79 187 5 0 28
-46 51 -102 67 -165 340 -697 340 -666 0 3 -14 37 -31 75 -47 103 -142 344
-187 473 -147 419 -158 568 -51 664 21 20 43 36 47 36 5 0 14 -19 21 -42 49
-166 198 -496 344 -759 91 -165 187 -328 187 -318 0 3 -29 66 -64 140 -139
294 -336 812 -392 1032 -32 126 -25 159 44 189 51 23 97 21 157 -7 42 -21 39
-14 55 -120 39 -266 183 -532 554 -1025 135 -180 176 -231 144 -180 -8 14 -67
108 -130 210 -306 492 -427 780 -444 1056 -7 100 -6 102 19 128 30 30 78 34
132 12 107 -45 317 -324 659 -875 l176 -283 -20 -137 c-41 -283 -46 -705 -11
-956 5 -33 8 -61 7 -62 -1 -1 -32 -7 -69 -13 -130 -20 -241 -82 -372 -205
l-70 -66 84 65 c152 117 272 166 407 166 l69 0 0 323 c1 354 11 471 66 732 53
251 98 355 175 402 106 63 146 3 158 -232 18 -350 75 -845 156 -1370 34 -223
27 -275 -63 -459 -58 -117 -220 -391 -317 -536 -31 -47 -73 -111 -93 -142
l-36 -58 60 -41 c33 -22 62 -39 63 -37 43 52 271 414 376 598 170 295 201 415
166 640 -82 521 -139 1006 -160 1350 -16 266 -28 316 -88 385 -85 96 -207 97
-342 2 -16 -11 -45 -46 -66 -78 l-37 -58 -104 167 c-218 352 -440 669 -556
793 -131 138 -269 183 -388 125 -30 -15 -64 -39 -75 -53 -19 -24 -21 -25 -70
-13 -80 19 -179 16 -230 -8 -90 -40 -149 -124 -150 -209 0 -24 -4 -43 -9 -43
-26 0 -123 -107 -153 -168 -32 -64 -33 -71 -33 -193 -1 -122 -2 -128 -28 -162
-14 -19 -32 -47 -38 -61 -15 -33 -23 -33 -38 0 -6 14 -23 42 -38 61 -26 34
-27 40 -27 162 -1 122 -2 129 -34 193 -29 60 -127 168 -151 168 -5 0 -11 24
-14 54 -9 92 -58 158 -147 198 -51 24 -150 27 -230 8 -49 -12 -51 -11 -70 13
-55 69 -185 96 -282 58z"/>
</g>
</svg>
