<svg width="66" height="29" viewBox="0 0 66 29" fill="none" xmlns="http://www.w3.org/2000/svg">
<g id="Group 2708">
<g id="Group">
<path id="Vector" fill-rule="evenodd" clip-rule="evenodd" d="M5.86719 0.726562C11.3978 0.726562 16.9285 0.726562 22.4591 0.726562C22.3902 1.15681 22.1458 1.45789 21.7257 1.62988C21.5621 1.65147 21.3941 1.59122 21.2216 1.44922C16.6144 1.56854 12.031 1.56854 7.47138 1.44922C7.34313 1.51489 7.20563 1.56005 7.05887 1.58471C7.0894 1.61479 7.12001 1.64496 7.15054 1.67504C7.06978 1.739 7.00873 1.81434 6.9672 1.90087C6.78726 1.74017 6.58871 1.58959 6.37136 1.44922C6.35129 1.31932 6.30545 1.19891 6.23386 1.08789C6.06198 1.00578 5.93979 0.885275 5.86719 0.726562Z" fill="#4C557A"/>
</g>
<g id="Group_2">
<path id="Vector_2" fill-rule="evenodd" clip-rule="evenodd" d="M41.1585 4.88213C41.1737 4.0686 41.1585 3.25562 41.1127 2.44317C41.0657 2.53594 41.0198 2.62627 40.9752 2.71417C40.573 3.70619 40.1605 4.69984 39.7377 5.69511C39.6155 5.81552 39.4932 5.81552 39.371 5.69511C38.7917 4.58367 38.2416 3.46961 37.721 2.35284C37.6751 3.49662 37.6598 4.64085 37.6751 5.78544C37.5223 5.78544 37.3696 5.78544 37.2168 5.78544C37.2168 4.27989 37.2168 2.77442 37.2168 1.26886C37.5474 1.24276 37.8682 1.27284 38.1793 1.35919C38.6988 2.38292 39.2182 3.40674 39.7377 4.43047C40.2315 3.39707 40.6745 2.34327 41.0669 1.26886C41.403 1.26886 41.7391 1.26886 42.0752 1.26886C42.0599 2.56395 42.0752 3.85876 42.121 5.15312C42.1822 5.33378 42.2432 5.51445 42.3044 5.69511C42.397 5.77072 42.504 5.8008 42.6252 5.78544C42.6252 5.87577 42.6252 5.96611 42.6252 6.05644C41.9615 6.1586 41.488 5.91778 41.2044 5.33378C41.1591 5.18618 41.1439 5.0356 41.1585 4.88213Z" fill="#F8FAFA"/>
</g>
<g id="Group_3">
<path id="Vector_3" fill-rule="evenodd" clip-rule="evenodd" d="M28.6931 1.6287C28.6024 2.15353 28.5718 2.69552 28.6015 3.25467C29.2126 3.25467 29.8237 3.25467 30.4348 3.25467C30.4348 3.37508 30.4348 3.49559 30.4348 3.616C29.8543 3.616 29.2737 3.616 28.6931 3.616C28.6023 4.20126 28.5718 4.8035 28.6015 5.42263C29.108 5.45163 29.597 5.42155 30.0681 5.3323C30.4577 5.23465 30.7174 4.99374 30.8473 4.60965C30.9161 4.66619 30.9925 4.71136 31.0765 4.74514C30.9636 5.0333 30.8414 5.31938 30.7098 5.60329C30.6617 5.6658 30.6005 5.71097 30.5265 5.73879C29.5797 5.78396 28.6325 5.79895 27.6848 5.78396C27.7001 4.45879 27.6848 3.1339 27.6389 1.80937C27.5539 1.58038 27.3858 1.49004 27.1348 1.53837C27.1348 1.44804 27.1348 1.35771 27.1348 1.26738C28.2658 1.25229 29.3963 1.26738 30.5265 1.31254C30.6335 1.35771 30.7098 1.43296 30.7557 1.53837C30.8013 1.838 30.8166 2.13908 30.8015 2.44169C30.7098 2.44169 30.6181 2.44169 30.5265 2.44169C30.5499 2.08099 30.3971 1.82508 30.0681 1.67387C29.6108 1.62879 29.1525 1.61371 28.6931 1.6287Z" fill="#FAFBFB"/>
</g>
<g id="Group_4">
<path id="Vector_4" fill-rule="evenodd" clip-rule="evenodd" d="M32.7265 1.89965C32.7265 3.07396 32.7265 4.24827 32.7265 5.42258C33.5209 5.42258 34.3153 5.42258 35.1098 5.42258C35.1098 5.54299 35.1098 5.6635 35.1098 5.78391C33.9793 5.78391 32.8486 5.78391 31.7181 5.78391C31.7486 4.3975 31.718 3.01244 31.6264 1.62865C31.5131 1.56127 31.3909 1.53119 31.2598 1.53832C31.2598 1.44799 31.2598 1.35766 31.2598 1.26733C31.6582 1.25233 32.0554 1.26742 32.4514 1.31249C32.6732 1.4488 32.7649 1.64446 32.7265 1.89965Z" fill="#F5F6F7"/>
</g>
<g id="Group_5">
<path id="Vector_5" fill-rule="evenodd" clip-rule="evenodd" d="M60.2257 1.26758C60.5618 1.26758 60.8979 1.26758 61.234 1.26758C61.2493 2.80349 61.234 4.33912 61.1882 5.87449C61.1153 6.09138 61.0083 6.28713 60.8673 6.46165C60.4582 6.64005 60.0305 6.7153 59.584 6.68748C59.584 6.59714 59.584 6.50681 59.584 6.41648C59.9528 6.36906 60.1514 6.15822 60.1798 5.78416C60.2257 4.27896 60.241 2.77341 60.2257 1.26758Z" fill="#FAFBFB"/>
</g>
<g id="Group_6">
<path id="Vector_6" fill-rule="evenodd" clip-rule="evenodd" d="M64.9934 1.8997C64.9158 1.76727 64.7936 1.69194 64.6267 1.67387C64.1694 1.62879 63.7111 1.61371 63.2517 1.6287C63.2517 2.17069 63.2517 2.71268 63.2517 3.25467C63.8322 3.25467 64.4129 3.25467 64.9934 3.25467C65.079 3.35115 65.1096 3.47156 65.0851 3.616C64.5045 3.616 63.9239 3.616 63.3434 3.616C63.2525 4.20126 63.222 4.8035 63.2517 5.42263C63.7279 5.45163 64.1863 5.42146 64.6267 5.3323C64.7925 5.33311 64.9453 5.28795 65.0851 5.1968C65.2226 5.00105 65.3601 4.8054 65.4976 4.60965C65.5663 4.6662 65.6428 4.71136 65.7268 4.74514C65.5946 5.10747 65.4112 5.43871 65.1767 5.73879C64.1995 5.78396 63.2216 5.79904 62.2434 5.78396C62.2587 4.42862 62.2434 3.07365 62.1975 1.71904C62.0652 1.56954 61.897 1.50929 61.6934 1.53837C61.6934 1.44804 61.6934 1.35771 61.6934 1.26738C62.8549 1.25229 64.016 1.26738 65.1767 1.31254C65.2531 1.38779 65.3296 1.46313 65.4059 1.53837C65.4516 1.838 65.4669 2.13908 65.4517 2.44169C65.3296 2.44169 65.2073 2.44169 65.0851 2.44169C65.1011 2.25009 65.0705 2.06943 64.9934 1.8997Z" fill="#F4F6F7"/>
</g>
<g id="Group_7">
<path id="Vector_7" fill-rule="evenodd" clip-rule="evenodd" d="M21.7253 1.62988C21.5706 1.96303 21.3261 2.20394 20.992 2.35253C21.0022 2.2968 21.0327 2.25163 21.0837 2.21704C20.8545 2.20195 20.6253 2.18696 20.3962 2.17187C16.2283 2.17268 12.0574 2.17268 7.88348 2.17187C7.70427 2.19211 7.55155 2.25236 7.42514 2.35253C7.21128 2.2622 7.05846 2.11162 6.9668 1.90088C7.00832 1.81434 7.06937 1.739 7.15013 1.67505C7.11961 1.64497 7.08899 1.6148 7.05846 1.58472C7.20523 1.56006 7.34273 1.51489 7.47097 1.44922C12.0306 1.56855 16.614 1.56855 21.2212 1.44922C21.3937 1.59122 21.5617 1.65147 21.7253 1.62988Z" fill="#585F7E"/>
</g>
<g id="Group_8">
<path id="Vector_8" fill-rule="evenodd" clip-rule="evenodd" d="M42.7168 1.26738C43.8783 1.25229 45.0395 1.26738 46.2002 1.31254C46.2765 1.38779 46.353 1.46313 46.4294 1.53837C46.475 1.838 46.4903 2.13908 46.4752 2.44169C46.353 2.44169 46.2307 2.44169 46.1085 2.44169C46.1685 2.06383 46.0157 1.80792 45.6502 1.67387C45.1928 1.62879 44.7345 1.61371 44.2752 1.6287C44.2752 2.17069 44.2752 2.71268 44.2752 3.25467C44.8863 3.25467 45.4974 3.25467 46.1085 3.25467C46.1085 3.37509 46.1085 3.49559 46.1085 3.616C45.4974 3.616 44.8863 3.616 44.2752 3.616C44.2752 4.21824 44.2752 4.82039 44.2752 5.42263C44.8337 5.45524 45.3837 5.41008 45.9252 5.28713C46.1615 5.09979 46.3448 4.87396 46.4752 4.60965C46.587 4.64461 46.6482 4.71985 46.6585 4.83548C46.5922 5.18416 46.4393 5.48523 46.2002 5.73879C45.2229 5.78396 44.2451 5.79904 43.2668 5.78396C43.2821 4.42862 43.2668 3.07365 43.221 1.71904C43.0886 1.56954 42.9205 1.50929 42.7168 1.53837C42.7168 1.44804 42.7168 1.35771 42.7168 1.26738Z" fill="#F6F8F8"/>
</g>
<g id="Group_9">
<path id="Vector_9" fill-rule="evenodd" clip-rule="evenodd" d="M27.1348 1.53998C27.3858 1.49165 27.5539 1.58198 27.6389 1.81097C27.6848 3.1355 27.7001 4.4604 27.6848 5.78556C27.6086 4.50638 27.5628 3.21165 27.5473 1.9013C27.4376 1.73997 27.3001 1.61956 27.1348 1.53998Z" fill="#6E748E"/>
</g>
<g id="Group_10">
<path id="Vector_10" fill-rule="evenodd" clip-rule="evenodd" d="M32.7266 1.90039C32.8178 3.02854 32.8484 4.17277 32.8182 5.33299C33.599 5.30354 34.3628 5.33362 35.1099 5.42332C34.3154 5.42332 33.521 5.42332 32.7266 5.42332C32.7266 4.24901 32.7266 3.0747 32.7266 1.90039Z" fill="#747DA7"/>
</g>
<g id="Group_11">
<path id="Vector_11" fill-rule="evenodd" clip-rule="evenodd" d="M51.0587 5.78513C51.0587 4.27958 51.0587 2.77411 51.0587 1.26855C50.9365 1.26855 50.8143 1.26855 50.6921 1.26855C50.6309 1.26855 50.6004 1.29863 50.6004 1.35889C50.5175 1.29484 50.487 1.20451 50.5087 1.08789C50.7226 1.08789 50.9365 1.08789 51.1504 1.08789C51.1807 2.66942 51.1501 4.23513 51.0587 5.78513Z" fill="#545B7B"/>
</g>
<g id="Group_12">
<path id="Vector_12" fill-rule="evenodd" clip-rule="evenodd" d="M64.9936 1.89965C64.456 1.75006 63.906 1.68981 63.3436 1.71899C63.3436 2.20072 63.3436 2.68255 63.3436 3.16429C63.911 3.13512 64.4611 3.1652 64.9936 3.25462C64.4131 3.25462 63.8325 3.25462 63.252 3.25462C63.252 2.71263 63.252 2.17064 63.252 1.62865C63.7113 1.61366 64.1696 1.62874 64.627 1.67382C64.7938 1.69189 64.916 1.76722 64.9936 1.89965Z" fill="#6B718E"/>
</g>
<g id="Group_13">
<path id="Vector_13" fill-rule="evenodd" clip-rule="evenodd" d="M20.9926 2.35254C20.7197 2.65181 20.4446 2.95297 20.1676 3.25585C20.1653 3.01386 20.0431 2.89344 19.801 2.89453C19.801 2.77412 19.801 2.65361 19.801 2.5332C18.0084 2.65036 16.2056 2.71061 14.3925 2.71386C12.6596 2.71359 10.9331 2.68351 9.21331 2.62353C8.90063 2.69517 8.57979 2.74033 8.25079 2.75903C8.26445 2.92307 8.26445 3.08865 8.25079 3.25585C7.96928 3.0938 7.80116 2.85289 7.74662 2.5332C7.60188 2.5939 7.4949 2.53365 7.42578 2.35254C7.55219 2.25236 7.70491 2.19211 7.88412 2.17188C12.058 2.17269 16.2289 2.17269 20.3968 2.17188C20.626 2.18696 20.8551 2.20196 21.0843 2.21704C21.0333 2.25164 21.0028 2.2968 20.9926 2.35254Z" fill="#626783"/>
</g>
<g id="Group_14">
<path id="Vector_14" fill-rule="evenodd" clip-rule="evenodd" d="M57.3839 1.26758C57.5367 1.26758 57.6894 1.26758 57.8422 1.26758C58.3321 2.58028 58.8668 3.875 59.4464 5.15184C59.5904 5.37071 59.789 5.49112 60.0423 5.51316C60.0423 5.6035 60.0423 5.69383 60.0423 5.78416C59.0732 5.92354 58.4316 5.53213 58.1172 4.60985C57.5391 4.5047 56.9585 4.48962 56.3755 4.56468C56.2054 4.94516 56.0221 5.32157 55.8255 5.69383C55.6727 5.81424 55.52 5.81424 55.3672 5.69383C56.0659 4.22675 56.7381 2.75137 57.3839 1.26758Z" fill="#F8F9FA"/>
</g>
<g id="Group_15">
<path id="Vector_15" fill-rule="evenodd" clip-rule="evenodd" d="M20.1668 3.25586C20.014 3.37627 19.8613 3.49677 19.7085 3.61718C19.7335 3.44095 19.6725 3.30545 19.5252 3.21069C16.0543 3.13626 12.5863 3.15134 9.12085 3.25586C8.91303 3.09705 8.68386 3.05189 8.43334 3.12036C8.49448 3.24077 8.55553 3.36127 8.61667 3.48169C8.59577 3.51773 8.56515 3.53272 8.525 3.52685C8.45424 3.41899 8.36257 3.32866 8.25 3.25586C8.26366 3.08865 8.26366 2.92307 8.25 2.75903C8.579 2.74033 8.89983 2.69517 9.21251 2.62353C10.9323 2.68351 12.6588 2.7136 14.3918 2.71387C16.2048 2.71061 18.0076 2.65036 19.8002 2.5332C19.8002 2.65362 19.8002 2.77412 19.8002 2.89453C20.0424 2.89345 20.1645 3.01386 20.1668 3.25586Z" fill="#6B6F85"/>
</g>
<g id="Group_16">
<path id="Vector_16" fill-rule="evenodd" clip-rule="evenodd" d="M50.5084 4.15923C50.5139 4.20828 50.5444 4.23836 50.6001 4.24956C50.6916 3.25772 50.7222 2.26407 50.6917 1.26861C50.8139 1.26861 50.9362 1.26861 51.0584 1.26861C51.0584 2.77417 51.0584 4.27964 51.0584 5.7852C50.8781 5.80679 50.71 5.7767 50.5542 5.69486C49.7024 4.64458 48.8163 3.62076 47.8958 2.62359C47.85 3.67704 47.8347 4.73094 47.85 5.7852C47.6972 5.7852 47.5445 5.7852 47.3917 5.7852C47.4222 4.42887 47.3916 3.07389 47.3 1.72027C47.1466 1.57701 46.9633 1.51676 46.75 1.53961C46.75 1.44928 46.75 1.35895 46.75 1.26861C47.2638 1.21514 47.7528 1.29038 48.2167 1.49444C48.9999 2.3712 49.7638 3.25943 50.5084 4.15923Z" fill="#F9FAFB"/>
</g>
<g id="Group_17">
<path id="Vector_17" fill-rule="evenodd" clip-rule="evenodd" d="M50.6931 1.26758C50.7235 2.26303 50.693 3.25668 50.6014 4.24852C50.5458 4.23732 50.5153 4.20724 50.5098 4.15819C50.6009 3.24105 50.6315 2.30766 50.6014 1.35791C50.6014 1.29766 50.632 1.26758 50.6931 1.26758Z" fill="#BCC4DA"/>
</g>
<g id="Group_18">
<path id="Vector_18" fill-rule="evenodd" clip-rule="evenodd" d="M24.4759 0.275391C24.5671 1.37337 24.5977 2.48752 24.5675 3.61766C24.4929 3.42516 24.4471 3.21442 24.43 2.98534C24.3995 3.13592 24.3689 3.28641 24.3384 3.437C24.3186 3.26681 24.2574 3.11623 24.155 2.98534C24.0437 3.7929 23.9825 4.60589 23.9717 5.42429C23.94 5.2691 23.8941 5.11852 23.8342 4.97263C23.8441 4.68908 23.8747 4.40309 23.9259 4.11448C23.7351 3.47177 23.5059 3.45669 23.2384 4.06932C23.1925 5.36368 23.1772 6.65849 23.1925 7.95358C23.162 9.79128 23.1925 11.6281 23.2842 13.4638C23.3549 13.6772 23.4313 13.888 23.5134 14.0961C23.7033 14.2076 23.8408 14.3582 23.9259 14.5478C23.5566 14.3646 23.2816 14.0936 23.1008 13.7348C23.1162 10.4225 23.1008 7.11033 23.055 3.79832C22.9893 3.84746 22.9435 3.90772 22.9175 3.97899C22.8258 4.00907 22.7647 4.06932 22.7342 4.15965C21.6953 5.1533 20.6563 6.14695 19.6175 7.14059C19.3202 6.92416 19.0299 6.68333 18.7466 6.41794C18.6505 6.50981 18.5435 6.52489 18.4258 6.46311C18.6205 6.36175 18.7885 6.22626 18.93 6.05661C19.0366 6.39201 19.1741 6.39201 19.3425 6.05661C19.2622 5.98877 19.1705 5.94361 19.0675 5.92112C19.1744 5.8157 19.2813 5.71037 19.3883 5.60496C19.4188 5.69529 19.4494 5.78562 19.48 5.87595C19.5458 5.79005 19.6221 5.77505 19.7091 5.83078C19.7718 5.98372 19.8635 6.11921 19.9841 6.23728C19.8815 6.42661 19.744 6.45678 19.5716 6.32761C19.5469 6.45696 19.6079 6.5473 19.755 6.5986C19.8933 6.54531 20.0308 6.48515 20.1675 6.41794C20.0453 6.11687 20.1369 6.02653 20.4425 6.14695C20.5565 5.79465 20.4801 5.7344 20.2133 5.96628C19.9655 5.70694 19.7058 5.46603 19.4341 5.24363C20.8397 3.8284 22.2453 2.41327 23.6509 0.998044C23.9259 0.757129 24.2009 0.516305 24.4759 0.275391Z" fill="#E8D1A1"/>
</g>
<g id="Group_19">
<path id="Vector_19" fill-rule="evenodd" clip-rule="evenodd" d="M28.6924 1.62891C28.6924 2.14082 28.6924 2.65263 28.6924 3.16454C29.2903 3.13537 29.8708 3.16545 30.4341 3.25488C29.823 3.25488 29.2119 3.25488 28.6008 3.25488C28.5712 2.69572 28.6017 2.15373 28.6924 1.62891Z" fill="#858BA6"/>
</g>
<g id="Group_20">
<path id="Vector_20" fill-rule="evenodd" clip-rule="evenodd" d="M23.6513 0.998044C22.2458 2.41327 20.8401 3.8284 19.4346 5.24363C18.304 6.32761 17.1734 7.41159 16.0429 8.49557C16.0507 8.4056 16.0201 8.33035 15.9512 8.26974C16.0542 8.24725 16.1459 8.20208 16.2262 8.13424C16.1651 8.10416 16.104 8.07399 16.0429 8.04391C16.1651 7.98366 16.2873 7.9235 16.4095 7.86325C16.3339 7.78321 16.2422 7.75313 16.1345 7.77291C16.1345 7.68258 16.1345 7.59225 16.1345 7.50192C16.2262 7.50192 16.3179 7.50192 16.4095 7.50192C16.4296 7.39578 16.3991 7.30545 16.3179 7.23093C16.0353 7.51041 15.7297 7.75133 15.4012 7.95358C15.6762 7.6525 15.9512 7.35134 16.2262 7.05026C16.6234 6.71902 16.9901 6.35769 17.3262 5.96628C17.6317 5.72537 17.9067 5.45437 18.1512 5.1533C18.3957 4.97263 18.6096 4.76189 18.7929 4.52098C18.9457 4.43064 19.0679 4.31023 19.1596 4.15965C19.3734 4.00907 19.5568 3.8284 19.7096 3.61766C19.8624 3.49725 20.0151 3.37675 20.1679 3.25633C20.4449 2.95345 20.7199 2.65229 20.9929 2.35302C21.3271 2.20442 21.5715 1.96351 21.7263 1.63036C22.1463 1.45837 22.3907 1.1573 22.4596 0.727049C16.929 0.727049 11.3983 0.727049 5.86771 0.727049C5.77604 0.727049 5.68438 0.727049 5.59271 0.727049C5.56383 0.571136 5.54862 0.420554 5.54688 0.275391C11.3196 0.394086 17.0793 0.394086 22.8263 0.275391C22.8568 0.350637 22.8874 0.425973 22.918 0.50122C22.7622 0.735811 22.6705 0.99172 22.643 1.26904C22.9163 1.1872 23.176 1.0667 23.4221 0.907712C23.5048 0.929663 23.5812 0.959833 23.6513 0.998044Z" fill="#414A75"/>
</g>
<g id="Group_21">
<path id="Vector_21" fill-rule="evenodd" clip-rule="evenodd" d="M19.7088 3.61761C19.5559 3.82835 19.3726 4.00902 19.1587 4.1596C19.176 4.0148 19.1301 3.8943 19.0212 3.79827C18.9907 3.82835 18.9601 3.85852 18.9296 3.88861C18.7177 3.56133 18.458 3.53125 18.1504 3.79827C16.713 3.67922 15.2615 3.61897 13.7962 3.61761C12.2445 3.65049 10.7015 3.65049 9.16694 3.61761C9.03686 3.66323 8.97581 3.75356 8.9836 3.88861C8.82859 3.76539 8.67578 3.64498 8.52526 3.52728C8.56541 3.53315 8.59603 3.51816 8.61693 3.48211C8.55579 3.3617 8.49474 3.2412 8.43359 3.12079C8.68412 3.05232 8.91329 3.09748 9.1211 3.25628C12.5865 3.15177 16.0546 3.13668 19.5254 3.21112C19.6727 3.30588 19.7338 3.44137 19.7088 3.61761Z" fill="#747788"/>
</g>
<g id="Group_22">
<path id="Vector_22" fill-rule="evenodd" clip-rule="evenodd" d="M4.1245 0.364257C5.92733 2.17089 7.73007 3.97752 9.53291 5.78415C9.22362 5.61632 8.94861 5.39049 8.70789 5.10667C8.46342 5.07659 8.21903 5.04642 7.97455 5.01634C8.12003 4.93847 8.27284 4.87822 8.43289 4.83567C8.35461 4.74335 8.26294 4.66811 8.15789 4.60984C7.93752 4.99448 7.78471 4.9644 7.69955 4.51951C7.6099 4.5626 7.53354 4.62276 7.47038 4.70017C7.06465 4.32006 6.9882 4.36523 7.24121 4.83567C7.14376 4.94299 7.02148 4.98815 6.87454 4.97117C6.90231 4.69223 6.78012 4.54173 6.50786 4.51951C6.52656 4.71689 6.58761 4.89755 6.6912 5.0615C6.26338 4.70017 5.86619 4.30877 5.49952 3.88719C5.49402 3.83814 5.46349 3.80806 5.40785 3.79686C5.31682 4.21419 5.2862 4.63568 5.31618 5.0615C5.16465 5.9921 5.07298 6.95557 5.04118 7.95211C4.95134 7.71852 4.92082 7.4776 4.94951 7.22946C4.93429 6.50618 4.94951 5.78352 4.99534 5.0615C5.2092 4.72971 5.27035 4.36839 5.17868 3.97752C5.14815 4.15819 5.11754 4.33885 5.08701 4.51951C5.04906 4.47823 5.00323 4.44806 4.94951 4.42918C4.88837 4.63992 4.82731 4.85076 4.76617 5.0615C4.71355 4.71192 4.60658 4.38076 4.44533 4.06785C4.36008 4.54652 4.29894 5.02835 4.262 5.51316C4.23569 4.60731 4.17455 3.704 4.07866 2.80321C3.97297 5.00008 3.92713 7.19812 3.94116 9.39742C3.97141 10.8585 3.94079 12.3038 3.84949 13.7333C3.83418 9.21667 3.84949 4.70008 3.89533 0.183594C3.96023 0.263176 4.03668 0.323337 4.1245 0.364257Z" fill="#E9D2A2"/>
</g>
<g id="Group_23">
<path id="Vector_23" fill-rule="evenodd" clip-rule="evenodd" d="M41.1599 4.88231C41.0988 4.15966 41.0377 3.43701 40.9766 2.71435C41.0212 2.62646 41.067 2.53613 41.1141 2.44336C41.1599 3.2558 41.1751 4.06879 41.1599 4.88231Z" fill="#8E93B0"/>
</g>
<g id="Group_24">
<path id="Vector_24" fill-rule="evenodd" clip-rule="evenodd" d="M57.2003 2.62305C57.4888 3.07127 57.7333 3.5531 57.9336 4.06835C57.4753 4.18876 57.0169 4.18876 56.5586 4.06835C56.824 3.60576 57.0379 3.12403 57.2003 2.62305Z" fill="#444C77"/>
</g>
<g id="Group_25">
<path id="Vector_25" fill-rule="evenodd" clip-rule="evenodd" d="M19.1582 4.15918C19.0666 4.30976 18.9444 4.43017 18.7916 4.5205C18.7916 4.43017 18.7916 4.33984 18.7916 4.24951C18.4102 4.31437 18.1963 4.19395 18.1499 3.88818C18.0647 3.99559 18.0342 4.116 18.0582 4.24951C15.4913 4.23442 12.9246 4.24951 10.3581 4.29467C10.5865 4.4075 10.5712 4.51292 10.3123 4.61084C9.76446 4.18185 9.62696 4.27218 9.89976 4.88183C9.54987 4.58925 9.24425 4.25809 8.98308 3.88818C8.97529 3.75314 9.03634 3.6628 9.16642 3.61719C10.7009 3.65007 12.244 3.65007 13.7957 3.61719C15.261 3.61854 16.7124 3.67879 18.1499 3.79785C18.4575 3.53083 18.7172 3.56091 18.9291 3.88818C18.9596 3.8581 18.9902 3.82793 19.0207 3.79785C19.1296 3.89387 19.1755 4.01438 19.1582 4.15918Z" fill="#7F7F8B"/>
</g>
<g id="Group_26">
<path id="Vector_26" fill-rule="evenodd" clip-rule="evenodd" d="M52.8928 1.08675C53.6775 1.01846 54.3651 1.22929 54.9553 1.71907C55.001 2.07913 55.0164 2.44046 55.0011 2.80305C54.8789 2.80305 54.7567 2.80305 54.6345 2.80305C54.6116 1.79676 54.0921 1.39026 53.0761 1.58357C52.661 1.83867 52.5999 2.16983 52.8928 2.57722C53.667 2.99627 54.385 3.49309 55.047 4.06769C55.326 4.96821 55.0052 5.55537 54.0845 5.82916C53.3786 5.94966 52.7064 5.85933 52.0678 5.55817C51.9577 5.4766 51.8812 5.37127 51.8386 5.242C51.7929 4.91211 51.7776 4.58096 51.7928 4.24836C51.8844 4.24836 51.9761 4.24836 52.0678 4.24836C52.2162 5.1935 52.7662 5.59999 53.7178 5.46783C54.1874 5.24146 54.2943 4.89522 54.0386 4.42902C53.463 4.01774 52.8672 3.64133 52.2511 3.29988C51.4905 2.28509 51.7045 1.54744 52.8928 1.08675Z" fill="#F5F7F8"/>
</g>
<g id="Group_27">
<path id="Vector_27" fill-rule="evenodd" clip-rule="evenodd" d="M18.7915 4.52099C18.6082 4.76191 18.3943 4.97265 18.1498 5.15331C18.1635 5.05829 18.1483 4.96795 18.104 4.88232C15.651 4.9722 13.1913 5.00228 10.7247 4.97265C10.7391 5.09668 10.7238 5.21718 10.6789 5.33398C10.6131 5.24807 10.5367 5.23308 10.4497 5.28881C10.5187 5.34942 10.5493 5.42467 10.5414 5.51464C10.3066 5.32133 10.0927 5.11059 9.89971 4.88232C9.6269 4.27267 9.76441 4.18234 10.3122 4.61132C10.5712 4.51341 10.5865 4.40799 10.358 4.29516C12.9246 4.25 15.4913 4.23491 18.0582 4.25C18.0341 4.11649 18.0647 3.99608 18.1498 3.88867C18.1962 4.19444 18.4102 4.31486 18.7915 4.25C18.7915 4.34033 18.7915 4.43066 18.7915 4.52099Z" fill="#8C8A8F"/>
</g>
<g id="Group_28">
<path id="Vector_28" fill-rule="evenodd" clip-rule="evenodd" d="M5.49973 4.88068C5.6926 4.85367 5.87593 4.88375 6.04973 4.97101C5.92965 7.61809 5.92965 10.2679 6.04973 12.9202C6.03305 13.1664 5.98722 13.4073 5.91223 13.6428C5.89692 10.7819 5.85109 7.92133 5.77473 5.06134C5.71359 7.83154 5.65254 10.6016 5.59139 13.3718C5.49973 10.5421 5.4692 7.71167 5.49973 4.88068Z" fill="#2A2C41"/>
</g>
<g id="Group_29">
<path id="Vector_29" fill-rule="evenodd" clip-rule="evenodd" d="M22.9177 3.97852C23.0092 7.21501 23.0398 10.4669 23.0094 13.7343C22.9787 10.5265 22.887 7.33479 22.7344 4.15918C22.7649 4.06885 22.826 4.0086 22.9177 3.97852Z" fill="#424866"/>
</g>
<g id="Group_30">
<path id="Vector_30" fill-rule="evenodd" clip-rule="evenodd" d="M18.1513 5.15185C17.9068 5.45293 17.6318 5.72392 17.3263 5.96484C17.2341 5.76222 17.0966 5.73214 16.9138 5.87451C16.8167 5.86276 16.7403 5.8176 16.6846 5.73901C14.8728 5.71869 13.0853 5.67352 11.322 5.60351C11.1026 5.91172 11.179 6.12256 11.5512 6.23583C11.6363 6.34324 11.6669 6.46365 11.6429 6.59716C11.2432 6.26348 10.8765 5.90215 10.5428 5.51318C10.5507 5.42321 10.5201 5.34796 10.4512 5.28735C10.5382 5.23162 10.6145 5.24661 10.6803 5.33252C10.7253 5.21572 10.7406 5.09522 10.7262 4.97119C13.1928 5.00082 15.6525 4.97074 18.1054 4.88086C18.1497 4.96649 18.1649 5.05683 18.1513 5.15185Z" fill="#9C9895"/>
</g>
<g id="Group_31">
<path id="Vector_31" fill-rule="evenodd" clip-rule="evenodd" d="M28.6925 3.61719C28.6925 4.18926 28.6925 4.76142 28.6925 5.33349C29.1508 5.33349 29.6092 5.33349 30.0675 5.33349C29.5963 5.42274 29.1074 5.45282 28.6008 5.42382C28.5711 4.80469 28.6017 4.20245 28.6925 3.61719Z" fill="#989EBA"/>
</g>
<g id="Group_32">
<path id="Vector_32" fill-rule="evenodd" clip-rule="evenodd" d="M63.3429 3.61719C63.3429 4.18926 63.3429 4.76142 63.3429 5.33349C63.7707 5.33349 64.1984 5.33349 64.6262 5.33349C64.1858 5.42265 63.7274 5.45282 63.2512 5.42382C63.2215 4.80469 63.252 4.20245 63.3429 3.61719Z" fill="#848BA8"/>
</g>
<g id="Group_33">
<path id="Vector_33" fill-rule="evenodd" clip-rule="evenodd" d="M4.95027 7.23094C4.87427 7.9376 4.82844 8.66025 4.81276 9.3989C4.75162 8.43533 4.69057 7.47185 4.62943 6.50828C4.40301 7.45839 4.26551 8.42196 4.21692 9.3989C4.14065 8.67814 4.09482 7.95549 4.07942 7.23094C4.06374 7.96958 4.01791 8.69223 3.94192 9.3989C3.92789 7.19959 3.97373 5.00155 4.07942 2.80469C4.1753 3.70547 4.23645 4.60879 4.26276 5.51464C4.2997 5.02983 4.36084 4.548 4.44609 4.06933C4.60734 4.38224 4.71431 4.71339 4.76693 5.06298C4.82807 4.85223 4.88912 4.6414 4.95027 4.43066C5.00398 4.44954 5.04982 4.47971 5.08777 4.52099C5.11829 4.34033 5.14891 4.15966 5.17944 3.979C5.2711 4.36986 5.20996 4.73119 4.9961 5.06298C4.95027 5.785 4.93505 6.50765 4.95027 7.23094Z" fill="#EBCD97"/>
</g>
<g id="Group_34">
<path id="Vector_34" fill-rule="evenodd" clip-rule="evenodd" d="M9.53286 5.7841C10.2967 6.47667 11.0301 7.19933 11.7329 7.95206C11.6365 7.9386 11.5448 7.9536 11.4579 7.99723C11.5967 8.12721 11.6272 8.26271 11.5496 8.40372C11.3053 8.13959 11.0608 7.86859 10.8162 7.59073C10.6508 7.47619 10.4675 7.41594 10.2662 7.41007C10.2466 7.55858 10.2772 7.69407 10.3579 7.81656C10.2194 7.89334 10.0819 7.96859 9.94536 8.04239C9.89953 8.01231 9.85369 7.98214 9.80786 7.95206C10.069 7.53093 9.94674 7.30511 9.44119 7.27457C9.309 7.30863 9.21733 7.38387 9.16618 7.5004C8.31065 6.7175 7.48563 5.90451 6.69115 5.06145C6.58756 4.8975 6.52651 4.71683 6.50781 4.51946C6.78007 4.54168 6.90226 4.69217 6.87448 4.97112C7.02143 4.9881 7.14371 4.94293 7.24116 4.83562C6.98815 4.36517 7.0646 4.32001 7.47033 4.70012C7.53349 4.62271 7.60984 4.56255 7.6995 4.51946C7.78466 4.96434 7.93747 4.99442 8.15784 4.60979C8.26289 4.66805 8.35456 4.7433 8.43284 4.83562C8.27279 4.87817 8.11998 4.93842 7.9745 5.01628C8.21898 5.04636 8.46337 5.07653 8.70784 5.10661C8.94856 5.39044 9.22357 5.61627 9.53286 5.7841Z" fill="#E8CD98"/>
</g>
<g id="Group_35">
<path id="Vector_35" fill-rule="evenodd" clip-rule="evenodd" d="M17.3255 5.96484C16.9894 6.35625 16.6227 6.71758 16.2255 7.04882C16.2281 6.86075 16.167 6.69508 16.0422 6.552C15.2292 6.51379 14.4042 6.52887 13.5672 6.59716C13.6721 6.72281 13.6721 6.84323 13.5672 6.95849C13.4859 6.88397 13.4554 6.79363 13.4755 6.68749C13.2795 6.70583 13.1267 6.79616 13.0172 6.95849C12.8956 6.8239 12.7581 6.70339 12.6046 6.59716C12.5588 6.64233 12.513 6.68749 12.4671 6.73266C12.8146 6.92967 12.8146 7.11034 12.4671 7.27465C12.6472 7.40572 12.7694 7.5713 12.8338 7.77147C12.4157 7.3975 12.0184 7.00609 11.6421 6.59716C11.6661 6.46365 11.6356 6.34324 11.5505 6.23584C11.1783 6.12256 11.1018 5.91173 11.3213 5.60352C13.0845 5.67352 14.8721 5.71869 16.6839 5.73901C16.7396 5.8176 16.816 5.86277 16.913 5.87451C17.0959 5.73215 17.2334 5.76223 17.3255 5.96484Z" fill="#AFA89C"/>
</g>
<g id="Group_36">
<path id="Vector_36" fill-rule="evenodd" clip-rule="evenodd" d="M4.12436 0.366026C4.03654 0.325106 3.96009 0.264945 3.89519 0.185363C3.84935 4.70185 3.83404 9.21844 3.84935 13.7351C3.81883 13.7351 3.78821 13.7351 3.75768 13.7351C3.72716 13.7351 3.69654 13.7351 3.66602 13.7351C3.66602 9.15827 3.66602 4.58153 3.66602 0.00469987C3.92883 -0.00713357 4.08155 0.113369 4.12436 0.366026Z" fill="#52556A"/>
</g>
<g id="Group_37">
<path id="Vector_37" fill-rule="evenodd" clip-rule="evenodd" d="M16.2252 7.04862C15.9502 7.3497 15.6752 7.65087 15.4002 7.95194C15.3696 7.95194 15.339 7.95194 15.3085 7.95194C15.2899 7.81247 15.2288 7.69197 15.1252 7.59061C14.6036 7.47418 14.0841 7.47418 13.5668 7.59061C13.5034 7.54319 13.4575 7.48294 13.4293 7.40995C13.353 7.54545 13.246 7.65087 13.1085 7.72611C13.1954 7.76974 13.287 7.78474 13.3835 7.77128C13.3574 7.93279 13.3879 8.08337 13.4751 8.22294C13.6027 8.11951 13.7248 8.11951 13.8418 8.22294C13.7615 8.29077 13.6698 8.33594 13.5668 8.35843C13.6357 8.41905 13.6664 8.49429 13.6585 8.58426C13.3505 8.34091 13.0755 8.06991 12.8335 7.77128C12.769 7.5711 12.6468 7.40552 12.4668 7.27445C12.8142 7.11014 12.8142 6.92948 12.4668 6.73246C12.5126 6.6873 12.5585 6.64213 12.6043 6.59697C12.7578 6.7032 12.8953 6.8237 13.0168 6.95829C13.1263 6.79597 13.2792 6.70564 13.4751 6.6873C13.4551 6.79344 13.4856 6.88377 13.5668 6.95829C13.6718 6.84303 13.6718 6.72262 13.5668 6.59697C14.4038 6.52868 15.2288 6.51359 16.0418 6.5518C16.1666 6.69489 16.2278 6.86055 16.2252 7.04862Z" fill="#C2B7A1"/>
</g>
<g id="Group_38">
<path id="Vector_38" fill-rule="evenodd" clip-rule="evenodd" d="M45.0086 7.95312C42.592 7.83343 40.1781 7.83343 37.7668 7.95312C37.759 7.86315 37.7896 7.78791 37.8585 7.72729C38.0215 7.6637 38.1896 7.61854 38.3627 7.5918C40.4414 7.71131 42.5193 7.71131 44.5961 7.5918C44.7776 7.66542 44.9151 7.78583 45.0086 7.95312Z" fill="#484D70"/>
</g>
<g id="Group_39">
<path id="Vector_39" fill-rule="evenodd" clip-rule="evenodd" d="M15.3094 7.95215C14.992 8.31022 14.6558 8.65655 14.3011 8.99096C14.0107 8.99385 13.7968 8.85835 13.6594 8.58447C13.6673 8.4945 13.6366 8.41925 13.5677 8.35864C13.6707 8.33615 13.7624 8.29098 13.8427 8.22314C13.7258 8.11971 13.6036 8.11971 13.476 8.22314C13.3888 8.08358 13.3583 7.933 13.3844 7.77148C13.2879 7.78494 13.1963 7.76995 13.1094 7.72632C13.2469 7.65107 13.3539 7.54565 13.4302 7.41016C13.4584 7.48314 13.5043 7.5434 13.5677 7.59082C14.085 7.47438 14.6045 7.47438 15.1261 7.59082C15.2297 7.69217 15.2908 7.81267 15.3094 7.95215Z" fill="#D5C6A9"/>
</g>
<g id="Group_40">
<path id="Vector_40" fill-rule="evenodd" clip-rule="evenodd" d="M5.4994 3.88721C5.40792 7.15387 5.3773 10.4359 5.40774 13.7334C5.31625 10.8582 5.28563 7.96758 5.31607 5.06152C5.28609 4.63569 5.31671 4.21421 5.40774 3.79688C5.46338 3.80808 5.4939 3.83816 5.4994 3.88721Z" fill="#2A2C41"/>
</g>
<g id="Group_41">
<path id="Vector_41" fill-rule="evenodd" clip-rule="evenodd" d="M24.5663 3.6167C24.5663 7.29021 24.5663 10.9636 24.5663 14.6372C24.3317 14.6644 24.1178 14.6343 23.9246 14.5468C24.108 14.5468 24.2913 14.5468 24.4746 14.5468C24.4899 12.8302 24.4746 11.1139 24.4288 9.39792C24.3983 9.8195 24.3677 10.241 24.3371 10.6626C24.3197 9.2738 24.2434 7.88875 24.108 6.50731C24.0316 8.43372 23.9858 10.3608 23.9705 12.2885C23.9399 10.8432 23.9093 9.39792 23.8788 7.95261C23.8698 8.68222 23.8087 9.40488 23.6955 10.1206C23.5929 9.12982 23.5318 8.13617 23.5121 7.13963C23.443 7.43935 23.3361 7.71034 23.1913 7.95261C23.176 6.65753 23.1913 5.36272 23.2371 4.06835C23.5047 3.45573 23.7339 3.47081 23.9246 4.11352C23.8735 4.40213 23.8429 4.68812 23.833 4.97167C23.8929 5.11756 23.9387 5.26814 23.9705 5.42333C23.9813 4.60492 24.0424 3.79194 24.1538 2.98438C24.2562 3.11527 24.3173 3.26585 24.3371 3.43603C24.3677 3.28545 24.3983 3.13496 24.4288 2.98438C24.4459 3.21346 24.4917 3.4242 24.5663 3.6167Z" fill="#E8CC96"/>
</g>
<g id="Group_42">
<path id="Vector_42" fill-rule="evenodd" clip-rule="evenodd" d="M24.6579 14.6373C24.7186 9.78854 24.6576 4.97089 24.4746 0.184214C24.504 0.0443807 24.5957 -0.0158705 24.7496 0.00355083C24.78 4.89672 24.7495 9.77463 24.6579 14.6373Z" fill="#454665"/>
</g>
<g id="Group_43">
<path id="Vector_43" fill-rule="evenodd" clip-rule="evenodd" d="M36.209 8.31474C35.7993 8.22567 35.3715 8.19559 34.9257 8.22441C34.8961 8.78356 34.9266 9.32555 35.0173 9.85038C35.5979 9.85038 36.1785 9.85038 36.759 9.85038C36.759 9.97079 36.759 10.0913 36.759 10.2117C36.1479 10.2117 35.5368 10.2117 34.9257 10.2117C34.9257 10.8139 34.9257 11.4161 34.9257 12.0183C35.4322 12.0473 35.9212 12.0173 36.3924 11.928C36.7823 11.83 37.042 11.5891 37.1715 11.2054C37.2563 11.2548 37.3327 11.3149 37.4007 11.386C37.2668 11.6463 37.1599 11.9173 37.0799 12.199C37.0111 12.2555 36.9347 12.3007 36.8507 12.3345C35.904 12.3797 34.9567 12.3947 34.009 12.3797C34.0243 11.0545 34.009 9.7296 33.9632 8.40507C33.8473 8.21474 33.6793 8.12441 33.459 8.13408C33.459 8.04374 33.459 7.95341 33.459 7.86308C34.5595 7.84799 35.6595 7.86308 36.759 7.90825C36.8902 7.95025 36.9971 8.02559 37.0799 8.13408C37.1255 8.43371 37.1408 8.73478 37.1257 9.03739C37.034 9.03739 36.9424 9.03739 36.8507 9.03739C36.8321 8.62765 36.6182 8.38682 36.209 8.31474Z" fill="#F9FBFB"/>
</g>
<g id="Group_44">
<path id="Vector_44" fill-rule="evenodd" clip-rule="evenodd" d="M45.0089 7.95305C45.1697 8.29251 45.2308 8.65384 45.1922 9.03703C45.07 9.03703 44.9477 9.03703 44.8255 9.03703C44.8855 8.65917 44.7328 8.40326 44.3672 8.26921C43.9099 8.22413 43.4515 8.20905 42.9922 8.22404C42.9922 8.76603 42.9922 9.30802 42.9922 9.85001C43.5727 9.85001 44.1533 9.85001 44.7339 9.85001C44.7339 9.97042 44.7339 10.0909 44.7339 10.2113C44.1533 10.2113 43.5727 10.2113 42.9922 10.2113C42.9922 10.8136 42.9922 11.4157 42.9922 12.018C43.4821 12.033 43.9709 12.0179 44.4589 11.9728C44.8168 11.8259 45.0613 11.57 45.1922 11.205C45.3188 11.2502 45.3799 11.3405 45.3756 11.476C45.3001 11.806 45.1474 12.092 44.9172 12.3341C43.9399 12.3793 42.9621 12.3944 41.9838 12.3793C41.9991 11.024 41.9838 9.66899 41.938 8.31437C41.8643 8.19658 41.7573 8.13633 41.6172 8.13371C41.0709 8.21627 40.5209 8.24636 39.9671 8.22404C39.9671 9.6091 39.9671 10.9942 39.9671 12.3793C39.6616 12.3793 39.356 12.3793 39.0505 12.3793C39.0505 10.9942 39.0505 9.6091 39.0505 8.22404C38.7559 8.19604 38.4809 8.22612 38.2255 8.31437C37.9144 8.45647 37.7922 8.69738 37.8588 9.03703C37.7671 9.03703 37.6754 9.03703 37.5838 9.03703C37.5687 8.70443 37.5839 8.37327 37.6296 8.04338C37.6647 7.99316 37.7106 7.96308 37.7671 7.95305C40.1783 7.83336 42.5922 7.83336 45.0089 7.95305Z" fill="#F8F9FB"/>
</g>
<g id="Group_45">
<path id="Vector_45" fill-rule="evenodd" clip-rule="evenodd" d="M19.4345 5.24219C19.7062 5.46458 19.9659 5.7055 20.2137 5.96484C20.4804 5.73296 20.5569 5.79321 20.4428 6.1455C20.1373 6.02509 20.0456 6.11542 20.1678 6.4165C20.0312 6.48371 19.8937 6.54387 19.7553 6.59716C19.6083 6.54585 19.5472 6.45552 19.572 6.32617C19.7443 6.45534 19.8818 6.42517 19.9845 6.23584C19.8639 6.11777 19.7722 5.98227 19.7095 5.82934C19.6225 5.77361 19.5461 5.7886 19.4803 5.87451C19.4498 5.78418 19.4192 5.69385 19.3887 5.60351C19.2817 5.70893 19.1748 5.81426 19.0678 5.91967C19.1709 5.94217 19.2625 5.98733 19.3428 6.05517C19.1744 6.39057 19.0369 6.39057 18.9303 6.05517C18.7889 6.22481 18.6208 6.36031 18.4261 6.46166C18.5438 6.52345 18.6508 6.50837 18.747 6.4165C19.0302 6.68189 19.3205 6.92272 19.6178 7.13915C17.864 8.91254 16.0918 10.674 14.3011 12.4236C14.1638 12.4764 14.0721 12.4312 14.0261 12.2881C14.4205 12.2045 14.5427 11.9787 14.3927 11.6106C14.5098 11.5991 14.6167 11.6443 14.7136 11.7461C14.8796 11.6626 14.8644 11.5874 14.6678 11.5202C14.8175 11.4756 14.9703 11.4606 15.1261 11.4751C15.198 11.1132 15.4118 10.8723 15.7678 10.7524C15.5333 10.6061 15.5333 10.4706 15.7678 10.3459C15.6392 10.0383 15.4406 9.78244 15.1719 9.57811C14.9391 9.77729 14.7404 10.0031 14.5761 10.2556C14.3144 10.4435 14.07 10.4285 13.8427 10.2104C13.731 10.2794 13.6393 10.3697 13.5677 10.4814C13.4604 10.3307 13.3382 10.1952 13.2011 10.0749C13.4389 9.89589 13.4389 9.73031 13.2011 9.57811C13.1198 9.65263 13.0893 9.74296 13.1094 9.8491C13.0177 9.8491 12.9261 9.8491 12.8344 9.8491C12.8237 10.0283 12.8848 10.1788 13.0177 10.3008C12.9719 10.3308 12.9261 10.361 12.8802 10.3911C12.7761 10.2752 12.6539 10.1849 12.5136 10.1201C12.3793 10.1951 12.2418 10.2101 12.1011 10.1653C11.826 9.89427 11.551 9.62327 11.276 9.35228C11.536 9.03657 11.4596 8.81074 11.0469 8.67479C10.9126 8.74976 10.7751 8.76476 10.6344 8.71996C10.0225 8.04346 10.053 7.9983 10.726 8.58446C10.8515 8.43776 11.0043 8.39259 11.1844 8.44896C11.4151 8.66115 11.629 8.88698 11.826 9.12645C11.7172 9.2185 11.6256 9.32391 11.551 9.44261C11.7384 9.44694 11.9217 9.40178 12.1011 9.30711C12.1927 9.35228 12.2844 9.39744 12.3761 9.44261C12.266 9.52418 12.1895 9.6295 12.1469 9.75877C12.0584 9.59979 11.9514 9.56961 11.826 9.66844C12.0517 10.1153 12.2962 10.1153 12.5594 9.66844C12.6615 9.55796 12.6768 9.43755 12.6052 9.30711C12.3827 9.03196 12.123 8.8513 11.826 8.76512C11.7448 8.6906 11.7143 8.60027 11.7344 8.49413C11.9076 8.47579 12.0451 8.53595 12.1469 8.67479C12.1912 8.58915 12.2064 8.49882 12.1927 8.40379C12.8631 9.03422 13.5353 9.66654 14.2094 10.3008C14.853 9.72679 15.4642 9.12455 16.0428 8.49413C17.1733 7.41015 18.3039 6.32617 19.4345 5.24219Z" fill="#E6C991"/>
</g>
<g id="Group_46">
<path id="Vector_46" fill-rule="evenodd" clip-rule="evenodd" d="M23.1013 13.7334C23.0708 13.7334 23.0402 13.7334 23.0096 13.7334C23.0401 10.466 23.0095 7.21403 22.918 3.97754C22.9439 3.90627 22.9897 3.84602 23.0555 3.79688C23.1013 7.10888 23.1166 10.4211 23.1013 13.7334Z" fill="#7C756C"/>
</g>
<g id="Group_47">
<path id="Vector_47" fill-rule="evenodd" clip-rule="evenodd" d="M36.2083 8.31379C35.8111 8.31379 35.4139 8.31379 35.0167 8.31379C35.0167 8.8257 35.0167 9.33752 35.0167 9.84943C34.9259 9.32461 34.8954 8.78262 34.925 8.22346C35.3708 8.19465 35.7986 8.22473 36.2083 8.31379Z" fill="#8D92AC"/>
</g>
<g id="Group_48">
<path id="Vector_48" fill-rule="evenodd" clip-rule="evenodd" d="M11.7347 7.95288C11.918 8.07329 12.0708 8.22387 12.193 8.40454C12.2067 8.49956 12.1915 8.5899 12.1472 8.67553C12.0454 8.53669 11.9079 8.47653 11.7347 8.49487C11.7146 8.60101 11.7451 8.69134 11.8263 8.76586C12.1233 8.85204 12.383 9.0327 12.6055 9.30785C12.6771 9.43829 12.6618 9.5587 12.5597 9.66918C12.2965 10.116 12.052 10.116 11.8263 9.66918C11.9517 9.57036 12.0587 9.60053 12.1472 9.75951C12.1898 9.63025 12.2663 9.52492 12.3763 9.44335C12.2847 9.39818 12.193 9.35302 12.1013 9.30785C11.922 9.40252 11.7387 9.44769 11.5513 9.44335C11.6259 9.32465 11.7175 9.21924 11.8263 9.12719C11.6293 8.88772 11.4154 8.66189 11.1847 8.4497C11.0046 8.39333 10.8518 8.4385 10.7263 8.5852C10.0533 7.99904 10.0228 8.0442 10.6347 8.7207C10.7754 8.7655 10.9129 8.75051 11.0472 8.67553C11.4599 8.81148 11.5363 9.03731 11.2763 9.35302C11.5513 9.62401 11.8263 9.89501 12.1013 10.166C12.2421 10.2108 12.3796 10.1958 12.5138 10.1208C12.6542 10.1856 12.7764 10.2759 12.8805 10.3918C12.9264 10.3618 12.9722 10.3316 13.018 10.3015C12.8851 10.1796 12.824 10.0291 12.8347 9.84984C12.9264 9.84984 13.018 9.84984 13.1097 9.84984C13.0896 9.7437 13.1201 9.65337 13.2014 9.57885C13.4391 9.73106 13.4391 9.89663 13.2014 10.0757C13.3385 10.1959 13.4607 10.3314 13.568 10.4822C13.6396 10.3704 13.7313 10.2801 13.843 10.2112C14.0703 10.4292 14.3147 10.4442 14.5764 10.2563C14.7407 10.0039 14.9394 9.77803 15.1722 9.57885C15.4409 9.78318 15.6395 10.0391 15.7681 10.3467C15.5336 10.4713 15.5336 10.6068 15.7681 10.7532C15.4121 10.873 15.1983 11.1139 15.1264 11.4758C14.9706 11.4614 14.8178 11.4764 14.668 11.521C14.8647 11.5881 14.8799 11.6633 14.7139 11.7468C14.617 11.645 14.5101 11.5998 14.393 11.6113C14.543 11.9794 14.4208 12.2052 14.0264 12.2888C12.3763 10.7231 10.7568 9.12719 9.16797 7.50122C9.21912 7.38469 9.31079 7.30945 9.44297 7.27539C9.94852 7.30592 10.0708 7.53175 9.80964 7.95288C9.85548 7.98296 9.90131 8.01313 9.94715 8.04321C10.0837 7.96941 10.2212 7.89416 10.3597 7.81738C10.279 7.69489 10.2484 7.55939 10.268 7.41089C10.4693 7.41676 10.6526 7.47701 10.818 7.59155C11.0626 7.86941 11.307 8.14041 11.5513 8.40454C11.629 8.26353 11.5985 8.12803 11.4597 7.99804C11.5466 7.95441 11.6382 7.93942 11.7347 7.95288Z" fill="#E7C98B"/>
</g>
<g id="Group_49">
<path id="Vector_49" fill-rule="evenodd" clip-rule="evenodd" d="M24.4746 0.273925C24.4746 0.243845 24.4746 0.213674 24.4746 0.183594C24.6576 4.97027 24.7186 9.78792 24.6579 14.6367C24.6274 14.6367 24.5968 14.6367 24.5663 14.6367C24.5663 10.9631 24.5663 7.28971 24.5663 3.6162C24.5964 2.48606 24.5658 1.37191 24.4746 0.273925Z" fill="#9C8B7E"/>
</g>
<g id="Group_50">
<path id="Vector_50" fill-rule="evenodd" clip-rule="evenodd" d="M38.2266 8.31335C38.482 8.22509 38.757 8.19501 39.0516 8.22301C39.0516 9.60807 39.0516 10.9932 39.0516 12.3783C38.9603 11.0392 38.9297 9.68422 38.9599 8.31335C38.7154 8.31335 38.471 8.31335 38.2266 8.31335Z" fill="#8389A3"/>
</g>
<g id="Group_51">
<path id="Vector_51" fill-rule="evenodd" clip-rule="evenodd" d="M23.9264 14.5473C23.8414 14.3577 23.7039 14.2071 23.5139 14.0957C23.4319 13.8875 23.3554 13.6767 23.2848 13.4633C23.1931 11.6276 23.1626 9.79082 23.1931 7.95312C23.3379 7.71085 23.4448 7.43985 23.5139 7.14013C23.5336 8.13667 23.5947 9.13032 23.6973 10.1211C23.8105 9.40538 23.8716 8.68273 23.8806 7.95312C23.9111 9.39842 23.9417 10.8437 23.9723 12.289C23.9876 10.3613 24.0334 8.43422 24.1098 6.50781C24.2452 7.88925 24.3215 9.27431 24.3389 10.6631C24.3695 10.2415 24.4001 9.82 24.4306 9.39842C24.4764 11.1145 24.4917 12.8308 24.4764 14.5473C24.2931 14.5473 24.1098 14.5473 23.9264 14.5473Z" fill="#E8C789"/>
</g>
<g id="Group_52">
<path id="Vector_52" fill-rule="evenodd" clip-rule="evenodd" d="M47.5753 10.844C47.5223 10.5847 47.3695 10.4342 47.1169 10.3923C47.1169 11.0547 47.1169 11.7172 47.1169 12.3796C46.7808 12.3796 46.4447 12.3796 46.1086 12.3796C46.1239 11.0243 46.1086 9.66931 46.0628 8.3147C45.9304 8.1652 45.7623 8.10495 45.5586 8.13404C45.5586 8.04371 45.5586 7.95337 45.5586 7.86304C46.4452 7.84805 47.3314 7.86304 48.217 7.90821C49.1292 8.06566 49.5111 8.59256 49.3628 9.48901C49.1663 9.89415 48.8454 10.135 48.4003 10.2117C48.6164 10.7878 48.9066 11.3298 49.2711 11.8376C49.4301 12.0139 49.6287 12.1042 49.867 12.1086C49.8826 12.228 49.852 12.3335 49.7753 12.4248C49.1607 12.581 48.6565 12.4153 48.2628 11.928C48.0543 11.5457 47.8251 11.1844 47.5753 10.844Z" fill="#F9FAFB"/>
</g>
<g id="Group_53">
<path id="Vector_53" fill-rule="evenodd" clip-rule="evenodd" d="M47.1172 8.22297C48.0944 8.1171 48.4763 8.53859 48.263 9.48761C48.022 9.94505 47.6401 10.1257 47.1172 10.0296C47.1172 9.42736 47.1172 8.82521 47.1172 8.22297Z" fill="#434B74"/>
</g>
<g id="Group_54">
<path id="Vector_54" fill-rule="evenodd" clip-rule="evenodd" d="M53.442 10.7525C53.4475 10.8015 53.478 10.8316 53.5336 10.8428C53.6252 9.85098 53.6558 8.85733 53.6253 7.86187C53.7475 7.86187 53.8698 7.86187 53.992 7.86187C53.992 9.36743 53.992 10.8729 53.992 12.3785C53.7031 12.4273 53.4739 12.337 53.3045 12.1075C52.5139 11.1174 51.6889 10.1539 50.8294 9.21685C50.7836 10.2703 50.7683 11.3242 50.7836 12.3785C50.6308 12.3785 50.4781 12.3785 50.3253 12.3785C50.3406 11.0533 50.3253 9.7284 50.2794 8.40386C50.1411 8.18535 49.9426 8.09502 49.6836 8.13287C49.6836 8.04254 49.6836 7.95221 49.6836 7.86187C50.2083 7.80153 50.6972 7.89186 51.1503 8.13287C51.9505 8.98117 52.7144 9.85441 53.442 10.7525Z" fill="#F9FAFB"/>
</g>
<g id="Group_55">
<path id="Vector_55" fill-rule="evenodd" clip-rule="evenodd" d="M53.6267 7.86328C53.6571 8.85874 53.6266 9.85238 53.535 10.8442C53.4794 10.833 53.4489 10.8029 53.4434 10.7539C53.5045 9.79033 53.5656 8.82685 53.6267 7.86328Z" fill="#C5CAE2"/>
</g>
<g id="Group_56">
<path id="Vector_56" fill-rule="evenodd" clip-rule="evenodd" d="M45.5586 8.13406C45.7623 8.10497 45.9304 8.16522 46.0628 8.31472C46.1086 9.66933 46.1239 11.0243 46.1086 12.3796C46.4447 12.3796 46.7808 12.3796 47.1169 12.3796C47.1169 11.7172 47.1169 11.0547 47.1169 10.3923C47.3695 10.4342 47.5223 10.5848 47.5753 10.844C47.4621 10.824 47.3704 10.7638 47.3003 10.6633C47.2698 10.9343 47.2391 11.2053 47.2086 11.4763C47.2168 11.795 47.2779 12.0962 47.392 12.3796C46.9031 12.6206 46.4141 12.6206 45.9253 12.3796C46.0154 11.0592 46.046 9.73428 46.0169 8.40505C45.7888 8.42845 45.636 8.33812 45.5586 8.13406Z" fill="#474E6E"/>
</g>
<g id="Group_57">
<path id="Vector_57" fill-rule="evenodd" clip-rule="evenodd" d="M36.7591 10.2109C36.1958 10.3004 35.6153 10.3304 35.0174 10.3013C35.0174 10.8433 35.0174 11.3852 35.0174 11.9272C35.4758 11.9272 35.9341 11.9272 36.3925 11.9272C35.9213 12.0165 35.4323 12.0466 34.9258 12.0176C34.9258 11.4153 34.9258 10.8132 34.9258 10.2109C35.5369 10.2109 36.148 10.2109 36.7591 10.2109Z" fill="#878CA6"/>
</g>
<g id="Group_58">
<path id="Vector_58" fill-rule="evenodd" clip-rule="evenodd" d="M5.3175 5.0625C5.28706 7.96856 5.31768 10.8592 5.40916 13.7343C5.99566 13.7865 6.51514 13.9972 6.96752 14.3667C7.01775 14.6274 7.17056 14.808 7.42586 14.9086C7.33584 15.293 7.2747 15.6543 7.24252 15.9926C6.9622 15.6873 6.65667 15.4013 6.32584 15.1345C6.0667 14.9842 5.79169 14.8788 5.50083 14.8183C5.41521 14.9148 5.3846 15.0352 5.40916 15.1796C5.31997 15.4008 5.28945 15.6417 5.3175 15.9023C5.20979 15.8825 5.11812 15.9126 5.04249 15.9926C5.16652 16.0851 5.22766 16.2055 5.22583 16.354C4.86136 16.429 4.49468 16.444 4.12581 16.3991C4.04579 16.3047 3.95412 16.2295 3.85081 16.1733C3.70258 16.1247 3.54977 16.0946 3.39247 16.083C3.38239 16.3991 3.30603 16.7003 3.1633 16.9863C3.11756 17.3463 3.10225 17.7077 3.11746 18.0703C3.20913 18.0703 3.3008 18.0703 3.39247 18.0703C3.39247 18.3112 3.39247 18.552 3.39247 18.7929C3.08676 18.6445 2.8882 18.4036 2.79663 18.0703C2.68718 17.436 2.77884 16.8339 3.07163 16.2636C3.27642 16.0649 3.50559 15.8993 3.75914 15.7668C3.82807 15.7062 3.85869 15.6309 3.85081 15.541C3.85081 15.3001 3.85081 15.0592 3.85081 14.8183C3.62888 14.8525 3.41502 14.9127 3.20913 14.999C3.05871 14.8451 2.96704 14.6494 2.93413 14.4118C3.01085 14.3205 3.04138 14.2151 3.0258 14.0957C3.20006 14.0896 3.36808 14.1198 3.52997 14.186C3.70194 14.0849 3.7783 13.9343 3.75914 13.7343C3.78967 13.7343 3.82028 13.7343 3.85081 13.7343C3.94211 12.3048 3.97273 10.8595 3.94248 9.39842C4.01847 8.69175 4.0643 7.9691 4.07998 7.23046C4.09538 7.95501 4.14121 8.67766 4.21748 9.39842C4.26606 8.42148 4.40357 7.45791 4.62999 6.50781C4.69113 7.47137 4.75218 8.43485 4.81332 9.39842C4.829 8.65978 4.87483 7.93712 4.95082 7.23046C4.92213 7.4786 4.95266 7.71951 5.04249 7.95311C5.0743 6.95657 5.16597 5.9931 5.3175 5.0625Z" fill="#E6C587"/>
</g>
<g id="Group_59">
<path id="Vector_59" fill-rule="evenodd" clip-rule="evenodd" d="M56.5601 7.68164C58.6179 7.76827 59.4888 8.82217 59.1727 10.8432C58.7351 12.1205 57.8338 12.6776 56.4685 12.5144C54.7375 11.7968 54.2333 10.5773 54.956 8.85595C55.3271 8.23257 55.8618 7.84117 56.5601 7.68164Z" fill="#F6F7F8"/>
</g>
<g id="Group_60">
<path id="Vector_60" fill-rule="evenodd" clip-rule="evenodd" d="M56.5594 8.133C57.4682 8.03101 58.0029 8.42242 58.1636 9.30731C58.2247 9.8493 58.2247 10.3913 58.1636 10.9333C57.9692 11.9696 57.3733 12.3159 56.3761 11.9721C56.0217 11.6783 55.823 11.3019 55.7802 10.8429C55.7191 10.301 55.7191 9.75897 55.7802 9.21698C55.8854 8.73858 56.1451 8.37725 56.5594 8.133Z" fill="#2A2C41"/>
</g>
<g id="Group_61">
<path id="Vector_61" fill-rule="evenodd" clip-rule="evenodd" d="M2.74948 14.0046C2.74948 14.0649 2.71896 14.0949 2.65782 14.0949C2.60126 13.9388 2.50959 13.8033 2.38281 13.6884C2.54259 13.502 2.72593 13.4568 2.93282 13.5529C2.83849 13.5345 2.74683 13.5797 2.65782 13.6884C2.74948 13.7185 2.84115 13.7487 2.93282 13.7788C2.85206 13.8427 2.79101 13.9181 2.74948 14.0046Z" fill="#D9DDE8"/>
</g>
<g id="Group_62">
<path id="Vector_62" fill-rule="evenodd" clip-rule="evenodd" d="M14.483 13.1016C14.5323 13.2476 14.5628 13.3982 14.5746 13.5532C14.6663 13.5532 14.758 13.5532 14.8496 13.5532C14.8496 15.5405 14.8496 17.5278 14.8496 19.5151C14.7173 18.5692 14.6256 17.6058 14.5746 16.6245C14.5113 17.0656 14.4502 17.5022 14.3913 17.9343C14.4218 17.9644 14.4524 17.9946 14.483 18.0246C14.3412 18.0547 14.219 18.0095 14.1163 17.8891C14.0431 18.0317 13.9973 18.1822 13.9788 18.3408C13.8055 17.9694 13.7138 17.578 13.7038 17.1665C13.6733 17.7085 13.6426 18.2505 13.6121 18.7925C13.5663 17.0764 13.551 15.3601 13.5663 13.6436C13.6336 13.5344 13.6641 13.414 13.658 13.2822C13.658 13.2521 13.658 13.222 13.658 13.1919C13.8396 13.0434 14.0229 12.8929 14.208 12.7402C14.3018 12.8624 14.3935 12.9828 14.483 13.1016Z" fill="#E5C281"/>
</g>
<g id="Group_63">
<path id="Vector_63" fill-rule="evenodd" clip-rule="evenodd" d="M1.92509 14.5466C1.92509 14.6068 1.89456 14.6369 1.83342 14.6369C1.58188 14.5853 1.50552 14.4348 1.60425 14.1853C1.70811 14.0307 1.84561 13.9855 2.01676 14.0498C1.7016 14.1803 1.67108 14.3459 1.92509 14.5466Z" fill="#DFE5EF"/>
</g>
<g id="Group_64">
<path id="Vector_64" fill-rule="evenodd" clip-rule="evenodd" d="M6.96669 14.3672C8.47243 15.3983 9.03765 16.8135 8.66254 18.6128C8.51661 19.0752 8.31797 19.5118 8.0667 19.9226C8.27424 20.13 8.45758 20.3558 8.61671 20.6001C8.39203 20.4734 8.17817 20.3228 7.97504 20.1484C7.9116 20.1958 7.86577 20.2561 7.83753 20.3291C7.78803 20.1814 7.83387 20.061 7.97504 19.9677C7.62331 19.5094 7.4858 18.9975 7.56253 18.4321C7.38405 18.377 7.21593 18.3018 7.05836 18.2063C7.16277 17.717 7.17807 17.2202 7.10419 16.7158C6.93231 16.3203 6.70314 15.959 6.41668 15.6318C5.99143 15.4833 5.68581 15.2123 5.5 14.8188C5.79086 14.8794 6.06587 14.9847 6.32501 15.135C6.65584 15.4018 6.96137 15.6878 7.24169 15.9932C7.27387 15.6549 7.33501 15.2935 7.42503 14.9092C7.16973 14.8085 7.01692 14.6279 6.96669 14.3672Z" fill="#BFA26F"/>
</g>
<g id="Group_65">
<path id="Vector_65" fill-rule="evenodd" clip-rule="evenodd" d="M47.2097 16.082C47.3318 16.082 47.4541 16.082 47.5763 16.082C47.5763 16.2024 47.5763 16.3229 47.5763 16.4434C47.3013 16.4734 47.1791 16.353 47.2097 16.082Z" fill="#9C9375"/>
</g>
<g id="Group_66">
<path id="Vector_66" fill-rule="evenodd" clip-rule="evenodd" d="M3.85029 15.541C3.62534 15.6819 3.38095 15.7723 3.11695 15.812C2.97944 16.1905 2.79611 16.5518 2.56694 16.896C2.39194 16.9726 2.20861 17.0028 2.01693 16.9863C1.7972 16.7618 1.78199 16.5208 1.9711 16.2637C2.27901 15.7346 2.69151 15.313 3.20861 14.999C3.4145 14.9128 3.62836 14.8525 3.85029 14.8184C3.85029 15.0593 3.85029 15.3001 3.85029 15.541Z" fill="#C7A872"/>
</g>
<g id="Group_67">
<path id="Vector_67" fill-rule="evenodd" clip-rule="evenodd" d="M34.5586 16.082C34.6808 16.082 34.8031 16.082 34.9253 16.082C34.9558 16.353 34.8336 16.4734 34.5586 16.4434C34.5586 16.3229 34.5586 16.2024 34.5586 16.082Z" fill="#9C926F"/>
</g>
<g id="Group_68">
<path id="Vector_68" fill-rule="evenodd" clip-rule="evenodd" d="M35.0182 16.082C35.1404 16.082 35.2627 16.082 35.3849 16.082C35.3849 16.2024 35.3849 16.3229 35.3849 16.4434C35.1099 16.4734 34.9877 16.353 35.0182 16.082Z" fill="#9E9475"/>
</g>
<g id="Group_69">
<path id="Vector_69" fill-rule="evenodd" clip-rule="evenodd" d="M45.375 15.7207C45.4667 15.7207 45.5583 15.7207 45.65 15.7207C45.65 16.7144 45.65 17.708 45.65 18.7016C45.5583 18.7016 45.4667 18.7016 45.375 18.7016C45.375 17.708 45.375 16.7144 45.375 15.7207Z" fill="#AF9B74"/>
</g>
<g id="Group_70">
<path id="Vector_70" fill-rule="evenodd" clip-rule="evenodd" d="M47.7598 16.082C47.8514 16.082 47.9431 16.082 48.0348 16.082C48.0348 16.2024 48.0348 16.3229 48.0348 16.4434C47.9431 16.4434 47.8514 16.4434 47.7598 16.4434C47.7598 16.3229 47.7598 16.2024 47.7598 16.082Z" fill="#A69871"/>
</g>
<g id="Group_71">
<path id="Vector_71" fill-rule="evenodd" clip-rule="evenodd" d="M1.55856 14.9987C1.37651 15.4312 1.16265 15.8526 0.916888 16.2634C0.985273 16.375 1.0158 16.4955 1.00856 16.6247C0.916888 16.6247 0.82522 16.6247 0.733552 16.6247C0.625109 17.4127 0.655726 18.1955 0.82522 18.9733C0.179328 19.1442 0.0876597 19.0387 0.550216 18.6572C-0.0484673 18.4448 -0.0178501 18.3093 0.641884 18.2507C0.618784 17.8501 0.420139 17.7296 0.0460425 17.8894C-0.0280253 17.7016 -0.0127167 17.5209 0.0918765 17.3474C0.107368 17.4284 0.137894 17.5187 0.183544 17.6184C0.304179 17.39 0.411156 17.39 0.504382 17.6184C0.551133 17.3114 0.581658 17.0103 0.59605 16.715C0.463682 16.8645 0.295563 16.9248 0.0918765 16.8957C0.0774846 16.7717 0.0927931 16.6512 0.13771 16.5344C0.348638 16.5164 0.547191 16.4712 0.733552 16.3989C0.855746 16.3086 0.855746 16.2182 0.733552 16.1279C0.867021 16.0897 0.912855 16.0144 0.871054 15.9021C0.55205 16.181 0.399239 16.1208 0.412714 15.7214C0.5724 15.498 0.740427 15.498 0.916888 15.7214C1.10022 15.7214 1.19189 15.6311 1.19189 15.4504C1.15642 15.2902 1.09537 15.1396 1.00856 14.9987C1.18282 14.9327 1.36615 14.9327 1.55856 14.9987Z" fill="#D8D4CF"/>
</g>
<g id="Group_72">
<path id="Vector_72" fill-rule="evenodd" clip-rule="evenodd" d="M43.6348 18.3405C42.8265 18.4302 42.0015 18.4603 41.1598 18.4308C41.1598 17.5576 41.1598 16.6844 41.1598 15.8112C41.0681 15.8112 40.9764 15.8112 40.8848 15.8112C40.9377 15.6168 41.0446 15.5867 41.2056 15.7208C41.2514 16.5935 41.2667 17.4668 41.2514 18.3405C42.0459 18.3405 42.8403 18.3405 43.6348 18.3405Z" fill="#67636A"/>
</g>
<g id="Group_73">
<path id="Vector_73" fill-rule="evenodd" clip-rule="evenodd" d="M40.5168 15.8125C40.5461 16.7684 40.5156 17.7169 40.4251 18.658C39.1116 18.7032 37.7976 18.7182 36.4834 18.7032C36.3109 18.638 36.2804 18.5477 36.3917 18.4322C36.9287 18.4612 37.4482 18.4312 37.9501 18.3418C38.1153 17.6154 38.2069 17.6456 38.2251 18.4322C38.8973 18.4322 39.5696 18.4322 40.2418 18.4322C40.2418 17.5589 40.2418 16.6858 40.2418 15.8125C40.3195 15.7109 40.4112 15.7109 40.5168 15.8125Z" fill="#B09A75"/>
</g>
<g id="Group_74">
<path id="Vector_74" fill-rule="evenodd" clip-rule="evenodd" d="M52.4344 18.3403C52.3733 17.5416 52.3123 16.7286 52.2511 15.9013C52.1595 16.8027 52.129 17.706 52.1594 18.6113C52.0532 17.6937 52.038 16.7602 52.1136 15.811C52.2053 15.6906 52.2969 15.6906 52.3886 15.811C52.4344 16.6535 52.4497 17.4967 52.4344 18.3403Z" fill="#9E8E81"/>
</g>
<g id="Group_75">
<path id="Vector_75" fill-rule="evenodd" clip-rule="evenodd" d="M58.4849 15.8113C58.3932 15.8113 58.3016 15.8113 58.2099 15.8113C58.2099 16.6845 58.2099 17.5577 58.2099 18.4309C57.9654 18.4309 57.721 18.4309 57.4766 18.4309C57.4766 17.8287 57.4766 17.2265 57.4766 16.6243C57.5673 17.1794 57.5978 17.7514 57.5682 18.3406C57.7516 18.3406 57.9349 18.3406 58.1182 18.3406C58.1182 17.4674 58.1182 16.5942 58.1182 15.721C58.2648 15.6968 58.387 15.7269 58.4849 15.8113Z" fill="#4C4C5F"/>
</g>
<g id="Group_76">
<path id="Vector_76" fill-rule="evenodd" clip-rule="evenodd" d="M37.4014 16.6252C37.6869 16.6302 37.9008 16.7506 38.0431 16.9866C38.1089 17.1344 38.1242 17.2849 38.089 17.4382C38.0538 17.388 38.008 17.3579 37.9514 17.3479C37.9514 17.2876 37.9209 17.2576 37.8598 17.2576C37.7609 17.073 37.6081 16.9526 37.4014 16.8962C37.2 16.8362 36.9861 16.7759 36.7598 16.7156C36.9654 16.6276 37.1792 16.5974 37.4014 16.6252Z" fill="#B09A71"/>
</g>
<g id="Group_77">
<path id="Vector_77" fill-rule="evenodd" clip-rule="evenodd" d="M34.468 16.625C35.4912 16.4645 35.9801 16.8861 35.9347 17.8896C35.9325 18.1535 35.902 18.4094 35.843 18.6574C34.4507 18.9891 33.8548 18.4622 34.0555 17.0766C34.212 16.9378 34.3495 16.7872 34.468 16.625Z" fill="#AC9872"/>
</g>
<g id="Group_78">
<path id="Vector_78" fill-rule="evenodd" clip-rule="evenodd" d="M37.4013 16.6237C37.1791 16.5959 36.9652 16.626 36.7596 16.714C36.986 16.7744 37.1998 16.8346 37.4013 16.8947C37.1568 16.8947 36.9124 16.8947 36.668 16.8947C36.668 16.7743 36.668 16.6538 36.668 16.5334C36.9324 16.5057 37.1769 16.5358 37.4013 16.6237Z" fill="#948D8D"/>
</g>
<g id="Group_79">
<path id="Vector_79" fill-rule="evenodd" clip-rule="evenodd" d="M48.6759 18.4321C48.6057 18.0221 48.5294 17.6005 48.4467 17.1675C48.3452 17.058 48.2994 17.0881 48.3092 17.2578C47.9159 16.8337 47.5034 16.8036 47.0717 17.1675C46.9545 17.6333 47.0614 18.0247 47.3925 18.3418C47.2961 18.3283 47.2044 18.3433 47.1175 18.387C47.1983 18.4509 47.2593 18.5263 47.3008 18.6128C46.8558 18.3999 46.6419 18.0386 46.6592 17.5288C46.7831 16.6726 47.272 16.3865 48.1259 16.6707C48.6308 17.1471 48.8141 17.7342 48.6759 18.4321Z" fill="#A49072"/>
</g>
<g id="Group_80">
<path id="Vector_80" fill-rule="evenodd" clip-rule="evenodd" d="M40.2429 15.8125C40.2429 16.6857 40.2429 17.5589 40.2429 18.4321C39.5707 18.4321 38.8984 18.4321 38.2262 18.4321C38.208 17.6455 38.1164 17.6153 37.9512 18.3418C37.9512 18.0105 37.9512 17.6794 37.9512 17.3481C38.0077 17.3582 38.0536 17.3882 38.0887 17.4385C38.1239 17.2852 38.1087 17.1347 38.0428 16.9868C38.1307 17.0277 38.2071 17.0879 38.272 17.1675C38.3178 17.5578 38.3331 17.9492 38.3178 18.3418C38.929 18.3418 39.5401 18.3418 40.1512 18.3418C40.1212 17.4823 40.1518 16.6392 40.2429 15.8125Z" fill="#958677"/>
</g>
<g id="Group_81">
<path id="Vector_81" fill-rule="evenodd" clip-rule="evenodd" d="M48.3089 17.2564C48.3089 17.6478 48.3089 18.0393 48.3089 18.4308C47.9842 18.459 47.6786 18.4289 47.3922 18.3404C47.0611 18.0234 46.9542 17.6319 47.0713 17.1661C47.5031 16.8023 47.9156 16.8323 48.3089 17.2564Z" fill="#2A2C41"/>
</g>
<g id="Group_82">
<path id="Vector_82" fill-rule="evenodd" clip-rule="evenodd" d="M65.8176 17.7089C63.7695 17.6788 61.7222 17.7089 59.6758 17.7992C59.7091 17.8609 59.7396 17.9212 59.7675 17.9799C59.6139 17.9182 59.5527 17.7977 59.5842 17.6186C61.6778 17.5887 63.7556 17.6189 65.8176 17.7089Z" fill="#4C4D62"/>
</g>
<g id="Group_83">
<path id="Vector_83" fill-rule="evenodd" clip-rule="evenodd" d="M5.40878 15.1797C5.38476 15.3132 5.41529 15.4336 5.50045 15.541C6.15798 15.8737 6.60101 16.3856 6.82963 17.0767C6.90581 17.7411 6.89059 18.4035 6.7838 19.0639C6.73008 19.0451 6.68425 19.0149 6.6463 18.9736C6.6122 19.4946 6.38303 19.6152 5.95879 19.3349C6.0521 19.2128 6.1743 19.1225 6.32546 19.0639C5.98665 18.9345 5.66581 18.9646 5.36294 19.1543C5.27128 19.0639 5.17961 18.9736 5.08794 18.8833C5.0268 18.9736 5.0268 19.0639 5.08794 19.1543C5.33517 19.3839 5.53372 19.5946 5.68378 19.7866C4.16283 20.1814 3.09334 19.6545 2.4754 18.2058C2.21259 18.1334 1.96811 18.1485 1.74206 18.251C1.69228 18.2455 1.66176 18.2155 1.65039 18.1606C1.91879 18.0717 2.1938 18.0417 2.4754 18.0703C2.49594 17.738 2.52655 17.4067 2.56707 17.0767C2.36219 17.1033 2.17886 17.0731 2.01706 16.9863C2.20874 17.0028 2.39208 16.9726 2.56707 16.896C2.79624 16.5518 2.97958 16.1905 3.11708 15.812C3.38108 15.7723 3.62547 15.6819 3.85042 15.541C3.85831 15.631 3.82769 15.7062 3.75875 15.7668C3.5052 15.8994 3.27603 16.0649 3.07124 16.2637C2.77846 16.8339 2.68679 17.4361 2.79624 18.0703C2.88782 18.4036 3.08637 18.6445 3.39208 18.793C3.82906 18.992 4.2874 19.1727 4.7671 19.3349C4.85565 19.1637 4.88618 18.983 4.85877 18.793C4.47679 18.6438 4.15595 18.4029 3.89626 18.0703C3.86628 17.4277 3.85106 16.7954 3.85042 16.1733C3.95373 16.2295 4.0454 16.3048 4.12543 16.3992C4.4943 16.4441 4.86097 16.4291 5.22544 16.354C5.22728 16.2056 5.16613 16.0852 5.04211 15.9927C5.11773 15.9126 5.2094 15.8826 5.31711 15.9023C5.28906 15.6417 5.31958 15.4008 5.40878 15.1797Z" fill="#D9BA7E"/>
</g>
<g id="Group_84">
<path id="Vector_84" fill-rule="evenodd" clip-rule="evenodd" d="M3.85036 16.1724C3.851 16.7944 3.86622 17.4267 3.8962 18.0693C4.15589 18.4019 4.47673 18.6428 4.85871 18.792C4.88612 18.982 4.85559 19.1627 4.76704 19.334C4.28734 19.1717 3.829 18.9911 3.39202 18.792C3.39202 18.5511 3.39202 18.3102 3.39202 18.0693C3.30035 18.0693 3.20869 18.0693 3.11702 18.0693C3.1018 17.7067 3.11711 17.3454 3.16285 16.9853C3.30558 16.6994 3.38194 16.3982 3.39202 16.082C3.54932 16.0937 3.70214 16.1238 3.85036 16.1724Z" fill="#DCC391"/>
</g>
<g id="Group_85">
<path id="Vector_85" fill-rule="evenodd" clip-rule="evenodd" d="M27.5 17.709C29.5472 17.709 31.5945 17.709 33.6418 17.709C33.6418 17.7993 33.6418 17.8896 33.6418 17.98C31.5945 17.98 29.5472 17.98 27.5 17.98C27.5 17.8896 27.5 17.7993 27.5 17.709Z" fill="#B0997B"/>
</g>
<g id="Group_86">
<path id="Vector_86" fill-rule="evenodd" clip-rule="evenodd" d="M65.8175 17.7085C65.8175 17.7989 65.8175 17.8892 65.8175 17.9795C63.8314 17.9795 61.8453 17.9795 59.8591 17.9795C59.8286 17.9795 59.798 17.9795 59.7674 17.9795C59.7396 17.9208 59.7091 17.8606 59.6758 17.7989C61.7221 17.7085 63.7694 17.6785 65.8175 17.7085Z" fill="#B1997B"/>
</g>
<g id="Group_87">
<path id="Vector_87" fill-rule="evenodd" clip-rule="evenodd" d="M14.8496 13.3731C14.9405 13.3576 15.0016 13.3877 15.0329 13.4634C14.9724 17.3188 15.0334 21.1428 15.2163 24.9355C15.1622 25.0499 15.1164 25.1703 15.0788 25.2969C15.0483 25.2668 15.0176 25.2366 14.9871 25.2065C14.9713 21.2556 14.9255 17.3112 14.8496 13.3731Z" fill="#585662"/>
</g>
<g id="Group_88">
<path id="Vector_88" fill-rule="evenodd" clip-rule="evenodd" d="M35.2922 16.9863C35.4456 17.0625 35.5525 17.1829 35.613 17.3477C35.6588 17.7077 35.6741 18.069 35.6589 18.4316C35.3342 18.4599 35.0286 18.4297 34.7422 18.3413C35.0172 18.3413 35.2922 18.3413 35.5672 18.3413C35.615 17.8584 35.5233 17.4067 35.2922 16.9863Z" fill="#5D5C73"/>
</g>
<g id="Group_89">
<path id="Vector_89" fill-rule="evenodd" clip-rule="evenodd" d="M65.8178 17.709C66.0248 17.7338 66.0554 17.8242 65.9095 17.98C63.8778 18.0999 61.8611 18.0999 59.8594 17.98C61.8455 17.98 63.8316 17.98 65.8178 17.98C65.8178 17.8896 65.8178 17.7993 65.8178 17.709Z" fill="#474955"/>
</g>
<g id="Group_90">
<path id="Vector_90" fill-rule="evenodd" clip-rule="evenodd" d="M35.2923 16.9869C35.5234 17.4073 35.6151 17.8589 35.5673 18.3418C35.2923 18.3418 35.0173 18.3418 34.7423 18.3418C34.5234 18.2769 34.3859 18.1264 34.3298 17.8902C34.1974 17.102 34.5182 16.8009 35.2923 16.9869Z" fill="#2A2C41"/>
</g>
<g id="Group_91">
<path id="Vector_91" fill-rule="evenodd" clip-rule="evenodd" d="M58.9434 15.7219C59.0347 15.7141 59.1111 15.7443 59.1726 15.8122C59.2184 16.7753 59.2338 17.7388 59.2184 18.7028C59.0696 18.7155 58.9627 18.6552 58.8976 18.5222C58.8235 17.5818 58.8388 16.6484 58.9434 15.7219Z" fill="#A0927A"/>
</g>
<g id="Group_92">
<path id="Vector_92" fill-rule="evenodd" clip-rule="evenodd" d="M37.8593 17.2578C37.9204 17.2578 37.9509 17.2879 37.9509 17.3481C37.9509 17.6794 37.9509 18.0105 37.9509 18.3418C37.4491 18.4311 36.9296 18.4612 36.3926 18.4321C36.8638 18.3429 37.3527 18.3128 37.8593 18.3418C37.8593 17.9805 37.8593 17.6191 37.8593 17.2578Z" fill="#625B68"/>
</g>
<g id="Group_93">
<path id="Vector_93" fill-rule="evenodd" clip-rule="evenodd" d="M3.66673 13.7344C3.69726 13.7344 3.72788 13.7344 3.7584 13.7344C3.77756 13.9344 3.7012 14.085 3.52923 14.186C3.36735 14.1198 3.19932 14.0896 3.02506 14.0957C3.04064 14.2151 3.01012 14.3205 2.93339 14.4119C2.9663 14.6494 3.05797 14.8452 3.20839 14.999C2.69129 15.313 2.27879 15.7346 1.97088 16.2637C1.78176 16.5208 1.79698 16.7617 2.01671 16.9863C2.1785 17.0731 2.36184 17.1033 2.56672 17.0766C2.5262 17.4067 2.49558 17.738 2.47505 18.0703C2.19345 18.0417 1.91844 18.0717 1.65004 18.1606C1.6614 18.2155 1.69193 18.2455 1.74171 18.251C1.77223 18.4316 1.80285 18.6123 1.83337 18.7929C1.71851 19.1158 1.5657 19.432 1.37503 19.7414C1.48944 19.9287 1.5811 20.1243 1.65004 20.3286C1.40263 20.1231 1.20398 20.1833 1.0542 20.5092C1.02367 20.4792 0.993053 20.449 0.962528 20.4189C1.02761 20.2635 1.13459 20.113 1.28337 19.9673C1.11222 19.641 0.959411 19.3097 0.825026 18.9736C0.655532 18.1958 0.624915 17.4129 0.733358 16.625C0.825026 16.625 0.916694 16.625 1.00836 16.625C1.0156 16.4958 0.985078 16.3753 0.916694 16.2637C1.16246 15.8529 1.37632 15.4314 1.55837 14.999C1.69349 14.9145 1.78516 14.794 1.83337 14.6377C1.89452 14.6377 1.92504 14.6076 1.92504 14.5474C2.06667 14.4814 2.14303 14.361 2.15421 14.186C2.34836 14.298 2.51639 14.2678 2.65839 14.0957C2.71953 14.0957 2.75005 14.0656 2.75005 14.0054C3.03697 13.8646 3.3425 13.7743 3.66673 13.7344Z" fill="#E9D19C"/>
</g>
<g id="Group_94">
<path id="Vector_94" fill-rule="evenodd" clip-rule="evenodd" d="M5.50057 14.8184C5.68638 15.2118 5.99201 15.4828 6.41725 15.6313C6.70372 15.9585 6.93289 16.3199 7.10476 16.7153C7.17865 17.2197 7.16334 17.7166 7.05893 18.2058C7.21651 18.3013 7.38463 18.3765 7.5631 18.4316C7.48638 18.997 7.62388 19.5089 7.97561 19.9673C7.83444 20.0605 7.78861 20.1809 7.83811 20.3286C7.86634 20.2556 7.91217 20.1953 7.97561 20.1479C8.17875 20.3224 8.39261 20.4729 8.61728 20.5996C8.86864 20.787 9.08259 20.9979 9.25896 21.2319C9.25025 21.4823 9.12797 21.663 8.89229 21.7739C8.77853 21.5351 8.59519 21.4598 8.34228 21.5481C8.48235 21.7755 8.45173 21.9713 8.25061 22.1352C8.02538 21.9996 8.02538 21.8491 8.25061 21.6836C8.20478 21.6535 8.15895 21.6233 8.11311 21.5932C7.99394 21.7023 7.85644 21.7625 7.70061 21.7739C7.42743 21.5351 7.15243 21.2941 6.87559 21.0512C6.75093 21.1127 6.62873 21.1729 6.50892 21.2319C6.54898 21.0897 6.64065 20.9843 6.78393 20.9157C6.60059 20.7351 6.41725 20.5544 6.23392 20.3738C5.6939 20.4646 5.14389 20.54 4.58389 20.5996C3.33098 20.4942 2.4143 19.8919 1.83386 18.793C1.80333 18.6123 1.77271 18.4316 1.74219 18.251C1.96824 18.1485 2.21272 18.1334 2.47553 18.2058C3.09346 19.6545 4.16296 20.1814 5.68391 19.7866C5.53385 19.5946 5.3353 19.3839 5.08807 19.1543C5.02693 19.0639 5.02693 18.9736 5.08807 18.8833C5.17974 18.9736 5.2714 19.0639 5.36307 19.1543C5.66594 18.9646 5.98678 18.9345 6.32559 19.0639C6.17443 19.1225 6.05223 19.2128 5.95891 19.3349C6.38315 19.6151 6.61232 19.4946 6.64642 18.9736C6.68437 19.0149 6.73021 19.0451 6.78393 19.0639C6.89072 18.4035 6.90594 17.7411 6.82976 17.0766C6.60114 16.3856 6.15811 15.8737 5.50057 15.541C5.41541 15.4336 5.38489 15.3132 5.40891 15.1797C5.38434 15.0352 5.41496 14.9148 5.50057 14.8184Z" fill="#CBAB74"/>
</g>
<g id="Group_95">
<path id="Vector_95" fill-rule="evenodd" clip-rule="evenodd" d="M47.3922 18.6123C47.3617 18.6123 47.331 18.6123 47.3005 18.6123C47.259 18.5258 47.1979 18.4504 47.1172 18.3865C47.2041 18.3428 47.2958 18.3278 47.3922 18.3413C47.6787 18.4297 47.9842 18.4599 48.3089 18.4316C48.3089 18.0402 48.3089 17.6487 48.3089 17.2573C48.2991 17.0876 48.3449 17.0575 48.4464 17.167C48.5291 17.6 48.6054 18.0216 48.6755 18.4316C49.5617 18.4316 50.4478 18.4316 51.3339 18.4316C51.3821 17.5899 51.4586 16.7469 51.5631 15.9023C51.6089 16.8051 51.6241 17.7084 51.6089 18.6123C50.2034 18.6123 48.7977 18.6123 47.3922 18.6123Z" fill="#B39A6F"/>
</g>
<g id="Group_96">
<path id="Vector_96" fill-rule="evenodd" clip-rule="evenodd" d="M40.8848 18.522C40.8848 17.6187 40.8848 16.7154 40.8848 15.8121C40.9764 15.8121 41.0681 15.8121 41.1598 15.8121C41.1598 16.6853 41.1598 17.5585 41.1598 18.4317C42.0015 18.4612 42.8265 18.4311 43.6348 18.3414C43.65 17.9788 43.6347 17.6174 43.589 17.2574C43.5126 17.1821 43.4362 17.1068 43.3598 17.0315C42.8824 16.9054 42.3935 16.8602 41.8931 16.8961C41.8931 16.8057 41.8931 16.7154 41.8931 16.6251C42.3515 16.6251 42.8098 16.6251 43.2681 16.6251C43.6994 16.7787 43.9133 17.0798 43.9098 17.5284C43.9098 17.8294 43.9098 18.1306 43.9098 18.4317C44.1543 18.4317 44.3987 18.4317 44.6432 18.4317C44.6432 17.5585 44.6432 16.6853 44.6432 15.8121C44.7387 15.6955 44.8456 15.6955 44.964 15.8121C45.0391 16.7675 45.0238 17.716 44.9182 18.6575C44.246 18.6726 43.5737 18.6876 42.9015 18.7027C42.1958 18.7024 41.5235 18.6423 40.8848 18.522Z" fill="#AD9770"/>
</g>
<g id="Group_97">
<path id="Vector_97" fill-rule="evenodd" clip-rule="evenodd" d="M44.6415 15.8125C44.6415 16.6857 44.6415 17.5589 44.6415 18.4321C44.3971 18.4321 44.1527 18.4321 43.9082 18.4321C43.9082 18.131 43.9082 17.8299 43.9082 17.5288C43.9976 17.7827 44.0587 18.0537 44.0915 18.3418C44.2443 18.3418 44.3971 18.3418 44.5499 18.3418C44.5199 17.4823 44.5504 16.6392 44.6415 15.8125Z" fill="#544F5F"/>
</g>
<g id="Group_98">
<path id="Vector_98" fill-rule="evenodd" clip-rule="evenodd" d="M42.9926 16.0828C42.9009 16.0828 42.8093 16.0828 42.7176 16.0828C42.7282 16.4498 42.8504 16.5101 43.0843 16.2635C43.1617 16.3692 43.2228 16.4897 43.2676 16.6248C42.8093 16.6248 42.3509 16.6248 41.8926 16.6248C42.1069 16.4857 42.3514 16.4255 42.6259 16.4441C42.6259 16.2935 42.6259 16.143 42.6259 15.9925C42.7725 15.9683 42.8947 15.9984 42.9926 16.0828Z" fill="#57576B"/>
</g>
<g id="Group_99">
<path id="Vector_99" fill-rule="evenodd" clip-rule="evenodd" d="M42.9918 16.082C43.0686 16.1129 43.0992 16.1731 43.0835 16.2627C42.8496 16.5093 42.7274 16.449 42.7168 16.082C42.8085 16.082 42.9001 16.082 42.9918 16.082Z" fill="#A09286"/>
</g>
<g id="Group_100">
<path id="Vector_100" fill-rule="evenodd" clip-rule="evenodd" d="M52.4348 18.3413C52.6903 18.4296 52.9653 18.4596 53.2598 18.4316C53.2598 17.8294 53.2598 17.2272 53.2598 16.625C53.3515 16.625 53.4432 16.625 53.5349 16.625C53.5349 17.2272 53.5349 17.8294 53.5349 18.4316C53.8099 18.4316 54.0849 18.4316 54.3599 18.4316C54.3599 17.8294 54.3599 17.2272 54.3599 16.625C54.4821 16.625 54.6043 16.625 54.7265 16.625C54.7265 17.2272 54.7265 17.8294 54.7265 18.4316C54.971 18.4316 55.2154 18.4316 55.4599 18.4316C55.4599 17.8294 55.4599 17.2272 55.4599 16.625C55.5515 16.625 55.6432 16.625 55.7349 16.625C55.7349 17.3176 55.7349 18.0101 55.7349 18.7026C54.5737 18.7026 53.4127 18.7026 52.2515 18.7026C52.1904 18.7026 52.1598 18.6725 52.1598 18.6123C52.1294 17.707 52.1599 16.8037 52.2515 15.9023C52.3126 16.7296 52.3737 17.5426 52.4348 18.3413Z" fill="#AD9772"/>
</g>
<g id="Group_101">
<path id="Vector_101" fill-rule="evenodd" clip-rule="evenodd" d="M53.5352 16.625C53.6259 17.1801 53.6564 17.7522 53.6268 18.3413C53.8407 18.3413 54.0546 18.3413 54.2685 18.3413C54.2389 17.7522 54.2694 17.1801 54.3602 16.625C54.3602 17.2272 54.3602 17.8294 54.3602 18.4316C54.0852 18.4316 53.8102 18.4316 53.5352 18.4316C53.5352 17.8294 53.5352 17.2272 53.5352 16.625Z" fill="#555360"/>
</g>
<g id="Group_102">
<path id="Vector_102" fill-rule="evenodd" clip-rule="evenodd" d="M58.4837 15.8125C58.59 16.7301 58.6052 17.6636 58.5296 18.6128C58.1568 18.6999 57.7749 18.7299 57.3837 18.7031C57.397 19.0687 57.2442 19.3397 56.9254 19.5161C56.6969 19.5494 56.6357 19.4893 56.742 19.3354C56.869 19.2384 56.9759 19.118 57.0629 18.9741C57.1087 18.1918 57.1239 17.4089 57.1087 16.6255C57.2309 16.6255 57.3532 16.6255 57.4754 16.6255C57.4754 17.2277 57.4754 17.8299 57.4754 18.4321C57.7199 18.4321 57.9643 18.4321 58.2087 18.4321C58.2087 17.5589 58.2087 16.6857 58.2087 15.8125C58.3004 15.8125 58.3921 15.8125 58.4837 15.8125Z" fill="#A79270"/>
</g>
<g id="Group_103">
<path id="Vector_103" fill-rule="evenodd" clip-rule="evenodd" d="M47.3926 18.6113C48.7981 18.6113 50.2038 18.6113 51.6093 18.6113C51.6245 17.7074 51.6093 16.8041 51.5635 15.9014C51.459 16.7459 51.3825 17.5889 51.3343 18.4306C51.3191 17.557 51.3343 16.6837 51.3801 15.811C51.4728 15.7354 51.5798 15.7053 51.701 15.7207C51.701 16.7143 51.701 17.708 51.701 18.7016C50.2488 18.7314 48.8126 18.7013 47.3926 18.6113Z" fill="#9F9080"/>
</g>
<g id="Group_104">
<path id="Vector_104" fill-rule="evenodd" clip-rule="evenodd" d="M40.5178 15.8125C40.5784 15.9225 40.6395 16.0429 40.7011 16.1738C40.7627 16.0429 40.8238 15.9225 40.8844 15.8125C40.8844 16.7158 40.8844 17.6191 40.8844 18.5224C40.8233 17.874 40.7622 17.2116 40.7011 16.5352C40.6387 17.2781 40.5776 18.0158 40.5178 18.7483C39.1575 18.8231 37.813 18.808 36.4844 18.7031C37.7986 18.7182 39.1126 18.7031 40.4261 18.6579C40.5166 17.7169 40.5471 16.7684 40.5178 15.8125Z" fill="#4C495A"/>
</g>
<g id="Group_105">
<path id="Vector_105" fill-rule="evenodd" clip-rule="evenodd" d="M55.7334 16.625C55.8243 17.331 55.8549 18.0537 55.8251 18.793C54.6171 18.8227 53.4255 18.7925 52.25 18.7026C53.4112 18.7026 54.5722 18.7026 55.7334 18.7026C55.7334 18.0101 55.7334 17.3176 55.7334 16.625Z" fill="#595261"/>
</g>
<g id="Group_106">
<path id="Vector_106" fill-rule="evenodd" clip-rule="evenodd" d="M13.5679 13.6445C13.5525 15.3611 13.5679 17.0774 13.6137 18.7934C13.6442 18.2514 13.6748 17.7095 13.7054 17.1675C13.7153 17.579 13.807 17.9704 13.9804 18.3418C13.9989 18.1832 14.0447 18.0327 14.1179 17.8901C14.2205 18.0105 14.3427 18.0557 14.4845 18.0256C14.454 17.9955 14.4234 17.9654 14.3929 17.9353C14.4518 17.5031 14.5129 17.0666 14.5762 16.6255C14.6272 17.6067 14.7188 18.5702 14.8512 19.5161C14.8512 20.9614 14.8512 22.4067 14.8512 23.852C14.7553 22.6027 14.679 21.3381 14.622 20.0581C14.5274 20.8052 14.4358 21.558 14.347 22.3164C14.3012 21.5943 14.286 20.8717 14.3012 20.1484C14.1506 20.1502 14.0284 20.09 13.9345 19.9677C13.8614 20.1103 13.8155 20.2608 13.797 20.4194C13.7665 20.1183 13.7359 19.8172 13.7054 19.5161C13.6898 20.4954 13.6439 21.4589 13.5679 22.4067C13.5978 21.5773 13.5672 20.7643 13.4762 19.9677C13.4458 17.8444 13.4764 15.7367 13.5679 13.6445Z" fill="#D2B277"/>
</g>
<g id="Group_107">
<path id="Vector_107" fill-rule="evenodd" clip-rule="evenodd" d="M56.7427 19.335C56.6364 19.4888 56.6975 19.549 56.9261 19.5156C56.8877 19.5809 56.8267 19.626 56.7427 19.6511C56.4677 19.7114 56.1927 19.7114 55.9177 19.6511C55.8392 19.5889 55.7781 19.5137 55.7344 19.4253C56.065 19.336 56.4012 19.3058 56.7427 19.335Z" fill="#A08E7A"/>
</g>
<g id="Group_108">
<path id="Vector_108" fill-rule="evenodd" clip-rule="evenodd" d="M20.9921 21.4116C20.9004 21.4116 20.8087 21.4116 20.7171 21.4116C20.7171 21.3213 20.7171 21.231 20.7171 21.1406C20.3354 21.1084 20.0451 21.259 19.8462 21.5923C19.7211 21.4936 19.6905 21.3731 19.7546 21.231C19.8696 21.1667 19.9765 21.0915 20.0754 21.0051C19.8921 20.9751 19.7087 20.9449 19.5254 20.9148C20.095 20.6756 20.5534 20.2993 20.9004 19.7857C20.9746 19.6437 21.0052 19.4932 20.9921 19.334C21.5606 18.6683 22.2023 18.0812 22.9171 17.5725C23.2533 17.5123 23.5893 17.5123 23.9255 17.5725C24.1616 17.6432 24.3449 17.7787 24.4755 17.979C23.3455 19.1528 22.1843 20.297 20.9921 21.4116Z" fill="#D1B279"/>
</g>
<g id="Group_109">
<path id="Vector_109" fill-rule="evenodd" clip-rule="evenodd" d="M1.83334 18.793C2.41378 19.8919 3.33046 20.4942 4.58338 20.5996C5.14338 20.54 5.69339 20.4646 6.2334 20.3738C6.41674 20.5544 6.60007 20.7351 6.78341 20.9158C6.64013 20.9843 6.54847 21.0897 6.50841 21.2319C6.44726 21.2319 6.41674 21.262 6.41674 21.3223C6.3258 21.3067 6.26475 21.3369 6.2334 21.4126C5.95079 21.4502 5.67579 21.5104 5.40839 21.5932C5.31746 21.5777 5.25641 21.6079 5.22506 21.6836C5.04172 21.6836 4.85838 21.6836 4.67505 21.6836C4.6139 21.6836 4.55285 21.6836 4.49171 21.6836C4.24723 21.6535 4.00285 21.6233 3.75837 21.5932C3.63718 21.6086 3.53021 21.5785 3.43753 21.5029C3.41205 21.5857 3.36621 21.6458 3.30003 21.6836C3.30113 21.4449 3.17893 21.3245 2.93336 21.3223C2.77605 21.1845 2.59272 21.0942 2.38335 21.0513C2.35282 20.9609 2.29168 20.9007 2.20001 20.8706C2.20001 20.7803 2.20001 20.6899 2.20001 20.5996C1.98386 20.6219 1.80052 20.5618 1.65 20.4189C1.65 20.3889 1.65 20.3587 1.65 20.3286C1.58107 20.1244 1.4894 19.9287 1.375 19.7415C1.56567 19.432 1.71848 19.1158 1.83334 18.793Z" fill="#E6C68B"/>
</g>
<g id="Group_110">
<path id="Vector_110" fill-rule="evenodd" clip-rule="evenodd" d="M13.6597 13.2832C13.6658 13.415 13.6353 13.5354 13.568 13.6445C13.4765 15.7367 13.446 17.8444 13.4763 19.9677C13.5066 21.6998 13.476 23.4161 13.3846 25.1166C13.3693 21.2624 13.3846 17.4082 13.4305 13.5542C13.465 13.4239 13.5414 13.3336 13.6597 13.2832Z" fill="#C2B29E"/>
</g>
<g id="Group_111">
<path id="Vector_111" fill-rule="evenodd" clip-rule="evenodd" d="M1.65026 20.418C1.80078 20.5608 1.98412 20.6209 2.20027 20.5986C2.20027 20.689 2.20027 20.7793 2.20027 20.8696C1.98888 20.9142 1.77502 20.9442 1.55859 20.96C1.58912 20.7793 1.61974 20.5986 1.65026 20.418Z" fill="#D0CCC7"/>
</g>
<g id="Group_112">
<path id="Vector_112" fill-rule="evenodd" clip-rule="evenodd" d="M13.6597 13.1914C13.6597 13.2215 13.6597 13.2517 13.6597 13.2817C13.5415 13.3321 13.4651 13.4225 13.4305 13.5527C13.3847 17.4067 13.3694 21.2609 13.3847 25.1152C13.3907 25.1547 13.3754 25.1849 13.3389 25.2055C13.2436 25.1383 13.1978 25.048 13.2014 24.9345C13.2777 21.0956 13.3236 17.2414 13.3389 13.3721C13.4137 13.2526 13.5206 13.1924 13.6597 13.1914Z" fill="#4C4853"/>
</g>
<g id="Group_113">
<path id="Vector_113" fill-rule="evenodd" clip-rule="evenodd" d="M2.3838 21.2324C2.38737 21.3459 2.34154 21.4362 2.24629 21.5034C2.19267 21.3681 2.2385 21.2778 2.3838 21.2324Z" fill="#CAD0E8"/>
</g>
<g id="Group_114">
<path id="Vector_114" fill-rule="evenodd" clip-rule="evenodd" d="M2.38281 21.0508C2.59218 21.0937 2.77552 21.184 2.93282 21.3218C2.85765 21.4699 2.78129 21.6205 2.70365 21.7734C2.60447 21.5821 2.49749 21.4014 2.38281 21.2314C2.38281 21.1712 2.38281 21.111 2.38281 21.0508Z" fill="#C1C5CA"/>
</g>
<g id="Group_115">
<path id="Vector_115" fill-rule="evenodd" clip-rule="evenodd" d="M6.41745 21.3223C6.44046 21.4732 6.5016 21.6087 6.60079 21.7288C6.44101 21.9153 6.25768 21.9604 6.05078 21.8643C6.40471 21.7651 6.40471 21.6899 6.05078 21.6385C6.13154 21.5745 6.19259 21.4992 6.23412 21.4127C6.26547 21.337 6.32652 21.3068 6.41745 21.3223Z" fill="#D6DDE3"/>
</g>
<g id="Group_116">
<path id="Vector_116" fill-rule="evenodd" clip-rule="evenodd" d="M3.75803 21.5923C3.75803 21.7729 3.75803 21.9536 3.75803 22.1343C3.5923 22.1351 3.43949 22.0899 3.2997 21.9988C3.18135 21.8821 3.18135 21.7767 3.2997 21.6826C3.36588 21.6449 3.41171 21.5847 3.4372 21.502C3.52987 21.5776 3.63685 21.6076 3.75803 21.5923Z" fill="#D4D8DF"/>
</g>
<g id="Group_117">
<path id="Vector_117" fill-rule="evenodd" clip-rule="evenodd" d="M5.40795 21.5919C5.38182 21.7534 5.41235 21.9039 5.49961 22.0435C5.58175 21.9526 5.6428 21.9526 5.68295 22.0435C5.54132 22.1295 5.38851 22.1596 5.22461 22.1338C5.22461 21.9833 5.22461 21.8328 5.22461 21.6822C5.25596 21.6065 5.31701 21.5763 5.40795 21.5919Z" fill="#DCE4ED"/>
</g>
<g id="Group_118">
<path id="Vector_118" fill-rule="evenodd" clip-rule="evenodd" d="M4.49167 21.6836C4.55281 21.6836 4.61387 21.6836 4.67501 21.6836C4.6531 21.8613 4.68362 22.0269 4.76668 22.1804C4.53265 22.2573 4.31879 22.2272 4.125 22.0901C4.24353 22.0458 4.36581 22.0307 4.49167 22.0449C4.49167 21.9245 4.49167 21.804 4.49167 21.6836Z" fill="#DADEE7"/>
</g>
<g id="Group_119">
<path id="Vector_119" fill-rule="evenodd" clip-rule="evenodd" d="M14.8496 23.8515C14.8647 24.1542 14.8494 24.4552 14.8038 24.7549C14.6816 24.3935 14.5593 24.3935 14.4371 24.7549C14.3565 24.4551 14.2801 24.154 14.2079 23.8515C14.1593 24.3285 14.1593 24.8102 14.2079 25.2968C14.1163 25.2968 14.0246 25.2968 13.9329 25.2968C13.8943 24.9626 13.8332 24.6314 13.7496 24.3032C13.6743 24.5694 13.6285 24.8404 13.6121 25.1162C13.5663 24.2134 13.551 23.3101 13.5663 22.4062C13.6423 21.4585 13.6882 20.4949 13.7038 19.5156C13.7343 19.8167 13.7649 20.1179 13.7954 20.4189C13.8139 20.2603 13.8598 20.1098 13.9329 19.9673C14.0268 20.0895 14.149 20.1498 14.2996 20.1479C14.2844 20.8712 14.2996 21.5939 14.3454 22.3159C14.4342 21.5576 14.5258 20.8047 14.6204 20.0576C14.6774 21.3376 14.7537 22.6023 14.8496 23.8515Z" fill="#C4A670"/>
</g>
<g id="Group_120">
<path id="Vector_120" fill-rule="evenodd" clip-rule="evenodd" d="M20.9912 19.334C21.0043 19.4931 20.9737 19.6437 20.8995 19.7856C20.5525 20.2993 20.0942 20.6756 19.5245 20.9148C19.7079 20.9449 19.8912 20.975 20.0745 21.0051C19.9756 21.0915 19.8687 21.1667 19.7537 21.2309C19.6896 21.3731 19.7202 21.4935 19.8454 21.5923C20.0442 21.259 20.3345 21.1084 20.7162 21.1406C20.7162 21.2309 20.7162 21.3213 20.7162 21.4116C20.8079 21.4116 20.8995 21.4116 20.9912 21.4116C20.4622 22.0018 19.9122 22.5739 19.3412 23.1279C19.1884 23.2483 19.0357 23.3688 18.8829 23.4892C18.6618 23.522 18.5243 23.4317 18.4703 23.2182C18.2939 23.3429 18.1258 23.4784 17.9662 23.6247C18.0772 23.7054 18.0772 23.7806 17.9662 23.8506C17.8745 23.8205 17.8134 23.7602 17.7828 23.6699C17.9863 23.4846 18.0474 23.2739 17.9662 23.0376C17.7992 23.1485 17.7076 23.299 17.6912 23.4892C17.4981 23.5054 17.3454 23.5957 17.2328 23.7602C17.3901 23.8051 17.5429 23.8353 17.6912 23.8506C17.2915 24.1843 16.9248 24.5456 16.5912 24.9345C16.5757 24.7885 16.545 24.6379 16.4995 24.4829C16.4056 24.6051 16.2834 24.6654 16.1328 24.6636C16.2094 24.4208 16.3469 24.2101 16.5453 24.0312C16.5758 24.1516 16.6065 24.2721 16.637 24.3926C16.805 24.242 16.9731 24.0915 17.1412 23.9409C17.0668 23.8762 17.0057 23.8009 16.9578 23.7151C17.1306 23.5201 17.2223 23.2943 17.2328 23.0376C18.455 21.7729 19.7079 20.5384 20.9912 19.334Z" fill="#C4A771"/>
</g>
<g id="Group_121">
<path id="Vector_121" fill-rule="evenodd" clip-rule="evenodd" d="M15.0344 13.4629C15.1007 17.29 15.1618 21.1141 15.2177 24.935C15.0348 21.1423 14.9738 17.3182 15.0344 13.4629Z" fill="#3A4683"/>
</g>
<g id="Group_122">
<path id="Vector_122" fill-rule="evenodd" clip-rule="evenodd" d="M19.3419 23.1289C19.0404 23.6701 18.6125 24.0917 18.0586 24.3935C18.3336 24.0925 18.6086 23.7913 18.8836 23.4902C19.0364 23.3698 19.1891 23.2493 19.3419 23.1289Z" fill="#535366"/>
</g>
<g id="Group_123">
<path id="Vector_123" fill-rule="evenodd" clip-rule="evenodd" d="M14.4846 13.1016C14.6068 13.1919 14.7291 13.2822 14.8513 13.3726C14.9272 17.3107 14.973 21.2551 14.9888 25.206C15.0193 25.2361 15.0499 25.2662 15.0804 25.2963C15.118 25.1698 15.1639 25.0494 15.2179 24.935C15.8901 24.3027 16.5624 23.6704 17.2346 23.038C17.2241 23.2948 17.1324 23.5206 16.9596 23.7155C17.0075 23.8013 17.0686 23.8767 17.143 23.9414C16.9749 24.0919 16.8068 24.2424 16.6388 24.393C16.6083 24.2726 16.5777 24.1521 16.5471 24.0317C16.3488 24.2105 16.2113 24.4213 16.1346 24.664C16.2852 24.6658 16.4074 24.6056 16.5013 24.4833C16.5469 24.6384 16.5775 24.7889 16.593 24.935C16.9266 24.546 17.2933 24.1847 17.693 23.851C17.5448 23.8358 17.3919 23.8056 17.2346 23.7607C17.3472 23.5962 17.4999 23.5059 17.693 23.4897C17.7094 23.2995 17.8011 23.149 17.968 23.038C18.0492 23.2743 17.9882 23.4851 17.7846 23.6704C17.8152 23.7607 17.8763 23.8209 17.968 23.851C18.079 23.7811 18.079 23.7059 17.968 23.6252C18.1276 23.4789 18.2957 23.3434 18.4722 23.2187C18.5262 23.4322 18.6637 23.5225 18.8847 23.4897C18.6097 23.7908 18.3347 24.0919 18.0597 24.393C17.0568 25.3961 16.0332 26.3898 14.9888 27.374C14.9732 27.8885 14.9274 28.4003 14.8513 28.9096C14.6964 28.7272 14.5436 28.5466 14.3929 28.3676C14.3663 28.2638 14.2899 28.2036 14.1638 28.1869C13.9988 28.2663 13.8307 28.3265 13.6596 28.3676C13.6226 28.7163 13.5921 28.7012 13.5679 28.3224C13.5832 28.217 13.5984 28.1117 13.6138 28.0063C13.6443 28.0665 13.6749 28.1267 13.7054 28.1869C13.7666 27.8557 13.7666 27.5245 13.7054 27.1933C13.6749 27.374 13.6443 27.5546 13.6138 27.7353C13.5489 27.6557 13.4724 27.5955 13.3846 27.5546C13.3966 27.4879 13.3813 27.4276 13.3388 27.374C11.441 25.519 9.56185 23.6522 7.70117 21.7734C7.85701 21.762 7.99451 21.7018 8.11368 21.5927C8.15951 21.6228 8.20535 21.653 8.25118 21.6831C8.02595 21.8486 8.02595 21.9991 8.25118 22.1347C8.4523 21.9708 8.48292 21.775 8.34285 21.5476C8.59576 21.4593 8.7791 21.5346 8.89286 21.7734C9.12853 21.6625 9.25082 21.4818 9.25953 21.2314C10.552 22.4859 11.8659 23.7205 13.2013 24.935C13.1977 25.0485 13.2435 25.1388 13.3388 25.206C13.3753 25.1854 13.3905 25.1552 13.3846 25.1157C13.476 23.4151 13.5065 21.6988 13.4763 19.9668C13.5673 20.7633 13.5979 21.5763 13.5679 22.4057C13.5527 23.3096 13.5679 24.2129 13.6138 25.1157C13.6302 24.8399 13.676 24.5689 13.7513 24.3027C13.8349 24.6309 13.896 24.9621 13.9346 25.2963C14.0263 25.2963 14.1179 25.2963 14.2096 25.2963C14.161 24.8097 14.161 24.328 14.2096 23.851C14.2817 24.1535 14.3582 24.4546 14.4388 24.7543C14.561 24.393 14.6832 24.393 14.8054 24.7543C14.8511 24.4547 14.8664 24.1536 14.8513 23.851C14.8513 22.4057 14.8513 20.9604 14.8513 19.5151C14.8513 17.5278 14.8513 15.5405 14.8513 13.5532C14.7596 13.5532 14.6679 13.5532 14.5763 13.5532C14.5644 13.3982 14.5339 13.2476 14.4846 13.1016Z" fill="#BDA170"/>
</g>
<g id="Group_124">
<path id="Vector_124" fill-rule="evenodd" clip-rule="evenodd" d="M14.3929 28.3677C14.3228 28.3295 14.2465 28.2993 14.1638 28.2773C13.9199 28.5151 13.6756 28.756 13.4304 29C13.3847 28.5192 13.3694 28.0374 13.3846 27.5547C13.4724 27.5956 13.5489 27.6558 13.6138 27.7353C13.6443 27.5547 13.6749 27.374 13.7054 27.1934C13.7666 27.5246 13.7666 27.8558 13.7054 28.187C13.6749 28.1268 13.6443 28.0666 13.6138 28.0063C13.5985 28.1118 13.5832 28.2171 13.5679 28.3225C13.5921 28.7013 13.6227 28.7164 13.6596 28.3677C13.8307 28.3266 13.9988 28.2663 14.1638 28.187C14.2899 28.2036 14.3663 28.2639 14.3929 28.3677Z" fill="#AF9A79"/>
</g>
</g>
</svg>
