<svg width="36" height="38" viewBox="0 0 36 38" fill="none" xmlns="http://www.w3.org/2000/svg">
<g id="Group 2211">
<g id="Group 2208">
<g id="Group" filter="url(#filter0_d_33_49)">
<path id="Path 11900" d="M17.9987 31.5145C17.5004 31.5168 17.007 31.4173 16.5485 31.2222C16.09 31.0271 15.6762 30.7405 15.3324 30.3798C14.8711 30.5845 14.3723 30.6913 13.8676 30.6936C13.1223 30.6978 12.3932 30.4756 11.7769 30.0563C11.1607 29.637 10.6863 29.0405 10.4165 28.3456C10.3866 28.3456 10.3571 28.3456 10.3289 28.3456C9.53841 28.3394 8.77054 28.0811 8.13698 27.6083C7.50341 27.1356 7.03719 26.4731 6.80611 25.7171C6.69509 25.3479 6.6442 24.9633 6.65538 24.5779C6.1918 24.3969 5.76956 24.1241 5.41401 23.7759C5.05845 23.4277 4.77689 23.0112 4.58624 22.5515C4.39558 22.0918 4.29974 21.5983 4.30448 21.1007C4.30922 20.603 4.41444 20.1115 4.61381 19.6555C4.24768 19.318 3.95752 18.9065 3.7626 18.4483C3.56768 17.9901 3.47245 17.4957 3.48325 16.9978C3.47773 16.033 3.85429 15.1053 4.53066 14.4172C4.55728 14.3898 4.58473 14.3631 4.61259 14.3353C4.41371 13.8794 4.30891 13.3881 4.30449 12.8907C4.30008 12.3933 4.39613 11.9002 4.58689 11.4409C4.77764 10.9815 5.05916 10.5654 5.4146 10.2175C5.77003 9.86958 6.19207 9.59701 6.65538 9.41611C6.64435 9.03064 6.69523 8.64588 6.80611 8.27654C7.03726 7.52064 7.50352 6.8582 8.13708 6.38553C8.77064 5.91287 9.53846 5.65464 10.3289 5.6484H10.4161C10.4697 5.51077 10.5314 5.37645 10.6009 5.24614C11.0382 4.42744 11.7689 3.80433 12.6465 3.50175C13.524 3.19917 14.4834 3.23949 15.3324 3.61461C15.6776 3.25597 16.0917 2.97067 16.5497 2.77579C17.0078 2.58092 17.5005 2.48047 17.9983 2.48047C18.4961 2.48047 18.9887 2.58092 19.4468 2.77579C19.9049 2.97067 20.3189 3.25597 20.6641 3.61461C21.119 3.41406 21.6097 3.30773 22.1068 3.30203C22.6039 3.29632 23.097 3.39137 23.5563 3.58142C24.0156 3.77147 24.4317 4.0526 24.7795 4.40785C25.1272 4.76309 25.3994 5.1851 25.5796 5.6484H25.6672C26.4577 5.65464 27.2255 5.91287 27.859 6.38553C28.4926 6.8582 28.9589 7.52064 29.19 8.27654C29.3009 8.64588 29.3518 9.03064 29.3407 9.41611C29.8043 9.5971 30.2265 9.86986 30.5821 10.218C30.9376 10.5662 31.2192 10.9826 31.4099 11.4423C31.6005 11.902 31.6964 12.3954 31.6916 12.893C31.6869 13.3907 31.5817 13.8822 31.3823 14.3381C31.7484 14.6757 32.0386 15.0873 32.2335 15.5456C32.4284 16.0038 32.5236 16.4983 32.5129 16.9962C32.5185 17.9609 32.142 18.8887 31.4659 19.5768C31.4388 19.6043 31.4118 19.6309 31.384 19.6588C31.5828 20.1146 31.6875 20.606 31.6919 21.1033C31.6963 21.6007 31.6002 22.0938 31.4095 22.5531C31.2187 23.0124 30.9372 23.4285 30.5818 23.7765C30.2264 24.1244 29.8044 24.397 29.3412 24.5779C29.3522 24.9633 29.3013 25.3479 29.1904 25.7171C28.9593 26.473 28.493 27.1355 27.8595 27.6083C27.2259 28.081 26.4581 28.3393 25.6677 28.3456C25.6394 28.3456 25.6103 28.3456 25.58 28.3456C25.5267 28.4834 25.465 28.6177 25.3952 28.7479C25.0785 29.3381 24.6071 29.8309 24.0317 30.1737C23.4562 30.5164 22.7983 30.6962 22.1285 30.6936C21.6237 30.6913 21.1248 30.5845 20.6633 30.3798C20.3197 30.7404 19.9062 31.027 19.448 31.2221C18.9899 31.4172 18.4967 31.5167 17.9987 31.5145Z" fill="url(#paint0_linear_33_49)" stroke="#C49A6C" stroke-miterlimit="10"/>
</g>
<path id="Path 11901" d="M20.0626 6.63518C20.9069 2.38984 15.0956 2.38984 15.9398 6.63518C15.0956 2.38984 9.7258 4.61409 12.1303 8.21304C9.72539 4.61409 5.61727 8.72344 9.215 11.1283C5.61604 8.72344 3.39179 14.0928 7.63713 14.9378C3.39179 14.0932 3.39179 19.9049 7.63713 19.0607C3.39179 19.9049 5.61604 25.2747 9.215 22.8702C5.61604 25.2751 9.72539 29.3832 12.1303 25.7855C9.72539 29.3844 15.0951 31.6087 15.9398 27.3634C15.0956 31.6087 20.9069 31.6087 20.0626 27.3634C20.9069 31.6087 26.2766 29.3844 23.8721 25.7855C26.277 29.3844 30.3852 25.2751 26.7874 22.8702C30.3864 25.2751 32.6106 19.9053 28.3653 19.0607C32.6106 19.9049 32.6106 14.0932 28.3653 14.9378C32.6106 14.0932 30.3864 8.72385 26.7874 11.1283C30.3864 8.72344 26.277 4.61532 23.8721 8.21304C26.2762 4.61368 20.9069 2.38984 20.0626 6.63518Z" fill="url(#paint1_radial_33_49)" stroke="#CABCB8" stroke-linecap="round" stroke-linejoin="round"/>
</g>
<path id="Ellipse 6" d="M23.1785 28.822C29.7073 25.962 32.6815 18.3509 29.8215 11.822C26.9615 5.29317 19.3504 2.31897 12.8215 5.17896C6.29268 8.03894 3.31848 15.6501 6.17847 22.179C9.03845 28.7078 16.6496 31.682 23.1785 28.822Z" fill="url(#paint2_linear_33_49)" stroke="#DBD1CE" stroke-miterlimit="10"/>
<path id="Ellipse 7" d="M26.3825 25.3827C31.0121 20.7531 31.0121 13.2469 26.3825 8.61731C21.7528 3.98767 14.2467 3.98767 9.61707 8.61731C4.98743 13.2469 4.98743 20.7531 9.61707 25.3827C14.2467 30.0123 21.7528 30.0123 26.3825 25.3827Z" fill="url(#paint3_radial_33_49)"/>
<path id="Ellipse 8" d="M18.5765 29.2803C25.3588 28.9624 30.5993 23.2064 30.2813 16.4241C29.9634 9.64171 24.2074 4.40127 17.4251 4.71922C10.6427 5.03717 5.40228 10.7931 5.72023 17.5755C6.03818 24.3578 11.7941 29.5983 18.5765 29.2803Z" stroke="#707070" stroke-miterlimit="10"/>
<g id="Group 2210">
<g id="Group 2209">
<path id="Path 11902" d="M12.78 17.0998C12.834 17.0998 12.8619 17.1211 12.8619 17.1768C12.8351 17.393 12.732 17.5926 12.5711 17.7396L12.5498 17.6761C12.633 17.5875 12.6907 17.4779 12.7165 17.359C12.7165 17.3377 12.7005 17.3246 12.6755 17.3246C12.162 17.4462 11.6374 17.5148 11.1099 17.5294C10.663 17.5294 10.2137 17.4741 10.1223 17.0563H10.1141C10.0991 17.1095 10.0722 17.1585 10.0353 17.1997C9.99849 17.2409 9.95273 17.2731 9.90155 17.2939C9.96091 17.3292 10.0099 17.3796 10.0435 17.44C10.0771 17.5003 10.0941 17.5685 10.0928 17.6376C10.0928 17.8309 9.98512 17.9415 9.88312 17.9415C9.81523 17.9395 9.74954 17.9169 9.69476 17.8768C9.63998 17.8366 9.59868 17.7808 9.57632 17.7166L9.56812 17.7195C9.54927 17.9362 9.33914 18.1107 8.85537 18.3114L8.48672 18.2852L8.47852 18.2614C8.78294 18.1614 9.07181 18.0191 9.33668 17.8387C9.56566 17.6855 9.53043 17.4635 9.57344 17.384L9.66233 17.2149C9.8062 17.1916 9.941 17.1295 10.0523 17.0354C10.0843 16.9901 10.0989 16.9346 10.0933 16.8794C9.54682 16.845 9.22935 16.7209 9.17569 16.4562H9.16751C9.12561 16.4998 9.07429 16.5332 9.01747 16.5537C8.96066 16.5743 8.89988 16.5816 8.83981 16.575C8.65138 16.575 8.54406 16.5009 8.54406 16.3981C8.55125 16.3166 8.57703 16.2378 8.61942 16.1679C8.75053 15.9818 8.92883 15.8341 9.13597 15.7398L9.1331 15.5891C9.16022 15.5443 9.19268 15.5031 9.22977 15.4662L9.24616 15.4715L9.25147 15.6882L9.41533 15.5956L9.42885 15.6063L9.34692 15.7439C9.32035 15.7825 9.28754 15.8164 9.24984 15.8443L9.25516 16.1617C9.25516 16.4763 9.51077 16.6004 10.0998 16.6426C10.0945 16.233 10.0863 15.8524 10.0781 15.4797C10.1094 15.4313 10.1455 15.3861 10.1858 15.3449L10.1965 15.3503C10.2047 15.4768 10.21 15.637 10.2125 15.7652C10.2125 16.0716 10.2153 16.3469 10.2153 16.6508C10.4013 16.6717 10.8773 16.6918 11.1546 16.6918C11.5949 16.6915 12.0346 16.6598 12.4703 16.5967C12.6075 16.5762 12.7343 16.5113 12.8312 16.412C12.8336 16.4077 12.8371 16.4042 12.8414 16.4017C12.8456 16.3993 12.8505 16.398 12.8554 16.398C12.8603 16.398 12.8651 16.3993 12.8693 16.4017C12.8736 16.4042 12.8771 16.4077 12.8795 16.412C12.9061 16.453 12.9414 16.4877 12.9827 16.5137C13.0241 16.5398 13.0707 16.5565 13.1191 16.5627C13.1626 16.5577 13.2028 16.537 13.2322 16.5046C13.3453 16.3858 13.3588 16.2826 13.3588 15.9549C13.3588 15.5043 13.3453 15.0537 13.3506 14.5908C13.3776 14.5457 13.4178 14.4982 13.4501 14.4532L13.4636 14.4614C13.4849 14.9607 13.4796 15.4576 13.4796 15.9549C13.4796 16.3751 13.5144 16.4648 13.7918 16.523L13.7946 16.5123C13.7506 16.4749 13.7159 16.4276 13.6935 16.3743C13.6711 16.321 13.6615 16.2632 13.6656 16.2055C13.671 16.1054 13.7056 16.009 13.7651 15.9282C13.7983 15.8785 13.8431 15.8376 13.8956 15.8091C13.9482 15.7805 14.0068 15.7652 14.0666 15.7644C14.2198 15.7644 14.3328 15.8545 14.4541 16.0392L14.4299 16.0605C14.3486 15.9926 14.2456 15.956 14.1395 15.9573C13.9646 15.9573 13.7897 16.0552 13.7897 16.1343C13.7979 16.2208 13.837 16.3016 13.8999 16.3616C13.9304 16.3937 13.9671 16.4191 14.0078 16.4364C14.0486 16.4536 14.0924 16.4624 14.1367 16.462C14.1809 16.4607 14.2245 16.4518 14.2657 16.4358C14.3811 16.3899 14.491 16.3314 14.5934 16.2613L14.6069 16.2719L14.5369 16.4648C14.3146 16.6264 14.0477 16.715 13.7729 16.7184C13.6862 16.7273 13.599 16.7058 13.5263 16.6576C13.4537 16.6094 13.3999 16.5375 13.3743 16.4542H13.3637C13.3149 16.6365 13.1777 16.7741 13.0544 16.7741C12.9417 16.7684 12.8347 16.7225 12.753 16.6447H12.7423C12.6144 16.7652 12.4473 16.8356 12.2716 16.8429C11.8873 16.8957 11.4999 16.9231 11.112 16.9248C10.7138 16.9248 10.4259 16.9089 10.2297 16.8904C10.2706 17.1837 10.7114 17.3029 11.2414 17.3029C11.7591 17.2789 12.2738 17.2109 12.78 17.0998ZM9.13965 15.9118C8.84391 16.0728 8.69849 16.1986 8.69849 16.2686C8.69849 16.3239 8.78491 16.3506 8.9164 16.3559C8.99712 16.3562 9.07727 16.3424 9.15317 16.3149L9.13965 15.9118ZM9.72624 15.0766C9.69272 15.1184 9.64931 15.1511 9.59996 15.1718C9.5506 15.1926 9.49687 15.2007 9.4436 15.1954C9.31743 15.1954 9.22035 15.1479 9.22035 15.0578C9.23533 14.9452 9.28304 14.8395 9.35757 14.7538C9.46043 14.6476 9.58157 14.5608 9.71517 14.4974L9.7123 14.368C9.74085 14.3319 9.77237 14.2984 9.80652 14.2676L9.82249 14.2705L9.81963 14.4474L9.91671 14.4028L9.9249 14.4212L9.81184 14.5744V14.8943C9.80982 14.9168 9.81272 14.9395 9.82034 14.9608C9.82797 14.9821 9.84014 15.0015 9.85601 15.0176C9.87187 15.0337 9.89106 15.0461 9.91222 15.054C9.93339 15.062 9.95603 15.0652 9.97856 15.0635C10.0246 15.0636 10.0699 15.0517 10.11 15.0291C10.1321 15.0185 10.1508 15.002 10.1641 14.9815C10.1774 14.961 10.1848 14.9372 10.1854 14.9128L10.1666 14.3418C10.194 14.3008 10.2255 14.2627 10.2608 14.2283L10.2743 14.2389L10.2878 14.7411C10.2878 14.864 10.3173 14.9554 10.4107 14.9951C10.4588 15.0268 10.5146 15.045 10.5721 15.0479C10.6131 15.0479 10.6446 15.0266 10.6446 14.9873C10.6446 14.9156 10.5397 14.4507 10.5397 14.3131C10.5622 14.2595 10.5911 14.2089 10.6258 14.1623L10.6422 14.173C10.6422 14.3741 10.7446 14.7522 10.7446 14.9292C10.7446 15.0955 10.6557 15.2462 10.5426 15.2462C10.4881 15.2449 10.4346 15.2308 10.3864 15.2051C10.3383 15.1794 10.2968 15.1429 10.2653 15.0983H10.2571C10.2222 15.1484 10.1761 15.1895 10.1223 15.2184C10.0686 15.2473 10.0088 15.2632 9.94784 15.2646C9.89525 15.266 9.84409 15.2475 9.80464 15.2126C9.7652 15.1778 9.74041 15.1294 9.73525 15.077L9.72624 15.0766ZM9.71271 14.6486C9.47308 14.7755 9.33873 14.8706 9.33873 14.921C9.33873 14.9713 9.41165 15.0058 9.50012 15.0058C9.57363 15.0085 9.6469 14.9958 9.71517 14.9685L9.71271 14.6486ZM9.40058 16.1339L9.43295 16.0175C9.62599 15.9265 9.82354 15.8455 10.0248 15.7746L10.0302 15.7824L9.96013 15.8987C9.77146 15.9695 9.58648 16.0498 9.40591 16.1392L9.40058 16.1339ZM9.63488 17.4856C9.64264 17.5505 9.6731 17.6105 9.72086 17.655C9.76862 17.6995 9.8306 17.7257 9.89582 17.7289C9.9152 17.7299 9.93456 17.7268 9.95264 17.7197C9.97071 17.7126 9.98709 17.7018 10.0007 17.688C9.97735 17.6109 9.93164 17.5425 9.86936 17.4914C9.80707 17.4404 9.73102 17.409 9.65086 17.4012C9.63836 17.4275 9.63286 17.4566 9.63488 17.4856ZM10.2026 14.1079C10.1952 14.1284 10.1817 14.1463 10.164 14.159C10.1462 14.1717 10.1249 14.1788 10.1031 14.1791C10.0388 14.1791 10.006 14.1263 10.006 14.0337C10.0057 13.995 10.0121 13.9565 10.0248 13.9198L10.0732 13.8883L10.0756 13.8936C10.0636 13.9257 10.0573 13.9597 10.0568 13.994C10.0568 14.0284 10.065 14.0571 10.1027 14.0571C10.1322 14.0571 10.1567 14.0309 10.1645 13.994L10.1834 13.8752L10.2264 13.8514L10.2293 13.8543C10.2271 13.8678 10.2262 13.8816 10.2264 13.8953C10.223 13.9176 10.2257 13.9404 10.2342 13.9613C10.2427 13.9822 10.2567 14.0004 10.2747 14.0141C10.2893 14.0232 10.3059 14.0287 10.3231 14.03C10.3394 14.03 10.3501 14.0218 10.3501 14.0063C10.3465 13.9599 10.3394 13.9139 10.3288 13.8686C10.3476 13.8396 10.3636 13.8158 10.3825 13.792L10.3906 13.7949C10.4002 13.8711 10.4047 13.9479 10.4042 14.0247C10.4042 14.0751 10.3718 14.1476 10.3071 14.1476C10.2886 14.1479 10.2702 14.1444 10.2531 14.1374C10.236 14.1303 10.2205 14.1199 10.2075 14.1066L10.2026 14.1079ZM11.9837 15.8152L12.0373 15.6485C11.9993 15.6231 11.9664 15.5909 11.9403 15.5534H11.9321C11.8542 15.6935 11.7653 15.7808 11.6576 15.7808C11.5151 15.7808 11.402 15.7017 11.359 15.4121H11.3508C11.2739 15.558 11.1438 15.6687 10.9875 15.7214C10.7319 15.8242 10.5369 15.8955 10.5369 15.9643C10.5369 16.0052 10.5934 16.0409 10.7171 16.0753C10.9437 16.1209 11.1747 16.1404 11.4057 16.1334C12.0126 16.1338 12.6184 16.0825 13.2166 15.9803L13.222 15.9909L13.0659 16.1916C12.4939 16.2945 11.9143 16.3493 11.3332 16.3555C10.6929 16.3555 10.3833 16.3051 10.3833 16.0831C10.3941 16.0178 10.4188 15.9556 10.4558 15.9008C10.6243 15.6886 10.8577 15.5375 11.1202 15.4703C11.3299 15.3802 11.3598 15.2773 11.3598 15.0156C11.3598 14.7092 11.341 14.1857 11.341 13.7494C11.3725 13.6978 11.4075 13.6484 11.4458 13.6016L11.4594 13.6098C11.4835 14.1423 11.4835 14.6695 11.4835 15.177C11.4835 15.4309 11.556 15.5628 11.7121 15.5628C11.7471 15.5634 11.7816 15.5542 11.8116 15.5362C11.8741 15.4871 11.9262 15.4259 11.9648 15.3564C11.973 15.3457 11.9783 15.3457 11.989 15.3564C12.0267 15.3991 12.0701 15.4365 12.118 15.4674C12.1901 15.3002 12.2986 15.1512 12.4355 15.0312C12.5197 14.956 12.6268 14.9114 12.7394 14.9046C12.8223 14.9046 12.9021 14.9357 12.9631 14.9918C12.9956 15.0217 13.0216 15.058 13.0392 15.0985C13.0568 15.139 13.0658 15.1828 13.0655 15.227C13.0646 15.3228 13.0362 15.4164 12.9836 15.4965C12.9158 15.5834 12.8274 15.6519 12.7264 15.6957C12.6253 15.7396 12.5149 15.7574 12.4052 15.7476C12.3055 15.7512 12.2063 15.7331 12.1143 15.6947C12.0803 15.744 12.0389 15.7876 11.9915 15.8242L11.9837 15.8152ZM11.0071 17.8223C11.0982 17.8845 11.1837 17.9544 11.2627 18.0312C11.2274 18.1052 11.1822 18.1741 11.1284 18.236C11.0453 18.1642 10.9582 18.0972 10.8674 18.0353L11.0071 17.8223ZM11.0743 13.6646C11.0668 13.6858 11.063 13.7081 11.0632 13.7306C11.0677 13.8433 11.0973 13.9535 11.1497 14.0534L11.0501 14.1193C11.0637 14.4257 11.0825 14.7248 11.0825 14.9177C11.0852 14.9706 11.0778 15.0236 11.0608 15.0738C11.038 15.1334 11.0083 15.1902 10.9723 15.2429L10.9506 15.2298C10.9681 15.1661 10.9762 15.1001 10.9748 15.034C10.9748 14.6588 10.9264 14.2885 10.9264 13.9399C10.921 13.8839 10.9301 13.8275 10.9531 13.7761C10.9813 13.7314 11.0147 13.6901 11.0526 13.6532L11.0743 13.6646ZM11.4077 17.7851C11.4995 17.8481 11.5836 17.9218 11.658 18.0046C11.6236 18.0765 11.5794 18.1432 11.5265 18.2029C11.4443 18.1298 11.358 18.0614 11.2681 17.9981L11.4077 17.7851ZM11.5667 14.8325L11.6367 14.6342C12.1827 14.3967 12.7413 14.1894 13.31 14.0132L13.3178 14.0239L13.2076 14.2008C12.9786 14.275 12.6911 14.3807 12.3974 14.4876C12.1174 14.5889 11.8438 14.7072 11.5781 14.8419L11.5667 14.8325ZM11.7899 13.9919C11.7825 14.0125 11.769 14.0304 11.7513 14.0431C11.7335 14.0558 11.7122 14.0628 11.6904 14.0632C11.6257 14.0632 11.5933 14.0104 11.5933 13.9178C11.593 13.8792 11.5994 13.8408 11.6121 13.8043L11.6605 13.7724L11.6633 13.7777C11.6513 13.8098 11.645 13.8438 11.6445 13.8781C11.6445 13.9125 11.6527 13.9411 11.6904 13.9411C11.7199 13.9411 11.7444 13.9149 11.7522 13.8781L11.7711 13.7593L11.812 13.7355L11.8149 13.7384C11.8128 13.7519 11.8118 13.7656 11.812 13.7793C11.8086 13.8017 11.8114 13.8245 11.8199 13.8454C11.8284 13.8663 11.8424 13.8845 11.8604 13.8981C11.8751 13.9073 11.8918 13.9128 11.9091 13.9141C11.9251 13.9141 11.9357 13.9059 11.9357 13.8903C11.9322 13.844 11.9251 13.798 11.9144 13.7527C11.9333 13.7236 11.9493 13.6999 11.9681 13.6761L11.9763 13.679C11.9859 13.7552 11.9904 13.832 11.9898 13.9088C11.9898 13.9592 11.9575 14.0317 11.8927 14.0317C11.8742 14.032 11.8559 14.0285 11.8387 14.0215C11.8216 14.0144 11.8061 14.004 11.7932 13.9907L11.7899 13.9919ZM12.4195 15.5485C12.5796 15.5512 12.7372 15.5086 12.8742 15.4256C12.9254 15.3912 12.9496 15.3568 12.9496 15.3199C12.9462 15.2897 12.9366 15.2604 12.9214 15.2341C12.9062 15.2077 12.8856 15.1848 12.8611 15.1667C12.8148 15.1288 12.7571 15.1074 12.6972 15.1061C12.6133 15.1084 12.532 15.135 12.4629 15.1827C12.3464 15.2664 12.2507 15.3757 12.1832 15.5022C12.2579 15.5341 12.3383 15.5507 12.4195 15.551V15.5485ZM12.261 18.2553C12.5687 18.1514 12.8659 18.0186 13.1486 17.8588C13.4096 17.7158 13.5386 17.597 13.5386 17.5524C13.5386 17.5151 13.4899 17.5073 13.3449 17.5073C13.154 17.5073 13.0491 17.4147 13.0491 17.2591C13.0481 17.2054 13.0578 17.152 13.0777 17.1021C13.0975 17.0522 13.1271 17.0067 13.1646 16.9683C13.1901 16.9368 13.222 16.9112 13.2582 16.893C13.2943 16.8748 13.3339 16.8644 13.3743 16.8626C13.4062 16.863 13.4376 16.8703 13.4664 16.884C13.4952 16.8977 13.5207 16.9175 13.541 16.942C13.6382 17.0776 13.683 17.2438 13.6672 17.4098C13.6672 17.7642 13.417 17.9993 12.6665 18.311L12.2602 18.2819L12.261 18.2553ZM13.5767 17.3328C13.5443 17.1821 13.4772 17.0461 13.3399 17.0461C13.2429 17.0461 13.149 17.1227 13.149 17.1915C13.149 17.3144 13.5632 17.2521 13.5632 17.3369L13.5767 17.3328ZM13.5497 15.435L13.582 15.3122C13.7434 15.2327 13.999 15.1299 14.3271 15.0029L14.3296 15.0078L14.2595 15.1307C14.0194 15.2215 13.784 15.3247 13.5546 15.44L13.5497 15.435Z" fill="#C39D3A"/>
</g>
<path id="Path 11903" d="M27.5035 15.7919C27.3324 16.31 27.0896 16.8017 26.7821 17.2526C26.733 17.32 25.305 17.9226 22.4983 19.0602L20.5845 19.7546C19.5834 20.1399 19.1074 20.4001 19.1566 20.5353C19.2546 20.8245 19.6962 21.1089 20.4813 21.3885C20.8835 21.533 21.2859 21.6728 21.6884 21.808C21.7552 22.0885 21.7552 22.3807 21.6884 22.6612C21.6196 23.1337 21.546 23.3939 21.4677 23.442C21.3205 23.5864 20.8199 23.5527 19.966 23.3408C18.0129 22.8779 16.6979 21.3402 16.0209 18.7276C15.9352 19.2449 15.7203 19.7322 15.396 20.1442C15.0718 20.5562 14.6488 20.8797 14.1661 21.0846C13.4328 21.4223 12.6328 21.5903 11.8255 21.5762C11.0991 21.5762 10.7361 21.07 10.7363 20.0577C10.7363 19.3059 10.8001 18.9106 10.9276 18.8718C11.048 19.0743 11.1373 19.2937 11.1927 19.5227C11.2927 19.6542 11.4257 19.7569 11.5782 19.8205C11.7307 19.884 11.8973 19.906 12.0611 19.8844C12.9179 19.8905 13.7645 19.6974 14.534 19.3204C15.1326 19.0216 15.4761 18.7661 15.5646 18.5539C15.6099 18.404 15.6298 18.2476 15.6236 18.0911C15.5748 17.2545 15.4491 16.4243 15.2479 15.6108C14.9978 14.4491 14.8727 13.8483 14.8727 13.8085C14.8922 13.4997 14.9339 13.1928 14.9976 12.8901C15.0174 12.6536 15.0745 12.4218 15.1668 12.2031C15.2747 12.2031 15.368 12.4344 15.4466 12.897C15.7495 14.5753 16.1426 16.236 16.6243 17.8719C16.7456 18.3132 16.9031 18.7437 17.0953 19.159C17.4097 19.894 17.9249 20.5255 18.5819 20.981C18.7263 20.2328 19.0963 19.5467 19.642 19.0148C20.2741 18.6576 20.946 18.3761 21.6438 18.1759C22.7132 17.8001 23.3021 17.5494 23.4105 17.4238C22.6838 17.5011 21.4473 17.5734 19.7009 17.6409C17.9259 17.7083 17.0384 17.7131 17.0384 17.6552C17.0384 16.836 17.4604 16.0117 18.3045 15.1823C19.0202 14.4997 19.8279 13.9206 20.7041 13.4619C21.1848 13.2112 21.6607 12.9605 22.1321 12.7098C21.9259 12.6233 21.8376 12.5173 21.867 12.392C21.9782 12.0466 22.1109 11.7085 22.2644 11.3798C22.5101 10.8301 22.6819 10.536 22.7797 10.4975C22.8105 10.4779 22.8464 10.468 22.8829 10.4688C23.3127 10.5195 23.7293 10.6493 24.1118 10.8518C24.676 11.1074 24.9827 11.3025 25.0318 11.4371C25.0577 11.7318 25.0069 12.0282 24.8843 12.2974C24.8099 12.6075 24.6749 12.8998 24.487 13.1576C24.1479 13.4168 23.7566 13.5993 23.3401 13.6925C22.9476 13.7988 22.56 13.9049 22.1771 14.0108C20.3715 14.6389 19.081 15.3717 18.3058 16.2093C18.6432 16.2446 18.9825 16.2591 19.3217 16.2527C21.7376 16.2314 24.1505 16.0768 26.5494 15.7898C26.8709 15.7402 27.1958 15.7161 27.5211 15.7177C27.5192 15.7432 27.5133 15.7682 27.5035 15.7919Z" fill="url(#paint4_linear_33_49)" stroke="#C39D3A" stroke-width="0.837" stroke-miterlimit="10"/>
</g>
</g>
<defs>
<filter id="filter0_d_33_49" x="0.982422" y="1.98047" width="34.0312" height="35.0332" filterUnits="userSpaceOnUse" color-interpolation-filters="sRGB">
<feFlood flood-opacity="0" result="BackgroundImageFix"/>
<feColorMatrix in="SourceAlpha" type="matrix" values="0 0 0 0 0 0 0 0 0 0 0 0 0 0 0 0 0 0 127 0" result="hardAlpha"/>
<feOffset dy="3"/>
<feGaussianBlur stdDeviation="1"/>
<feColorMatrix type="matrix" values="0 0 0 0 0 0 0 0 0 0 0 0 0 0 0 0 0 0 0.251 0"/>
<feBlend mode="normal" in2="BackgroundImageFix" result="effect1_dropShadow_33_49"/>
<feBlend mode="normal" in="SourceGraphic" in2="effect1_dropShadow_33_49" result="shape"/>
</filter>
<linearGradient id="paint0_linear_33_49" x1="-2.3819" y1="-3.38441" x2="30.775" y2="29.7693" gradientUnits="userSpaceOnUse">
<stop stop-color="#8E6128"/>
<stop offset="0.241" stop-color="#DDBD87"/>
<stop offset="0.354" stop-color="#EFEAAF"/>
<stop offset="0.584" stop-color="#A87F47"/>
<stop offset="0.782" stop-color="#DDBD87"/>
<stop offset="1" stop-color="#8E6128"/>
</linearGradient>
<radialGradient id="paint1_radial_33_49" cx="0" cy="0" r="1" gradientUnits="userSpaceOnUse" gradientTransform="translate(15.4813 12.122) scale(16.2306 16.2306)">
<stop stop-color="#F3EDEA"/>
<stop offset="1" stop-color="#DBD1CE"/>
</radialGradient>
<linearGradient id="paint2_linear_33_49" x1="5.48455" y1="7.85753" x2="30.8052" y2="26.3547" gradientUnits="userSpaceOnUse">
<stop stop-color="#F3EDEA"/>
<stop offset="1" stop-color="#BDAAA5"/>
</linearGradient>
<radialGradient id="paint3_radial_33_49" cx="0" cy="0" r="1" gradientUnits="userSpaceOnUse" gradientTransform="translate(13.1724 28.6483) scale(11.8531)">
<stop offset="0.035" stop-color="#0F3772"/>
<stop offset="0.457" stop-color="#0E356F"/>
<stop offset="0.656" stop-color="#0C3068"/>
<stop offset="0.809" stop-color="#08285B"/>
<stop offset="0.937" stop-color="#031D49"/>
<stop offset="1" stop-color="#00163D"/>
</radialGradient>
<linearGradient id="paint4_linear_33_49" x1="12.3644" y1="11.9055" x2="21.8664" y2="24.1489" gradientUnits="userSpaceOnUse">
<stop stop-color="#A6773E"/>
<stop offset="0.204" stop-color="#C9A255"/>
<stop offset="0.446" stop-color="#F0D16D"/>
<stop offset="0.567" stop-color="#FFE377"/>
<stop offset="0.638" stop-color="#F6D971"/>
<stop offset="0.757" stop-color="#E1BE63"/>
<stop offset="0.909" stop-color="#BD944D"/>
<stop offset="1" stop-color="#A6773E"/>
</linearGradient>
</defs>
</svg>
