<svg width="22" height="20" viewBox="0 0 22 20" fill="none" xmlns="http://www.w3.org/2000/svg">
<path id="Path 12641" d="M14.6914 16.1534C12.4272 16.1529 10.245 15.3989 8.57334 14.0396C6.90168 12.6804 5.86134 10.8139 5.65663 8.8069C5.45192 6.79985 6.09763 4.7972 7.46695 3.1922C8.83627 1.58721 10.8303 0.495833 13.0574 0.132403C10.9248 -0.17957 8.73644 0.0625096 6.75458 0.829625C4.77272 1.59674 3.0815 2.85633 1.88366 4.4574C0.685818 6.05846 0.0321941 7.93304 0.00115895 9.8564C-0.0298762 11.7798 0.562987 13.6703 1.70868 15.3013C2.85437 16.9323 4.50426 18.2346 6.46055 19.0521C8.41684 19.8695 10.5965 20.1674 12.7382 19.9101C14.88 19.6528 16.8929 18.8511 18.5356 17.6012C20.1783 16.3513 21.3812 14.7062 22 12.8632C21.1576 13.8839 20.0569 14.7136 18.7872 15.2852C17.5175 15.8568 16.1143 16.1542 14.6914 16.1534Z" fill="#62719F"/>
</svg>
