<svg width="23" height="16" viewBox="0 0 23 16" fill="none" xmlns="http://www.w3.org/2000/svg">
<g id="Group 2302">
<path id="Path 12020" d="M16.6449 12.1115C14.773 12.2378 12.9081 11.8141 11.4162 10.9236C9.92437 10.0331 8.91323 8.74006 8.58124 7.29827C8.24924 5.85649 8.62035 4.37003 9.62174 3.13057C10.6231 1.89112 12.1825 0.98817 13.9939 0.598904C12.2052 0.493 10.4152 0.791538 8.83861 1.45873C7.26201 2.12591 5.9657 3.13344 5.10507 4.36051C4.24443 5.58759 3.85601 6.98214 3.98635 8.37697C4.1167 9.77181 4.76029 11.1077 5.83996 12.2246C6.91963 13.3415 8.38957 14.1919 10.0736 14.6739C11.7575 15.1559 13.5841 15.249 15.3342 14.9421C17.0844 14.6352 18.6839 13.9413 19.9409 12.9435C21.198 11.9458 22.0593 10.6866 22.4215 9.31689C21.8077 10.1036 20.9649 10.7665 19.9613 11.252C18.9577 11.7376 17.8216 12.032 16.6449 12.1115Z" fill="#7C47A6"/>
<path id="Path 12021" d="M17.4406 5.82976L17.6163 4.83882L16.6669 4.16672L17.9281 3.98969L18.4562 3.07901L19.0618 3.95975L20.3361 4.06955L19.4495 4.79093L19.7077 5.76851L18.5542 5.33482L17.4406 5.82976Z" fill="#FDBF50"/>
<path id="Path 12024" d="M3.57031 2.2292L3.68077 1.60203L3.07893 1.17461L3.8783 1.06171L4.2137 0.486099L4.59736 1.04397L5.40458 1.11363L4.84222 1.57062L5.00715 2.1912L4.27592 1.91541L3.57031 2.2292Z" fill="#FDBF50"/>
<path id="Path 12025" d="M0.608157 7.45314L0.690141 6.98578L0.242655 6.6681L0.838859 6.58498L1.08757 6.1546L1.37377 6.57034L1.97541 6.62225L1.55676 6.96274L1.67935 7.42478L1.1347 7.21957L0.608157 7.45314Z" fill="#FDBF50"/>
<path id="Path 12022" d="M10.8197 6.30752L10.931 5.67266L10.3239 5.24193L11.132 5.12811L11.4702 4.54488L11.8586 5.10891L12.6752 5.17941L12.1069 5.64178L12.2727 6.26874L11.5335 5.99042L10.8197 6.30752Z" fill="#FDBF50"/>
<path id="Path 12023" d="M14.7697 9.80385L14.8347 9.43285L14.4794 9.18079L14.9533 9.11573L15.1504 8.77335L15.3772 9.10337L15.8545 9.14451L15.522 9.41482L15.6193 9.78143L15.1867 9.61793L14.7697 9.80385Z" fill="#FDBF50"/>
</g>
</svg>
