<svg width="29" height="26" viewBox="0 0 29 26" fill="none" xmlns="http://www.w3.org/2000/svg">
<g id="Group 19">
<path id="Path 59" d="M10.559 24.3529C10.559 24.3529 5.39824 24.7601 4.06011 24.3529C2.72199 23.9457 2.74869 22.7685 2.8788 21.8856C3.0089 21.0028 4.4903 19.6621 5.11132 19.5968C5.73234 19.5314 7.9784 20.545 8.12186 20.5777C8.26532 20.6104 10.559 24.3529 10.559 24.3529Z" fill="#AA3333"/>
<path id="Path 60" d="M2.88176 25.0152C2.88176 25.0152 2.77233 25.1657 2.9455 25.2032C3.11866 25.2406 3.15081 25.1189 3.30574 24.9973C3.46067 24.8757 3.85739 24.8815 3.85739 24.8815C3.85739 24.8815 3.39317 24.6028 3.29653 24.6178C3.19989 24.6327 2.88176 25.0152 2.88176 25.0152Z" fill="#D1864E"/>
<path id="Path 61" d="M2.41753 25.1658C2.41753 25.1658 2.52677 25.328 2.74563 25.2843C2.96448 25.2406 2.80955 25.1595 3.01017 24.9849C3.15832 24.8696 3.34646 24.7816 3.5573 24.729C3.5573 24.729 2.92763 24.5145 2.65481 24.6181C2.382 24.7217 2.41753 25.1658 2.41753 25.1658Z" fill="#D89055"/>
<path id="Path 62" d="M1.94141 25.1325C1.94141 25.1325 1.94855 25.4133 2.2631 25.4133C2.57766 25.4133 2.42724 25.3104 2.5504 25.067C2.60372 24.9687 2.69356 24.8816 2.81107 24.8143C2.92858 24.747 3.06969 24.7018 3.22049 24.6832C2.87811 24.5148 2.09803 24.6832 1.94141 25.1325Z" fill="#E09D61"/>
<path id="Path 63" d="M9.86377 25.7462C9.76826 25.7462 7.91497 25.6841 6.68815 25.6134C4.98245 25.5154 4.35334 25.0848 3.42153 24.8069C2.48971 24.529 2.07551 24.8941 2.07551 25.1393C2.07551 25.3846 2.09939 25.5481 1.50205 25.4996C0.90472 25.4511 1.0243 24.8619 1.50205 24.2243C1.97981 23.5867 3.32583 22.7638 4.18601 22.3223C5.04619 21.8809 5.86651 21.6576 5.87441 22.5948C5.88231 23.5321 8.26355 24.1916 9.67331 23.9137C11.0831 23.6358 9.86377 25.7462 9.86377 25.7462Z" fill="#E5A86C"/>
<path id="Path 64" d="M9.67493 23.9138C8.2648 24.1918 5.88393 23.5323 5.87603 22.5949C5.86813 21.6575 5.04781 21.881 4.18763 22.3224C3.39865 22.7263 2.67567 23.1872 2.03125 23.6972C2.73274 23.4615 3.48519 23.4027 4.1771 23.7185C5.49003 24.2425 6.80315 24.1676 8.00665 24.3923C8.74631 24.5611 8.68351 25.1943 8.28172 25.6895C9.10166 25.7234 9.8073 25.7463 9.86539 25.7463C9.86445 25.7469 11.0845 23.6359 9.67493 23.9138Z" fill="#E09D61"/>
<path id="Path 65" d="M26.3283 20.6981C26.3283 20.6981 28.399 22.3408 27.3797 24.3534C26.3605 26.3661 22.0278 25.81 20.5464 25.81C19.065 25.81 18.0615 25.9508 15.9114 25.8804C13.7612 25.81 9.7472 25.7446 9.7472 25.7446C8.93477 23.8154 8.83926 22.5401 9.7472 21.2485C10.6551 19.9569 10.9896 19.63 14.3822 19.4665C17.7748 19.3029 26.3283 20.6981 26.3283 20.6981Z" fill="#BC4646"/>
<path id="Path 66" d="M26.3241 20.6981C26.2591 20.6875 23.865 20.2984 21.1241 19.9581H21.1226C20.6845 19.9059 15.7335 19.3907 13.2774 19.5352C13.048 19.5534 12.8382 19.5738 12.6443 19.5961C11.2776 19.7998 9.96789 21.3034 9.22033 22.328C9.07827 22.8682 9.06355 23.4204 9.17671 23.9637C9.27937 23.8794 10.132 23.2303 12.3542 22.9333C14.734 22.6151 18.0164 24.0938 21.2715 24.2808C19.9039 24.0375 18.0985 23.7568 17.7704 23.2887C17.4424 22.8207 19.9313 23.0829 21.0254 23.1952C22.1195 23.3075 22.6666 23.1578 23.4871 23.3824C24.3076 23.607 24.7728 23.7298 25.1011 24.1834C25.1285 23.7006 23.8701 23.0126 22.776 22.8885C23.925 22.8396 25.5924 23.1579 25.8528 23.4573C25.6482 22.7834 24.0611 22.4465 22.434 22.4465C20.8069 22.4465 21.9928 21.7956 23.6428 22.0649C25.2929 22.3342 26.0118 22.5589 26.487 22.2032C26.6558 22.0633 26.7733 21.8978 26.8299 21.7206C26.8865 21.5433 26.8805 21.3594 26.8124 21.184C26.6708 21.0144 26.5094 20.8529 26.3298 20.7011L26.3241 20.6981Z" fill="#AA3333"/>
<g id="Group 18">
<path id="Path 67" d="M9.41095 4.06445L9.10034 4.45686C9.10034 4.45686 8.13656 5.54404 7.70656 5.76919C7.27657 5.99434 8.35955 7.13851 9.26711 7.80329C9.81789 8.20587 10.4384 8.56094 11.115 8.86062C11.115 8.86062 11.8636 8.33736 12.1821 8.33736C12.5006 8.33736 12.3734 5.30717 12.3734 5.30717L9.41095 4.06445Z" fill="#E5A86C"/>
<path id="Path 68" d="M12.375 5.30704L9.41239 4.06445L9.10122 4.45686C9.10122 4.45686 8.93727 4.64162 8.71484 4.87449C8.93764 5.39916 9.73014 5.51779 10.5228 5.44947C10.219 6.5414 10.2854 7.88563 11.1965 8.80606C11.3977 8.67251 11.9281 8.33723 12.1832 8.33723C12.5025 8.3371 12.375 5.30704 12.375 5.30704Z" fill="#DD965B"/>
<path id="Path 69" d="M17.9329 4.78437C17.9329 4.78437 17.5984 5.52544 17.0727 5.81982C16.6745 6.09232 16.8896 6.77897 16.9014 7.35086C16.8775 7.64511 16.0294 7.53099 16.0294 7.53099C16.0294 7.53099 15.8542 7.86344 15.8064 7.99416C15.7586 8.12488 15.7109 8.13041 15.4879 8.14675C15.2872 8.16107 15.0878 8.18289 14.8906 8.21211C15.3042 8.22845 15.3286 8.26666 15.3207 8.34836C15.3128 8.43006 15.0575 8.52848 14.8507 8.58265C14.6439 8.63681 14.8746 8.96953 14.548 9.17127C14.2214 9.373 12.3021 9.19854 11.657 8.15215C11.0119 7.10577 11.1255 6.59962 12.063 5.23159L9.09961 4.45731C9.09961 4.45731 9.29082 2.47905 11.6567 1.71056C14.0225 0.942082 19.1672 2.54453 17.9329 4.78437Z" fill="#ECB67B"/>
<path id="Path 70" d="M11.3955 6.37126C11.5382 6.37575 11.6796 6.35051 11.801 6.29887C11.9223 6.24724 12.0179 6.17163 12.0752 6.08203C11.9082 6.43636 11.6427 6.45167 11.3594 6.46338L11.3955 6.37126Z" fill="#DD965B"/>
<path id="Path 71" d="M15.9931 6.95312C15.9931 6.95312 15.6239 7.08256 15.5759 7.23232C15.528 7.38207 15.967 7.50353 15.967 7.50353C15.8712 7.43894 15.8068 7.35568 15.7827 7.26512C15.7673 7.13917 15.9931 6.95312 15.9931 6.95312Z" fill="#DD965B"/>
<path id="Path 72" d="M15.416 6.01562L15.6642 6.16037C15.7444 6.20756 15.829 6.25106 15.9176 6.29057C15.9535 6.3117 15.9964 6.32645 16.0425 6.33349C16.0887 6.34054 16.1366 6.33967 16.1822 6.33097C16.2718 6.29468 16.3477 6.24448 16.4037 6.18443C16.3766 6.26179 16.3099 6.32995 16.2157 6.37652C16.1593 6.39859 16.0929 6.40516 16.0297 6.39491C15.9724 6.38407 15.9178 6.36756 15.8674 6.34589C15.6822 6.26077 15.5278 6.14781 15.416 6.01562Z" fill="#7A4313"/>
<path id="Path 73" d="M15.3906 5.7099C15.7126 5.66321 16.0438 5.65399 16.3702 5.68262C16.8162 5.73718 16.9907 5.82981 17.095 5.7099C17.1994 5.58999 16.4104 5.24647 15.3906 5.7099Z" fill="#7A4313"/>
<path id="Path 74" d="M16.7062 4.43256C16.7062 4.43256 15.8778 5.02439 14.9389 5.04652C13.9999 5.06865 13.6487 5.34076 13.4417 5.66782C13.2347 5.99487 13.7337 6.33273 13.6109 6.85586C13.4881 7.37898 13.6162 7.49915 14.1896 7.54251C14.7631 7.58587 15.8303 7.38992 16.0294 7.53157C16.2285 7.67323 16.2136 8.18465 15.4798 8.49073C14.9063 8.71962 15.2248 9.07922 14.9701 9.41708C14.7153 9.75494 12.2062 9.22409 11.7162 8.49781C11.2263 7.77153 11.3517 7.27336 11.7162 6.83385C12.0808 6.39435 12.5811 5.7113 12.3897 5.23166C12.1983 4.75202 11.421 4.81545 11.101 5.04536C10.781 5.27528 9.79337 5.25894 9.36338 5.16115C9.10912 5.1041 8.89477 4.98461 8.76172 4.82574C8.76172 4.82574 9.01893 2.81441 10.4334 2.32833C11.8478 1.84226 16.7062 4.43256 16.7062 4.43256Z" fill="#70360B"/>
<path id="Path 75" d="M12.3824 8.1452C11.4207 7.34083 13.0668 6.39364 12.4307 5.44336C12.4429 5.8974 12.03 6.45552 11.7162 6.83378C11.3517 7.27328 11.2274 7.77119 11.7162 8.49773C12.2051 9.22427 14.7151 9.75486 14.9701 9.417C15.1393 9.19249 15.0568 8.95859 15.1496 8.75955C14.1037 8.88474 13.0322 8.70101 12.3824 8.1452Z" fill="#5E2E0B"/>
<path id="Path 76" d="M16.7065 4.43268C16.7065 4.43268 11.8489 1.84225 10.4336 2.32833C10.0556 2.47418 9.74812 2.6924 9.54883 2.95619C11.2801 3.88591 13.2566 4.57895 15.3706 4.9975C15.8737 4.88233 16.3309 4.689 16.7065 4.43268Z" fill="#5E2E0B"/>
<path id="Path 77" d="M17.7155 5.16898C17.7155 5.16898 15.4322 5.18802 12.8201 4.11989C10.2079 3.05176 9.64258 2.85118 9.64258 2.85118C9.64258 2.85118 10.512 0.382719 10.9123 0.0721351C11.3126 -0.238449 14.4846 0.505331 16.4048 1.32013C18.6383 2.26745 19.8268 2.88206 19.8508 3.24179C19.8749 3.60152 17.7155 5.16898 17.7155 5.16898Z" fill="#BC4646"/>
<g id="Group 17">
<path id="Path 78" d="M14.2338 3.05192C12.1641 2.2056 10.7231 1.59203 10.2127 1.37305C10.0606 1.73522 9.91862 2.10332 9.81445 2.38187C10.2725 2.57871 11.3494 3.03584 13.2253 3.80291C15.8376 4.87078 18.1207 4.852 18.1207 4.852C18.1207 4.852 18.3606 4.67766 18.6793 4.43231C18.8139 4.32424 18.9506 4.21192 19.0811 4.10063C18.744 4.09651 16.628 4.03089 14.2338 3.05192Z" fill="#E89191"/>
</g>
<path id="Path 79" d="M18.5283 3.01648C19.44 3.34095 19.9822 3.52957 19.8023 3.11709C19.5603 2.74642 18.3995 2.16578 16.4042 1.31946C14.5564 0.535668 11.5517 -0.181994 10.9705 0.0413588C10.8372 0.157152 12.1135 0.547504 13.7235 1.21962C15.337 1.89405 17.6169 2.69174 18.5283 3.01648Z" fill="#D15E5E"/>
<path id="Path 80" d="M12.5341 5.24172C12.5341 5.24172 12.8686 4.72953 12.4226 4.50065C11.9766 4.27176 11.1642 4.62429 10.9572 5.3799C10.7502 6.13552 11.3076 6.42436 11.5865 6.38075C11.8653 6.33713 11.9847 6.23356 12.1043 6.03748C12.2239 5.84141 12.5341 5.24172 12.5341 5.24172Z" fill="#ECB67B"/>
<path id="Path 81" d="M11.1211 5.36504C11.1979 5.09758 11.39 4.852 11.6727 4.65999C11.9674 4.4715 12.2951 4.61071 12.303 4.91164C12.3109 5.21258 12.1323 5.69749 11.894 5.83529C11.6558 5.97308 11.4885 5.83529 11.4962 5.7303C11.5039 5.62532 11.7263 5.46076 11.8557 5.46668C11.9284 5.26481 11.6913 5.12123 11.603 5.13731C11.7346 5.07427 12.0217 5.19212 12.008 5.31666C12.1089 5.02075 12.1984 4.86211 12.0871 4.73628C11.9758 4.61045 11.6438 4.71647 11.4947 4.8751C11.3456 5.03374 11.1211 5.36504 11.1211 5.36504Z" fill="#CC894C"/>
</g>
<path id="Path 82" d="M2.49445 23.3429C2.06127 22.6665 1.8298 21.9376 1.81364 21.1992C1.7657 19.9239 0.42776 20.1855 0.0932759 18.8447C-0.241208 17.504 0.427761 16.9155 0.475705 16.0326C0.52365 15.1497 -0.193263 14.3322 0.380191 13.5476C0.953646 12.7629 0.236922 12.1088 0.810189 10.8008C1.38346 9.49286 2.24383 8.25026 3.29503 7.77062C4.34624 7.29098 5.4909 5.98444 7.00087 5.84961C7.24529 6.58014 8.43996 7.46544 9.10103 7.87972C9.7621 8.29401 11.6735 9.24763 11.7771 9.37024C11.8807 9.49285 13.2026 11.3973 12.9804 12.189C12.7582 12.9808 13.0124 13.286 13.2671 13.831C13.5219 14.376 13.8086 16.1417 13.7768 16.7738C13.7451 17.4059 15.975 19.3244 16.6759 19.4769C17.2482 19.6199 17.8023 19.7949 18.3325 20.0002C18.3325 20.0002 12.7896 20.5663 11.1329 21.6569C9.47631 22.7476 8.93482 23.8151 8.93482 23.8151C8.93482 23.8151 6.32269 21.6133 6.0997 20.7849C5.90059 22.2618 7.05708 24.1824 7.05708 24.1824C7.05708 24.1824 3.3866 22.8048 2.49445 23.3429Z" fill="#EABBA2"/>
<path id="Path 83" d="M13.3299 20.8392C12.1713 20.5483 9.61991 19.872 9.16585 19.4518C8.57491 18.9047 8.95432 16.0809 10.0048 15.3069C11.0552 14.5329 11.1791 13.6343 11.2156 12.8109C11.2156 12.8109 10.5576 14.1131 10.1943 14.1836C10.7414 12.9107 11.1427 11.1886 10.5585 10.3652C10.959 12.3368 9.50146 13.984 9.50146 13.984C9.50146 13.984 6.98502 16.0305 4.39545 13.984C1.80588 11.9376 2.81986 9.51953 2.81986 9.51953C1.75493 11.1448 2.57187 12.6362 2.81986 13.1606C3.06786 13.685 2.09863 13.0608 1.62369 11.7381C1.51427 12.462 1.9155 13.51 2.64501 14.4835C3.37452 15.4569 3.73927 16.5549 3.41099 16.4301C3.08271 16.3053 2.02511 15.2571 1.40503 13.8595C1.2956 15.2821 3.15566 17.1288 3.48394 18.1021C3.81222 19.0754 3.59337 19.2252 4.17679 19.9489C4.76021 20.6726 5.41771 20.0488 6.51103 20.9472C7.35542 21.6405 9.6107 21.9363 10.5967 22.0354C10.7606 21.9103 10.9383 21.7833 11.1319 21.656C11.6135 21.3391 12.4234 21.0659 13.3299 20.8392Z" fill="#E5AC93"/>
<path id="Path 84" d="M15.556 19.7383C15.556 19.7383 15.4465 19.4124 13.6609 19.1316C10.6173 19.4499 8.56716 20.9472 8.56716 20.9472C8.56716 20.9472 7.43191 19.899 6.20114 18.6074C4.23165 19.4872 4.23165 20.9847 4.42324 22.1638C3.972 22.1218 2.6006 22.0866 1.94141 22.0708C2.01048 22.3451 2.10819 22.6157 2.23377 22.8805C3.03905 22.8614 4.90965 22.8668 5.7279 23.2868C4.5699 20.7599 6.14756 19.5927 6.14756 19.5927C6.14756 19.5927 7.95253 22.1824 8.9101 22.5193C10.6049 19.8055 15.556 19.7383 15.556 19.7383Z" fill="#E59470"/>
<path id="Path 85" d="M10.354 19.9923C9.70477 20.2612 9.10508 20.5824 8.56786 20.9492C8.56786 20.9492 7.43261 19.901 6.20184 18.6094C5.35218 18.9805 4.74785 19.564 4.51758 20.2355C4.80957 20.3844 5.13277 20.3563 5.52441 20.4459C5.6432 20.1356 5.85529 19.8458 6.14713 19.5949C6.14713 19.5949 6.8804 20.6464 7.6603 21.4966C8.22312 21.665 8.8088 21.7951 9.40886 21.8849C10.0118 21.2702 10.8341 20.771 11.7978 20.4345C11.305 20.2958 10.7959 20.1434 10.354 19.9923Z" fill="#D8805D"/>
<path id="Path 86" d="M12.3994 14.8648C12.3277 15.041 13.1836 15.3254 13.6606 15.4686C13.5915 14.9165 13.4595 14.3689 13.2658 13.8309C13.011 13.2859 12.756 12.9807 12.979 12.189C13.202 11.3974 11.8801 9.49286 11.7757 9.37024C11.6714 9.24763 9.76074 8.29388 9.09967 7.87973C8.43859 7.46557 7.24355 6.58027 6.99951 5.84961C6.09965 5.93002 5.32934 6.42677 4.63048 6.91658C4.60481 7.0765 4.64595 7.23812 4.74911 7.38269C4.85228 7.52725 5.01325 7.64883 5.21333 7.73331C6.41665 8.29491 8.0336 7.92051 10.002 9.13711C11.9703 10.3537 12.1884 11.1212 11.997 12.0384C11.8056 12.9556 12.4983 14.621 12.3994 14.8648Z" fill="#E59470"/>
<path id="Path 87" d="M28.7813 20.2071C28.4468 20.1526 25.8187 19.5859 25.4842 19.4877C25.1498 19.3895 24.4648 19.3133 23.6843 19.0517C23.2073 18.8924 22.7049 18.7715 22.1872 18.6914C22.1872 18.6914 20.0186 20.4412 21.2324 20.4798C22.4357 20.5172 22.8007 20.7577 23.3341 21.0912C23.6624 21.2769 24.0476 21.4096 24.461 21.4795C24.4966 21.6116 24.7562 21.8299 25.2611 21.9615C25.93 22.136 26.2805 22.1578 26.408 21.7109C26.5578 21.6487 26.6705 21.5521 26.726 21.4383C26.7814 21.3245 26.776 21.2009 26.7107 21.0896C27.1567 20.5878 26.2647 20.1741 26.2647 20.1741C26.8901 20.3232 27.5319 20.4381 28.184 20.5175C28.8768 20.5722 29.0998 20.3269 28.7813 20.2071Z" fill="#ECB67B"/>
<path id="Path 88" d="M26.4066 21.712C26.452 21.4784 26.3749 21.2413 26.1889 21.043C25.8811 20.7482 25.5598 20.7482 25.553 20.6733C25.5462 20.5984 25.6694 20.6359 25.9565 20.7576C26.2436 20.8793 26.6653 21.3147 26.4066 21.712Z" fill="#E5A86C"/>
<path id="Path 89" d="M26.7105 21.0904C26.7105 21.0904 26.5456 20.6536 26.2105 20.4857C25.8755 20.3178 25.7181 20.3406 25.6704 20.2751C25.6226 20.2096 25.7456 20.1909 25.9779 20.2751C26.2103 20.3594 26.7248 20.6895 26.7105 21.0904Z" fill="#E5A86C"/>
<path id="Path 90" d="M28.9072 20.2965C28.8021 20.5647 28.2856 20.4806 27.74 20.3856C27.0349 20.2568 26.3518 20.077 25.7023 19.8491C25.333 19.69 25.0799 19.8351 25.4972 19.9052C25.9144 19.9753 26.4624 20.2912 26.4624 20.2912C27.0238 20.4097 27.5971 20.4999 28.1777 20.5614C28.7254 20.605 28.9824 20.4178 28.9072 20.2965Z" fill="#E5A86C"/>
<path id="Path 91" d="M25.376 21.5064C25.5811 21.6279 25.5196 21.6467 25.6563 21.6608C25.793 21.6748 26.0051 21.539 25.6905 21.3799C25.5284 21.3002 25.3418 21.2471 25.145 21.2244C24.9482 21.2018 24.7465 21.2104 24.5553 21.2494C24.1313 21.3248 23.9399 21.1465 23.5296 20.9681C23.1194 20.7896 22.5585 20.5656 22.914 19.9573C23.1013 19.5922 23.095 19.1936 22.8964 18.8313C22.6639 18.7757 22.4269 18.7297 22.1864 18.6934C22.1864 18.6934 22.0629 18.7931 21.892 18.9446L21.4336 20.4901C22.4777 20.5473 22.8309 20.7787 23.3326 21.0927C23.6609 21.2784 24.0461 21.4111 24.4596 21.481C24.537 21.4338 24.6242 21.3948 24.7185 21.3652C24.9382 21.2958 25.1708 21.3848 25.376 21.5064Z" fill="#E5A86C"/>
<path id="Path 92" d="M9.94698 10.3421C9.94698 10.3421 10.5268 11.3885 10.3042 12.0207C10.1116 12.7214 10.1996 13.4447 10.5588 14.114C10.8773 14.6372 11.0948 15.4656 11.8621 15.7707C12.1154 15.8723 12.3363 16.0076 12.5118 16.1686C12.6874 16.3296 12.8141 16.513 12.8844 16.708C12.9479 16.8606 13.6177 16.9478 14.4773 17.1004C15.3369 17.253 16.2612 17.7108 16.5479 17.7763C16.8346 17.8418 21.7406 18.4685 22.4096 18.6482C22.6245 19.8745 21.43 21.117 21.0955 21.2478C19.4708 21.2478 17.1725 20.9808 16.1912 21.0025C15.21 21.0243 15.4997 21.1617 13.9038 20.9808C12.3079 20.7999 10.7045 21.1115 9.16576 20.632C7.62702 20.1525 5.84349 19.651 5.46181 18.8445C5.08013 18.0381 4.44238 15.3131 3.34341 13.3508C2.24445 11.3885 3.10444 9.3397 5.82826 8.86057C8.55207 8.38144 9.94698 10.3421 9.94698 10.3421Z" fill="#EFC3AF"/>
<path id="Path 93" d="M8.00636 9.59211C8.07931 9.57924 9.57461 10.1038 9.84893 11.0021C10.1232 11.9004 10.1225 13.0487 9.84893 13.2981C9.57536 13.5476 9.35651 13.4479 8.00636 12.4247C6.6562 11.4014 6.38339 12.1876 6.76638 12.5994C7.14937 13.0112 7.69632 13.6601 8.95453 14.1466C10.2127 14.6332 10.9605 15.2877 11.5986 15.7779C12.2368 16.2681 12.7476 16.5675 12.4558 16.7797C12.164 16.9918 11.1064 16.9045 9.92113 16.2305C8.73586 15.5566 8.4623 15.2572 7.73279 14.4462C7.00328 13.6351 5.7633 12.1626 6.21925 11.6634C6.67519 11.1642 7.40376 11.5885 7.7875 11.2141C8.17125 10.8397 6.85757 10.2283 7.07623 9.84145C7.2949 9.45457 8.00636 9.59211 8.00636 9.59211Z" fill="#F4CEBE"/>
<path id="Path 94" d="M19.7137 18.4593C19.7137 18.4593 18.7016 18.9273 16.7596 18.609C14.8175 18.2907 13.532 18.5895 11.6718 18.6929C9.81154 18.7963 10.222 18.0101 11.3982 17.7856C12.5745 17.5611 14.5712 17.6919 14.7354 17.6358C14.8995 17.5797 13.0257 17.1491 11.6171 17.3551C10.2084 17.5611 8.4988 17.5719 7.81498 17.2997C7.13116 17.0274 7.54141 16.6435 9.6066 16.8309C11.6718 17.0184 12.581 16.9349 13.2036 16.9619C13.8261 16.9889 14.3798 17.093 15.214 17.4392C16.0483 17.7855 17.9634 18.4396 19.7137 18.4593Z" fill="#F4CEBE"/>
<path id="Path 95" d="M18.3047 21.1101C18.8992 21.1525 19.533 21.1971 20.1333 21.2238C21.3231 20.3082 21.4512 18.8851 21.4624 18.478C21.0274 18.4101 20.4927 18.3325 19.9372 18.2539C20.1461 19.7655 18.8494 20.7626 18.3047 21.1101Z" fill="#E59470"/>
<path id="Path 96" d="M6.62305 5.90827L8.15351 5.16797C8.15351 5.16797 9.3164 7.08898 10.3676 7.72662C11.4188 8.36425 12.1119 8.48686 11.7777 9.36972C10.6308 9.14894 8.92645 8.22581 7.95497 7.45193C7.37788 6.9969 6.92656 6.47384 6.62305 5.90827Z" fill="#EFC3AF"/>
</g>
</svg>
