<svg width="29" height="21" viewBox="0 0 29 21" fill="none" xmlns="http://www.w3.org/2000/svg">
<path d="M29.0008 5.11133L25.077 1.60358L24.817 1.72365L24.1374 1.16405L23.9564 1.24295L22.9152 0.392605C22.9152 0.392605 22.8412 0.465932 22.705 0.585572L22.1945 0.161471C22.1211 0.241946 22.0438 0.318378 21.9629 0.390459L21.5461 0.00195312C20.5915 1.0942 19.2811 1.77715 17.87 1.91791C16.2434 2.04441 15.1413 2.43592 14.648 3.85703L14.6411 3.87633L14.6365 3.88963C14.6213 3.93251 14.6069 3.97539 14.5954 4.01827C14.5822 3.97539 14.5678 3.93251 14.5542 3.88963C14.5542 3.88534 14.551 3.88062 14.5493 3.87633C14.5477 3.87204 14.5448 3.86389 14.5427 3.85703C14.0491 2.43592 12.9474 2.04441 11.3208 1.91791C9.90967 1.77723 8.59928 1.09427 7.64465 0.00195312L7.22791 0.390459C7.14679 0.318409 7.06934 0.241976 6.99589 0.161471L6.48536 0.585572C6.34961 0.465932 6.27556 0.392605 6.27556 0.392605L5.23434 1.24295L5.05333 1.16405L4.30585 1.7794L3.92573 1.60402L0.00195312 5.11175V6.42437L12.2715 12.0985L8.31684 14.3421L6.19781 15.5428L4.8859 16.2872L4.01089 16.7838L1.94204 19.9141L2.40649 20.9999L14.5012 14.4446L26.5959 20.9999L27.0603 19.9141L24.9919 16.7838L24.1173 16.2872L22.805 15.5428L20.6863 14.3421L20.2717 14.1067L19.857 13.8712L19.4423 13.6362L19.0276 13.4008L17.3517 12.4501L16.7313 12.0981L29.0004 6.42393L29.0008 5.11133Z" fill="#9B7056"/>
<path d="M26.7463 3.77015L27.6164 4.52787C27.6164 4.52787 27.9533 4.81989 27.6456 5.09648L26.755 5.49829L25.866 5.89965L24.9782 6.30017L24.8396 6.36321L24.1168 6.72513L23.2628 7.15395L22.6045 7.48414C22.7078 7.60549 22.8102 7.72814 22.9143 7.84863C22.9299 7.86707 22.4445 8.11665 22.4593 8.13595L22.8193 7.96914L24.6771 7.1115L26.9973 6.03945L27.212 5.93997L28.9999 5.1132L25.0761 1.60547L24.8161 1.72554L26.6892 3.26929L26.7463 3.77015Z" fill="#A47E64"/>
<path d="M22.9139 7.84691C22.8098 7.72641 22.7082 7.60378 22.6042 7.48242L21.9459 7.81261C22.0282 7.90995 22.1105 8.00729 22.1928 8.1042C22.2236 8.14151 21.8538 8.3615 21.8846 8.40052L22.4503 8.13893L22.4598 8.13465C22.4445 8.11493 22.9296 7.86492 22.9139 7.84691Z" fill="#A07A60"/>
<path d="M22.1922 8.10409C22.1099 8.00761 22.0276 7.90984 21.9453 7.8125L21.2871 8.14269C21.3484 8.21516 21.4105 8.28848 21.471 8.36052C21.5175 8.41627 21.2653 8.61053 21.3097 8.66628L20.7338 8.93214L20.2031 9.17785L21.884 8.40041C21.8532 8.3631 22.223 8.14097 22.1922 8.10409Z" fill="#9B755C"/>
<path d="M20.7486 8.61771C20.8107 8.6919 20.6721 8.85785 20.7338 8.93203L21.3097 8.66617C21.2633 8.61042 21.5154 8.41616 21.471 8.36042C21.4093 8.28837 21.3476 8.21505 21.2871 8.14258L20.6289 8.4732L20.7486 8.61771Z" fill="#967057"/>
<path d="M14.7148 11.7162L17.4802 10.4375L17.3794 10.4842L14.7148 11.7162Z" fill="#916B53"/>
<path d="M20.749 8.61717L20.6255 8.47266L19.9673 8.80327C19.9875 8.82643 20.0085 8.85045 20.027 8.87446C20.1043 8.96666 20.0817 9.10474 20.159 9.19736L19.7402 9.39075L20.2035 9.17634L20.7341 8.93063C20.6712 8.85687 20.8098 8.69136 20.749 8.61717Z" fill="#916B53"/>
<path d="M20.0266 8.87391C20.0064 8.85033 19.9854 8.82632 19.9669 8.80273L19.3066 9.13335C19.3984 9.24356 19.4913 9.3529 19.5835 9.46311L19.7398 9.39021L20.1586 9.19682C20.08 9.10591 20.1035 8.96782 20.0266 8.87391Z" fill="#8D674F"/>
<path d="M14.7148 11.7147L17.3794 10.4827L17.4802 10.4359L19.1508 9.66406L17.0416 10.6396L14.7148 11.7147Z" fill="#8D674F"/>
<path d="M21.5125 14.8109C21.6977 15.6124 21.8778 16.4151 22.0613 17.2162L22.5282 17.4683L23.1753 17.8178L24.4691 18.5163L25.1167 18.8658L25.7634 19.2149L26.4105 19.5648L27.0576 19.9139L24.9891 16.7835L24.1145 16.2869L22.8022 15.5425L20.6836 14.3418L21.5125 14.8109Z" fill="#A47E64"/>
<path d="M21.5125 14.8096L20.6836 14.3379L21.0983 14.5733C21.269 15.3688 21.4319 16.1655 21.5948 16.9623L21.1283 16.7101L22.0617 17.2136C21.8799 16.4142 21.6993 15.6115 21.5125 14.8096Z" fill="#9D775E"/>
<path d="M21.1022 14.5753L20.6875 14.3398C20.8442 15.1293 20.989 15.9209 21.1322 16.7116L21.5987 16.9638C21.4346 16.1675 21.2717 15.3703 21.1022 14.5753Z" fill="#966F58"/>
<path d="M20.1974 16.2084L19.7305 15.9562L21.1292 16.7127C20.9864 15.9219 20.8412 15.1303 20.6845 14.3409L20.2698 14.1055C20.4125 14.8893 20.5401 15.6749 20.6618 16.461L20.1974 16.2084Z" fill="#8F6852"/>
<path d="M20.1976 16.2083L20.6641 16.4601C20.5407 15.674 20.4144 14.8889 20.2721 14.1046L19.8574 13.8691C19.9858 14.6466 20.0964 15.4275 20.1976 16.2083Z" fill="#88624C"/>
<path d="M19.7298 15.9588L20.1967 16.2109C20.0947 15.43 19.9848 14.6496 19.8561 13.8717L19.4414 13.6367C19.5558 14.4069 19.6483 15.1809 19.7298 15.9588Z" fill="#815B46"/>
<path d="M19.2643 15.7042L17.5254 14.7651L19.7312 15.9555C19.649 15.1798 19.5576 14.4057 19.4433 13.6339L19.0286 13.3984C19.1281 14.1647 19.203 14.9336 19.2643 15.7042Z" fill="#7C5541"/>
<path d="M19.2617 15.7033C19.2008 14.9314 19.1264 14.1634 19.0256 13.398L17.3496 12.4473L17.5228 14.7629L19.2617 15.7033Z" fill="#764F3C"/>
<path d="M15.1465 12.8348L16.2926 12.2992C16.444 12.3451 16.3465 12.478 16.3465 12.478L14.7874 13.2104C14.7606 13.223 14.7331 13.2339 14.7051 13.243L17.5239 14.7653L17.3507 12.4497L16.7303 12.0977L15.149 12.8288L15.1465 12.8348Z" fill="#674232"/>
<path d="M25.7659 19.2154L25.1192 18.8664L24.4717 18.5169L23.1779 17.8184L22.5308 17.4689L22.0638 17.2167L21.1304 16.7133L19.7317 15.9569L17.5259 14.7665L14.7071 13.2441C14.6405 13.266 14.5711 13.2771 14.5014 13.2772C14.4316 13.2771 14.3622 13.266 14.2957 13.2441L9.27144 15.9569L6.93766 17.2167L4.52983 18.5169L3.88273 18.8664L3.23562 19.2154L2.58851 19.5654L1.94141 19.9144L2.40586 21.0002L14.5005 14.4448L26.5952 21.0002L27.0597 19.9144L26.4126 19.5654L25.7659 19.2154Z" fill="#8F674D"/>
<path d="M3.23336 19.2155L3.88047 18.8664L4.52758 18.517L6.93541 17.2168C7.11888 16.4153 7.29907 15.6126 7.48419 14.8115L8.31354 14.3398L6.19451 15.5405L4.8826 16.285L4.00635 16.7828L1.9375 19.9132L2.58461 19.5641L3.23336 19.2155Z" fill="#A47E64"/>
<path d="M7.86938 16.7121L7.40247 16.9642C7.56702 16.1679 7.72787 15.3707 7.89901 14.5753L8.31368 14.3398L7.48433 14.8115C7.29921 15.613 7.11902 16.4158 6.93555 17.2168L9.26932 15.9569L7.87062 16.7134L7.86938 16.7121Z" fill="#9D775E"/>
<path d="M7.40234 16.9638L7.86927 16.7116C8.01161 15.9209 8.15723 15.1293 8.31397 14.3398L7.8993 14.5753C7.72775 15.3703 7.56525 16.1675 7.40234 16.9638Z" fill="#966F58"/>
<path d="M7.86914 16.7104L9.26785 15.954L8.80134 16.2061L8.33441 16.4578C8.45783 15.6718 8.58413 14.8866 8.72688 14.1023L12.2673 12.0938L8.31261 14.3373C8.1567 15.1289 8.01148 15.9205 7.86914 16.7104Z" fill="#8F6852"/>
<path d="M8.33594 16.4598L8.80286 16.2081C8.90447 15.4272 9.01431 14.6467 9.14308 13.8689L12.2696 12.0957L8.72922 14.1043C8.58565 14.8882 8.45812 15.6738 8.33594 16.4598Z" fill="#88624C"/>
<path d="M8.80273 16.2076L9.26924 15.9555C9.35152 15.1798 9.44285 14.4057 9.55721 13.6339L12.2678 12.0957L9.1413 13.8689C9.01418 14.6463 8.90435 15.4268 8.80273 16.2076Z" fill="#815B46"/>
<path d="M9.26953 15.9551L14.2942 13.2424L9.73645 15.7038C9.79733 14.9319 9.87221 14.1639 9.97259 13.3985L12.2689 12.0957L9.55832 13.6339C9.44313 14.4053 9.35099 15.1798 9.26953 15.9551Z" fill="#7C5541"/>
<path d="M9.73633 15.7038L14.294 13.2424L11.5814 14.7068L11.8085 12.3564L12.2688 12.0957L9.97246 13.3985C9.87208 14.1643 9.79721 14.9332 9.73633 15.7038Z" fill="#764F3C"/>
<path d="M14.1981 13.2096L12.639 12.4772C12.639 12.4772 12.5411 12.3442 12.6929 12.2984L13.855 12.8412L13.8489 12.8267L12.2675 12.0977L11.8072 12.3584L11.5801 14.7087L14.2927 13.2443C14.2594 13.2326 14.2269 13.2183 14.1957 13.2014L14.1981 13.2096Z" fill="#674232"/>
<path d="M10.7793 10.0957L14.2843 11.7162L11.2812 10.3281L10.7793 10.0957Z" fill="#A47E64"/>
<path d="M4.96499 7.40653L8.14294 8.8761L9.43921 9.47644L9.24956 9.38852L8.59711 9.08836L8.15569 8.88467L7.81753 8.72772L7.71551 8.68054L7.59497 8.62523L6.54019 8.13723C6.55582 8.11879 6.06956 7.86794 6.0852 7.84993C6.20573 7.70928 6.32462 7.56733 6.44433 7.42582L5.79393 7.08835L4.95471 6.65224L4.7556 6.54846L4.08093 6.24401L3.19522 5.84435L2.30704 5.4434L1.54351 5.10034C1.51174 5.07251 1.48403 5.04001 1.46124 5.00386C1.30985 4.75987 1.57231 4.53216 1.57231 4.53216L2.44239 3.77444L2.49833 3.268L4.3039 1.78085L3.92378 1.60547L0 5.1132L1.78829 5.93997L4.96499 7.40653Z" fill="#A47E64"/>
<path d="M6.80716 8.1048C6.90424 7.99116 6.99927 7.87667 7.09512 7.76175L6.44349 7.42383C6.32378 7.56534 6.2053 7.70728 6.08435 7.84794C6.06872 7.86637 6.55498 8.11681 6.53935 8.13525L7.59414 8.62325L7.71467 8.67856L7.81669 8.72573L7.11405 8.40112C7.1449 8.36381 6.77466 8.14168 6.80716 8.1048Z" fill="#A07A60"/>
<path d="M8.26488 8.93283L7.68894 8.66653C7.73542 8.61122 7.48325 8.41696 7.52768 8.36121C7.6009 8.27545 7.67331 8.18711 7.74653 8.10006L7.09449 7.76172C6.99782 7.87621 6.90278 7.99072 6.80652 8.10478C6.77566 8.14209 7.1455 8.36206 7.11465 8.40109L7.81729 8.72571L8.15545 8.88266L8.59686 9.08633L9.24932 9.38651L8.26488 8.93153V8.93283Z" fill="#9B755C"/>
<path d="M7.52905 8.36033C7.48297 8.41608 7.73721 8.61034 7.69031 8.66565L8.26625 8.93195C8.32796 8.85776 8.18973 8.69181 8.25103 8.61763C8.30122 8.55845 8.35099 8.49799 8.40077 8.43838L7.74832 8.09961C7.67345 8.18623 7.60104 8.27371 7.52905 8.36033Z" fill="#967057"/>
<path d="M10.0221 9.74388L9.50412 9.50416L9.41527 9.46129L8.83933 9.195C8.91667 9.1028 8.89404 8.96428 8.97138 8.87209C8.99853 8.8395 9.02528 8.80648 9.05366 8.77432L8.40038 8.43555C8.3506 8.49558 8.30082 8.55562 8.25064 8.61479C8.18893 8.68898 8.32715 8.85493 8.26586 8.92912L9.2503 9.3841L9.43995 9.47201L9.54814 9.52218L10.7798 10.0916L11.2825 10.3241L14.2856 11.7122L11.6211 10.4806L10.0221 9.74388Z" fill="#916B53"/>
<path d="M9.50391 9.50586L10.0218 9.74513L11.6192 10.484L14.2838 11.716L11.957 10.6401L9.50391 9.50586Z" fill="#8D674F"/>
<path d="M8.9719 8.87511C8.89456 8.96731 8.91718 9.10538 8.83984 9.19801L9.41579 9.46431C9.50835 9.35324 9.60214 9.24347 9.6947 9.13241C9.69923 9.12769 9.70334 9.12212 9.70746 9.11655L9.05377 8.77734C9.02497 8.80993 8.99905 8.84295 8.9719 8.87511Z" fill="#8D674F"/>
<path d="M14.4406 11.5739L9.70964 9.11719C9.70553 9.12233 9.70141 9.1279 9.69688 9.13305C9.60432 9.24411 9.51094 9.35388 9.41797 9.46495L9.50682 9.50783L11.9599 10.6421L14.2867 11.718C14.3562 11.6943 14.4288 11.6823 14.5019 11.6824C14.5749 11.6823 14.6475 11.6943 14.717 11.718L17.0438 10.6421L19.153 9.66649L19.5857 9.46666C19.494 9.35646 19.401 9.24712 19.3089 9.13691L14.4406 11.5739Z" fill="#88624B"/>
<path d="M7.74827 8.09975L8.40072 8.43852L9.054 8.77728L9.70769 9.11648L14.4386 11.5732L19.3053 9.13449L19.9656 8.80387L20.6238 8.47325L21.282 8.14264L21.9402 7.81244L22.5984 7.48225L23.2566 7.15207L24.1107 6.72325L24.8335 6.36133L15.3445 10.6431C15.262 10.7768 15.1505 10.8884 15.019 10.969C14.8875 11.0496 14.7397 11.0969 14.5875 11.1071C14.4353 11.0969 14.2874 11.0496 14.1559 10.9691C14.0243 10.8885 13.9128 10.7768 13.8302 10.6431L4.74805 6.54442L4.94715 6.6482L5.78761 7.0843L6.43801 7.42179L7.08965 7.7597L7.74827 8.09975Z" fill="#4C2B1B"/>
<path d="M14.5922 10.7247C14.7423 10.7204 15.0212 10.642 15.2257 10.1673L27.6149 4.5253L26.7449 3.76758L26.8086 4.34562L15.1253 9.80748C15.0678 9.70534 14.991 9.61635 14.8997 9.54583C14.8084 9.47532 14.7043 9.42473 14.5938 9.3971C14.4832 9.42466 14.3791 9.47521 14.2877 9.54573C14.1963 9.61625 14.1195 9.70528 14.0619 9.80748L2.37858 4.34562L2.44235 3.76758L1.57227 4.5253L13.9611 10.1673C14.1631 10.642 14.442 10.7204 14.5922 10.7247Z" fill="#914846"/>
<path d="M14.6562 8.46544C15.7438 7.65038 16.9594 7.03931 18.2485 6.65968C20.5588 5.96242 25.1289 3.89038 25.7669 3.32991L25.583 3.19141C24.2106 4.62538 19.2477 6.30719 17.1657 6.70771C16.6448 6.77619 16.1466 6.97083 15.7108 7.27606C15.275 7.58128 14.9139 7.98861 14.6562 8.46544Z" fill="#A29A8F"/>
<path d="M16.252 5.89001C15.8233 6.13752 15.4524 6.48064 15.1656 6.89486C14.8788 7.30907 14.6832 7.78417 14.5929 8.28625C14.5026 7.78418 14.307 7.30909 14.0202 6.89488C13.7334 6.48067 13.3625 6.13755 12.9338 5.89001C11.4084 5.12843 6.04312 4.369 4.7378 2.45175L4.46875 2.6846C4.46875 2.6846 5.23351 4.52851 10.5017 5.90502C11.6305 6.19962 14.0314 6.43761 14.5929 8.50624V8.31198C15.2256 6.37844 17.538 6.14431 18.6393 5.85657C23.9075 4.47964 24.6722 2.63657 24.6722 2.63657L24.4517 2.44531C23.1534 4.36814 17.7795 5.128 16.252 5.89001Z" fill="#BDB5AA"/>
<path d="M14.5934 11.1088C14.7456 11.0987 14.8934 11.0514 15.0249 10.9708C15.1564 10.8902 15.2678 10.7786 15.3504 10.6449L24.8393 6.36312L24.978 6.30008L25.8657 5.89956L26.7547 5.49819L27.6454 5.09638C27.9527 4.82023 27.6162 4.52778 27.6162 4.52778L15.2269 10.1697C15.0212 10.6414 14.7436 10.7208 14.5934 10.7272C14.4433 10.7229 14.1643 10.6444 13.9595 10.1697L1.57022 4.52734C1.57022 4.52734 1.30776 4.75548 1.45915 4.99905C1.48194 5.0352 1.50966 5.06769 1.54143 5.09552L2.30495 5.43858L3.19314 5.83953L4.07885 6.23919L4.75352 6.54365L13.8356 10.6423C13.918 10.7766 14.0295 10.8888 14.1611 10.9698C14.2928 11.0509 14.4408 11.0985 14.5934 11.1088Z" fill="#753430"/>
<path d="M14.0614 9.81001C14.119 9.70781 14.1958 9.61878 14.2872 9.54826C14.3786 9.47774 14.4827 9.42719 14.5933 9.39963C14.7038 9.42726 14.8079 9.47785 14.8992 9.54836C14.9905 9.61888 15.0673 9.70787 15.1248 9.81001L26.8081 4.34815L26.7444 3.77011L26.688 3.26367L14.5933 8.84988L2.49862 3.26367L2.44268 3.77011L2.37891 4.34815L14.0614 9.81001Z" fill="#BFC0C2"/>
<path d="M14.5929 8.85016L26.6876 3.26394L24.8146 1.72019L24.135 1.16059L23.954 1.23949L25.8669 2.80211C25.7927 2.94649 25.6969 3.07763 25.5831 3.19062L25.767 3.32913C25.1289 3.88959 20.5588 5.96163 18.2485 6.65889C16.9595 7.03852 15.7439 7.64959 14.6563 8.46465C14.6316 8.5131 14.6102 8.55942 14.5917 8.60144C13.4812 7.73567 12.2256 7.0932 10.8893 6.70692C8.57892 6.01009 4.00886 3.93762 3.3708 3.37758L3.60735 3.19919C3.49011 3.08392 3.39148 2.94969 3.31526 2.80167L5.2282 1.23907L5.04719 1.16016L4.29971 1.77551L2.49414 3.26266L14.5929 8.85016Z" fill="#D5CDBF"/>
<path d="M12.0191 6.70892C9.94285 6.30969 4.99349 4.633 3.60959 3.20117L3.37305 3.37957C4.0111 3.9396 8.58117 6.01209 10.8915 6.70892C12.2278 7.09519 13.4834 7.73766 14.594 8.60344C14.3652 8.08328 13.7062 7.03353 12.0191 6.70892Z" fill="#A29A8F"/>
<path d="M3.60921 3.2011C4.9931 4.63293 9.94247 6.30961 12.0187 6.70884C13.7054 7.03388 14.3636 8.08363 14.5928 8.60336C14.6113 8.56047 14.6339 8.51502 14.6577 8.46656C14.9153 7.98966 15.2765 7.58225 15.7122 7.27695C16.148 6.97165 16.6463 6.77693 17.1672 6.7084C19.2476 6.30789 24.2121 4.6265 25.5845 3.1921C25.6983 3.07912 25.7941 2.94797 25.8684 2.80359L23.9554 1.24097L22.9142 0.390625C22.9142 0.390625 22.8402 0.463952 22.704 0.583592L24.6087 2.16465C24.5648 2.26334 24.5123 2.35764 24.452 2.44638L24.6725 2.63764C24.6725 2.63764 23.9077 4.48156 18.6395 5.85764C17.5383 6.1458 15.225 6.3795 14.5932 8.31305V8.5073C14.0316 6.43825 11.6312 6.20068 10.5019 5.90608C5.23377 4.52915 4.469 2.68566 4.469 2.68566L4.73805 2.45282C4.67611 2.36231 4.6224 2.26597 4.57761 2.16507L6.48232 0.584024C6.34656 0.464384 6.27251 0.39105 6.27251 0.39105L5.2313 1.2414L3.31836 2.80402C3.39424 2.95179 3.49245 3.08587 3.60921 3.2011Z" fill="#EEE9E1"/>
<path d="M4.73805 2.45241C6.04378 4.36966 11.4086 5.1291 12.9341 5.89068C13.3627 6.13822 13.7337 6.48133 14.0205 6.89554C14.3073 7.30975 14.5028 7.78484 14.5932 8.28691C14.6835 7.78483 14.879 7.30973 15.1658 6.89551C15.4526 6.4813 15.8236 6.1382 16.2523 5.89068C17.7797 5.12867 23.1537 4.3688 24.4524 2.4464C24.5128 2.35766 24.5652 2.26337 24.6091 2.16468L22.7044 0.583619L22.1939 0.159518C22.1206 0.239992 22.0433 0.316424 21.9623 0.388506L21.5456 0C20.5909 1.09225 19.2805 1.7752 17.8694 1.91596C16.2428 2.04246 15.1407 2.43397 14.6475 3.85507L14.6405 3.87438L14.6359 3.88766C14.6207 3.93054 14.6063 3.97343 14.5948 4.01631C14.5816 3.97343 14.5672 3.93054 14.5537 3.88766C14.5537 3.88337 14.5504 3.87867 14.5487 3.87438C14.5471 3.87009 14.5442 3.86194 14.5422 3.85507C14.0485 2.43397 12.9468 2.04246 11.3202 1.91596C9.90909 1.77528 8.59869 1.09232 7.64407 0L7.22734 0.388506C7.14621 0.316458 7.06876 0.240025 6.99531 0.159518L6.48479 0.583619L4.58008 2.16468C4.62408 2.26548 4.67697 2.3618 4.73805 2.45241Z" fill="#FFFCF4"/>
<path d="M14.285 11.7151C14.1343 11.7706 14.0041 11.8741 13.9129 12.0109C13.8216 12.1477 13.7739 12.311 13.7765 12.4776C13.7764 12.5983 13.8016 12.7175 13.8502 12.8271L13.8563 12.8416L12.6942 12.2987C12.5428 12.3446 12.6403 12.4776 12.6403 12.4776L14.1994 13.21L14.1969 13.2018C14.2282 13.2187 14.2607 13.233 14.294 13.2447C14.3606 13.2666 14.43 13.2777 14.4997 13.2777C14.5695 13.2777 14.6389 13.2666 14.7054 13.2447C14.7335 13.2356 14.7609 13.2247 14.7877 13.2121L16.3468 12.4797C16.3468 12.4797 16.4443 12.3468 16.293 12.3009L15.1468 12.8365L15.1501 12.8292C15.1987 12.7196 15.2238 12.6004 15.2238 12.4797C15.2263 12.3131 15.1785 12.1498 15.0872 12.013C14.9959 11.8762 14.8656 11.7728 14.7149 11.7173C14.6454 11.6936 14.5728 11.6816 14.4997 11.6817C14.4269 11.681 14.3544 11.6923 14.285 11.7151ZM14.9621 12.4776C14.9656 12.6089 14.9188 12.7364 14.8322 12.8319C14.7456 12.9274 14.6262 12.9832 14.5001 12.987C14.3741 12.9832 14.2547 12.9274 14.1681 12.8319C14.0814 12.7364 14.0347 12.6089 14.0382 12.4776C14.0348 12.3463 14.0816 12.2189 14.1682 12.1235C14.2548 12.0281 14.3742 11.9724 14.5001 11.9686C14.6262 11.9723 14.7456 12.0279 14.8323 12.1234C14.919 12.2188 14.9659 12.3462 14.9625 12.4776H14.9621Z" fill="#3C2C27"/>
</svg>
