<svg width="13" height="14" viewBox="0 0 13 14" fill="none" xmlns="http://www.w3.org/2000/svg">
<path id="Vector" d="M10.8333 14C10.2315 14 9.71991 13.7958 9.29861 13.3875C8.87731 12.9792 8.66667 12.4833 8.66667 11.9C8.66667 11.8183 8.67268 11.7336 8.68472 11.6459C8.69676 11.5582 8.71482 11.4795 8.73889 11.41L3.64722 8.54C3.44259 8.715 3.21389 8.8522 2.96111 8.9516C2.70833 9.051 2.44352 9.10047 2.16667 9.1C1.56481 9.1 1.05324 8.89583 0.631944 8.4875C0.210648 8.07917 0 7.58333 0 7C0 6.41667 0.210648 5.92083 0.631944 5.5125C1.05324 5.10417 1.56481 4.9 2.16667 4.9C2.44352 4.9 2.70833 4.9497 2.96111 5.0491C3.21389 5.1485 3.44259 5.28547 3.64722 5.46L8.73889 2.59C8.71482 2.52 8.69676 2.44137 8.68472 2.3541C8.67268 2.26683 8.66667 2.18213 8.66667 2.1C8.66667 1.51667 8.87731 1.02083 9.29861 0.6125C9.71991 0.204167 10.2315 0 10.8333 0C11.4352 0 11.9468 0.204167 12.3681 0.6125C12.7894 1.02083 13 1.51667 13 2.1C13 2.68333 12.7894 3.17917 12.3681 3.5875C11.9468 3.99583 11.4352 4.2 10.8333 4.2C10.5565 4.2 10.2917 4.15053 10.0389 4.0516C9.78611 3.95267 9.55741 3.81547 9.35278 3.64L4.26111 6.51C4.28518 6.58 4.30324 6.65887 4.31528 6.7466C4.32731 6.83433 4.33333 6.9188 4.33333 7C4.33333 7.08167 4.32731 7.16637 4.31528 7.2541C4.30324 7.34183 4.28518 7.42047 4.26111 7.49L9.35278 10.36C9.55741 10.185 9.78611 10.048 10.0389 9.9491C10.2917 9.85017 10.5565 9.80047 10.8333 9.8C11.4352 9.8 11.9468 10.0042 12.3681 10.4125C12.7894 10.8208 13 11.3167 13 11.9C13 12.4833 12.7894 12.9792 12.3681 13.3875C11.9468 13.7958 11.4352 14 10.8333 14ZM10.8333 2.8C11.038 2.8 11.2096 2.7328 11.3483 2.5984C11.4869 2.464 11.556 2.29787 11.5556 2.1C11.5556 1.90167 11.4862 1.73553 11.3476 1.6016C11.2089 1.46767 11.0375 1.40047 10.8333 1.4C10.6287 1.4 10.4573 1.4672 10.3191 1.6016C10.1809 1.736 10.1116 1.90213 10.1111 2.1C10.1111 2.29833 10.1804 2.4647 10.3191 2.5991C10.4578 2.7335 10.6292 2.80047 10.8333 2.8ZM2.16667 7.7C2.3713 7.7 2.54294 7.6328 2.68161 7.4984C2.82028 7.364 2.88937 7.19787 2.88889 7C2.88889 6.80167 2.81956 6.63553 2.68089 6.5016C2.54222 6.36767 2.37081 6.30047 2.16667 6.3C1.96204 6.3 1.79063 6.3672 1.65244 6.5016C1.51426 6.636 1.44493 6.80213 1.44444 7C1.44444 7.19833 1.51378 7.3647 1.65244 7.4991C1.79111 7.6335 1.96252 7.70047 2.16667 7.7ZM10.8333 12.6C11.038 12.6 11.2096 12.5328 11.3483 12.3984C11.4869 12.264 11.556 12.0979 11.5556 11.9C11.5556 11.7017 11.4862 11.5355 11.3476 11.4016C11.2089 11.2677 11.0375 11.2005 10.8333 11.2C10.6287 11.2 10.4573 11.2672 10.3191 11.4016C10.1809 11.536 10.1116 11.7021 10.1111 11.9C10.1111 12.0983 10.1804 12.2647 10.3191 12.3991C10.4578 12.5335 10.6292 12.6005 10.8333 12.6Z" fill="#2A2C41"/>
</svg>
