<svg width="20" height="18" viewBox="0 0 20 18" fill="none" xmlns="http://www.w3.org/2000/svg">
<g id="Group 2696">
<g id="Group 2276">
<path id="Path 12002" d="M14.9317 12.8618C14.9317 16.9104 4.90256 16.9104 4.90256 12.8618C4.89639 11.8935 5.02152 10.9329 5.27076 10.0356C5.52 9.13834 5.88841 8.32214 6.35467 7.63418C6.82093 6.94623 7.37579 6.40013 7.98725 6.02745C8.59871 5.65477 9.25465 5.46289 9.91713 5.46289C10.5796 5.46289 11.2355 5.65477 11.847 6.02745C12.4584 6.40013 13.0133 6.94623 13.4796 7.63418C13.9458 8.32214 14.3142 9.13834 14.5635 10.0356C14.8127 10.9329 14.9378 11.8935 14.9317 12.8618Z" fill="#FDBF50"/>
<g id="Group 2274">
<path id="Path 12003" d="M10.6584 1.08364C10.6584 1.68171 10.3262 3.94879 9.91709 3.94879C9.50796 3.94879 9.17578 1.68235 9.17578 1.08364C9.17578 0.796238 9.25389 0.520621 9.39291 0.317397C9.53193 0.114174 9.72049 0 9.91709 0C10.1137 0 10.3023 0.114174 10.4413 0.317397C10.5803 0.520621 10.6584 0.796238 10.6584 1.08364Z" fill="#FDBF50"/>
<path id="Path 12005" d="M3.30973 4.77916C3.66451 5.07851 4.84105 6.63186 4.63626 7.14985C4.43148 7.66784 2.9232 6.95536 2.56842 6.656C2.39816 6.51272 2.27383 6.27646 2.22275 5.99915C2.17166 5.72185 2.19803 5.42625 2.29604 5.17736C2.39406 4.92848 2.55567 4.74669 2.74537 4.67202C2.93507 4.59734 3.1373 4.63588 3.30755 4.77916H3.30973Z" fill="#FDBF50"/>
<path id="Path 12006" d="M1.85979 11.7772C2.26935 11.7772 3.81979 12.2622 3.81979 12.8577C3.81979 13.4532 2.26937 13.9381 1.86024 13.9381C1.66369 13.9381 1.47519 13.824 1.33621 13.6209C1.19723 13.4177 1.11914 13.1422 1.11914 12.8548C1.11914 12.5675 1.19723 12.292 1.33621 12.0888C1.47519 11.8856 1.66369 11.7715 1.86024 11.7715L1.85979 11.7772Z" fill="#FDBF50"/>
<path id="Path 12012" d="M17.9737 13.9453C17.5645 13.9453 16.0137 13.4604 16.0137 12.8649C16.0137 12.2693 17.5645 11.7812 17.9732 11.7812C18.1699 11.7813 18.3584 11.8954 18.4974 12.0986C18.6365 12.3019 18.7145 12.5775 18.7145 12.8649C18.7145 13.1523 18.6365 13.4279 18.4974 13.6311C18.3584 13.8344 18.1699 13.9485 17.9732 13.9485L17.9737 13.9453Z" fill="#FDBF50"/>
<path id="Path 12013" d="M17.2654 6.65541C16.911 6.95476 15.4024 7.66788 15.1976 7.14989C14.9928 6.6319 16.1702 5.07792 16.5245 4.77921C16.6947 4.63593 16.8969 4.59735 17.0866 4.67196C17.2762 4.74658 17.4378 4.92828 17.5358 5.17708C17.6338 5.42588 17.6602 5.72139 17.6092 5.99864C17.5582 6.27588 17.4339 6.51213 17.2637 6.65541H17.2654Z" fill="#FDBF50"/>
</g>
</g>
<g id="Path 12015">
<path id="Vector" d="M19.892 17.4574H19.7833H0.218071H0.109375V17.2985V13.8097V13.6508H0.218071H7.64332L9.94556 12.1966L9.99086 12.168L10.0354 12.199L12.1207 13.6508H19.7833H19.892V13.8097V17.2985V17.4574Z" fill="#E9EDE0"/>
<path id="Vector_2" d="M9.988 12.3432L7.66511 13.8105H0.217391V17.2993H19.7826V13.8105H12.0954L9.988 12.3432ZM9.988 12.0254C10.02 12.0254 10.0519 12.0357 10.0815 12.0563L12.1445 13.4927H19.7826C19.9027 13.4927 20 13.635 20 13.8105V17.2993C20 17.4748 19.9027 17.6171 19.7826 17.6171H0.217391C0.0973378 17.6171 0 17.4748 0 17.2993V13.8105C0 13.635 0.0973378 13.4927 0.217391 13.4927H7.62016L9.90179 12.0515C9.92931 12.0341 9.95868 12.0254 9.988 12.0254Z" fill="#ABB1C7"/>
</g>
</g>
</svg>
