<svg width="22" height="17" viewBox="0 0 22 17" fill="none" xmlns="http://www.w3.org/2000/svg">
<g id="Group 2695">
<path id="Path 12002" d="M17.2703 8.31578C17.2703 9.25319 16.9026 10.1695 16.2137 10.949C15.5247 11.7284 14.5455 12.3359 13.3998 12.6946C12.2541 13.0533 10.9935 13.1472 9.7772 12.9643C8.56095 12.7814 7.44376 12.33 6.56689 11.6672C5.69002 11.0043 5.09288 10.1598 4.85095 9.24044C4.60903 8.32104 4.73317 7.36806 5.20772 6.50201C5.68228 5.63596 6.48593 4.89574 7.51702 4.37494C8.54811 3.85415 9.76035 3.57617 11.0004 3.57617C12.6633 3.57617 14.2581 4.07553 15.4339 4.96438C16.6098 5.85323 17.2703 7.05876 17.2703 8.31578Z" fill="#FDBF50"/>
<g id="Group 2274">
<path id="Path 12003" d="M11.9285 0.700855C11.9285 1.08766 11.5131 2.55305 11.0014 2.55305C10.4897 2.55305 10.0742 1.08766 10.0742 0.700855C10.0742 0.514976 10.1719 0.336716 10.3458 0.20528C10.5197 0.073844 10.7555 0 11.0014 0C11.2473 0 11.4831 0.073844 11.657 0.20528C11.8309 0.336716 11.9285 0.514976 11.9285 0.700855Z" fill="#FDBF50"/>
<path id="Path 12004" d="M6.7664 1.37027C7.0219 1.70519 7.63196 3.13097 7.19104 3.32464C6.75011 3.51831 5.42167 2.40604 5.16334 2.07059C5.04039 1.90968 5.00702 1.71844 5.0706 1.53895C5.13417 1.35945 5.2895 1.2064 5.50236 1.11346C5.71522 1.02053 5.9682 0.995313 6.20566 1.04337C6.44311 1.09143 6.64557 1.20883 6.76852 1.36973L6.7664 1.37027Z" fill="#FDBF50"/>
<path id="Path 12005" d="M2.73949 3.90205C3.18254 4.09572 4.65395 5.09992 4.39845 5.43484C4.14295 5.76975 2.25683 5.30911 1.81308 5.11383C1.60022 5.02096 1.44487 4.86799 1.38123 4.68854C1.31759 4.5091 1.35082 4.31789 1.47367 4.15698C1.59653 3.99608 1.79894 3.87865 2.03632 3.83054C2.27371 3.78243 2.52663 3.80757 2.73949 3.90044V3.90205Z" fill="#FDBF50"/>
<path id="Path 12006" d="M0.926415 7.61523C1.43812 7.61523 3.37667 7.92873 3.37667 8.31553C3.37667 8.70234 1.43812 9.01587 0.926415 9.01587C0.680707 9.01587 0.445066 8.9421 0.271324 8.81077C0.0975821 8.67943 0 8.50127 0 8.31553C0 8.1298 0.0975821 7.95167 0.271324 7.82033C0.445066 7.689 0.680707 7.61523 0.926415 7.61523Z" fill="#FDBF50"/>
<path id="Path 12007" d="M1.81165 11.5187C2.2547 11.3256 4.14157 10.8644 4.39707 11.1977C4.65257 11.531 3.18112 12.5352 2.73807 12.7305C2.52521 12.8234 2.27226 12.8486 2.03481 12.8006C1.79736 12.7525 1.59485 12.6351 1.4719 12.4742C1.34896 12.3133 1.31562 12.1221 1.3792 11.9426C1.44278 11.7631 1.59806 11.61 1.81092 11.5171L1.81165 11.5187Z" fill="#FDBF50"/>
<path id="Path 12008" d="M5.16042 14.5616C5.41662 14.2267 6.74506 13.1144 7.18811 13.3075C7.63116 13.5007 7.02106 14.927 6.76344 15.2619C6.70527 15.3453 6.62545 15.4189 6.52875 15.4784C6.43204 15.5378 6.32046 15.582 6.20066 15.6081C6.08087 15.6342 5.95533 15.6417 5.83158 15.6303C5.70783 15.6188 5.58841 15.5886 5.48047 15.5415C5.37253 15.4943 5.2783 15.4312 5.2034 15.3558C5.12851 15.2805 5.07449 15.1945 5.04461 15.103C5.01472 15.0115 5.00955 14.9164 5.02944 14.8234C5.04934 14.7303 5.09391 14.6413 5.16042 14.5616Z" fill="#FDBF50"/>
<path id="Path 12009" d="M10.0726 15.9303C10.0726 15.543 10.4874 14.0781 10.9998 14.0781C11.5122 14.0781 11.9262 15.5435 11.9262 15.9303C11.9297 16.024 11.9082 16.1171 11.8632 16.2044C11.8181 16.2917 11.7504 16.3712 11.664 16.4384C11.5776 16.5055 11.4743 16.5589 11.3601 16.5953C11.246 16.6318 11.1233 16.6506 10.9994 16.6506C10.8755 16.6506 10.7529 16.6318 10.6387 16.5953C10.5246 16.5589 10.4212 16.5055 10.3348 16.4384C10.2484 16.3712 10.1807 16.2917 10.1357 16.2044C10.0907 16.1171 10.0692 16.024 10.0726 15.9303Z" fill="#FDBF50"/>
<path id="Path 12010" d="M15.2346 15.2601C14.9784 14.9251 14.3691 13.4993 14.81 13.3057C15.2509 13.112 16.5794 14.2248 16.8377 14.5597C16.9606 14.7206 16.994 14.9117 16.9305 15.0912C16.867 15.2706 16.7118 15.4236 16.499 15.5166C16.2863 15.6095 16.0334 15.6348 15.796 15.5868C15.5586 15.5387 15.3562 15.4214 15.2333 15.2606L15.2346 15.2601Z" fill="#FDBF50"/>
<path id="Path 12011" d="M19.2601 12.7294C18.8163 12.5363 17.3492 11.5316 17.6011 11.1967C17.8531 10.8617 19.7435 11.3229 20.1858 11.5177C20.3987 11.6105 20.554 11.7635 20.6177 11.943C20.6813 12.1224 20.648 12.3136 20.5252 12.4745C20.4023 12.6354 20.2 12.7528 19.9626 12.801C19.7252 12.8491 19.4722 12.8239 19.2594 12.731L19.2601 12.7294Z" fill="#FDBF50"/>
<path id="Path 12012" d="M21.0733 9.01639C20.5616 9.01639 18.623 8.7029 18.623 8.31609C18.623 7.92928 20.5623 7.61523 21.0733 7.61523C21.3191 7.61523 21.5548 7.68905 21.7286 7.82043C21.9024 7.95182 22.0001 8.13002 22.0001 8.31583C22.0001 8.50164 21.9024 8.67984 21.7286 8.81122C21.5548 8.94261 21.3191 9.01639 21.0733 9.01639Z" fill="#FDBF50"/>
<path id="Path 12013" d="M20.1873 5.1143C19.7442 5.30798 17.8573 5.76862 17.6018 5.43531C17.3463 5.102 18.8178 4.0978 19.2608 3.90253C19.3662 3.85651 19.4826 3.82663 19.6032 3.8146C19.7239 3.80258 19.8465 3.80864 19.9641 3.83243C20.0817 3.85623 20.1919 3.89729 20.2885 3.95329C20.3851 4.00928 20.4661 4.07912 20.527 4.1588C20.5878 4.23847 20.6274 4.32641 20.6433 4.41763C20.6592 4.50885 20.6512 4.60154 20.6197 4.69042C20.5882 4.7793 20.5339 4.86261 20.4598 4.93562C20.3857 5.00863 20.2934 5.0699 20.188 5.11592L20.1873 5.1143Z" fill="#FDBF50"/>
<path id="Path 12014" d="M16.8388 2.07214C16.5826 2.40706 15.2542 3.51986 14.8111 3.32619C14.3681 3.13252 14.9781 1.70674 15.2357 1.37183C15.3586 1.21092 15.561 1.09349 15.7984 1.04538C16.0358 0.997273 16.2887 1.02241 16.5016 1.11528C16.7144 1.20815 16.8698 1.36114 16.9334 1.54058C16.997 1.72003 16.9638 1.91124 16.8409 2.07214H16.8388Z" fill="#FDBF50"/>
</g>
</g>
</svg>
