<svg width="21" height="18" viewBox="0 0 21 18" fill="none" xmlns="http://www.w3.org/2000/svg">
<g id="Group 2698">
<path id="Ellipse 15" d="M10.4985 13.2277C13.3087 13.2277 15.5868 11.2918 15.5868 8.90387C15.5868 6.5159 13.3087 4.58008 10.4985 4.58008C7.68828 4.58008 5.41016 6.5159 5.41016 8.90387C5.41016 11.2918 7.68828 13.2277 10.4985 13.2277Z" fill="#FDBF50"/>
<g id="Group 2272">
<g id="Group 2263">
<path id="Path 11984" d="M11.0789 4.21807H9.91996L9.46289 0H11.534L11.0789 4.21807Z" fill="#FDBF50"/>
<path id="Path 11985" d="M8.90994 4.40877L8.31116 4.59307L6.88672 1.8907L7.95122 1.56055L8.90994 4.40877Z" fill="#FDBF50"/>
</g>
<g id="Group 2264">
<path id="Path 11986" d="M7.39576 4.99787L6.50956 5.62992L2.96875 2.64828L4.55553 1.51758L7.39576 4.99787Z" fill="#FDBF50"/>
<path id="Path 11987" d="M5.8801 6.32928L5.56274 6.79625L2.42578 5.50217L2.99396 4.66602L5.8801 6.32928Z" fill="#FDBF50"/>
</g>
<g id="Group 2265">
<path id="Path 11988" d="M5.1675 7.60705L4.96791 8.5755L0 8.22554L0.359933 6.49219L5.1675 7.60705Z" fill="#FDBF50"/>
<path id="Path 11989" d="M5.01192 9.45312L5.12236 9.98399L1.74256 10.7071L1.54297 9.75559L5.01192 9.45312Z" fill="#FDBF50"/>
</g>
<g id="Group 2266">
<path id="Path 11990" d="M5.43243 10.8223L6.01059 11.6737L1.94019 14.1211L0.904297 12.5946L5.43243 10.8223Z" fill="#FDBF50"/>
<path id="Path 11991" d="M6.71156 12.3223L7.19724 12.6688L5.15539 15.0687L4.28516 14.4468L6.71156 12.3223Z" fill="#FDBF50"/>
</g>
<g id="Group 2267">
<path id="Path 11992" d="M8.06908 13.1387L9.15621 13.4751L7.88812 17.5716L5.94141 16.9695L8.06908 13.1387Z" fill="#FDBF50"/>
<path id="Path 11993" d="M10.1805 13.5918H10.8152L11.066 16.5452H9.92969L10.1805 13.5918Z" fill="#FDBF50"/>
</g>
<g id="Group 2268">
<path id="Path 11994" d="M11.8418 13.4784L12.9289 13.1426L15.0579 16.9734L13.1119 17.5755L11.8418 13.4784Z" fill="#FDBF50"/>
<path id="Path 11995" d="M13.8027 12.6688L14.2884 12.3223L16.7148 14.448L15.8446 15.0699L13.8027 12.6688Z" fill="#FDBF50"/>
</g>
<g id="Group 2269">
<path id="Path 11996" d="M14.9863 11.6737L15.5651 10.8223L20.0893 12.5946L19.0541 14.1211L14.9863 11.6737Z" fill="#FDBF50"/>
<path id="Path 11997" d="M15.875 9.98205L15.9854 9.45117L19.4524 9.75421L19.2528 10.7051L15.875 9.98205Z" fill="#FDBF50"/>
</g>
<g id="Group 2270">
<path id="Path 11998" d="M16.0316 8.57493L15.832 7.60706L20.6409 6.49219L21.0009 8.22498L16.0316 8.57493Z" fill="#FDBF50"/>
<path id="Path 11999" d="M15.4345 6.79455L15.1172 6.32757L18.002 4.66602L18.5702 5.50217L15.4345 6.79455Z" fill="#FDBF50"/>
</g>
<g id="Group 2271">
<path id="Path 12000" d="M14.4858 5.63049L13.5996 4.99844L16.4405 1.51758L18.0266 2.64828L14.4858 5.63049Z" fill="#FDBF50"/>
<path id="Path 12001" d="M12.6828 4.59307L12.084 4.40877L13.0367 1.56055L14.1012 1.8907L12.6828 4.59307Z" fill="#FDBF50"/>
</g>
</g>
</g>
</svg>
