<svg width="15" height="14" viewBox="0 0 15 14" fill="none" xmlns="http://www.w3.org/2000/svg">
<path id="Vector" d="M14.9181 12.8152L11.2974 5.28595C11.2329 5.15206 11.1339 5.03947 11.0113 4.96079C10.8888 4.88211 10.7476 4.84043 10.6036 4.84043C10.4596 4.84043 10.3184 4.88211 10.1959 4.96079C10.0734 5.03947 9.97435 5.15206 9.90987 5.28595L8.58312 8.0422C7.68929 7.96096 6.82863 7.65128 6.07769 7.1407C6.99022 6.03732 7.56105 4.67316 7.71544 3.22683H9.05188C9.25766 3.22683 9.455 3.14184 9.60051 2.99055C9.74601 2.83926 9.82776 2.63407 9.82776 2.42012C9.82776 2.20617 9.74601 2.00098 9.60051 1.84969C9.455 1.69841 9.25766 1.61341 9.05188 1.61341H5.68975V0.806707C5.68975 0.592755 5.60801 0.387566 5.46251 0.236279C5.317 0.0849921 5.11965 0 4.91388 0C4.7081 0 4.51076 0.0849921 4.36525 0.236279C4.21975 0.387566 4.138 0.592755 4.138 0.806707V1.61341H0.775876C0.570101 1.61341 0.372754 1.69841 0.227249 1.84969C0.0817438 2.00098 0 2.20617 0 2.42012C0 2.63407 0.0817438 2.83926 0.227249 2.99055C0.372754 3.14184 0.570101 3.22683 0.775876 3.22683H6.15075C6.00521 4.2782 5.57639 5.26526 4.91388 6.07383C4.59058 5.68047 4.32081 5.24277 4.11214 4.77302C4.07127 4.67422 4.01181 4.58492 3.93727 4.51036C3.86272 4.4358 3.77458 4.3775 3.67805 4.33887C3.58151 4.30025 3.47852 4.28208 3.37513 4.28544C3.27174 4.28881 3.17005 4.31363 3.07602 4.35845C2.982 4.40328 2.89754 4.4672 2.82762 4.54646C2.7577 4.62571 2.70373 4.71871 2.66888 4.81997C2.63403 4.92123 2.61901 5.02871 2.62469 5.1361C2.63038 5.24348 2.65666 5.3486 2.70199 5.44527C2.9734 6.05899 3.32619 6.63014 3.75007 7.14205C2.86709 7.74635 1.83297 8.06797 0.775876 8.06707C0.570101 8.06707 0.372754 8.15206 0.227249 8.30335C0.0817438 8.45464 0 8.65983 0 8.87378C0 9.08773 0.0817438 9.29292 0.227249 9.44421C0.372754 9.59549 0.570101 9.68048 0.775876 9.68048C2.26558 9.68174 3.71624 9.18518 4.91388 8.26404C5.78241 8.9286 6.78671 9.37583 7.84863 9.57091L6.28847 12.8152C6.23998 12.9102 6.21026 13.0144 6.20106 13.1215C6.19186 13.2287 6.20336 13.3367 6.23489 13.4391C6.26642 13.5416 6.31735 13.6365 6.38466 13.7182C6.45198 13.7999 6.53433 13.8667 6.62688 13.9148C6.71942 13.9629 6.82028 13.9913 6.92353 13.9983C7.02678 14.0053 7.13032 13.9907 7.22808 13.9555C7.32583 13.9202 7.41582 13.865 7.49274 13.7931C7.56966 13.7211 7.63197 13.6339 7.676 13.5365L8.49648 11.8317H12.7101L13.53 13.5365C13.5755 13.6313 13.6386 13.7158 13.7156 13.7853C13.7925 13.8547 13.8819 13.9077 13.9786 13.9412C14.0752 13.9747 14.1773 13.9881 14.2789 13.9806C14.3806 13.9731 14.4798 13.9449 14.5709 13.8975C14.6621 13.8502 14.7434 13.7846 14.8102 13.7046C14.8769 13.6246 14.9279 13.5316 14.9601 13.4311C14.9924 13.3306 15.0053 13.2245 14.9981 13.1188C14.9909 13.0132 14.9637 12.91 14.9181 12.8152ZM9.27236 10.2183L10.6036 7.45061L11.9343 10.2183H9.27236Z" fill="#2A2C41"/>
</svg>
