<svg width="24" height="24" viewBox="0 0 24 24" fill="none" xmlns="http://www.w3.org/2000/svg">
<g id="View_fill">
<path id="Subtract" fill-rule="evenodd" clip-rule="evenodd" d="M20.771 12C20.771 11.6412 20.5769 11.4056 20.1888 10.9343C18.7687 9.21014 15.6365 6 12.0007 6C8.36501 6 5.2328 9.21014 3.81271 10.9343C3.42455 11.4056 3.23047 11.6412 3.23047 12C3.23047 12.3588 3.42455 12.5944 3.81271 13.0657C5.2328 14.7899 8.36501 18 12.0007 18C15.6365 18 18.7687 14.7899 20.1888 13.0657C20.5769 12.5944 20.771 12.3588 20.771 12ZM12.0007 15C13.6576 15 15.0007 13.6569 15.0007 12C15.0007 10.3431 13.6576 9 12.0007 9C10.3439 9 9.00075 10.3431 9.00075 12C9.00075 13.6569 10.3439 15 12.0007 15Z" fill="#33363F"/>
</g>
</svg>
